%
M48
M72
T01C0.0236
T02C0.0270
T03C0.0394
T04C0.0552
T05C0.1180
T06C0.1560
%
T01
X14240Y13590
X15700Y13890
X15220Y8170
X16260Y7210
T02
X14475Y11784
X12271Y13319
X11720Y13595
X12665Y14303
X11214Y15603
X9437Y15878
X9673Y13831
X8059Y12217
X11523Y12296
X14233Y15524
X15423Y15523
X13981Y16924
T03
X18776Y8212
X18776Y7212
T04
X13240Y9550
T05
X14170Y5894
X16020Y4713
X14170Y3531
X10880Y4723
X9030Y5904
X9030Y3541
X6020Y4723
X4170Y5904
X4170Y3541
T06
X1300Y1690
X18900Y1890
X18900Y19290
X1300Y19330
M30
