G75*
G70*
%OFA0B0*%
%FSLAX24Y24*%
%IPPOS*%
%LPD*%
%AMOC8*
5,1,8,0,0,1.08239X$1,22.5*
%
%ADD10C,0.0594*%
%ADD11C,0.1700*%
%ADD12C,0.0240*%
%ADD13C,0.0430*%
%ADD14C,0.0396*%
%ADD15C,0.0160*%
%ADD16C,0.0120*%
%ADD17C,0.0829*%
%ADD18C,0.1000*%
D10*
X018479Y007212D02*
X019073Y007212D01*
X019073Y008212D02*
X018479Y008212D01*
D11*
X016020Y004713D03*
X014170Y005894D03*
X014170Y003531D03*
X010880Y004723D03*
X009030Y005904D03*
X009030Y003541D03*
X006020Y004723D03*
X004170Y005904D03*
X004170Y003541D03*
D12*
X008059Y012217D02*
X009673Y013831D01*
X011173Y015126D02*
X011173Y015561D01*
X011214Y015603D01*
X011173Y015126D02*
X014475Y011784D01*
X012271Y013319D02*
X011523Y012571D01*
X011523Y012296D01*
X011720Y013595D02*
X009437Y015878D01*
X012665Y014303D02*
X013013Y014303D01*
X014233Y015524D01*
X015423Y015523D02*
X013981Y016924D01*
D13*
X013981Y016924D03*
X014233Y015524D03*
X015423Y015523D03*
X012665Y014303D03*
X011720Y013595D03*
X012271Y013319D03*
X011523Y012296D03*
X009673Y013831D03*
X008059Y012217D03*
X011214Y015603D03*
X009437Y015878D03*
X014475Y011784D03*
D14*
X014240Y013590D03*
X015700Y013890D03*
X015220Y008170D03*
X016260Y007210D03*
D15*
X015400Y013590D02*
X014240Y013590D01*
X015400Y013590D02*
X015700Y013890D01*
D16*
X001844Y000876D02*
X001496Y000732D01*
X019880Y000770D01*
X019787Y018923D01*
X019714Y018746D01*
X019444Y018476D01*
X019091Y018330D01*
X018709Y018330D01*
X018356Y018476D01*
X018086Y018746D01*
X017940Y019099D01*
X017940Y019481D01*
X018086Y019834D01*
X018356Y020104D01*
X018709Y020250D01*
X019091Y020250D01*
X019444Y020104D01*
X019714Y019834D01*
X019783Y019666D01*
X019780Y020310D01*
X001646Y020226D01*
X001844Y020144D01*
X002114Y019874D01*
X002260Y019521D01*
X002260Y019139D01*
X002114Y018786D01*
X001844Y018516D01*
X001491Y018370D01*
X001109Y018370D01*
X000756Y018516D01*
X000486Y018786D01*
X000381Y019040D01*
X000399Y002023D01*
X000486Y002234D01*
X000756Y002504D01*
X001109Y002650D01*
X001491Y002650D01*
X001844Y002504D01*
X002114Y002234D01*
X002260Y001881D01*
X002260Y001499D01*
X002114Y001146D01*
X001844Y000876D01*
X001770Y000846D02*
X019880Y000846D01*
X019879Y000964D02*
X019173Y000964D01*
X019091Y000930D02*
X019444Y001076D01*
X019714Y001346D01*
X019860Y001699D01*
X019860Y002081D01*
X019714Y002434D01*
X019444Y002704D01*
X019091Y002850D01*
X018709Y002850D01*
X018356Y002704D01*
X018086Y002434D01*
X017940Y002081D01*
X017940Y001699D01*
X018086Y001346D01*
X018356Y001076D01*
X018709Y000930D01*
X019091Y000930D01*
X019450Y001083D02*
X019878Y001083D01*
X019878Y001201D02*
X019569Y001201D01*
X019687Y001320D02*
X019877Y001320D01*
X019877Y001438D02*
X019752Y001438D01*
X019801Y001557D02*
X019876Y001557D01*
X019875Y001675D02*
X019850Y001675D01*
X019860Y001794D02*
X019875Y001794D01*
X019860Y001912D02*
X019874Y001912D01*
X019860Y002031D02*
X019874Y002031D01*
X019873Y002149D02*
X019832Y002149D01*
X019872Y002268D02*
X019783Y002268D01*
X019734Y002386D02*
X019872Y002386D01*
X019871Y002505D02*
X019643Y002505D01*
X019525Y002623D02*
X019871Y002623D01*
X019870Y002742D02*
X019353Y002742D01*
X019869Y002860D02*
X014955Y002860D01*
X014994Y002899D02*
X015130Y003134D01*
X015200Y003396D01*
X015200Y003667D01*
X015130Y003929D01*
X014994Y004164D01*
X014802Y004356D01*
X014568Y004491D01*
X014306Y004561D01*
X014034Y004561D01*
X013772Y004491D01*
X013538Y004356D01*
X013346Y004164D01*
X013210Y003929D01*
X013140Y003667D01*
X013140Y003396D01*
X013210Y003134D01*
X013346Y002899D01*
X013538Y002707D01*
X013772Y002572D01*
X014034Y002501D01*
X014306Y002501D01*
X014568Y002572D01*
X014802Y002707D01*
X014994Y002899D01*
X015040Y002979D02*
X019869Y002979D01*
X019868Y003097D02*
X015108Y003097D01*
X015152Y003216D02*
X019867Y003216D01*
X019867Y003334D02*
X015183Y003334D01*
X015200Y003453D02*
X019866Y003453D01*
X019866Y003571D02*
X015200Y003571D01*
X015194Y003690D02*
X015859Y003690D01*
X015885Y003683D02*
X016156Y003683D01*
X016418Y003753D01*
X016653Y003888D01*
X016845Y004080D01*
X016980Y004315D01*
X017050Y004577D01*
X017050Y004848D01*
X016980Y005110D01*
X016845Y005345D01*
X016653Y005537D01*
X016418Y005672D01*
X016156Y005743D01*
X015885Y005743D01*
X015623Y005672D01*
X015388Y005537D01*
X015196Y005345D01*
X015061Y005110D01*
X014990Y004848D01*
X014990Y004577D01*
X015061Y004315D01*
X015196Y004080D01*
X015388Y003888D01*
X015623Y003753D01*
X015885Y003683D01*
X015527Y003808D02*
X015162Y003808D01*
X015130Y003927D02*
X015350Y003927D01*
X015231Y004045D02*
X015063Y004045D01*
X014994Y004164D02*
X015148Y004164D01*
X015080Y004282D02*
X014876Y004282D01*
X014725Y004401D02*
X015038Y004401D01*
X015006Y004519D02*
X014464Y004519D01*
X014346Y004875D02*
X014997Y004875D01*
X014990Y004756D02*
X000396Y004756D01*
X000396Y004638D02*
X014990Y004638D01*
X015029Y004993D02*
X014670Y004993D01*
X014568Y004934D02*
X014802Y005069D01*
X014994Y005261D01*
X015130Y005496D01*
X015200Y005758D01*
X015200Y006029D01*
X015130Y006291D01*
X014994Y006526D01*
X014802Y006718D01*
X014568Y006854D01*
X014306Y006924D01*
X014034Y006924D01*
X013772Y006854D01*
X013538Y006718D01*
X013346Y006526D01*
X013210Y006291D01*
X013140Y006029D01*
X013140Y005758D01*
X013210Y005496D01*
X013346Y005261D01*
X013538Y005069D01*
X013772Y004934D01*
X014034Y004864D01*
X014306Y004864D01*
X014568Y004934D01*
X014844Y005112D02*
X015061Y005112D01*
X015130Y005230D02*
X014963Y005230D01*
X015045Y005349D02*
X015200Y005349D01*
X015113Y005467D02*
X015318Y005467D01*
X015472Y005586D02*
X015154Y005586D01*
X015186Y005704D02*
X015741Y005704D01*
X016300Y005704D02*
X019855Y005704D01*
X019855Y005586D02*
X016568Y005586D01*
X016723Y005467D02*
X019856Y005467D01*
X019857Y005349D02*
X016841Y005349D01*
X016911Y005230D02*
X019857Y005230D01*
X019858Y005112D02*
X016979Y005112D01*
X017012Y004993D02*
X019858Y004993D01*
X019859Y004875D02*
X017043Y004875D01*
X017050Y004756D02*
X019860Y004756D01*
X019860Y004638D02*
X017050Y004638D01*
X017035Y004519D02*
X019861Y004519D01*
X019861Y004401D02*
X017003Y004401D01*
X016961Y004282D02*
X019862Y004282D01*
X019863Y004164D02*
X016893Y004164D01*
X016809Y004045D02*
X019863Y004045D01*
X019864Y003927D02*
X016691Y003927D01*
X016514Y003808D02*
X019864Y003808D01*
X019865Y003690D02*
X016182Y003690D01*
X014837Y002742D02*
X018447Y002742D01*
X018275Y002623D02*
X014656Y002623D01*
X014317Y002505D02*
X018157Y002505D01*
X018066Y002386D02*
X001962Y002386D01*
X002080Y002268D02*
X018017Y002268D01*
X017968Y002149D02*
X002149Y002149D01*
X002198Y002031D02*
X017940Y002031D01*
X017940Y001912D02*
X002247Y001912D01*
X002260Y001794D02*
X017940Y001794D01*
X017950Y001675D02*
X002260Y001675D01*
X002260Y001557D02*
X017999Y001557D01*
X018048Y001438D02*
X002235Y001438D01*
X002186Y001320D02*
X018113Y001320D01*
X018231Y001201D02*
X002137Y001201D01*
X002050Y001083D02*
X018350Y001083D01*
X018627Y000964D02*
X001932Y000964D01*
X000451Y002149D02*
X000399Y002149D01*
X000399Y002031D02*
X000402Y002031D01*
X000398Y002268D02*
X000520Y002268D01*
X000638Y002386D02*
X000398Y002386D01*
X000398Y002505D02*
X000758Y002505D01*
X001044Y002623D02*
X000398Y002623D01*
X000398Y002742D02*
X013503Y002742D01*
X013385Y002860D02*
X000398Y002860D01*
X000398Y002979D02*
X013300Y002979D01*
X013232Y003097D02*
X000398Y003097D01*
X000397Y003216D02*
X013188Y003216D01*
X013157Y003334D02*
X000397Y003334D01*
X000397Y003453D02*
X013140Y003453D01*
X013140Y003571D02*
X000397Y003571D01*
X000397Y003690D02*
X013146Y003690D01*
X013178Y003808D02*
X000397Y003808D01*
X000397Y003927D02*
X013210Y003927D01*
X013277Y004045D02*
X000397Y004045D01*
X000396Y004164D02*
X013346Y004164D01*
X013464Y004282D02*
X000396Y004282D01*
X000396Y004401D02*
X013615Y004401D01*
X013876Y004519D02*
X000396Y004519D01*
X000396Y004875D02*
X004031Y004875D01*
X004034Y004874D02*
X004306Y004874D01*
X004568Y004944D01*
X004802Y005079D01*
X004994Y005271D01*
X005130Y005506D01*
X005200Y005768D01*
X005200Y006039D01*
X005130Y006301D01*
X004994Y006536D01*
X004802Y006728D01*
X004568Y006864D01*
X004306Y006934D01*
X004034Y006934D01*
X003772Y006864D01*
X003538Y006728D01*
X003346Y006536D01*
X003210Y006301D01*
X003140Y006039D01*
X003140Y005768D01*
X003210Y005506D01*
X003346Y005271D01*
X003538Y005079D01*
X003772Y004944D01*
X004034Y004874D01*
X004309Y004875D02*
X008891Y004875D01*
X008894Y004874D02*
X009166Y004874D01*
X009428Y004944D01*
X009662Y005079D01*
X009854Y005271D01*
X009990Y005506D01*
X010060Y005768D01*
X010060Y006039D01*
X009990Y006301D01*
X009854Y006536D01*
X009662Y006728D01*
X009428Y006864D01*
X009166Y006934D01*
X008894Y006934D01*
X008632Y006864D01*
X008398Y006728D01*
X008206Y006536D01*
X008070Y006301D01*
X008000Y006039D01*
X008000Y005768D01*
X008070Y005506D01*
X008206Y005271D01*
X008398Y005079D01*
X008632Y004944D01*
X008894Y004874D01*
X009169Y004875D02*
X013994Y004875D01*
X013670Y004993D02*
X009513Y004993D01*
X009694Y005112D02*
X013496Y005112D01*
X013377Y005230D02*
X009813Y005230D01*
X009899Y005349D02*
X013295Y005349D01*
X013227Y005467D02*
X009967Y005467D01*
X010011Y005586D02*
X013186Y005586D01*
X013154Y005704D02*
X010043Y005704D01*
X010060Y005823D02*
X013140Y005823D01*
X013140Y005941D02*
X010060Y005941D01*
X010055Y006060D02*
X013148Y006060D01*
X013180Y006178D02*
X010023Y006178D01*
X009991Y006297D02*
X013213Y006297D01*
X013282Y006415D02*
X009924Y006415D01*
X009856Y006534D02*
X013353Y006534D01*
X013472Y006652D02*
X009738Y006652D01*
X009589Y006771D02*
X013629Y006771D01*
X013905Y006889D02*
X009332Y006889D01*
X008728Y006889D02*
X004472Y006889D01*
X004729Y006771D02*
X008471Y006771D01*
X008322Y006652D02*
X004878Y006652D01*
X004996Y006534D02*
X008204Y006534D01*
X008136Y006415D02*
X005064Y006415D01*
X005131Y006297D02*
X008069Y006297D01*
X008037Y006178D02*
X005163Y006178D01*
X005195Y006060D02*
X008005Y006060D01*
X008000Y005941D02*
X005200Y005941D01*
X005200Y005823D02*
X008000Y005823D01*
X008017Y005704D02*
X005183Y005704D01*
X005151Y005586D02*
X008049Y005586D01*
X008093Y005467D02*
X005107Y005467D01*
X005039Y005349D02*
X008161Y005349D01*
X008247Y005230D02*
X004953Y005230D01*
X004834Y005112D02*
X008366Y005112D01*
X008547Y004993D02*
X004653Y004993D01*
X003687Y004993D02*
X000396Y004993D01*
X000396Y005112D02*
X003506Y005112D01*
X003387Y005230D02*
X000395Y005230D01*
X000395Y005349D02*
X003301Y005349D01*
X003233Y005467D02*
X000395Y005467D01*
X000395Y005586D02*
X003189Y005586D01*
X003157Y005704D02*
X000395Y005704D01*
X000395Y005823D02*
X003140Y005823D01*
X003140Y005941D02*
X000395Y005941D01*
X000395Y006060D02*
X003145Y006060D01*
X003177Y006178D02*
X000394Y006178D01*
X000394Y006297D02*
X003209Y006297D01*
X003276Y006415D02*
X000394Y006415D01*
X000394Y006534D02*
X003344Y006534D01*
X003462Y006652D02*
X000394Y006652D01*
X000394Y006771D02*
X003611Y006771D01*
X003868Y006889D02*
X000394Y006889D01*
X000394Y007008D02*
X015935Y007008D01*
X015939Y006996D02*
X016046Y006889D01*
X016185Y006832D01*
X016335Y006832D01*
X016474Y006889D01*
X016556Y006972D01*
X018063Y006972D01*
X018075Y006942D01*
X018209Y006807D01*
X018384Y006735D01*
X019168Y006735D01*
X019343Y006807D01*
X019477Y006942D01*
X019550Y007117D01*
X019550Y007307D01*
X019477Y007482D01*
X019343Y007616D01*
X019168Y007689D01*
X018384Y007689D01*
X018209Y007616D01*
X018075Y007482D01*
X018063Y007452D01*
X016553Y007452D01*
X016474Y007531D01*
X016335Y007588D01*
X016185Y007588D01*
X016172Y007583D01*
X016561Y007972D01*
X018063Y007972D01*
X018075Y007942D01*
X018209Y007807D01*
X018384Y007735D01*
X019168Y007735D01*
X019343Y007807D01*
X019477Y007942D01*
X019550Y008117D01*
X019550Y008307D01*
X019477Y008482D01*
X019343Y008616D01*
X019168Y008689D01*
X018384Y008689D01*
X018209Y008616D01*
X018075Y008482D01*
X018063Y008452D01*
X016414Y008452D01*
X016326Y008415D01*
X016258Y008348D01*
X015681Y007770D01*
X015559Y007770D01*
X015460Y007869D01*
X015460Y007875D01*
X015541Y007956D01*
X015598Y008095D01*
X015598Y008245D01*
X015541Y008384D01*
X015434Y008491D01*
X015295Y008548D01*
X015145Y008548D01*
X015006Y008491D01*
X014899Y008384D01*
X014842Y008245D01*
X014842Y008095D01*
X014899Y007956D01*
X014980Y007875D01*
X014980Y007722D01*
X015017Y007634D01*
X015257Y007394D01*
X015324Y007327D01*
X015412Y007290D01*
X015828Y007290D01*
X015896Y007318D01*
X015882Y007285D01*
X015882Y007135D01*
X015939Y006996D01*
X015886Y007126D02*
X000393Y007126D01*
X000393Y007245D02*
X015882Y007245D01*
X015780Y007530D02*
X016462Y008212D01*
X018776Y008212D01*
X018331Y008667D02*
X000392Y008667D01*
X000392Y008785D02*
X019839Y008785D01*
X019840Y008667D02*
X019221Y008667D01*
X019411Y008548D02*
X019840Y008548D01*
X019841Y008430D02*
X019499Y008430D01*
X019548Y008311D02*
X019841Y008311D01*
X019842Y008193D02*
X019550Y008193D01*
X019532Y008074D02*
X019843Y008074D01*
X019843Y007956D02*
X019483Y007956D01*
X019373Y007837D02*
X019844Y007837D01*
X019844Y007719D02*
X016308Y007719D01*
X016426Y007837D02*
X018180Y007837D01*
X018069Y007956D02*
X016545Y007956D01*
X016523Y007482D02*
X018075Y007482D01*
X018193Y007600D02*
X016189Y007600D01*
X016262Y007212D02*
X018776Y007212D01*
X018298Y006771D02*
X014711Y006771D01*
X014868Y006652D02*
X019850Y006652D01*
X019851Y006534D02*
X014987Y006534D01*
X015058Y006415D02*
X019851Y006415D01*
X019852Y006297D02*
X015127Y006297D01*
X015160Y006178D02*
X019852Y006178D01*
X019853Y006060D02*
X015192Y006060D01*
X015200Y005941D02*
X019854Y005941D01*
X019854Y005823D02*
X015200Y005823D01*
X014435Y006889D02*
X016047Y006889D01*
X016260Y007210D02*
X016262Y007212D01*
X016473Y006889D02*
X018128Y006889D01*
X019254Y006771D02*
X019849Y006771D01*
X019849Y006889D02*
X019425Y006889D01*
X019505Y007008D02*
X019848Y007008D01*
X019847Y007126D02*
X019550Y007126D01*
X019550Y007245D02*
X019847Y007245D01*
X019846Y007363D02*
X019526Y007363D01*
X019477Y007482D02*
X019846Y007482D01*
X019845Y007600D02*
X019359Y007600D01*
X018141Y008548D02*
X015295Y008548D01*
X015145Y008548D02*
X000392Y008548D01*
X000392Y008430D02*
X014945Y008430D01*
X014869Y008311D02*
X000392Y008311D01*
X000392Y008193D02*
X014842Y008193D01*
X014850Y008074D02*
X000392Y008074D01*
X000393Y007956D02*
X014900Y007956D01*
X014980Y007837D02*
X000393Y007837D01*
X000393Y007719D02*
X014982Y007719D01*
X015051Y007600D02*
X000393Y007600D01*
X000393Y007482D02*
X015169Y007482D01*
X015288Y007363D02*
X000393Y007363D01*
X000392Y008904D02*
X019838Y008904D01*
X019838Y009022D02*
X000391Y009022D01*
X000391Y009141D02*
X019837Y009141D01*
X019837Y009259D02*
X000391Y009259D01*
X000391Y009378D02*
X019836Y009378D01*
X019835Y009496D02*
X000391Y009496D01*
X000391Y009615D02*
X019835Y009615D01*
X019834Y009733D02*
X000391Y009733D01*
X000391Y009852D02*
X019834Y009852D01*
X019833Y009970D02*
X000391Y009970D01*
X000390Y010089D02*
X019832Y010089D01*
X019832Y010207D02*
X000390Y010207D01*
X000390Y010326D02*
X019831Y010326D01*
X019830Y010444D02*
X000390Y010444D01*
X000390Y010563D02*
X019830Y010563D01*
X019829Y010681D02*
X000390Y010681D01*
X000390Y010800D02*
X019829Y010800D01*
X019828Y010918D02*
X000390Y010918D01*
X000389Y011037D02*
X019827Y011037D01*
X019827Y011155D02*
X000389Y011155D01*
X000389Y011274D02*
X019826Y011274D01*
X019826Y011392D02*
X014561Y011392D01*
X014553Y011389D02*
X014698Y011449D01*
X014810Y011560D01*
X014870Y011705D01*
X014870Y011862D01*
X014810Y012007D01*
X014698Y012119D01*
X014553Y012179D01*
X014506Y012179D01*
X012782Y013924D01*
X012889Y013969D01*
X012923Y014003D01*
X013073Y014003D01*
X013183Y014049D01*
X014263Y015129D01*
X014312Y015129D01*
X014457Y015189D01*
X014568Y015300D01*
X014628Y015445D01*
X014628Y015602D01*
X014568Y015748D01*
X014457Y015859D01*
X014312Y015919D01*
X014155Y015919D01*
X014010Y015859D01*
X013899Y015748D01*
X013838Y015602D01*
X013838Y015553D01*
X012906Y014621D01*
X012889Y014638D01*
X012743Y014698D01*
X012586Y014698D01*
X012441Y014638D01*
X012330Y014527D01*
X012288Y014425D01*
X011473Y015250D01*
X011473Y015302D01*
X011549Y015379D01*
X011609Y015524D01*
X011609Y015681D01*
X011549Y015826D01*
X011438Y015937D01*
X011293Y015998D01*
X011136Y015998D01*
X010991Y015937D01*
X010880Y015826D01*
X010819Y015681D01*
X010819Y015524D01*
X010873Y015396D01*
X010873Y015127D01*
X010872Y015069D01*
X010873Y015068D01*
X010873Y015067D01*
X010895Y015012D01*
X010917Y014958D01*
X010918Y014957D01*
X010918Y014956D01*
X010960Y014915D01*
X011926Y013937D01*
X011799Y013990D01*
X011749Y013990D01*
X009832Y015907D01*
X009832Y015957D01*
X009771Y016102D01*
X009660Y016213D01*
X009515Y016273D01*
X009358Y016273D01*
X009213Y016213D01*
X009102Y016102D01*
X009042Y015957D01*
X009042Y015800D01*
X009102Y015654D01*
X009213Y015543D01*
X009358Y015483D01*
X009407Y015483D01*
X011325Y013565D01*
X011325Y013516D01*
X011385Y013371D01*
X011496Y013260D01*
X011641Y013200D01*
X011728Y013200D01*
X011269Y012741D01*
X011223Y012631D01*
X011223Y012554D01*
X011188Y012519D01*
X011128Y012374D01*
X011128Y012217D01*
X011188Y012072D01*
X011299Y011961D01*
X011445Y011901D01*
X011602Y011901D01*
X011747Y011961D01*
X011858Y012072D01*
X011918Y012217D01*
X011918Y012374D01*
X011869Y012493D01*
X012300Y012924D01*
X012350Y012924D01*
X012495Y012984D01*
X012606Y013095D01*
X012651Y013203D01*
X014080Y011757D01*
X014080Y011705D01*
X014140Y011560D01*
X014251Y011449D01*
X014396Y011389D01*
X014553Y011389D01*
X014388Y011392D02*
X000389Y011392D01*
X000389Y011511D02*
X014189Y011511D01*
X014111Y011629D02*
X000389Y011629D01*
X000389Y011748D02*
X014080Y011748D01*
X013972Y011866D02*
X008244Y011866D01*
X008282Y011882D02*
X008393Y011993D01*
X008454Y012138D01*
X008454Y012188D01*
X009702Y013436D01*
X009751Y013436D01*
X009897Y013496D01*
X010008Y013607D01*
X010068Y013752D01*
X010068Y013910D01*
X010008Y014055D01*
X009897Y014166D01*
X009751Y014226D01*
X009594Y014226D01*
X009449Y014166D01*
X009338Y014055D01*
X009278Y013910D01*
X009278Y013860D01*
X008029Y012612D01*
X007980Y012612D01*
X007835Y012552D01*
X007724Y012441D01*
X007664Y012295D01*
X007664Y012138D01*
X007724Y011993D01*
X007835Y011882D01*
X007980Y011822D01*
X008137Y011822D01*
X008282Y011882D01*
X008385Y011985D02*
X011276Y011985D01*
X011175Y012103D02*
X008439Y012103D01*
X008488Y012222D02*
X011128Y012222D01*
X011128Y012340D02*
X008606Y012340D01*
X008725Y012459D02*
X011163Y012459D01*
X011223Y012577D02*
X008843Y012577D01*
X008962Y012696D02*
X011250Y012696D01*
X011342Y012814D02*
X009080Y012814D01*
X009199Y012933D02*
X011460Y012933D01*
X011579Y013051D02*
X009317Y013051D01*
X009436Y013170D02*
X011697Y013170D01*
X011468Y013288D02*
X009554Y013288D01*
X009673Y013407D02*
X011370Y013407D01*
X011325Y013525D02*
X009925Y013525D01*
X010023Y013644D02*
X011247Y013644D01*
X011128Y013762D02*
X010068Y013762D01*
X010068Y013881D02*
X011010Y013881D01*
X010891Y013999D02*
X010031Y013999D01*
X009945Y014118D02*
X010773Y014118D01*
X010654Y014236D02*
X000386Y014236D01*
X000386Y014118D02*
X009401Y014118D01*
X009315Y013999D02*
X000386Y013999D01*
X000387Y013881D02*
X009278Y013881D01*
X009180Y013762D02*
X000387Y013762D01*
X000387Y013644D02*
X009061Y013644D01*
X008943Y013525D02*
X000387Y013525D01*
X000387Y013407D02*
X008824Y013407D01*
X008706Y013288D02*
X000387Y013288D01*
X000387Y013170D02*
X008587Y013170D01*
X008469Y013051D02*
X000387Y013051D01*
X000387Y012933D02*
X008350Y012933D01*
X008232Y012814D02*
X000388Y012814D01*
X000388Y012696D02*
X008113Y012696D01*
X007896Y012577D02*
X000388Y012577D01*
X000388Y012459D02*
X007742Y012459D01*
X007682Y012340D02*
X000388Y012340D01*
X000388Y012222D02*
X007664Y012222D01*
X007678Y012103D02*
X000388Y012103D01*
X000388Y011985D02*
X007732Y011985D01*
X007873Y011866D02*
X000389Y011866D01*
X000386Y014355D02*
X010536Y014355D01*
X010417Y014473D02*
X000386Y014473D01*
X000386Y014592D02*
X010299Y014592D01*
X010180Y014710D02*
X000386Y014710D01*
X000386Y014829D02*
X010062Y014829D01*
X009943Y014947D02*
X000385Y014947D01*
X000385Y015066D02*
X009825Y015066D01*
X009706Y015184D02*
X000385Y015184D01*
X000385Y015303D02*
X009588Y015303D01*
X009469Y015421D02*
X000385Y015421D01*
X000385Y015540D02*
X009222Y015540D01*
X009100Y015658D02*
X000385Y015658D01*
X000385Y015777D02*
X009051Y015777D01*
X009042Y015895D02*
X000384Y015895D01*
X000384Y016014D02*
X009065Y016014D01*
X009132Y016132D02*
X000384Y016132D01*
X000384Y016251D02*
X009303Y016251D01*
X009570Y016251D02*
X014244Y016251D01*
X014122Y016369D02*
X000384Y016369D01*
X000384Y016488D02*
X014000Y016488D01*
X013957Y016529D02*
X015028Y015488D01*
X015028Y015444D01*
X015088Y015299D01*
X015199Y015188D01*
X015344Y015128D01*
X015501Y015128D01*
X015646Y015188D01*
X015758Y015299D01*
X015818Y015444D01*
X015818Y015601D01*
X015758Y015746D01*
X015646Y015857D01*
X015501Y015918D01*
X015447Y015918D01*
X014376Y016959D01*
X014376Y017003D01*
X014316Y017148D01*
X014205Y017259D01*
X014060Y017319D01*
X013902Y017319D01*
X013757Y017259D01*
X013646Y017148D01*
X013586Y017003D01*
X013586Y016846D01*
X013646Y016701D01*
X013757Y016589D01*
X013902Y016529D01*
X013957Y016529D01*
X013741Y016606D02*
X000384Y016606D01*
X000384Y016725D02*
X013636Y016725D01*
X013587Y016843D02*
X000383Y016843D01*
X000383Y016962D02*
X013586Y016962D01*
X013618Y017080D02*
X000383Y017080D01*
X000383Y017199D02*
X013697Y017199D01*
X013897Y017317D02*
X000383Y017317D01*
X000383Y017436D02*
X019795Y017436D01*
X019794Y017554D02*
X000383Y017554D01*
X000383Y017673D02*
X019793Y017673D01*
X019793Y017791D02*
X000382Y017791D01*
X000382Y017910D02*
X019792Y017910D01*
X019792Y018028D02*
X000382Y018028D01*
X000382Y018147D02*
X019791Y018147D01*
X019790Y018265D02*
X000382Y018265D01*
X000382Y018384D02*
X001076Y018384D01*
X000790Y018502D02*
X000382Y018502D01*
X000382Y018621D02*
X000652Y018621D01*
X000533Y018739D02*
X000382Y018739D01*
X000381Y018858D02*
X000457Y018858D01*
X000408Y018976D02*
X000381Y018976D01*
X001524Y018384D02*
X018580Y018384D01*
X018330Y018502D02*
X001810Y018502D01*
X001948Y018621D02*
X018212Y018621D01*
X018093Y018739D02*
X002067Y018739D01*
X002143Y018858D02*
X018040Y018858D01*
X017991Y018976D02*
X002192Y018976D01*
X002242Y019095D02*
X017942Y019095D01*
X017940Y019213D02*
X002260Y019213D01*
X002260Y019332D02*
X017940Y019332D01*
X017940Y019450D02*
X002260Y019450D01*
X002240Y019569D02*
X017976Y019569D01*
X018025Y019687D02*
X002191Y019687D01*
X002142Y019806D02*
X018074Y019806D01*
X018176Y019924D02*
X002064Y019924D01*
X001945Y020043D02*
X018295Y020043D01*
X018494Y020161D02*
X001802Y020161D01*
X009741Y016132D02*
X014365Y016132D01*
X014487Y016014D02*
X009808Y016014D01*
X009844Y015895D02*
X010948Y015895D01*
X010859Y015777D02*
X009962Y015777D01*
X010081Y015658D02*
X010819Y015658D01*
X010819Y015540D02*
X010199Y015540D01*
X010318Y015421D02*
X010862Y015421D01*
X010873Y015303D02*
X010436Y015303D01*
X010555Y015184D02*
X010873Y015184D01*
X010873Y015066D02*
X010673Y015066D01*
X010792Y014947D02*
X010928Y014947D01*
X010910Y014829D02*
X011045Y014829D01*
X011029Y014710D02*
X011162Y014710D01*
X011147Y014592D02*
X011279Y014592D01*
X011266Y014473D02*
X011396Y014473D01*
X011384Y014355D02*
X011513Y014355D01*
X011503Y014236D02*
X011630Y014236D01*
X011621Y014118D02*
X011747Y014118D01*
X011740Y013999D02*
X011865Y013999D01*
X012240Y014473D02*
X012308Y014473D01*
X012394Y014592D02*
X012123Y014592D01*
X012006Y014710D02*
X012995Y014710D01*
X013114Y014829D02*
X011889Y014829D01*
X011771Y014947D02*
X013232Y014947D01*
X013351Y015066D02*
X011654Y015066D01*
X011537Y015184D02*
X013469Y015184D01*
X013588Y015303D02*
X011473Y015303D01*
X011567Y015421D02*
X013706Y015421D01*
X013825Y015540D02*
X011609Y015540D01*
X011609Y015658D02*
X013861Y015658D01*
X013927Y015777D02*
X011570Y015777D01*
X011481Y015895D02*
X014097Y015895D01*
X014369Y015895D02*
X014609Y015895D01*
X014539Y015777D02*
X014731Y015777D01*
X014853Y015658D02*
X014605Y015658D01*
X014628Y015540D02*
X014975Y015540D01*
X015037Y015421D02*
X014618Y015421D01*
X014569Y015303D02*
X015086Y015303D01*
X015208Y015184D02*
X014445Y015184D01*
X014199Y015066D02*
X019807Y015066D01*
X019806Y015184D02*
X015637Y015184D01*
X015759Y015303D02*
X019806Y015303D01*
X019805Y015421D02*
X015808Y015421D01*
X015818Y015540D02*
X019804Y015540D01*
X019804Y015658D02*
X015794Y015658D01*
X015727Y015777D02*
X019803Y015777D01*
X019803Y015895D02*
X015556Y015895D01*
X015348Y016014D02*
X019802Y016014D01*
X019801Y016132D02*
X015226Y016132D01*
X015104Y016251D02*
X019801Y016251D01*
X019800Y016369D02*
X014982Y016369D01*
X014861Y016488D02*
X019800Y016488D01*
X019799Y016606D02*
X014739Y016606D01*
X014617Y016725D02*
X019798Y016725D01*
X019798Y016843D02*
X014495Y016843D01*
X014376Y016962D02*
X019797Y016962D01*
X019797Y017080D02*
X014344Y017080D01*
X014265Y017199D02*
X019796Y017199D01*
X019795Y017317D02*
X014065Y017317D01*
X014081Y014947D02*
X019807Y014947D01*
X019808Y014829D02*
X013962Y014829D01*
X013844Y014710D02*
X019809Y014710D01*
X019809Y014592D02*
X013725Y014592D01*
X013607Y014473D02*
X019810Y014473D01*
X019810Y014355D02*
X013488Y014355D01*
X013370Y014236D02*
X015547Y014236D01*
X015486Y014211D02*
X015379Y014104D01*
X015322Y013965D01*
X015322Y013880D01*
X015292Y013850D01*
X014515Y013850D01*
X014454Y013911D01*
X014315Y013968D01*
X014165Y013968D01*
X014026Y013911D01*
X013919Y013804D01*
X013862Y013665D01*
X013862Y013515D01*
X013919Y013376D01*
X014026Y013269D01*
X014165Y013212D01*
X014315Y013212D01*
X014454Y013269D01*
X014515Y013330D01*
X015452Y013330D01*
X015547Y013370D01*
X015690Y013512D01*
X015775Y013512D01*
X015914Y013569D01*
X016021Y013676D01*
X016078Y013815D01*
X016078Y013965D01*
X016021Y014104D01*
X015914Y014211D01*
X015775Y014268D01*
X015625Y014268D01*
X015486Y014211D01*
X015393Y014118D02*
X013251Y014118D01*
X012919Y013999D02*
X015336Y013999D01*
X015322Y013881D02*
X014484Y013881D01*
X013996Y013881D02*
X012825Y013881D01*
X012942Y013762D02*
X013902Y013762D01*
X013862Y013644D02*
X013059Y013644D01*
X013176Y013525D02*
X013862Y013525D01*
X013907Y013407D02*
X013293Y013407D01*
X013410Y013288D02*
X014007Y013288D01*
X013644Y013051D02*
X019817Y013051D01*
X019818Y012933D02*
X013761Y012933D01*
X013879Y012814D02*
X019818Y012814D01*
X019819Y012696D02*
X013996Y012696D01*
X014113Y012577D02*
X019820Y012577D01*
X019820Y012459D02*
X014230Y012459D01*
X014347Y012340D02*
X019821Y012340D01*
X019821Y012222D02*
X014464Y012222D01*
X014714Y012103D02*
X019822Y012103D01*
X019823Y011985D02*
X014819Y011985D01*
X014868Y011866D02*
X019823Y011866D01*
X019824Y011748D02*
X014870Y011748D01*
X014838Y011629D02*
X019824Y011629D01*
X019825Y011511D02*
X014760Y011511D01*
X013855Y011985D02*
X011771Y011985D01*
X011871Y012103D02*
X013738Y012103D01*
X013620Y012222D02*
X011918Y012222D01*
X011918Y012340D02*
X013503Y012340D01*
X013386Y012459D02*
X011883Y012459D01*
X011953Y012577D02*
X013269Y012577D01*
X013152Y012696D02*
X012072Y012696D01*
X012190Y012814D02*
X013035Y012814D01*
X012918Y012933D02*
X012370Y012933D01*
X012562Y013051D02*
X012801Y013051D01*
X012684Y013170D02*
X012637Y013170D01*
X013527Y013170D02*
X019817Y013170D01*
X019816Y013288D02*
X014473Y013288D01*
X015584Y013407D02*
X019815Y013407D01*
X019815Y013525D02*
X015807Y013525D01*
X015988Y013644D02*
X019814Y013644D01*
X019814Y013762D02*
X016056Y013762D01*
X016078Y013881D02*
X019813Y013881D01*
X019812Y013999D02*
X016064Y013999D01*
X016007Y014118D02*
X019812Y014118D01*
X019811Y014236D02*
X015853Y014236D01*
X019220Y018384D02*
X019790Y018384D01*
X019789Y018502D02*
X019470Y018502D01*
X019588Y018621D02*
X019789Y018621D01*
X019788Y018739D02*
X019707Y018739D01*
X019760Y018858D02*
X019787Y018858D01*
X019775Y019687D02*
X019783Y019687D01*
X019783Y019806D02*
X019726Y019806D01*
X019782Y019924D02*
X019624Y019924D01*
X019505Y020043D02*
X019781Y020043D01*
X019781Y020161D02*
X019306Y020161D01*
X019780Y020280D02*
X013214Y020280D01*
X015495Y008430D02*
X016360Y008430D01*
X016222Y008311D02*
X015571Y008311D01*
X015598Y008193D02*
X016103Y008193D01*
X015985Y008074D02*
X015590Y008074D01*
X015540Y007956D02*
X015866Y007956D01*
X015748Y007837D02*
X015492Y007837D01*
X015220Y007770D02*
X015460Y007530D01*
X015780Y007530D01*
X015220Y007770D02*
X015220Y008170D01*
X013684Y002623D02*
X001556Y002623D01*
X001842Y002505D02*
X014023Y002505D01*
D17*
X013240Y009550D03*
D18*
X011520Y009470D01*
X009600Y007550D01*
M02*
