G75*
G70*
%OFA0B0*%
%FSLAX24Y24*%
%IPPOS*%
%LPD*%
%AMOC8*
5,1,8,0,0,1.08239X$1,22.5*
%
%ADD10R,0.0402X0.0161*%
%ADD11R,0.0709X0.0630*%
%ADD12R,0.0630X0.0709*%
%ADD13R,0.0630X0.0710*%
%ADD14R,0.0610X0.0118*%
%ADD15R,0.1772X0.1024*%
%ADD16C,0.0594*%
%ADD17R,0.0965X0.1850*%
%ADD18C,0.1700*%
%ADD19C,0.0120*%
%ADD20C,0.0430*%
%ADD21C,0.0160*%
%ADD22C,0.0100*%
%ADD23C,0.0400*%
%ADD24C,0.0240*%
%ADD25C,0.0396*%
%ADD26C,0.0500*%
%ADD27C,0.0320*%
%ADD28C,0.1000*%
%ADD29C,0.0829*%
D10*
X006065Y011065D03*
X006065Y011321D03*
X006065Y011577D03*
X006065Y011833D03*
X007954Y011833D03*
X007954Y011577D03*
X007954Y011321D03*
X007954Y011065D03*
D11*
X005129Y011331D03*
X005129Y012433D03*
X010200Y014599D03*
X010200Y015701D03*
X016149Y013107D03*
X016149Y012004D03*
X017444Y015103D03*
X017444Y016205D03*
D12*
X015334Y014839D03*
X014232Y014839D03*
X007681Y012949D03*
X006578Y012949D03*
D13*
X007942Y014408D03*
X009061Y014408D03*
X007713Y015921D03*
X006593Y015921D03*
X006240Y016866D03*
X005121Y016866D03*
X010074Y018445D03*
X011193Y018445D03*
X011504Y017028D03*
X012623Y017028D03*
X010189Y009029D03*
X009070Y009029D03*
X007689Y009049D03*
X006570Y009049D03*
D14*
X012937Y011532D03*
X012937Y011788D03*
X012937Y012044D03*
X012937Y012299D03*
X012937Y012555D03*
X012937Y012811D03*
X012937Y013067D03*
X015141Y013067D03*
X015141Y012811D03*
X015141Y012555D03*
X015141Y012299D03*
X015141Y012044D03*
X015141Y011788D03*
X015141Y011532D03*
D15*
X009951Y010866D03*
X009951Y012796D03*
D16*
X018479Y008212D02*
X019073Y008212D01*
X019073Y007212D02*
X018479Y007212D01*
D17*
X016651Y009536D03*
X014427Y009536D03*
D18*
X014170Y005894D03*
X016020Y004713D03*
X014170Y003531D03*
X010880Y004723D03*
X009030Y005904D03*
X009030Y003541D03*
X006020Y004723D03*
X004170Y005904D03*
X004170Y003541D03*
D19*
X001866Y000842D02*
X001547Y000710D01*
X013140Y000710D01*
X013140Y003241D01*
X013100Y003391D01*
X013100Y003672D01*
X013140Y003822D01*
X013140Y004250D01*
X015060Y005770D01*
X015060Y006890D01*
X011780Y006810D01*
X011780Y005304D01*
X011877Y005136D01*
X011950Y004863D01*
X011950Y004582D01*
X011877Y004310D01*
X011780Y004141D01*
X011780Y002330D01*
X003060Y002330D01*
X003060Y004890D01*
X004580Y004890D01*
X004660Y004970D01*
X004660Y007130D01*
X005220Y008490D01*
X005640Y008910D01*
X005640Y010790D01*
X005040Y010670D01*
X004440Y011270D01*
X004440Y011390D01*
X003960Y011870D01*
X003960Y013190D01*
X004560Y013790D01*
X005520Y013790D01*
X005880Y014150D01*
X005880Y015950D01*
X005640Y016190D01*
X005640Y017270D01*
X005400Y017510D01*
X003720Y017510D01*
X000320Y017472D01*
X000320Y001937D01*
X000452Y002256D01*
X000734Y002538D01*
X001101Y002690D01*
X001499Y002690D01*
X001866Y002538D01*
X002148Y002256D01*
X002300Y001889D01*
X002300Y001491D01*
X002148Y001124D01*
X001866Y000842D01*
X001870Y000846D02*
X013140Y000846D01*
X013140Y000964D02*
X001988Y000964D01*
X002107Y001083D02*
X013140Y001083D01*
X013140Y001201D02*
X002180Y001201D01*
X002229Y001320D02*
X013140Y001320D01*
X013140Y001438D02*
X002278Y001438D01*
X002300Y001557D02*
X013140Y001557D01*
X013140Y001675D02*
X002300Y001675D01*
X002300Y001794D02*
X013140Y001794D01*
X013140Y001912D02*
X002290Y001912D01*
X002241Y002031D02*
X013140Y002031D01*
X013140Y002149D02*
X002192Y002149D01*
X002137Y002268D02*
X013140Y002268D01*
X013140Y002386D02*
X011780Y002386D01*
X011780Y002505D02*
X013140Y002505D01*
X013140Y002623D02*
X011780Y002623D01*
X011780Y002742D02*
X013140Y002742D01*
X013140Y002860D02*
X011780Y002860D01*
X011780Y002979D02*
X013140Y002979D01*
X013140Y003097D02*
X011780Y003097D01*
X011780Y003216D02*
X013140Y003216D01*
X013115Y003334D02*
X011780Y003334D01*
X011780Y003453D02*
X013100Y003453D01*
X013100Y003571D02*
X011780Y003571D01*
X011780Y003690D02*
X013105Y003690D01*
X013136Y003808D02*
X011780Y003808D01*
X011780Y003927D02*
X013140Y003927D01*
X013140Y004045D02*
X011780Y004045D01*
X011793Y004164D02*
X013140Y004164D01*
X013180Y004282D02*
X011862Y004282D01*
X011902Y004401D02*
X013330Y004401D01*
X013480Y004519D02*
X011934Y004519D01*
X011950Y004638D02*
X013629Y004638D01*
X013779Y004756D02*
X011950Y004756D01*
X011947Y004875D02*
X013929Y004875D01*
X014079Y004993D02*
X011916Y004993D01*
X011884Y005112D02*
X014228Y005112D01*
X014378Y005230D02*
X011823Y005230D01*
X011780Y005349D02*
X014528Y005349D01*
X014677Y005467D02*
X011780Y005467D01*
X011780Y005586D02*
X014827Y005586D01*
X014977Y005704D02*
X011780Y005704D01*
X011780Y005823D02*
X015060Y005823D01*
X015060Y005941D02*
X011780Y005941D01*
X011780Y006060D02*
X015060Y006060D01*
X015060Y006178D02*
X011780Y006178D01*
X011780Y006297D02*
X015060Y006297D01*
X015060Y006415D02*
X011780Y006415D01*
X011780Y006534D02*
X015060Y006534D01*
X015060Y006652D02*
X011780Y006652D01*
X011780Y006771D02*
X015060Y006771D01*
X015060Y006889D02*
X015020Y006889D01*
X015840Y007630D02*
X016260Y007210D01*
X015840Y007630D02*
X015840Y010430D01*
X015360Y010910D01*
X014400Y010910D01*
X014160Y010670D02*
X015240Y010670D01*
X015480Y010430D01*
X015480Y008430D01*
X015220Y008170D01*
X016200Y008750D02*
X016200Y010670D01*
X016080Y010670D01*
X015242Y011508D01*
X015356Y011508D01*
X015365Y011504D01*
X015669Y011504D01*
X015704Y011469D01*
X016595Y011469D01*
X016723Y011598D01*
X016723Y011673D01*
X016800Y011750D01*
X016800Y012710D01*
X016320Y012950D01*
X015960Y012950D01*
X015898Y013262D01*
X015898Y013335D01*
X015869Y013404D01*
X015840Y013550D01*
X015360Y014030D01*
X015360Y015470D01*
X015600Y015710D01*
X015960Y015710D01*
X016200Y015470D01*
X018120Y015470D01*
X018220Y015110D01*
X018225Y008666D01*
X018187Y008650D01*
X018041Y008504D01*
X017962Y008314D01*
X017962Y008109D01*
X018041Y007919D01*
X018187Y007773D01*
X018226Y007757D01*
X018226Y007666D01*
X018187Y007650D01*
X018041Y007504D01*
X017962Y007314D01*
X017962Y007109D01*
X018041Y006919D01*
X018187Y006773D01*
X018227Y006757D01*
X018230Y003070D01*
X018120Y002670D01*
X014010Y002740D01*
X013520Y003510D01*
X014200Y004270D01*
X014800Y004820D01*
X015600Y005490D01*
X016800Y005500D01*
X016820Y007450D01*
X016800Y008150D01*
X016200Y008750D01*
X016200Y008785D02*
X018225Y008785D01*
X018225Y008667D02*
X016283Y008667D01*
X016402Y008548D02*
X018085Y008548D01*
X018010Y008430D02*
X016520Y008430D01*
X016639Y008311D02*
X017962Y008311D01*
X018059Y008359D02*
X016891Y009526D01*
X016651Y009536D01*
X016771Y010695D01*
X016035Y010695D01*
X015342Y011508D01*
X016523Y011508D01*
X016799Y011784D01*
X016799Y012729D01*
X016405Y013083D01*
X016173Y013083D01*
X016149Y013107D01*
X016169Y013126D01*
X016165Y013126D01*
X015342Y013949D01*
X015342Y014591D01*
X015334Y014839D01*
X015303Y014630D01*
X015303Y015603D01*
X015430Y015540D02*
X016130Y015540D01*
X016012Y015658D02*
X015548Y015658D01*
X015360Y015421D02*
X018134Y015421D01*
X018205Y015421D02*
X019680Y015421D01*
X019680Y015303D02*
X018205Y015303D01*
X018167Y015303D02*
X015360Y015303D01*
X015360Y015184D02*
X018199Y015184D01*
X018206Y015184D02*
X019680Y015184D01*
X019680Y015066D02*
X018206Y015066D01*
X018220Y015066D02*
X015360Y015066D01*
X015360Y014947D02*
X018220Y014947D01*
X018207Y014947D02*
X019680Y014947D01*
X019680Y014870D02*
X019740Y013960D01*
X018210Y013950D01*
X018200Y016910D01*
X014880Y016910D01*
X014520Y016790D01*
X012480Y016790D01*
X012480Y017390D01*
X012360Y017510D01*
X010920Y017870D01*
X010920Y018590D01*
X011040Y018710D01*
X018066Y018710D01*
X018334Y018442D01*
X018701Y018290D01*
X019099Y018290D01*
X019383Y018407D01*
X019680Y018110D01*
X019680Y014870D01*
X019683Y014829D02*
X018207Y014829D01*
X018220Y014829D02*
X015360Y014829D01*
X015360Y014710D02*
X018220Y014710D01*
X018207Y014710D02*
X019691Y014710D01*
X019698Y014592D02*
X018208Y014592D01*
X018220Y014592D02*
X015360Y014592D01*
X015360Y014473D02*
X018221Y014473D01*
X018208Y014473D02*
X019706Y014473D01*
X019714Y014355D02*
X018209Y014355D01*
X018221Y014355D02*
X015360Y014355D01*
X015360Y014236D02*
X018221Y014236D01*
X018209Y014236D02*
X019722Y014236D01*
X019730Y014118D02*
X018209Y014118D01*
X018221Y014118D02*
X015360Y014118D01*
X015391Y013999D02*
X018221Y013999D01*
X018210Y013999D02*
X019737Y013999D01*
X018221Y013881D02*
X015509Y013881D01*
X015628Y013762D02*
X018221Y013762D01*
X018221Y013644D02*
X015746Y013644D01*
X015845Y013525D02*
X018221Y013525D01*
X018221Y013407D02*
X015869Y013407D01*
X015898Y013288D02*
X018222Y013288D01*
X018222Y013170D02*
X015916Y013170D01*
X015940Y013051D02*
X018222Y013051D01*
X018222Y012933D02*
X016355Y012933D01*
X016592Y012814D02*
X018222Y012814D01*
X018222Y012696D02*
X016800Y012696D01*
X016800Y012577D02*
X018222Y012577D01*
X018222Y012459D02*
X016800Y012459D01*
X016800Y012340D02*
X018222Y012340D01*
X018222Y012222D02*
X016800Y012222D01*
X016800Y012103D02*
X018222Y012103D01*
X018223Y011985D02*
X016800Y011985D01*
X016800Y011866D02*
X018223Y011866D01*
X018223Y011748D02*
X016798Y011748D01*
X016723Y011629D02*
X018223Y011629D01*
X018223Y011511D02*
X016636Y011511D01*
X016149Y012004D02*
X015917Y012004D01*
X015696Y011784D01*
X015421Y011784D01*
X015417Y011788D01*
X015141Y011788D01*
X014755Y011788D01*
X014515Y011784D01*
X014475Y011784D01*
X014040Y011270D02*
X014040Y012470D01*
X014381Y012811D01*
X014440Y012811D02*
X015141Y012811D01*
X015118Y013044D02*
X015141Y013067D01*
X015118Y013044D02*
X014134Y013044D01*
X013680Y012590D01*
X013680Y011150D01*
X014160Y010670D01*
X015141Y011532D02*
X015169Y011532D01*
X015185Y011547D01*
X015358Y011392D02*
X018223Y011392D01*
X018223Y011274D02*
X015476Y011274D01*
X015595Y011155D02*
X018223Y011155D01*
X018223Y011037D02*
X015713Y011037D01*
X015832Y010918D02*
X018223Y010918D01*
X018224Y010800D02*
X015950Y010800D01*
X016069Y010681D02*
X018224Y010681D01*
X018224Y010563D02*
X016200Y010563D01*
X016200Y010444D02*
X018224Y010444D01*
X018224Y010326D02*
X016200Y010326D01*
X016200Y010207D02*
X018224Y010207D01*
X018224Y010089D02*
X016200Y010089D01*
X016200Y009970D02*
X018224Y009970D01*
X018224Y009852D02*
X016200Y009852D01*
X016200Y009733D02*
X018224Y009733D01*
X018225Y009615D02*
X016200Y009615D01*
X016200Y009496D02*
X018225Y009496D01*
X018225Y009378D02*
X016200Y009378D01*
X016200Y009259D02*
X018225Y009259D01*
X018225Y009141D02*
X016200Y009141D01*
X016200Y009022D02*
X018225Y009022D01*
X018225Y008904D02*
X016200Y008904D01*
X016757Y008193D02*
X017962Y008193D01*
X017977Y008074D02*
X016802Y008074D01*
X016806Y007956D02*
X018026Y007956D01*
X018123Y007837D02*
X016809Y007837D01*
X016812Y007719D02*
X018226Y007719D01*
X018137Y007600D02*
X016816Y007600D01*
X016819Y007482D02*
X018032Y007482D01*
X017983Y007363D02*
X016819Y007363D01*
X016818Y007245D02*
X017962Y007245D01*
X017962Y007126D02*
X016817Y007126D01*
X016815Y007008D02*
X018004Y007008D01*
X018071Y006889D02*
X016814Y006889D01*
X016813Y006771D02*
X018194Y006771D01*
X018227Y006652D02*
X016812Y006652D01*
X016811Y006534D02*
X018227Y006534D01*
X018227Y006415D02*
X016809Y006415D01*
X016808Y006297D02*
X018227Y006297D01*
X018227Y006178D02*
X016807Y006178D01*
X016806Y006060D02*
X018228Y006060D01*
X018228Y005941D02*
X016805Y005941D01*
X016803Y005823D02*
X018228Y005823D01*
X018228Y005704D02*
X016802Y005704D01*
X016801Y005586D02*
X018228Y005586D01*
X018228Y005467D02*
X015573Y005467D01*
X015431Y005349D02*
X018228Y005349D01*
X018228Y005230D02*
X015290Y005230D01*
X015148Y005112D02*
X018228Y005112D01*
X018228Y004993D02*
X015007Y004993D01*
X014865Y004875D02*
X018229Y004875D01*
X018229Y004756D02*
X014730Y004756D01*
X014601Y004638D02*
X018229Y004638D01*
X018229Y004519D02*
X014472Y004519D01*
X014342Y004401D02*
X018229Y004401D01*
X018229Y004282D02*
X014213Y004282D01*
X014105Y004164D02*
X018229Y004164D01*
X018229Y004045D02*
X013999Y004045D01*
X013893Y003927D02*
X018229Y003927D01*
X018229Y003808D02*
X013787Y003808D01*
X013681Y003690D02*
X018229Y003690D01*
X018230Y003571D02*
X013575Y003571D01*
X013557Y003453D02*
X018230Y003453D01*
X018230Y003334D02*
X013632Y003334D01*
X013707Y003216D02*
X018230Y003216D01*
X018230Y003097D02*
X013783Y003097D01*
X013858Y002979D02*
X018205Y002979D01*
X018172Y002860D02*
X013934Y002860D01*
X014009Y002742D02*
X018140Y002742D01*
X013140Y000727D02*
X001588Y000727D01*
X000359Y002031D02*
X000320Y002031D01*
X000320Y002149D02*
X000408Y002149D01*
X000463Y002268D02*
X000320Y002268D01*
X000320Y002386D02*
X000582Y002386D01*
X000700Y002505D02*
X000320Y002505D01*
X000320Y002623D02*
X000939Y002623D01*
X000320Y002742D02*
X003060Y002742D01*
X003060Y002860D02*
X000320Y002860D01*
X000320Y002979D02*
X003060Y002979D01*
X003060Y003097D02*
X000320Y003097D01*
X000320Y003216D02*
X003060Y003216D01*
X003060Y003334D02*
X000320Y003334D01*
X000320Y003453D02*
X003060Y003453D01*
X003060Y003571D02*
X000320Y003571D01*
X000320Y003690D02*
X003060Y003690D01*
X003060Y003808D02*
X000320Y003808D01*
X000320Y003927D02*
X003060Y003927D01*
X003060Y004045D02*
X000320Y004045D01*
X000320Y004164D02*
X003060Y004164D01*
X003060Y004282D02*
X000320Y004282D01*
X000320Y004401D02*
X003060Y004401D01*
X003060Y004519D02*
X000320Y004519D01*
X000320Y004638D02*
X003060Y004638D01*
X003060Y004756D02*
X000320Y004756D01*
X000320Y004875D02*
X003060Y004875D01*
X004660Y004993D02*
X000320Y004993D01*
X000320Y005112D02*
X004660Y005112D01*
X004660Y005230D02*
X000320Y005230D01*
X000320Y005349D02*
X004660Y005349D01*
X004660Y005467D02*
X000320Y005467D01*
X000320Y005586D02*
X004660Y005586D01*
X004660Y005704D02*
X000320Y005704D01*
X000320Y005823D02*
X004660Y005823D01*
X004660Y005941D02*
X000320Y005941D01*
X000320Y006060D02*
X004660Y006060D01*
X004660Y006178D02*
X000320Y006178D01*
X000320Y006297D02*
X004660Y006297D01*
X004660Y006415D02*
X000320Y006415D01*
X000320Y006534D02*
X004660Y006534D01*
X004660Y006652D02*
X000320Y006652D01*
X000320Y006771D02*
X004660Y006771D01*
X004660Y006889D02*
X000320Y006889D01*
X000320Y007008D02*
X004660Y007008D01*
X004660Y007126D02*
X000320Y007126D01*
X000320Y007245D02*
X004707Y007245D01*
X004756Y007363D02*
X000320Y007363D01*
X000320Y007482D02*
X004805Y007482D01*
X004854Y007600D02*
X000320Y007600D01*
X000320Y007719D02*
X004902Y007719D01*
X004951Y007837D02*
X000320Y007837D01*
X000320Y007956D02*
X005000Y007956D01*
X005049Y008074D02*
X000320Y008074D01*
X000320Y008193D02*
X005098Y008193D01*
X005146Y008311D02*
X000320Y008311D01*
X000320Y008430D02*
X005195Y008430D01*
X005278Y008548D02*
X000320Y008548D01*
X000320Y008667D02*
X005397Y008667D01*
X005515Y008785D02*
X000320Y008785D01*
X000320Y008904D02*
X005634Y008904D01*
X005640Y009022D02*
X000320Y009022D01*
X000320Y009141D02*
X005640Y009141D01*
X005640Y009259D02*
X000320Y009259D01*
X000320Y009378D02*
X005640Y009378D01*
X005640Y009496D02*
X000320Y009496D01*
X000320Y009615D02*
X005640Y009615D01*
X005640Y009733D02*
X000320Y009733D01*
X000320Y009852D02*
X005640Y009852D01*
X005640Y009970D02*
X000320Y009970D01*
X000320Y010089D02*
X005640Y010089D01*
X005640Y010207D02*
X000320Y010207D01*
X000320Y010326D02*
X005640Y010326D01*
X005640Y010444D02*
X000320Y010444D01*
X000320Y010563D02*
X005640Y010563D01*
X005640Y010681D02*
X005095Y010681D01*
X005029Y010681D02*
X000320Y010681D01*
X000320Y010800D02*
X004910Y010800D01*
X004792Y010918D02*
X000320Y010918D01*
X000320Y011037D02*
X004673Y011037D01*
X004555Y011155D02*
X000320Y011155D01*
X000320Y011274D02*
X004440Y011274D01*
X004438Y011392D02*
X000320Y011392D01*
X000320Y011511D02*
X004319Y011511D01*
X004279Y011508D02*
X004397Y011506D01*
X005451Y011506D01*
X005691Y011547D01*
X005651Y011508D01*
X005576Y011388D01*
X005618Y011189D01*
X005618Y010760D01*
X005460Y010603D01*
X004397Y010603D01*
X004279Y010721D01*
X004279Y011508D01*
X004279Y011392D02*
X005579Y011392D01*
X005600Y011274D02*
X004279Y011274D01*
X004279Y011155D02*
X005618Y011155D01*
X005618Y011037D02*
X004279Y011037D01*
X004279Y010918D02*
X005618Y010918D01*
X005618Y010800D02*
X004279Y010800D01*
X004319Y010681D02*
X005539Y010681D01*
X005933Y010918D02*
X005933Y011060D01*
X006340Y011060D01*
X006394Y011114D01*
X006523Y011114D01*
X006602Y011193D01*
X006602Y011666D01*
X006484Y011784D01*
X006394Y011784D01*
X006340Y011838D01*
X005789Y011838D01*
X005739Y011787D01*
X005732Y011787D01*
X005500Y012020D01*
X004791Y012020D01*
X004673Y012138D01*
X004673Y013201D01*
X004751Y013398D01*
X006799Y013398D01*
X006996Y013240D01*
X006996Y009618D01*
X006838Y009461D01*
X006167Y009101D01*
X006129Y009498D01*
X006129Y010721D01*
X005933Y010918D01*
X006996Y010918D01*
X006996Y010800D02*
X006051Y010800D01*
X006129Y010681D02*
X006996Y010681D01*
X006996Y010563D02*
X006129Y010563D01*
X006129Y010444D02*
X006996Y010444D01*
X006996Y010326D02*
X006129Y010326D01*
X006129Y010207D02*
X006996Y010207D01*
X006996Y010089D02*
X006129Y010089D01*
X006129Y009970D02*
X006996Y009970D01*
X006996Y009852D02*
X006129Y009852D01*
X006129Y009733D02*
X006996Y009733D01*
X006980Y009690D02*
X006120Y009230D01*
X006120Y006710D01*
X006240Y006590D01*
X006840Y006590D01*
X006960Y006830D01*
X006980Y009690D01*
X006979Y009615D02*
X006839Y009615D01*
X006873Y009496D02*
X006130Y009496D01*
X006129Y009615D02*
X006992Y009615D01*
X006979Y009496D02*
X006617Y009496D01*
X006683Y009378D02*
X006141Y009378D01*
X006152Y009259D02*
X006462Y009259D01*
X006396Y009378D02*
X006978Y009378D01*
X006977Y009259D02*
X006174Y009259D01*
X006163Y009141D02*
X006241Y009141D01*
X006120Y009141D02*
X006976Y009141D01*
X006975Y009022D02*
X006120Y009022D01*
X006120Y008904D02*
X006975Y008904D01*
X006974Y008785D02*
X006120Y008785D01*
X006120Y008667D02*
X006973Y008667D01*
X006972Y008548D02*
X006120Y008548D01*
X006120Y008430D02*
X006971Y008430D01*
X006970Y008311D02*
X006120Y008311D01*
X006120Y008193D02*
X006970Y008193D01*
X006969Y008074D02*
X006120Y008074D01*
X006120Y007956D02*
X006968Y007956D01*
X006967Y007837D02*
X006120Y007837D01*
X006120Y007719D02*
X006966Y007719D01*
X006965Y007600D02*
X006120Y007600D01*
X006120Y007482D02*
X006965Y007482D01*
X006964Y007363D02*
X006120Y007363D01*
X006120Y007245D02*
X006963Y007245D01*
X006962Y007126D02*
X006120Y007126D01*
X006120Y007008D02*
X006961Y007008D01*
X006960Y006889D02*
X006120Y006889D01*
X006120Y006771D02*
X006930Y006771D01*
X006871Y006652D02*
X006178Y006652D01*
X006523Y006587D02*
X006570Y006633D01*
X008980Y007210D02*
X008980Y005954D01*
X009030Y005904D01*
X009030Y005960D01*
X008980Y007210D02*
X010200Y008430D01*
X010200Y009219D01*
X010189Y009230D01*
X008600Y010390D02*
X008600Y011030D01*
X008320Y011310D01*
X007965Y011310D01*
X007954Y011321D01*
X008068Y011321D01*
X008059Y011311D01*
X007479Y011311D01*
X007300Y011490D01*
X007300Y012568D01*
X007681Y012949D01*
X007626Y012894D01*
X007311Y012650D02*
X007389Y012571D01*
X010972Y012571D01*
X011011Y012610D01*
X011011Y013319D01*
X010933Y013398D01*
X007429Y013398D01*
X007311Y013280D01*
X007311Y012650D01*
X007311Y012696D02*
X011011Y012696D01*
X011011Y012814D02*
X007311Y012814D01*
X007311Y012933D02*
X011011Y012933D01*
X011011Y013051D02*
X007311Y013051D01*
X007311Y013170D02*
X011011Y013170D01*
X011011Y013288D02*
X007319Y013288D01*
X006996Y013170D02*
X004673Y013170D01*
X004673Y013051D02*
X006996Y013051D01*
X006996Y012933D02*
X004673Y012933D01*
X004673Y012814D02*
X006996Y012814D01*
X006996Y012696D02*
X004673Y012696D01*
X004673Y012577D02*
X006996Y012577D01*
X006996Y012459D02*
X004673Y012459D01*
X004673Y012340D02*
X006996Y012340D01*
X006996Y012222D02*
X004673Y012222D01*
X004708Y012103D02*
X006996Y012103D01*
X006996Y011985D02*
X005535Y011985D01*
X005653Y011866D02*
X006996Y011866D01*
X006996Y011748D02*
X006520Y011748D01*
X006602Y011629D02*
X006996Y011629D01*
X006996Y011511D02*
X006602Y011511D01*
X006602Y011392D02*
X006996Y011392D01*
X006996Y011274D02*
X006602Y011274D01*
X006564Y011155D02*
X006996Y011155D01*
X006996Y011037D02*
X005933Y011037D01*
X006065Y011321D02*
X006065Y011577D01*
X005825Y011547D01*
X005381Y011547D01*
X003964Y011547D01*
X004082Y011748D02*
X000320Y011748D01*
X000320Y011866D02*
X003964Y011866D01*
X003960Y011985D02*
X000320Y011985D01*
X000320Y012103D02*
X003960Y012103D01*
X003960Y012222D02*
X000320Y012222D01*
X000320Y012340D02*
X003960Y012340D01*
X003960Y012459D02*
X000320Y012459D01*
X000320Y012577D02*
X003960Y012577D01*
X003960Y012696D02*
X000320Y012696D01*
X000320Y012814D02*
X003960Y012814D01*
X003960Y012933D02*
X000320Y012933D01*
X000320Y013051D02*
X003960Y013051D01*
X003960Y013170D02*
X000320Y013170D01*
X000320Y013288D02*
X004058Y013288D01*
X004177Y013407D02*
X000320Y013407D01*
X000320Y013525D02*
X004295Y013525D01*
X004414Y013644D02*
X000320Y013644D01*
X000320Y013762D02*
X004532Y013762D01*
X004708Y013288D02*
X006936Y013288D01*
X007383Y012577D02*
X010978Y012577D01*
X011324Y013083D02*
X010145Y013083D01*
X009951Y012796D01*
X010161Y013099D01*
X010185Y013122D01*
X010066Y013122D01*
X009673Y013831D02*
X009673Y014067D01*
X009476Y014264D01*
X008965Y014264D01*
X009061Y014408D01*
X010102Y014697D02*
X010200Y014599D01*
X010220Y014579D01*
X010299Y015603D02*
X010200Y015701D01*
X010299Y015603D02*
X011214Y015603D01*
X012240Y014750D02*
X012960Y015470D01*
X012960Y014750D01*
X012240Y014750D01*
X012319Y014829D02*
X012960Y014829D01*
X012960Y014947D02*
X012437Y014947D01*
X012556Y015066D02*
X012960Y015066D01*
X012960Y015184D02*
X012674Y015184D01*
X012645Y015189D02*
X012783Y015051D01*
X012783Y014933D01*
X013255Y014461D01*
X013255Y014067D01*
X013413Y013910D01*
X014988Y013910D01*
X015618Y013280D01*
X015618Y012217D01*
X015541Y012020D01*
X015383Y012020D01*
X015224Y012020D01*
X015240Y012044D02*
X015383Y012020D01*
X015240Y012044D02*
X015141Y012044D01*
X016771Y010695D02*
X017429Y011233D01*
X017429Y015087D01*
X017444Y015103D01*
X018205Y015540D02*
X019680Y015540D01*
X019680Y015658D02*
X018204Y015658D01*
X018204Y015777D02*
X019680Y015777D01*
X019680Y015895D02*
X018203Y015895D01*
X018203Y016014D02*
X019680Y016014D01*
X019680Y016132D02*
X018203Y016132D01*
X018202Y016251D02*
X019680Y016251D01*
X019680Y016369D02*
X018202Y016369D01*
X018201Y016488D02*
X019680Y016488D01*
X019680Y016606D02*
X018201Y016606D01*
X018201Y016725D02*
X019680Y016725D01*
X019680Y016843D02*
X018200Y016843D01*
X019680Y016962D02*
X012480Y016962D01*
X012480Y017080D02*
X019680Y017080D01*
X019680Y017199D02*
X012480Y017199D01*
X012480Y017317D02*
X019680Y017317D01*
X019680Y017436D02*
X012434Y017436D01*
X012517Y017641D02*
X012623Y017028D01*
X012442Y016788D01*
X012485Y016744D01*
X014161Y016744D01*
X014679Y016843D02*
X012480Y016843D01*
X012184Y017554D02*
X019680Y017554D01*
X019680Y017673D02*
X011710Y017673D01*
X011917Y017886D02*
X012517Y017641D01*
X011917Y017886D02*
X011598Y018205D01*
X011193Y018445D01*
X010920Y018502D02*
X018274Y018502D01*
X018155Y018621D02*
X010951Y018621D01*
X010920Y018384D02*
X018475Y018384D01*
X019325Y018384D02*
X019406Y018384D01*
X019525Y018265D02*
X010920Y018265D01*
X010920Y018147D02*
X019643Y018147D01*
X019680Y018028D02*
X010920Y018028D01*
X010920Y017910D02*
X019680Y017910D01*
X019680Y017791D02*
X011236Y017791D01*
X010080Y017870D02*
X009240Y017390D01*
X008640Y017990D01*
X008640Y018590D01*
X009960Y018590D01*
X010080Y018230D01*
X010080Y017870D01*
X010080Y017910D02*
X008720Y017910D01*
X008640Y018028D02*
X010080Y018028D01*
X010066Y018004D02*
X010066Y018198D01*
X010074Y018445D01*
X010029Y018384D02*
X008640Y018384D01*
X008640Y018502D02*
X009989Y018502D01*
X010068Y018265D02*
X008640Y018265D01*
X008640Y018147D02*
X010080Y018147D01*
X009942Y017791D02*
X008839Y017791D01*
X008957Y017673D02*
X009734Y017673D01*
X009527Y017554D02*
X009076Y017554D01*
X009194Y017436D02*
X009320Y017436D01*
X007862Y014697D02*
X007862Y014225D01*
X007822Y014185D01*
X007783Y014185D01*
X007822Y014224D01*
X007942Y014408D01*
X007681Y014147D01*
X005880Y014236D02*
X000320Y014236D01*
X000320Y014118D02*
X005848Y014118D01*
X005729Y013999D02*
X000320Y013999D01*
X000320Y013881D02*
X005611Y013881D01*
X005880Y014355D02*
X000320Y014355D01*
X000320Y014473D02*
X005880Y014473D01*
X005880Y014592D02*
X000320Y014592D01*
X000320Y014710D02*
X005880Y014710D01*
X005880Y014829D02*
X000320Y014829D01*
X000320Y014947D02*
X005880Y014947D01*
X005880Y015066D02*
X000320Y015066D01*
X000320Y015184D02*
X005880Y015184D01*
X005880Y015303D02*
X000320Y015303D01*
X000320Y015421D02*
X005880Y015421D01*
X005880Y015540D02*
X000320Y015540D01*
X000320Y015658D02*
X005880Y015658D01*
X005880Y015777D02*
X000320Y015777D01*
X000320Y015895D02*
X005880Y015895D01*
X005816Y016014D02*
X000320Y016014D01*
X000320Y016132D02*
X005698Y016132D01*
X005640Y016251D02*
X000320Y016251D01*
X000320Y016369D02*
X005640Y016369D01*
X005640Y016488D02*
X000320Y016488D01*
X000320Y016606D02*
X005640Y016606D01*
X005640Y016725D02*
X000320Y016725D01*
X000320Y016843D02*
X005640Y016843D01*
X005640Y016962D02*
X000320Y016962D01*
X000320Y017080D02*
X005640Y017080D01*
X005640Y017199D02*
X000320Y017199D01*
X000320Y017317D02*
X005593Y017317D01*
X005474Y017436D02*
X000320Y017436D01*
X005077Y016823D02*
X005121Y016866D01*
X008059Y012217D02*
X008074Y012201D01*
X007954Y011833D01*
X007954Y011590D02*
X007954Y011577D01*
X007954Y011590D02*
X008900Y011590D01*
X008900Y011681D01*
X009951Y010866D01*
X009279Y011154D02*
X008885Y011547D01*
X008216Y011547D01*
X008141Y011622D01*
X008209Y011622D01*
X008213Y011626D01*
X008649Y011626D01*
X009082Y012059D01*
X011011Y012059D01*
X011129Y011941D01*
X011129Y011351D01*
X010933Y011154D01*
X009279Y011154D01*
X009278Y011155D02*
X010934Y011155D01*
X011052Y011274D02*
X009159Y011274D01*
X009041Y011392D02*
X011129Y011392D01*
X011129Y011511D02*
X008922Y011511D01*
X008652Y011629D02*
X011129Y011629D01*
X011129Y011748D02*
X008770Y011748D01*
X008889Y011866D02*
X011129Y011866D01*
X011086Y011985D02*
X009007Y011985D01*
X011324Y013083D02*
X012364Y012044D01*
X011775Y012044D01*
X011523Y012296D01*
X012364Y012044D02*
X012937Y012044D01*
X012937Y011788D01*
X012937Y012299D02*
X012543Y012299D01*
X011720Y013162D01*
X011720Y013595D01*
X012271Y013319D02*
X012271Y013910D01*
X012665Y014303D01*
X013413Y014697D02*
X013570Y014540D01*
X014133Y014540D01*
X014232Y014839D01*
X014192Y014650D01*
X014200Y014658D01*
X014240Y014618D02*
X014240Y015051D01*
X013413Y014973D02*
X013413Y014697D01*
X012960Y015303D02*
X012793Y015303D01*
X012911Y015421D02*
X012960Y015421D01*
X006179Y011321D02*
X006169Y011311D01*
X006179Y011321D02*
X006065Y011321D01*
X005654Y011511D02*
X005476Y011511D01*
X005381Y011547D02*
X005381Y011311D01*
X005145Y011311D01*
X005129Y011327D01*
X005129Y011331D01*
X004201Y011629D02*
X000320Y011629D01*
X001661Y002623D02*
X003060Y002623D01*
X003060Y002505D02*
X001900Y002505D01*
X002018Y002386D02*
X003060Y002386D01*
D20*
X008059Y012217D03*
X009673Y013831D03*
X008531Y015091D03*
X009437Y015878D03*
X011214Y015603D03*
X012665Y014303D03*
X013413Y014973D03*
X014633Y015524D03*
X015303Y015603D03*
X014161Y016744D03*
X011720Y013595D03*
X012271Y013319D03*
X011523Y012296D03*
X014475Y011784D03*
D21*
X010189Y009601D02*
X010189Y009230D01*
X010189Y009029D01*
X010189Y009601D02*
X009800Y009990D01*
X009000Y009990D01*
X008600Y010390D01*
X008000Y010390D02*
X008000Y011020D01*
X007954Y011065D01*
X008000Y010390D02*
X007689Y010079D01*
X007689Y009049D01*
X007709Y009029D01*
X009070Y009029D01*
X010102Y014697D02*
X009714Y014817D01*
X008970Y015561D01*
X007713Y015921D01*
D22*
X009840Y010030D02*
X011820Y010010D01*
X011840Y008290D01*
X011360Y007810D01*
X009840Y007790D01*
X009880Y005190D01*
X007440Y005190D01*
X007440Y007310D01*
X008680Y008510D01*
X009920Y008510D01*
X009900Y009250D01*
X009840Y010030D01*
X009846Y009946D02*
X011821Y009946D01*
X011822Y009848D02*
X009854Y009848D01*
X009862Y009749D02*
X011823Y009749D01*
X011824Y009651D02*
X009869Y009651D01*
X009877Y009552D02*
X011825Y009552D01*
X011826Y009454D02*
X009884Y009454D01*
X009892Y009355D02*
X011828Y009355D01*
X011829Y009257D02*
X009899Y009257D01*
X009902Y009158D02*
X011830Y009158D01*
X011831Y009060D02*
X009905Y009060D01*
X009908Y008961D02*
X011832Y008961D01*
X011833Y008863D02*
X009910Y008863D01*
X009913Y008764D02*
X011834Y008764D01*
X011836Y008666D02*
X009916Y008666D01*
X009918Y008567D02*
X011837Y008567D01*
X011838Y008469D02*
X008637Y008469D01*
X008535Y008370D02*
X011839Y008370D01*
X011822Y008272D02*
X008434Y008272D01*
X008332Y008173D02*
X011723Y008173D01*
X011625Y008075D02*
X008230Y008075D01*
X008128Y007976D02*
X011526Y007976D01*
X011428Y007878D02*
X008026Y007878D01*
X007925Y007779D02*
X009840Y007779D01*
X009842Y007681D02*
X007823Y007681D01*
X007721Y007582D02*
X009843Y007582D01*
X009845Y007484D02*
X007619Y007484D01*
X007518Y007385D02*
X009846Y007385D01*
X009848Y007287D02*
X007440Y007287D01*
X007440Y007188D02*
X009849Y007188D01*
X009851Y007090D02*
X007440Y007090D01*
X007440Y006991D02*
X009852Y006991D01*
X009854Y006893D02*
X007440Y006893D01*
X007440Y006794D02*
X009855Y006794D01*
X009857Y006696D02*
X007440Y006696D01*
X007440Y006597D02*
X009858Y006597D01*
X009860Y006499D02*
X007440Y006499D01*
X007440Y006400D02*
X009861Y006400D01*
X009863Y006302D02*
X007440Y006302D01*
X007440Y006203D02*
X009864Y006203D01*
X009866Y006105D02*
X007440Y006105D01*
X007440Y006006D02*
X009867Y006006D01*
X009869Y005908D02*
X007440Y005908D01*
X007440Y005809D02*
X009870Y005809D01*
X009872Y005711D02*
X007440Y005711D01*
X007440Y005612D02*
X009874Y005612D01*
X009875Y005514D02*
X007440Y005514D01*
X007440Y005415D02*
X009877Y005415D01*
X009878Y005317D02*
X007440Y005317D01*
X007440Y005218D02*
X009880Y005218D01*
X014400Y010910D02*
X014040Y011270D01*
X015185Y011547D02*
X015303Y011547D01*
X015342Y011508D01*
X014440Y012811D02*
X014381Y012811D01*
D23*
X009437Y015878D02*
X009437Y017374D01*
X010066Y018004D01*
X010074Y018445D02*
X007579Y018445D01*
X006240Y016866D01*
X008019Y014855D02*
X008295Y014855D01*
X008531Y015091D01*
X008019Y014855D02*
X007862Y014697D01*
X007681Y014147D02*
X007681Y012949D01*
D24*
X010220Y014579D02*
X012035Y014579D01*
X012645Y015189D01*
X013661Y016205D01*
X017444Y016205D01*
X014633Y015524D02*
X014240Y015130D01*
X014240Y015051D01*
X006570Y009049D02*
X006570Y007290D01*
X006570Y006633D01*
D25*
X015220Y008170D03*
X016260Y007210D03*
D26*
X005077Y016823D02*
X004200Y016823D01*
X003689Y016311D01*
X003689Y011823D01*
X003964Y011547D01*
D27*
X006578Y012949D02*
X006578Y015426D01*
X006593Y015921D01*
X010200Y015724D02*
X011504Y017028D01*
X010200Y015724D02*
X010200Y015701D01*
D28*
X013240Y009550D02*
X013626Y009536D01*
X014427Y009536D01*
X006570Y007290D02*
X006570Y005672D01*
X006020Y004723D01*
D29*
X013240Y009550D03*
M02*
