G75*
G70*
%OFA0B0*%
%FSLAX24Y24*%
%IPPOS*%
%LPD*%
%AMOC8*
5,1,8,0,0,1.08239X$1,22.5*
%
%ADD10C,0.0594*%
%ADD11R,0.0709X0.0630*%
%ADD12R,0.0710X0.0630*%
%ADD13R,0.0630X0.0709*%
%ADD14R,0.0630X0.0710*%
%ADD15C,0.0850*%
%ADD16C,0.1700*%
%ADD17OC8,0.0600*%
%ADD18C,0.0740*%
%ADD19R,0.0740X0.0740*%
%ADD20C,0.2000*%
%ADD21C,0.0600*%
%ADD22OC8,0.0630*%
%ADD23C,0.0630*%
%ADD24C,0.0396*%
%ADD25C,0.0120*%
%ADD26C,0.0660*%
%ADD27C,0.0768*%
%ADD28C,0.0436*%
%ADD29C,0.0320*%
%ADD30C,0.0240*%
%ADD31C,0.0591*%
%ADD32C,0.0500*%
%ADD33C,0.0475*%
%ADD34C,0.0560*%
%ADD35C,0.0160*%
%ADD36C,0.0400*%
%ADD37C,0.0531*%
%ADD38C,0.0700*%
%ADD39C,0.0760*%
%ADD40C,0.1000*%
%ADD41C,0.0827*%
%ADD42C,0.0650*%
%ADD43C,0.0860*%
%ADD44C,0.0100*%
%ADD45C,0.0886*%
D10*
X009867Y001836D02*
X009867Y002430D01*
X010867Y002430D02*
X010867Y001836D01*
X011867Y001836D02*
X011867Y002430D01*
X012867Y002430D02*
X012867Y001836D01*
X039050Y029513D02*
X039644Y029513D01*
X039644Y030513D02*
X039050Y030513D01*
X003044Y035053D02*
X002450Y035053D01*
X002450Y036053D02*
X003044Y036053D01*
X003044Y037053D02*
X002450Y037053D01*
X002450Y038313D02*
X003044Y038313D01*
X003044Y039313D02*
X002450Y039313D01*
X002450Y040313D02*
X003044Y040313D01*
X003044Y041573D02*
X002450Y041573D01*
X002450Y042573D02*
X003044Y042573D01*
X003044Y043573D02*
X002450Y043573D01*
X002450Y044833D02*
X003044Y044833D01*
X003044Y045833D02*
X002450Y045833D01*
X002450Y046833D02*
X003044Y046833D01*
X003044Y048013D02*
X002450Y048013D01*
X002450Y049013D02*
X003044Y049013D01*
X003044Y050013D02*
X002450Y050013D01*
D11*
X009767Y030385D03*
X009767Y029282D03*
X012207Y029302D03*
X012207Y030405D03*
X014607Y029845D03*
X014607Y028742D03*
X027377Y005325D03*
X027377Y004222D03*
D12*
X035187Y016143D03*
X035187Y017263D03*
X023147Y017573D03*
X023147Y016453D03*
D13*
X013198Y026973D03*
X012095Y026973D03*
X012075Y031993D03*
X013178Y031993D03*
X029155Y039333D03*
X030258Y039333D03*
X011738Y009773D03*
X010635Y009773D03*
X037495Y008943D03*
X038598Y008943D03*
D14*
X036207Y009403D03*
X035087Y009403D03*
X037587Y013123D03*
X038707Y013123D03*
D15*
X022451Y044113D03*
X020482Y044113D03*
X020482Y049034D03*
X022451Y049034D03*
D16*
X035313Y035373D03*
X036494Y037224D03*
X037675Y035373D03*
X036374Y025314D03*
X035193Y023463D03*
X037555Y023463D03*
X036124Y004534D03*
X034943Y002683D03*
X037305Y002683D03*
D17*
X018447Y026153D03*
X018447Y027153D03*
X018447Y028153D03*
X018447Y029153D03*
X018447Y030153D03*
X018447Y031153D03*
X018447Y032153D03*
X018447Y033153D03*
X017447Y033153D03*
X017447Y032153D03*
X017447Y031153D03*
X017447Y030153D03*
X017447Y029153D03*
X017447Y028153D03*
X017447Y027153D03*
X017447Y026153D03*
X016047Y024793D03*
X016047Y023793D03*
X015047Y023793D03*
X015047Y024793D03*
X014047Y024793D03*
X014047Y023793D03*
X013047Y023793D03*
X013047Y024793D03*
X012047Y024793D03*
X012047Y023793D03*
X011047Y023793D03*
X011047Y024793D03*
X010047Y024793D03*
X010047Y023793D03*
X009047Y023793D03*
X009047Y024793D03*
X007807Y026053D03*
X007807Y027053D03*
X007807Y028053D03*
X007807Y029053D03*
X007807Y030053D03*
X007807Y031053D03*
X007807Y032053D03*
X007807Y033053D03*
X006807Y033053D03*
X006807Y032053D03*
X006807Y031053D03*
X006807Y030053D03*
X006807Y029053D03*
X006807Y028053D03*
X006807Y027053D03*
X006807Y026053D03*
X009087Y034373D03*
X010087Y034373D03*
X011087Y034373D03*
X012087Y034373D03*
X012087Y035373D03*
X011087Y035373D03*
X010087Y035373D03*
X009087Y035373D03*
X013087Y035373D03*
X014087Y035373D03*
X015087Y035373D03*
X015087Y034373D03*
X014087Y034373D03*
X013087Y034373D03*
X016087Y034373D03*
X016087Y035373D03*
D18*
X015137Y043933D03*
X014637Y044933D03*
X013637Y044933D03*
X012637Y044933D03*
X013137Y043933D03*
X014137Y043933D03*
X036288Y043483D03*
X036288Y044573D03*
X036288Y045664D03*
X037406Y046207D03*
X037406Y045117D03*
X037406Y044030D03*
X037406Y042939D03*
X036288Y042392D03*
D19*
X036288Y046754D03*
D20*
X036847Y049495D03*
X036847Y039652D03*
D21*
X003307Y028013D02*
X002707Y028013D01*
X001787Y028013D02*
X001187Y028013D01*
X001187Y027013D02*
X001787Y027013D01*
X001787Y026013D02*
X001187Y026013D01*
X002707Y026013D02*
X003307Y026013D01*
X003307Y027013D02*
X002707Y027013D01*
X002707Y024013D02*
X003307Y024013D01*
X003307Y023013D02*
X002707Y023013D01*
X001787Y023013D02*
X001187Y023013D01*
X001187Y022013D02*
X001787Y022013D01*
X002707Y022013D02*
X003307Y022013D01*
X001787Y024013D02*
X001187Y024013D01*
D22*
X030637Y025043D03*
D23*
X030637Y023643D03*
D24*
X034507Y029513D03*
X034107Y030533D03*
X030207Y033493D03*
X026967Y034453D03*
X026247Y034453D03*
X025287Y034213D03*
X024547Y036713D03*
X024167Y038293D03*
X022007Y036773D03*
X020727Y037753D03*
X020727Y034973D03*
X020527Y033853D03*
X022127Y030953D03*
X025407Y030853D03*
X025647Y031573D03*
X026247Y031573D03*
X028407Y039373D03*
X028167Y041533D03*
X028167Y043213D03*
X027827Y045213D03*
X031707Y040053D03*
X031167Y039373D03*
X015547Y038313D03*
X013667Y042233D03*
X015267Y042793D03*
X013047Y030873D03*
X011267Y029913D03*
X011487Y029302D03*
X011107Y028693D03*
X011827Y028013D03*
X013167Y028473D03*
X013967Y029053D03*
X012107Y022953D03*
X011087Y022333D03*
X009567Y021533D03*
X009567Y020093D03*
X007247Y022093D03*
X006607Y021533D03*
X005487Y022973D03*
X006527Y023933D03*
X007327Y024013D03*
X005487Y027053D03*
X012607Y021853D03*
X013087Y021373D03*
X014367Y021853D03*
X014287Y015133D03*
X015007Y014313D03*
X013727Y013073D03*
X015027Y010033D03*
X016287Y010553D03*
X009947Y010393D03*
X007547Y009553D03*
X004747Y010213D03*
X024527Y018473D03*
X033918Y009427D03*
X034687Y010173D03*
X036667Y011183D03*
X037087Y013933D03*
X036467Y014223D03*
X038387Y016623D03*
X037407Y017563D03*
X035827Y017743D03*
X035827Y017103D03*
X035507Y018543D03*
X040167Y011233D03*
X027357Y002323D03*
D25*
X016287Y010553D02*
X016287Y013033D01*
X015007Y014313D01*
X014287Y015133D02*
X014287Y013473D01*
X015387Y012373D01*
X015387Y010393D01*
X015027Y010033D01*
X013727Y013073D02*
X008207Y013073D01*
X006867Y011793D01*
X006887Y010213D01*
X007547Y009553D01*
X009407Y019213D02*
X013087Y019213D01*
X013727Y019853D01*
X013727Y021213D01*
X014367Y021853D01*
X013087Y021373D02*
X010527Y021373D01*
X009807Y022093D01*
X007247Y022093D01*
X007647Y021533D02*
X006607Y021533D01*
X007647Y021533D02*
X008447Y020733D01*
X008447Y020173D01*
X009407Y019213D01*
X009567Y020093D02*
X009567Y021533D01*
X010127Y022493D02*
X010767Y021853D01*
X012607Y021853D01*
X011667Y022573D02*
X011027Y023213D01*
X011027Y023773D01*
X011047Y023793D01*
X010527Y022893D02*
X011087Y022333D01*
X011667Y022573D02*
X016927Y022573D01*
X021027Y026673D01*
X031667Y026673D01*
X034507Y029513D01*
X034107Y030533D02*
X030847Y027273D01*
X020947Y027273D01*
X016667Y022993D01*
X012147Y022993D01*
X012107Y022953D01*
X010527Y022893D02*
X008447Y022893D01*
X007327Y024013D01*
X006687Y023933D02*
X008127Y022493D01*
X010127Y022493D01*
X006687Y023933D02*
X006527Y023933D01*
X010607Y028713D02*
X011087Y028713D01*
X011107Y028693D01*
X010607Y028713D02*
X010038Y029282D01*
X009767Y029282D01*
X011267Y029913D02*
X011758Y030405D01*
X012207Y030405D01*
X013047Y030873D02*
X013047Y030893D01*
X013647Y031493D01*
X013887Y029853D02*
X013647Y029613D01*
X013647Y029293D01*
X013887Y029053D01*
X013967Y029053D01*
X013887Y029853D02*
X014598Y029853D01*
X014607Y029845D01*
X020527Y032493D02*
X020527Y033853D01*
X020527Y034773D01*
X020727Y034973D01*
X021867Y036333D02*
X022007Y036473D01*
X022007Y036773D01*
X020727Y037753D02*
X020427Y038053D01*
X015567Y038053D01*
X020527Y032493D02*
X022067Y030953D01*
X022127Y030953D01*
X025287Y030973D02*
X025287Y034213D01*
X025647Y033853D02*
X026247Y034453D01*
X026247Y033733D02*
X026967Y034453D01*
X026247Y033733D02*
X026247Y031573D01*
X025647Y031573D02*
X025647Y033853D01*
X024707Y036333D02*
X024547Y036493D01*
X024547Y036713D01*
X024147Y038053D02*
X024147Y038273D01*
X024167Y038293D01*
X025287Y030973D02*
X025407Y030853D01*
X031567Y037273D02*
X031757Y037463D01*
X036367Y027053D02*
X036374Y027046D01*
X036374Y026886D01*
X035367Y025593D02*
X032207Y022313D01*
X032227Y022953D01*
X032187Y025633D01*
X035367Y025593D01*
X035277Y025500D02*
X032189Y025500D01*
X032187Y025618D02*
X033375Y025618D01*
X034363Y024552D02*
X032203Y024552D01*
X032201Y024670D02*
X034477Y024670D01*
X034592Y024789D02*
X032199Y024789D01*
X032198Y024907D02*
X034706Y024907D01*
X034820Y025026D02*
X032196Y025026D01*
X032194Y025144D02*
X034934Y025144D01*
X035048Y025263D02*
X032192Y025263D01*
X032190Y025381D02*
X035162Y025381D01*
X034249Y024433D02*
X032205Y024433D01*
X032206Y024315D02*
X034135Y024315D01*
X034021Y024196D02*
X032208Y024196D01*
X032210Y024078D02*
X033907Y024078D01*
X033792Y023959D02*
X032212Y023959D01*
X032213Y023841D02*
X033678Y023841D01*
X033564Y023722D02*
X032215Y023722D01*
X032217Y023604D02*
X033450Y023604D01*
X033336Y023485D02*
X032219Y023485D01*
X032220Y023367D02*
X033222Y023367D01*
X033108Y023248D02*
X032222Y023248D01*
X032224Y023130D02*
X032993Y023130D01*
X032879Y023011D02*
X032226Y023011D01*
X032225Y022893D02*
X032765Y022893D01*
X032651Y022774D02*
X032221Y022774D01*
X032217Y022656D02*
X032537Y022656D01*
X032423Y022537D02*
X032214Y022537D01*
X032210Y022419D02*
X032308Y022419D01*
X002767Y045853D02*
X002747Y045833D01*
D26*
X029367Y018133D02*
X029487Y018013D01*
X017047Y006793D02*
X015227Y004973D01*
X015167Y004973D01*
X015167Y004893D01*
X012847Y002573D01*
X012847Y002153D01*
X012867Y002133D01*
X011887Y002153D02*
X011887Y003293D01*
X015967Y007353D01*
X011887Y002153D02*
X011867Y002133D01*
X010867Y002133D02*
X010867Y003413D01*
X009007Y005273D01*
X007547Y005273D01*
D27*
X015967Y007353D03*
X017047Y006793D03*
X010387Y014893D03*
X011567Y017713D03*
X020487Y019693D03*
X026407Y002573D03*
D28*
X027567Y001533D03*
X028407Y004333D03*
X029007Y004333D03*
X027087Y006133D03*
X024197Y003973D03*
X017287Y010433D03*
X019147Y036573D03*
X012987Y037313D03*
X012167Y036393D03*
D29*
X006807Y032053D02*
X004887Y032073D01*
X004207Y028013D02*
X003007Y028013D01*
X004207Y028013D02*
X004287Y027933D01*
X004287Y024013D02*
X003007Y024013D01*
X004287Y023933D02*
X004367Y023853D01*
X004367Y021773D01*
X004287Y021853D01*
X004287Y022653D01*
X009947Y010393D02*
X009967Y010073D01*
X010635Y009773D01*
X011738Y009773D02*
X011738Y008625D01*
X011647Y008533D01*
X015967Y007353D02*
X017287Y008673D01*
X017287Y010433D01*
X023147Y017573D02*
X023087Y017633D01*
X023087Y018173D01*
X023447Y018533D01*
X023567Y018533D01*
X027087Y006133D02*
X027377Y005843D01*
X027377Y005325D01*
X027377Y004222D02*
X027357Y004122D01*
X027357Y002323D01*
X034687Y010173D02*
X035657Y010173D01*
X036667Y011183D01*
X038707Y013123D02*
X040167Y011913D01*
X040167Y011233D01*
X040167Y009903D01*
X038707Y008943D01*
X038598Y008943D01*
X036374Y025314D02*
X036346Y025314D01*
X036207Y025453D01*
X019207Y036333D02*
X019147Y036393D01*
X019147Y036573D01*
D30*
X000967Y021477D02*
X000967Y001013D01*
X040407Y001013D01*
X040407Y009526D01*
X040374Y009513D01*
X039193Y008736D01*
X039193Y008533D01*
X039150Y008430D01*
X039071Y008352D01*
X038969Y008309D01*
X038227Y008309D01*
X038124Y008352D01*
X038047Y008429D01*
X037969Y008352D01*
X037866Y008309D01*
X037125Y008309D01*
X037022Y008352D01*
X036943Y008430D01*
X036901Y008533D01*
X036901Y008859D01*
X036837Y008923D01*
X036773Y008923D01*
X036759Y008890D01*
X036680Y008811D01*
X036577Y008768D01*
X035836Y008768D01*
X035733Y008811D01*
X035654Y008890D01*
X035612Y008993D01*
X035612Y009814D01*
X035654Y009917D01*
X035733Y009996D01*
X035836Y010038D01*
X036555Y010038D01*
X036555Y010088D01*
X036629Y010264D01*
X036947Y010582D01*
X036947Y013059D01*
X036992Y013168D01*
X036992Y013455D01*
X036992Y013455D01*
X036816Y013528D01*
X036681Y013663D01*
X036666Y013700D01*
X036578Y013663D01*
X036355Y013663D01*
X036149Y013749D01*
X034712Y015186D01*
X034627Y015392D01*
X034627Y015638D01*
X034594Y015670D01*
X034552Y015773D01*
X034552Y016514D01*
X034594Y016617D01*
X034673Y016696D01*
X034691Y016703D01*
X034673Y016711D01*
X034594Y016790D01*
X034552Y016893D01*
X034552Y017634D01*
X034594Y017737D01*
X034673Y017816D01*
X034776Y017858D01*
X034805Y017858D01*
X034807Y017930D01*
X034807Y018003D01*
X034809Y018009D01*
X034809Y018015D01*
X034840Y018082D01*
X034868Y018150D01*
X034872Y018155D01*
X034875Y018160D01*
X034928Y018211D01*
X035069Y018351D01*
X035029Y018448D01*
X035029Y018638D01*
X035101Y018814D01*
X035236Y018949D01*
X035412Y019021D01*
X035602Y019021D01*
X035777Y018949D01*
X035912Y018814D01*
X035985Y018638D01*
X035985Y018448D01*
X035912Y018273D01*
X035907Y018267D01*
X035907Y018221D01*
X035922Y018221D01*
X036097Y018149D01*
X036232Y018014D01*
X036269Y017925D01*
X036272Y017923D01*
X037091Y017923D01*
X037136Y017969D01*
X037312Y018041D01*
X037502Y018041D01*
X037677Y017969D01*
X037812Y017834D01*
X037885Y017658D01*
X037885Y017468D01*
X037812Y017293D01*
X037677Y017158D01*
X037502Y017085D01*
X037312Y017085D01*
X037136Y017158D01*
X037091Y017203D01*
X036303Y017203D01*
X036305Y017198D01*
X036305Y017023D01*
X038111Y017023D01*
X038116Y017029D01*
X038292Y017101D01*
X038482Y017101D01*
X038657Y017029D01*
X038792Y016894D01*
X038865Y016718D01*
X038865Y016528D01*
X038792Y016353D01*
X038657Y016218D01*
X038482Y016145D01*
X038292Y016145D01*
X038116Y016218D01*
X038111Y016223D01*
X035907Y016223D01*
X035822Y016259D01*
X035822Y015773D01*
X035789Y015693D01*
X036941Y014541D01*
X036995Y014411D01*
X037182Y014411D01*
X037357Y014339D01*
X037492Y014204D01*
X037565Y014028D01*
X037565Y014021D01*
X037827Y013758D01*
X037957Y013758D01*
X038060Y013716D01*
X038139Y013637D01*
X038147Y013619D01*
X038154Y013637D01*
X038233Y013716D01*
X038336Y013758D01*
X039077Y013758D01*
X039180Y013716D01*
X039259Y013637D01*
X039301Y013534D01*
X039301Y013202D01*
X040396Y012294D01*
X040407Y012290D01*
X040407Y050453D01*
X037698Y050453D01*
X037871Y050281D01*
X038039Y049989D01*
X038127Y049663D01*
X038127Y049326D01*
X038039Y049001D01*
X037871Y048709D01*
X037633Y048470D01*
X037341Y048302D01*
X037015Y048215D01*
X036678Y048215D01*
X036353Y048302D01*
X036061Y048470D01*
X035822Y048709D01*
X035654Y049001D01*
X035567Y049326D01*
X035567Y049663D01*
X035654Y049989D01*
X035822Y050281D01*
X035995Y050453D01*
X004418Y050453D01*
X005244Y049627D01*
X005421Y049450D01*
X005517Y049219D01*
X005517Y035617D01*
X005547Y035545D01*
X005547Y032506D01*
X006430Y032497D01*
X006486Y032553D01*
X006227Y032813D01*
X006227Y033294D01*
X006566Y033633D01*
X007047Y033633D01*
X007307Y033374D01*
X007566Y033633D01*
X007893Y033633D01*
X007299Y034205D01*
X007295Y034206D01*
X007231Y034271D01*
X007165Y034334D01*
X007163Y034338D01*
X007160Y034341D01*
X007125Y034425D01*
X007089Y034509D01*
X007088Y034513D01*
X007087Y034518D01*
X007087Y034609D01*
X007085Y034700D01*
X007087Y034704D01*
X007087Y035889D01*
X007160Y036065D01*
X007295Y036200D01*
X009555Y038460D01*
X009731Y038533D01*
X014944Y038533D01*
X015125Y038715D01*
X015412Y038833D01*
X028598Y038833D01*
X028562Y038920D01*
X028502Y038895D01*
X028312Y038895D01*
X028136Y038968D01*
X028001Y039103D01*
X027929Y039278D01*
X027929Y039468D01*
X028001Y039644D01*
X028136Y039779D01*
X028312Y039851D01*
X028502Y039851D01*
X028590Y039815D01*
X028603Y039846D01*
X028682Y039925D01*
X028785Y039968D01*
X029526Y039968D01*
X029629Y039925D01*
X029708Y039846D01*
X029750Y039743D01*
X029750Y038923D01*
X029713Y038833D01*
X031322Y038833D01*
X031609Y038715D01*
X032198Y038125D01*
X032199Y038125D01*
X034170Y036153D01*
X034495Y036153D01*
X034619Y036278D01*
X034877Y036426D01*
X035164Y036503D01*
X035462Y036503D01*
X035749Y036426D01*
X036007Y036278D01*
X036217Y036067D01*
X036366Y035809D01*
X036443Y035522D01*
X036443Y035225D01*
X036366Y034937D01*
X036217Y034679D01*
X036007Y034469D01*
X035749Y034320D01*
X035462Y034243D01*
X035164Y034243D01*
X034877Y034320D01*
X034619Y034469D01*
X034495Y034593D01*
X033692Y034593D01*
X033405Y034712D01*
X033185Y034931D01*
X031095Y037021D01*
X031095Y037021D01*
X030844Y037273D01*
X015412Y037273D01*
X015125Y037392D01*
X014944Y037573D01*
X013418Y037573D01*
X013484Y037412D01*
X013484Y037214D01*
X013409Y037031D01*
X013269Y036891D01*
X013086Y036816D01*
X012888Y036816D01*
X012845Y036833D01*
X012405Y036833D01*
X012449Y036815D01*
X012589Y036675D01*
X012664Y036492D01*
X012664Y036294D01*
X012589Y036111D01*
X012449Y035971D01*
X012266Y035896D01*
X012178Y035896D01*
X012091Y035808D01*
X011958Y035753D01*
X011527Y035753D01*
X011667Y035614D01*
X011667Y035133D01*
X011407Y034873D01*
X011587Y034694D01*
X011846Y034953D01*
X012327Y034953D01*
X012587Y034694D01*
X012766Y034873D01*
X012507Y035133D01*
X012507Y035614D01*
X012846Y035953D01*
X013327Y035953D01*
X013587Y035694D01*
X013846Y035953D01*
X014327Y035953D01*
X014587Y035694D01*
X014846Y035953D01*
X015327Y035953D01*
X015587Y035694D01*
X015846Y035953D01*
X016327Y035953D01*
X016667Y035614D01*
X016667Y035133D01*
X016407Y034873D01*
X016667Y034614D01*
X016667Y034133D01*
X016327Y033793D01*
X015846Y033793D01*
X015587Y034053D01*
X015327Y033793D01*
X014846Y033793D01*
X014587Y034053D01*
X014327Y033793D01*
X013846Y033793D01*
X013587Y034053D01*
X013327Y033793D01*
X012846Y033793D01*
X012587Y034053D01*
X012327Y033793D01*
X011846Y033793D01*
X011587Y034053D01*
X011327Y033793D01*
X010846Y033793D01*
X010587Y034053D01*
X010327Y033793D01*
X009846Y033793D01*
X009587Y034053D01*
X009327Y033793D01*
X009111Y033793D01*
X009434Y033482D01*
X009439Y033480D01*
X009503Y033416D01*
X009568Y033353D01*
X009570Y033349D01*
X011157Y031762D01*
X011481Y032086D01*
X011481Y032403D01*
X011523Y032506D01*
X011602Y032585D01*
X011705Y032628D01*
X012446Y032628D01*
X012549Y032585D01*
X012628Y032506D01*
X012670Y032403D01*
X012670Y031583D01*
X012628Y031480D01*
X012549Y031402D01*
X012446Y031359D01*
X012111Y031359D01*
X011720Y030968D01*
X011797Y030999D01*
X012617Y030999D01*
X012720Y030957D01*
X012798Y030878D01*
X012841Y030775D01*
X012841Y030034D01*
X012798Y029931D01*
X012720Y029852D01*
X012617Y029810D01*
X011797Y029810D01*
X011745Y029831D01*
X011745Y029818D01*
X011672Y029643D01*
X011537Y029508D01*
X011362Y029435D01*
X011172Y029435D01*
X010996Y029508D01*
X010861Y029643D01*
X010789Y029818D01*
X010789Y030008D01*
X010861Y030184D01*
X010996Y030319D01*
X011172Y030391D01*
X011264Y030391D01*
X011565Y030693D01*
X011572Y030696D01*
X011572Y030727D01*
X011500Y030655D01*
X011310Y030576D01*
X011104Y030576D01*
X010914Y030655D01*
X010867Y030701D01*
X010855Y030706D01*
X010480Y031081D01*
X008831Y032731D01*
X008387Y033158D01*
X008387Y032813D01*
X008047Y032473D01*
X007566Y032473D01*
X007307Y032733D01*
X007127Y032553D01*
X007387Y032294D01*
X007387Y031813D01*
X007127Y031553D01*
X007307Y031374D01*
X007566Y031633D01*
X008047Y031633D01*
X008387Y031294D01*
X008387Y030813D01*
X008127Y030553D01*
X008387Y030294D01*
X008387Y029813D01*
X008127Y029553D01*
X008387Y029294D01*
X008387Y028813D01*
X008127Y028553D01*
X008387Y028294D01*
X008387Y027813D01*
X008127Y027553D01*
X008387Y027294D01*
X008387Y026813D01*
X008127Y026553D01*
X008387Y026294D01*
X008387Y025813D01*
X008047Y025473D01*
X007566Y025473D01*
X007307Y025733D01*
X007047Y025473D01*
X006566Y025473D01*
X006227Y025813D01*
X006227Y026294D01*
X006486Y026553D01*
X006227Y026813D01*
X006227Y027294D01*
X006486Y027553D01*
X006227Y027813D01*
X006227Y028294D01*
X006566Y028633D01*
X007047Y028633D01*
X007307Y028374D01*
X007486Y028553D01*
X007227Y028813D01*
X007227Y029294D01*
X007486Y029553D01*
X007307Y029733D01*
X007047Y029473D01*
X006566Y029473D01*
X006227Y029813D01*
X006227Y030294D01*
X006486Y030553D01*
X006227Y030813D01*
X006227Y031294D01*
X006486Y031553D01*
X006422Y031617D01*
X005547Y031626D01*
X005547Y031607D01*
X006046Y031107D01*
X006147Y030865D01*
X006147Y024229D01*
X006256Y024339D01*
X006432Y024411D01*
X006622Y024411D01*
X006797Y024339D01*
X006901Y024235D01*
X006921Y024284D01*
X007056Y024419D01*
X007232Y024491D01*
X007422Y024491D01*
X007597Y024419D01*
X007732Y024284D01*
X007805Y024108D01*
X007805Y024016D01*
X008587Y023233D01*
X008786Y023233D01*
X008467Y023553D01*
X008467Y024034D01*
X008726Y024293D01*
X008467Y024553D01*
X008467Y025034D01*
X008806Y025373D01*
X009287Y025373D01*
X009547Y025114D01*
X009806Y025373D01*
X010287Y025373D01*
X010547Y025114D01*
X010806Y025373D01*
X011287Y025373D01*
X011547Y025114D01*
X011806Y025373D01*
X012287Y025373D01*
X012547Y025114D01*
X012806Y025373D01*
X013287Y025373D01*
X013547Y025114D01*
X013806Y025373D01*
X014287Y025373D01*
X014547Y025114D01*
X014806Y025373D01*
X015287Y025373D01*
X015547Y025114D01*
X015806Y025373D01*
X016287Y025373D01*
X016627Y025034D01*
X016627Y024553D01*
X016367Y024293D01*
X016627Y024034D01*
X016627Y023553D01*
X016407Y023333D01*
X016526Y023333D01*
X020754Y027562D01*
X020879Y027613D01*
X030706Y027613D01*
X033629Y030536D01*
X033629Y030628D01*
X033701Y030804D01*
X033836Y030939D01*
X034012Y031011D01*
X034202Y031011D01*
X034377Y030939D01*
X034512Y030804D01*
X034585Y030628D01*
X034585Y030438D01*
X034512Y030263D01*
X034377Y030128D01*
X034202Y030055D01*
X034109Y030055D01*
X031067Y027013D01*
X031526Y027013D01*
X034029Y029516D01*
X034029Y029608D01*
X034101Y029784D01*
X034236Y029919D01*
X034412Y029991D01*
X034602Y029991D01*
X034777Y029919D01*
X034912Y029784D01*
X034985Y029608D01*
X034985Y029418D01*
X034912Y029243D01*
X034777Y029108D01*
X034602Y029035D01*
X034509Y029035D01*
X031859Y026385D01*
X031734Y026333D01*
X021167Y026333D01*
X017215Y022381D01*
X017119Y022285D01*
X016994Y022233D01*
X014663Y022233D01*
X014772Y022124D01*
X014845Y021948D01*
X014845Y021758D01*
X014772Y021583D01*
X014637Y021448D01*
X014462Y021375D01*
X014369Y021375D01*
X014067Y021073D01*
X014067Y019786D01*
X014015Y019661D01*
X013919Y019565D01*
X013279Y018925D01*
X013154Y018873D01*
X009339Y018873D01*
X009214Y018925D01*
X009118Y019021D01*
X008158Y019981D01*
X008107Y020106D01*
X008107Y020593D01*
X007506Y021193D01*
X006943Y021193D01*
X006877Y021128D01*
X006702Y021055D01*
X006512Y021055D01*
X006336Y021128D01*
X006201Y021263D01*
X006147Y021395D01*
X006147Y017807D01*
X006980Y016973D01*
X014573Y016973D01*
X017853Y020253D01*
X018095Y020353D01*
X018458Y020353D01*
X018530Y020323D01*
X020273Y020323D01*
X020355Y020357D01*
X020619Y020357D01*
X020863Y020256D01*
X021049Y020069D01*
X021151Y019825D01*
X021151Y019561D01*
X021049Y019317D01*
X020863Y019131D01*
X020619Y019029D01*
X020355Y019029D01*
X020273Y019063D01*
X018530Y019063D01*
X018530Y019063D01*
X015406Y015939D01*
X015221Y015754D01*
X014978Y015653D01*
X006575Y015653D01*
X006333Y015754D01*
X005113Y016974D01*
X004927Y017159D01*
X004827Y017402D01*
X004827Y030460D01*
X004513Y030774D01*
X004513Y030774D01*
X004327Y030959D01*
X004227Y031202D01*
X004227Y035545D01*
X004257Y035617D01*
X004257Y036423D01*
X002621Y036423D01*
X002493Y036476D01*
X002335Y036476D01*
X002123Y036564D01*
X001961Y036727D01*
X001873Y036939D01*
X001873Y037168D01*
X001961Y037380D01*
X002123Y037542D01*
X002335Y037630D01*
X002493Y037630D01*
X002621Y037683D01*
X004257Y037683D01*
X004257Y039583D01*
X002721Y039583D01*
X002490Y039679D01*
X002433Y039736D01*
X002335Y039736D01*
X002123Y039824D01*
X001961Y039987D01*
X001873Y040199D01*
X001873Y040428D01*
X001961Y040640D01*
X002123Y040802D01*
X002335Y040890D01*
X002493Y040890D01*
X002621Y040943D01*
X002872Y040943D01*
X003000Y040890D01*
X003158Y040890D01*
X003271Y040843D01*
X004257Y040843D01*
X004257Y042943D01*
X002621Y042943D01*
X002493Y042996D01*
X002335Y042996D01*
X002123Y043084D01*
X001961Y043247D01*
X001873Y043459D01*
X001873Y043688D01*
X001961Y043900D01*
X002123Y044062D01*
X002335Y044150D01*
X002493Y044150D01*
X002621Y044203D01*
X004257Y044203D01*
X004257Y046203D01*
X002621Y046203D01*
X002493Y046256D01*
X002335Y046256D01*
X002123Y046344D01*
X001961Y046507D01*
X001873Y046719D01*
X001873Y046948D01*
X001961Y047160D01*
X002123Y047322D01*
X002335Y047410D01*
X002493Y047410D01*
X002557Y047436D01*
X002335Y047436D01*
X002123Y047524D01*
X001961Y047687D01*
X001873Y047899D01*
X001873Y048128D01*
X001961Y048340D01*
X002123Y048502D01*
X002335Y048590D01*
X003158Y048590D01*
X003370Y048502D01*
X003533Y048340D01*
X003620Y048128D01*
X003620Y047899D01*
X003533Y047687D01*
X003370Y047524D01*
X003223Y047463D01*
X004257Y047463D01*
X004257Y048832D01*
X003706Y049383D01*
X002621Y049383D01*
X002493Y049436D01*
X002335Y049436D01*
X002123Y049524D01*
X001961Y049687D01*
X001873Y049899D01*
X001873Y050128D01*
X001961Y050340D01*
X002074Y050453D01*
X000967Y050453D01*
X000967Y027550D01*
X001071Y027593D01*
X001902Y027593D01*
X002115Y027505D01*
X002247Y027374D01*
X002378Y027505D01*
X002591Y027593D01*
X003422Y027593D01*
X003635Y027505D01*
X003798Y027342D01*
X003887Y027129D01*
X003887Y026898D01*
X003798Y026685D01*
X003635Y026522D01*
X003615Y026513D01*
X003635Y026505D01*
X003798Y026342D01*
X003887Y026129D01*
X003887Y025898D01*
X003798Y025685D01*
X003635Y025522D01*
X003422Y025433D01*
X002591Y025433D01*
X002378Y025522D01*
X002247Y025653D01*
X002115Y025522D01*
X001902Y025433D01*
X001071Y025433D01*
X000967Y025477D01*
X000967Y023550D01*
X001071Y023593D01*
X001902Y023593D01*
X002115Y023505D01*
X002247Y023374D01*
X002378Y023505D01*
X002591Y023593D01*
X003422Y023593D01*
X003635Y023505D01*
X003798Y023342D01*
X003887Y023129D01*
X003887Y022898D01*
X003798Y022685D01*
X003635Y022522D01*
X003615Y022513D01*
X003635Y022505D01*
X003798Y022342D01*
X003887Y022129D01*
X003887Y021898D01*
X003798Y021685D01*
X003635Y021522D01*
X003422Y021433D01*
X002591Y021433D01*
X002378Y021522D01*
X002247Y021653D01*
X002115Y021522D01*
X001902Y021433D01*
X001071Y021433D01*
X000967Y021477D01*
X000967Y021244D02*
X004827Y021244D01*
X004827Y021006D02*
X000967Y021006D01*
X000967Y020767D02*
X004827Y020767D01*
X004827Y020529D02*
X000967Y020529D01*
X000967Y020290D02*
X004827Y020290D01*
X004827Y020052D02*
X000967Y020052D01*
X000967Y019813D02*
X004827Y019813D01*
X004827Y019575D02*
X000967Y019575D01*
X000967Y019336D02*
X004827Y019336D01*
X004827Y019098D02*
X000967Y019098D01*
X000967Y018859D02*
X004827Y018859D01*
X004827Y018621D02*
X000967Y018621D01*
X000967Y018382D02*
X004827Y018382D01*
X004827Y018144D02*
X000967Y018144D01*
X000967Y017905D02*
X004827Y017905D01*
X004827Y017667D02*
X000967Y017667D01*
X000967Y017428D02*
X004827Y017428D01*
X004915Y017190D02*
X000967Y017190D01*
X000967Y016951D02*
X005135Y016951D01*
X005374Y016713D02*
X000967Y016713D01*
X000967Y016474D02*
X005612Y016474D01*
X005851Y016236D02*
X000967Y016236D01*
X000967Y015997D02*
X006089Y015997D01*
X006328Y015759D02*
X000967Y015759D01*
X000967Y015520D02*
X013998Y015520D01*
X014016Y015539D02*
X013881Y015404D01*
X013809Y015228D01*
X013809Y015038D01*
X013881Y014863D01*
X013947Y014797D01*
X013947Y013500D01*
X013822Y013551D01*
X013632Y013551D01*
X013456Y013479D01*
X013391Y013413D01*
X008211Y013413D01*
X008147Y013415D01*
X008143Y013413D01*
X008139Y013413D01*
X008080Y013389D01*
X008021Y013366D01*
X008018Y013363D01*
X008014Y013362D01*
X007969Y013317D01*
X006676Y012082D01*
X006670Y012079D01*
X006627Y012035D01*
X006583Y011992D01*
X006580Y011987D01*
X006576Y011982D01*
X006553Y011925D01*
X006528Y011869D01*
X006528Y011862D01*
X006526Y011857D01*
X006527Y011795D01*
X006525Y011734D01*
X006527Y011728D01*
X006547Y010211D01*
X006547Y010146D01*
X006548Y010144D01*
X006548Y010141D01*
X006573Y010081D01*
X006598Y010021D01*
X006600Y010019D01*
X006601Y010017D01*
X006648Y009971D01*
X007069Y009551D01*
X007069Y009458D01*
X007098Y009388D01*
X005933Y010552D01*
X005786Y010613D01*
X005023Y010613D01*
X005017Y010619D01*
X004842Y010691D01*
X004652Y010691D01*
X004476Y010619D01*
X004341Y010484D01*
X004269Y010308D01*
X004269Y010118D01*
X004341Y009943D01*
X004476Y009808D01*
X004652Y009735D01*
X004842Y009735D01*
X005017Y009808D01*
X005023Y009813D01*
X005541Y009813D01*
X007048Y008307D01*
X007160Y008194D01*
X007307Y008133D01*
X011463Y008133D01*
X011559Y008093D01*
X011734Y008093D01*
X011831Y008133D01*
X015446Y008133D01*
X015593Y008194D01*
X016397Y008998D01*
X016415Y008998D01*
X016616Y009081D01*
X016847Y009081D01*
X016769Y009234D02*
X016616Y009081D01*
X016769Y009234D02*
X016847Y009421D01*
X016847Y008856D01*
X016008Y008017D01*
X015835Y008017D01*
X015591Y007916D01*
X015404Y007729D01*
X015351Y007601D01*
X011542Y003811D01*
X011541Y003810D01*
X011456Y003725D01*
X011415Y003684D01*
X011384Y003759D01*
X009524Y005619D01*
X009352Y005790D01*
X009128Y005883D01*
X007425Y005883D01*
X007201Y005790D01*
X007030Y005619D01*
X006937Y005395D01*
X006937Y005213D01*
X006697Y005453D01*
X006697Y008030D01*
X006742Y008139D01*
X006742Y008368D01*
X006654Y008579D01*
X006493Y008741D01*
X006281Y008829D01*
X006052Y008829D01*
X005841Y008741D01*
X005679Y008579D01*
X005591Y008368D01*
X005591Y008139D01*
X005637Y008030D01*
X005637Y005128D01*
X005717Y004933D01*
X006997Y003653D01*
X007146Y003504D01*
X007341Y003423D01*
X008607Y003423D01*
X009277Y002754D01*
X009277Y002088D01*
X009290Y002056D01*
X009290Y001722D01*
X009378Y001510D01*
X009540Y001347D01*
X009752Y001260D01*
X009981Y001260D01*
X010193Y001347D01*
X010356Y001510D01*
X010367Y001536D01*
X010378Y001510D01*
X010540Y001347D01*
X010752Y001260D01*
X010981Y001260D01*
X011193Y001347D01*
X011356Y001510D01*
X011367Y001536D01*
X011378Y001510D01*
X011540Y001347D01*
X011752Y001260D01*
X011981Y001260D01*
X012193Y001347D01*
X012356Y001510D01*
X012367Y001536D01*
X012378Y001510D01*
X012540Y001347D01*
X012752Y001260D01*
X012981Y001260D01*
X013193Y001347D01*
X013356Y001510D01*
X013444Y001722D01*
X013444Y001932D01*
X013477Y002012D01*
X013477Y002255D01*
X013457Y002303D01*
X013457Y002321D01*
X015684Y004548D01*
X015698Y004582D01*
X017293Y006177D01*
X017423Y006231D01*
X017609Y006417D01*
X017711Y006661D01*
X017711Y006925D01*
X017609Y007169D01*
X017423Y007356D01*
X017179Y007457D01*
X016915Y007457D01*
X016671Y007356D01*
X016631Y007316D01*
X016631Y007395D01*
X017660Y008424D01*
X017727Y008586D01*
X017727Y010195D01*
X017784Y010334D01*
X017784Y010532D01*
X017709Y010715D01*
X017569Y010855D01*
X017386Y010931D01*
X017188Y010931D01*
X017005Y010855D01*
X016865Y010715D01*
X016789Y010532D01*
X016789Y010334D01*
X016847Y010195D01*
X016847Y009666D01*
X016769Y009852D01*
X016616Y010006D01*
X016415Y010089D01*
X016557Y010148D01*
X016692Y010283D01*
X016765Y010458D01*
X016765Y010648D01*
X016692Y010824D01*
X016627Y010889D01*
X016627Y013101D01*
X016575Y013226D01*
X016479Y013322D01*
X015485Y014316D01*
X015485Y014408D01*
X015412Y014584D01*
X015277Y014719D01*
X015102Y014791D01*
X014912Y014791D01*
X014736Y014719D01*
X014627Y014609D01*
X014627Y014797D01*
X014692Y014863D01*
X014765Y015038D01*
X014765Y015228D01*
X014692Y015404D01*
X014557Y015539D01*
X014382Y015611D01*
X014192Y015611D01*
X014016Y015539D01*
X013831Y015282D02*
X000967Y015282D01*
X000967Y015043D02*
X013809Y015043D01*
X013939Y014805D02*
X000967Y014805D01*
X000967Y014566D02*
X013947Y014566D01*
X013947Y014328D02*
X000967Y014328D01*
X000967Y014089D02*
X013947Y014089D01*
X013947Y013851D02*
X000967Y013851D01*
X000967Y013612D02*
X013947Y013612D01*
X014205Y013074D02*
X015047Y012233D01*
X015047Y010534D01*
X015024Y010511D01*
X014932Y010511D01*
X014756Y010439D01*
X014621Y010304D01*
X014549Y010128D01*
X014549Y009938D01*
X014621Y009763D01*
X014756Y009628D01*
X014932Y009555D01*
X015122Y009555D01*
X015297Y009628D01*
X015432Y009763D01*
X015505Y009938D01*
X015505Y010031D01*
X015675Y010201D01*
X015727Y010326D01*
X015727Y012441D01*
X015675Y012566D01*
X015579Y012662D01*
X014627Y013614D01*
X014627Y014017D01*
X014736Y013908D01*
X014912Y013835D01*
X015004Y013835D01*
X015947Y012893D01*
X015947Y010889D01*
X015881Y010824D01*
X015809Y010648D01*
X015809Y010458D01*
X015881Y010283D01*
X016016Y010148D01*
X016178Y010081D01*
X015998Y010006D01*
X015844Y009852D01*
X015761Y009652D01*
X015761Y009493D01*
X015201Y008933D01*
X012178Y008933D01*
X012178Y009168D01*
X012211Y009182D01*
X012290Y009260D01*
X012333Y009363D01*
X012333Y010183D01*
X012290Y010286D01*
X012211Y010365D01*
X012109Y010408D01*
X011367Y010408D01*
X011264Y010365D01*
X011186Y010286D01*
X011143Y010183D01*
X011143Y009363D01*
X011186Y009260D01*
X011264Y009182D01*
X011298Y009168D01*
X011298Y008933D01*
X007552Y008933D01*
X007381Y009104D01*
X007452Y009075D01*
X007642Y009075D01*
X007817Y009148D01*
X007952Y009283D01*
X008025Y009458D01*
X008025Y009648D01*
X007952Y009824D01*
X007817Y009959D01*
X007642Y010031D01*
X007549Y010031D01*
X007225Y010356D01*
X007209Y011650D01*
X008343Y012733D01*
X013391Y012733D01*
X013456Y012668D01*
X013632Y012595D01*
X013822Y012595D01*
X013997Y012668D01*
X014132Y012803D01*
X014205Y012978D01*
X014205Y013074D01*
X014171Y012897D02*
X014382Y012897D01*
X014621Y012658D02*
X013974Y012658D01*
X013479Y012658D02*
X008264Y012658D01*
X008015Y012420D02*
X014859Y012420D01*
X015047Y012181D02*
X007765Y012181D01*
X007515Y011943D02*
X015047Y011943D01*
X015047Y011704D02*
X007266Y011704D01*
X007211Y011466D02*
X015047Y011466D01*
X015047Y011227D02*
X007214Y011227D01*
X007217Y010989D02*
X015047Y010989D01*
X015047Y010750D02*
X007220Y010750D01*
X007223Y010512D02*
X015024Y010512D01*
X014609Y010273D02*
X012296Y010273D01*
X012333Y010035D02*
X014549Y010035D01*
X014607Y009796D02*
X012333Y009796D01*
X012333Y009558D02*
X014925Y009558D01*
X015128Y009558D02*
X015761Y009558D01*
X015821Y009796D02*
X015446Y009796D01*
X015509Y010035D02*
X016067Y010035D01*
X015891Y010273D02*
X015705Y010273D01*
X015727Y010512D02*
X015809Y010512D01*
X015851Y010750D02*
X015727Y010750D01*
X015727Y010989D02*
X015947Y010989D01*
X015947Y011227D02*
X015727Y011227D01*
X015727Y011466D02*
X015947Y011466D01*
X015947Y011704D02*
X015727Y011704D01*
X015727Y011943D02*
X015947Y011943D01*
X015947Y012181D02*
X015727Y012181D01*
X015727Y012420D02*
X015947Y012420D01*
X015947Y012658D02*
X015582Y012658D01*
X015344Y012897D02*
X015942Y012897D01*
X015704Y013135D02*
X015105Y013135D01*
X014867Y013374D02*
X015465Y013374D01*
X015227Y013612D02*
X014628Y013612D01*
X014627Y013851D02*
X014874Y013851D01*
X015485Y014328D02*
X035570Y014328D01*
X035332Y014566D02*
X015419Y014566D01*
X015711Y014089D02*
X035809Y014089D01*
X036047Y013851D02*
X015950Y013851D01*
X016188Y013612D02*
X036732Y013612D01*
X036992Y013374D02*
X016427Y013374D01*
X016612Y013135D02*
X036978Y013135D01*
X036947Y012897D02*
X016627Y012897D01*
X016627Y012658D02*
X036947Y012658D01*
X036947Y012420D02*
X016627Y012420D01*
X016627Y012181D02*
X036947Y012181D01*
X036947Y011943D02*
X016627Y011943D01*
X016627Y011704D02*
X036947Y011704D01*
X036947Y011466D02*
X016627Y011466D01*
X016627Y011227D02*
X036947Y011227D01*
X036947Y010989D02*
X016627Y010989D01*
X016723Y010750D02*
X016900Y010750D01*
X016789Y010512D02*
X016765Y010512D01*
X016814Y010273D02*
X016683Y010273D01*
X016546Y010035D02*
X016847Y010035D01*
X016847Y009796D02*
X016793Y009796D01*
X016805Y009319D02*
X016847Y009319D01*
X016833Y008842D02*
X016241Y008842D01*
X016003Y008604D02*
X016595Y008604D01*
X016356Y008365D02*
X015764Y008365D01*
X016118Y008127D02*
X011815Y008127D01*
X011478Y008127D02*
X006737Y008127D01*
X006742Y008365D02*
X006989Y008365D01*
X006750Y008604D02*
X006630Y008604D01*
X006512Y008842D02*
X000967Y008842D01*
X000967Y008604D02*
X005704Y008604D01*
X005591Y008365D02*
X000967Y008365D01*
X000967Y008127D02*
X005596Y008127D01*
X005637Y007888D02*
X000967Y007888D01*
X000967Y007650D02*
X005637Y007650D01*
X005637Y007411D02*
X000967Y007411D01*
X000967Y007173D02*
X005637Y007173D01*
X005637Y006934D02*
X000967Y006934D01*
X000967Y006696D02*
X005637Y006696D01*
X005637Y006457D02*
X000967Y006457D01*
X000967Y006219D02*
X005637Y006219D01*
X005637Y005980D02*
X000967Y005980D01*
X000967Y005742D02*
X005637Y005742D01*
X005637Y005503D02*
X000967Y005503D01*
X000967Y005265D02*
X005637Y005265D01*
X005679Y005026D02*
X000967Y005026D01*
X000967Y004788D02*
X005863Y004788D01*
X006101Y004549D02*
X000967Y004549D01*
X000967Y004311D02*
X006340Y004311D01*
X006578Y004072D02*
X000967Y004072D01*
X000967Y003834D02*
X006817Y003834D01*
X007055Y003595D02*
X000967Y003595D01*
X000967Y003357D02*
X008674Y003357D01*
X008912Y003118D02*
X003274Y003118D01*
X003338Y003082D02*
X003096Y003221D01*
X002826Y003293D01*
X002547Y003293D01*
X002278Y003221D01*
X002036Y003082D01*
X001838Y002884D01*
X001699Y002642D01*
X001627Y002373D01*
X001627Y002094D01*
X001699Y001824D01*
X001838Y001582D01*
X002036Y001385D01*
X002278Y001246D01*
X002547Y001173D01*
X002826Y001173D01*
X003096Y001246D01*
X003338Y001385D01*
X003535Y001582D01*
X003674Y001824D01*
X003747Y002094D01*
X003747Y002373D01*
X003674Y002642D01*
X003535Y002884D01*
X003338Y003082D01*
X003537Y002880D02*
X009151Y002880D01*
X009277Y002641D02*
X003675Y002641D01*
X003739Y002403D02*
X009277Y002403D01*
X009277Y002164D02*
X003747Y002164D01*
X003702Y001926D02*
X009290Y001926D01*
X009304Y001687D02*
X003595Y001687D01*
X003401Y001449D02*
X009439Y001449D01*
X010295Y001449D02*
X010439Y001449D01*
X011295Y001449D02*
X011439Y001449D01*
X011887Y002133D02*
X011887Y003293D01*
X011565Y003834D02*
X011309Y003834D01*
X011070Y004072D02*
X011805Y004072D01*
X012044Y004311D02*
X010832Y004311D01*
X010593Y004549D02*
X012284Y004549D01*
X012524Y004788D02*
X010355Y004788D01*
X010116Y005026D02*
X012763Y005026D01*
X013003Y005265D02*
X009878Y005265D01*
X009639Y005503D02*
X013243Y005503D01*
X013482Y005742D02*
X009401Y005742D01*
X007153Y005742D02*
X006697Y005742D01*
X006697Y005980D02*
X013722Y005980D01*
X013962Y006219D02*
X006697Y006219D01*
X006697Y006457D02*
X014201Y006457D01*
X014441Y006696D02*
X006697Y006696D01*
X006697Y006934D02*
X014681Y006934D01*
X014920Y007173D02*
X006697Y007173D01*
X006697Y007411D02*
X015160Y007411D01*
X015371Y007650D02*
X006697Y007650D01*
X006697Y007888D02*
X015563Y007888D01*
X015367Y008533D02*
X016367Y009533D01*
X016317Y009533D01*
X016307Y009543D01*
X016415Y010089D02*
X016415Y010089D01*
X015587Y009319D02*
X012315Y009319D01*
X012178Y009081D02*
X015348Y009081D01*
X015367Y008533D02*
X011647Y008533D01*
X007387Y008533D01*
X005707Y010213D01*
X004747Y010213D01*
X004303Y010035D02*
X000967Y010035D01*
X000967Y010273D02*
X004269Y010273D01*
X004369Y010512D02*
X000967Y010512D01*
X000967Y010750D02*
X006540Y010750D01*
X006543Y010512D02*
X005974Y010512D01*
X006212Y010273D02*
X006546Y010273D01*
X006593Y010035D02*
X006451Y010035D01*
X006689Y009796D02*
X006823Y009796D01*
X006928Y009558D02*
X007061Y009558D01*
X007405Y009081D02*
X007438Y009081D01*
X007655Y009081D02*
X011298Y009081D01*
X011161Y009319D02*
X007967Y009319D01*
X008025Y009558D02*
X011143Y009558D01*
X011143Y009796D02*
X007964Y009796D01*
X007546Y010035D02*
X011143Y010035D01*
X011180Y010273D02*
X007307Y010273D01*
X006537Y010989D02*
X000967Y010989D01*
X000967Y011227D02*
X006534Y011227D01*
X006531Y011466D02*
X000967Y011466D01*
X000967Y011704D02*
X006528Y011704D01*
X006560Y011943D02*
X000967Y011943D01*
X000967Y012181D02*
X006781Y012181D01*
X007030Y012420D02*
X000967Y012420D01*
X000967Y012658D02*
X007280Y012658D01*
X007530Y012897D02*
X000967Y012897D01*
X000967Y013135D02*
X007779Y013135D01*
X008041Y013374D02*
X000967Y013374D01*
X000967Y009796D02*
X004504Y009796D01*
X004989Y009796D02*
X005558Y009796D01*
X005796Y009558D02*
X000967Y009558D01*
X000967Y009319D02*
X006035Y009319D01*
X006273Y009081D02*
X000967Y009081D01*
X000967Y003118D02*
X002100Y003118D01*
X001836Y002880D02*
X000967Y002880D01*
X000967Y002641D02*
X001699Y002641D01*
X001635Y002403D02*
X000967Y002403D01*
X000967Y002164D02*
X001627Y002164D01*
X001672Y001926D02*
X000967Y001926D01*
X000967Y001687D02*
X001778Y001687D01*
X001972Y001449D02*
X000967Y001449D01*
X000967Y001210D02*
X002409Y001210D01*
X002964Y001210D02*
X025894Y001210D01*
X025894Y001211D02*
X025910Y001194D01*
X025963Y001172D01*
X026012Y001145D01*
X026035Y001142D01*
X026057Y001133D01*
X026114Y001133D01*
X026170Y001127D01*
X026193Y001133D01*
X027263Y001133D01*
X027285Y001111D01*
X027468Y001036D01*
X027666Y001036D01*
X027849Y001111D01*
X027989Y001251D01*
X028064Y001434D01*
X028064Y001632D01*
X027989Y001815D01*
X027849Y001955D01*
X027719Y002009D01*
X027762Y002053D01*
X027835Y002228D01*
X027835Y002418D01*
X027797Y002510D01*
X027797Y003631D01*
X027890Y003670D01*
X027968Y003749D01*
X028011Y003851D01*
X028011Y004593D01*
X027968Y004696D01*
X027891Y004773D01*
X027968Y004851D01*
X028011Y004954D01*
X028011Y005695D01*
X027968Y005798D01*
X027890Y005877D01*
X027817Y005907D01*
X027817Y005931D01*
X027750Y006093D01*
X027566Y006276D01*
X027509Y006415D01*
X027369Y006555D01*
X027186Y006631D01*
X026988Y006631D01*
X026805Y006555D01*
X026665Y006415D01*
X026589Y006232D01*
X026589Y006034D01*
X026665Y005851D01*
X026765Y005751D01*
X026742Y005695D01*
X026742Y004954D01*
X026785Y004851D01*
X026863Y004773D01*
X026785Y004696D01*
X026742Y004593D01*
X026742Y003851D01*
X026785Y003749D01*
X026864Y003670D01*
X026917Y003648D01*
X026917Y002510D01*
X026879Y002418D01*
X026879Y002228D01*
X026951Y002053D01*
X027071Y001933D01*
X026330Y001933D01*
X024694Y003990D01*
X024694Y004072D01*
X026742Y004072D01*
X026750Y003834D02*
X024819Y003834D01*
X024694Y004072D02*
X024619Y004255D01*
X024479Y004395D01*
X024296Y004471D01*
X024098Y004471D01*
X023915Y004395D01*
X023775Y004255D01*
X023699Y004072D01*
X015208Y004072D01*
X014970Y003834D02*
X023716Y003834D01*
X023699Y003874D02*
X023775Y003691D01*
X023915Y003551D01*
X024073Y003486D01*
X025789Y001328D01*
X025798Y001307D01*
X025838Y001267D01*
X025873Y001222D01*
X025894Y001211D01*
X025693Y001449D02*
X013295Y001449D01*
X013429Y001687D02*
X025503Y001687D01*
X025314Y001926D02*
X013444Y001926D01*
X013477Y002164D02*
X025124Y002164D01*
X024934Y002403D02*
X013539Y002403D01*
X013777Y002641D02*
X024745Y002641D01*
X024555Y002880D02*
X014016Y002880D01*
X014254Y003118D02*
X024365Y003118D01*
X024176Y003357D02*
X014493Y003357D01*
X014731Y003595D02*
X023871Y003595D01*
X023699Y003874D02*
X023699Y004072D01*
X023830Y004311D02*
X015447Y004311D01*
X015684Y004549D02*
X026742Y004549D01*
X026742Y004311D02*
X024563Y004311D01*
X024197Y003973D02*
X026137Y001533D01*
X027567Y001533D01*
X027948Y001210D02*
X031409Y001210D01*
X031278Y001246D02*
X031547Y001173D01*
X031826Y001173D01*
X032096Y001246D01*
X032338Y001385D01*
X032535Y001582D01*
X032674Y001824D01*
X032747Y002094D01*
X032747Y002373D01*
X032674Y002642D01*
X032535Y002884D01*
X032338Y003082D01*
X032096Y003221D01*
X031826Y003293D01*
X031547Y003293D01*
X031278Y003221D01*
X031036Y003082D01*
X030838Y002884D01*
X030699Y002642D01*
X030627Y002373D01*
X030627Y002094D01*
X030699Y001824D01*
X030838Y001582D01*
X031036Y001385D01*
X031278Y001246D01*
X030972Y001449D02*
X028064Y001449D01*
X028042Y001687D02*
X030778Y001687D01*
X030672Y001926D02*
X027878Y001926D01*
X027808Y002164D02*
X030627Y002164D01*
X030635Y002403D02*
X027835Y002403D01*
X027797Y002641D02*
X030699Y002641D01*
X030836Y002880D02*
X027797Y002880D01*
X027797Y003118D02*
X031100Y003118D01*
X032274Y003118D02*
X033319Y003118D01*
X033557Y002880D02*
X032537Y002880D01*
X032675Y002641D02*
X033796Y002641D01*
X033813Y002624D02*
X033813Y002535D01*
X033890Y002247D01*
X034039Y001989D01*
X034249Y001779D01*
X034507Y001630D01*
X034794Y001553D01*
X035092Y001553D01*
X035379Y001630D01*
X035637Y001779D01*
X035847Y001989D01*
X035996Y002247D01*
X036073Y002535D01*
X036073Y002832D01*
X035996Y003119D01*
X035847Y003377D01*
X035637Y003588D01*
X035379Y003736D01*
X035092Y003813D01*
X034830Y003813D01*
X034467Y004176D01*
X034467Y004850D01*
X035690Y006073D01*
X039362Y006073D01*
X039649Y006192D01*
X039868Y006411D01*
X039987Y006698D01*
X039987Y007008D01*
X039868Y007295D01*
X039649Y007515D01*
X039362Y007633D01*
X035212Y007633D01*
X034925Y007515D01*
X034705Y007295D01*
X033025Y005615D01*
X032907Y005328D01*
X032907Y003698D01*
X033025Y003411D01*
X033813Y002624D01*
X033848Y002403D02*
X032739Y002403D01*
X032747Y002164D02*
X033938Y002164D01*
X034102Y001926D02*
X032702Y001926D01*
X032595Y001687D02*
X034408Y001687D01*
X035478Y001687D02*
X040407Y001687D01*
X040407Y001449D02*
X032401Y001449D01*
X031964Y001210D02*
X040407Y001210D01*
X040407Y001926D02*
X035784Y001926D01*
X035948Y002164D02*
X040407Y002164D01*
X040407Y002403D02*
X036038Y002403D01*
X036073Y002641D02*
X040407Y002641D01*
X040407Y002880D02*
X036060Y002880D01*
X035996Y003118D02*
X040407Y003118D01*
X040407Y003357D02*
X035859Y003357D01*
X035623Y003595D02*
X040407Y003595D01*
X040407Y003834D02*
X034809Y003834D01*
X034571Y004072D02*
X040407Y004072D01*
X040407Y004311D02*
X034467Y004311D01*
X034467Y004549D02*
X040407Y004549D01*
X040407Y004788D02*
X034467Y004788D01*
X034643Y005026D02*
X040407Y005026D01*
X040407Y005265D02*
X034881Y005265D01*
X035120Y005503D02*
X040407Y005503D01*
X040407Y005742D02*
X035358Y005742D01*
X035597Y005980D02*
X040407Y005980D01*
X040407Y006219D02*
X039675Y006219D01*
X039887Y006457D02*
X040407Y006457D01*
X040407Y006696D02*
X039986Y006696D01*
X039987Y006934D02*
X040407Y006934D01*
X040407Y007173D02*
X039919Y007173D01*
X039752Y007411D02*
X040407Y007411D01*
X040407Y007650D02*
X016885Y007650D01*
X016804Y007411D02*
X016647Y007411D01*
X017124Y007888D02*
X040407Y007888D01*
X040407Y008127D02*
X017362Y008127D01*
X017601Y008365D02*
X037008Y008365D01*
X036901Y008604D02*
X017727Y008604D01*
X017727Y008842D02*
X035702Y008842D01*
X035612Y009081D02*
X017727Y009081D01*
X017727Y009319D02*
X035612Y009319D01*
X035612Y009558D02*
X017727Y009558D01*
X017727Y009796D02*
X035612Y009796D01*
X035828Y010035D02*
X017727Y010035D01*
X017759Y010273D02*
X036638Y010273D01*
X036876Y010512D02*
X017784Y010512D01*
X017674Y010750D02*
X036947Y010750D01*
X036901Y008842D02*
X036711Y008842D01*
X037983Y008365D02*
X038111Y008365D01*
X039085Y008365D02*
X040407Y008365D01*
X040407Y008604D02*
X039193Y008604D01*
X039354Y008842D02*
X040407Y008842D01*
X040407Y009081D02*
X039717Y009081D01*
X040079Y009319D02*
X040407Y009319D01*
X040407Y012420D02*
X040245Y012420D01*
X040407Y012658D02*
X039957Y012658D01*
X039669Y012897D02*
X040407Y012897D01*
X040407Y013135D02*
X039382Y013135D01*
X039301Y013374D02*
X040407Y013374D01*
X040407Y013612D02*
X039269Y013612D01*
X040407Y013851D02*
X037735Y013851D01*
X037540Y014089D02*
X040407Y014089D01*
X040407Y014328D02*
X037368Y014328D01*
X037087Y013933D02*
X037587Y013433D01*
X037587Y013123D01*
X036916Y014566D02*
X040407Y014566D01*
X040407Y014805D02*
X036677Y014805D01*
X036439Y015043D02*
X040407Y015043D01*
X040407Y015282D02*
X036200Y015282D01*
X035962Y015520D02*
X040407Y015520D01*
X040407Y015759D02*
X035816Y015759D01*
X035822Y015997D02*
X040407Y015997D01*
X040407Y016236D02*
X038675Y016236D01*
X038842Y016474D02*
X040407Y016474D01*
X040407Y016713D02*
X038865Y016713D01*
X038735Y016951D02*
X040407Y016951D01*
X040407Y017190D02*
X037709Y017190D01*
X037868Y017428D02*
X040407Y017428D01*
X040407Y017667D02*
X037881Y017667D01*
X037741Y017905D02*
X040407Y017905D01*
X040407Y018144D02*
X036102Y018144D01*
X035957Y018382D02*
X040407Y018382D01*
X040407Y018621D02*
X035985Y018621D01*
X035867Y018859D02*
X040407Y018859D01*
X040407Y019098D02*
X024589Y019098D01*
X024358Y019336D02*
X040407Y019336D01*
X040407Y019575D02*
X024103Y019575D01*
X024139Y019560D02*
X024054Y019595D01*
X023969Y019632D01*
X023966Y019632D01*
X023962Y019633D01*
X023870Y019633D01*
X023778Y019635D01*
X023775Y019633D01*
X022751Y019633D01*
X022701Y019643D01*
X022657Y019633D01*
X022611Y019633D01*
X022564Y019614D01*
X022080Y019512D01*
X022052Y019523D01*
X021841Y019523D01*
X021646Y019443D01*
X021497Y019294D01*
X021417Y019099D01*
X021417Y017292D01*
X021411Y017206D01*
X021417Y017187D01*
X021417Y017168D01*
X021450Y017088D01*
X021477Y017006D01*
X021490Y016991D01*
X021497Y016973D01*
X021559Y016912D01*
X021750Y016691D01*
X021757Y016673D01*
X021819Y016612D01*
X021875Y016547D01*
X021893Y016538D01*
X022426Y016004D01*
X022604Y015931D01*
X022633Y015901D01*
X022736Y015859D01*
X023557Y015859D01*
X023660Y015901D01*
X023739Y015980D01*
X023782Y016083D01*
X023782Y016824D01*
X023739Y016927D01*
X023660Y017006D01*
X023642Y017013D01*
X023660Y017021D01*
X023739Y017100D01*
X023782Y017203D01*
X023782Y017944D01*
X023740Y018045D01*
X023860Y018095D01*
X024005Y018240D01*
X024029Y018297D01*
X024249Y018071D01*
X024424Y017995D01*
X024615Y017992D01*
X024792Y018062D01*
X024929Y018195D01*
X025005Y018371D01*
X025008Y018562D01*
X024938Y018739D01*
X024275Y019422D01*
X024274Y019425D01*
X024209Y019490D01*
X024145Y019556D01*
X024141Y019558D01*
X024139Y019560D01*
X024821Y018859D02*
X035147Y018859D01*
X035029Y018621D02*
X024985Y018621D01*
X025005Y018382D02*
X035056Y018382D01*
X034865Y018144D02*
X024876Y018144D01*
X024178Y018144D02*
X023909Y018144D01*
X023782Y017905D02*
X034806Y017905D01*
X034565Y017667D02*
X023782Y017667D01*
X023782Y017428D02*
X034552Y017428D01*
X034552Y017190D02*
X023776Y017190D01*
X023715Y016951D02*
X034552Y016951D01*
X034671Y016713D02*
X023782Y016713D01*
X023782Y016474D02*
X034552Y016474D01*
X034552Y016236D02*
X023782Y016236D01*
X023746Y015997D02*
X034552Y015997D01*
X034558Y015759D02*
X015226Y015759D01*
X015464Y015997D02*
X022443Y015997D01*
X022195Y016236D02*
X015703Y016236D01*
X015941Y016474D02*
X021956Y016474D01*
X021731Y016713D02*
X016180Y016713D01*
X016418Y016951D02*
X021519Y016951D01*
X021416Y017190D02*
X016657Y017190D01*
X016895Y017428D02*
X021417Y017428D01*
X021417Y017667D02*
X017134Y017667D01*
X017372Y017905D02*
X021417Y017905D01*
X021417Y018144D02*
X017611Y018144D01*
X017849Y018382D02*
X021417Y018382D01*
X021417Y018621D02*
X018088Y018621D01*
X018326Y018859D02*
X021417Y018859D01*
X021417Y019098D02*
X020784Y019098D01*
X021057Y019336D02*
X021540Y019336D01*
X021151Y019575D02*
X022379Y019575D01*
X021151Y019813D02*
X040407Y019813D01*
X040407Y020052D02*
X021057Y020052D01*
X020780Y020290D02*
X040407Y020290D01*
X040407Y020529D02*
X014067Y020529D01*
X014067Y020767D02*
X040407Y020767D01*
X040407Y021006D02*
X014067Y021006D01*
X014239Y021244D02*
X040407Y021244D01*
X040407Y021483D02*
X014672Y021483D01*
X014830Y021721D02*
X040407Y021721D01*
X040407Y021960D02*
X014840Y021960D01*
X014698Y022198D02*
X040407Y022198D01*
X040407Y022437D02*
X035675Y022437D01*
X035629Y022410D02*
X035342Y022333D01*
X035044Y022333D01*
X034757Y022410D01*
X034499Y022559D01*
X034289Y022769D01*
X034140Y023027D01*
X034063Y023315D01*
X034063Y023612D01*
X034140Y023899D01*
X034289Y024157D01*
X034499Y024368D01*
X034757Y024516D01*
X035044Y024593D01*
X035342Y024593D01*
X035629Y024516D01*
X035887Y024368D01*
X036097Y024157D01*
X036246Y023899D01*
X036323Y023612D01*
X036323Y023315D01*
X036246Y023027D01*
X036097Y022769D01*
X035887Y022559D01*
X035629Y022410D01*
X036003Y022675D02*
X040407Y022675D01*
X040407Y022914D02*
X036181Y022914D01*
X036279Y023152D02*
X040407Y023152D01*
X040407Y023391D02*
X036323Y023391D01*
X036318Y023629D02*
X040407Y023629D01*
X040407Y023868D02*
X036254Y023868D01*
X036127Y024106D02*
X040407Y024106D01*
X040407Y024345D02*
X035910Y024345D01*
X035379Y024583D02*
X040407Y024583D01*
X040407Y024822D02*
X019656Y024822D01*
X019895Y025060D02*
X040407Y025060D01*
X040407Y025299D02*
X020133Y025299D01*
X020372Y025537D02*
X040407Y025537D01*
X040407Y025776D02*
X020610Y025776D01*
X020849Y026014D02*
X040407Y026014D01*
X040407Y026253D02*
X021087Y026253D01*
X020161Y026968D02*
X019027Y026968D01*
X019027Y026913D02*
X019027Y027394D01*
X018767Y027653D01*
X019027Y027913D01*
X019027Y028394D01*
X018767Y028653D01*
X019027Y028913D01*
X019027Y029394D01*
X018767Y029653D01*
X019027Y029913D01*
X019027Y030394D01*
X018767Y030653D01*
X019027Y030913D01*
X019027Y031394D01*
X018767Y031653D01*
X019027Y031913D01*
X019027Y032394D01*
X018767Y032653D01*
X019027Y032913D01*
X019027Y033394D01*
X018687Y033733D01*
X018206Y033733D01*
X017947Y033474D01*
X017687Y033733D01*
X017206Y033733D01*
X016867Y033394D01*
X016867Y032913D01*
X017126Y032653D01*
X016867Y032394D01*
X016867Y031913D01*
X017126Y031653D01*
X016867Y031394D01*
X016867Y030913D01*
X017126Y030653D01*
X016867Y030394D01*
X016867Y029913D01*
X017126Y029653D01*
X016867Y029394D01*
X016867Y028913D01*
X017126Y028653D01*
X016867Y028394D01*
X016867Y027913D01*
X017126Y027653D01*
X016867Y027394D01*
X016867Y026913D01*
X017126Y026653D01*
X016867Y026394D01*
X016867Y025913D01*
X017206Y025573D01*
X017687Y025573D01*
X017947Y025833D01*
X018206Y025573D01*
X018687Y025573D01*
X019027Y025913D01*
X019027Y026394D01*
X018767Y026653D01*
X019027Y026913D01*
X018843Y026730D02*
X019922Y026730D01*
X019684Y026491D02*
X018929Y026491D01*
X019027Y026253D02*
X019445Y026253D01*
X019207Y026014D02*
X019027Y026014D01*
X018968Y025776D02*
X018889Y025776D01*
X018730Y025537D02*
X008111Y025537D01*
X008349Y025776D02*
X017004Y025776D01*
X016867Y026014D02*
X008387Y026014D01*
X008387Y026253D02*
X016867Y026253D01*
X016964Y026491D02*
X012661Y026491D01*
X012648Y026460D02*
X012690Y026563D01*
X012690Y027383D01*
X012648Y027486D01*
X012569Y027565D01*
X012466Y027608D01*
X012157Y027608D01*
X012157Y027667D01*
X012232Y027743D01*
X012305Y027918D01*
X012305Y028108D01*
X012232Y028284D01*
X012097Y028419D01*
X011922Y028491D01*
X011732Y028491D01*
X011556Y028419D01*
X011421Y028284D01*
X011349Y028108D01*
X011349Y027918D01*
X011421Y027743D01*
X011497Y027667D01*
X011497Y027177D01*
X011501Y027167D01*
X011501Y026563D01*
X011543Y026460D01*
X011622Y026382D01*
X011725Y026339D01*
X012466Y026339D01*
X012569Y026382D01*
X012648Y026460D01*
X012690Y026730D02*
X017050Y026730D01*
X016867Y026968D02*
X012690Y026968D01*
X012690Y027207D02*
X016867Y027207D01*
X016918Y027445D02*
X012665Y027445D01*
X012173Y027684D02*
X017096Y027684D01*
X016867Y027922D02*
X012305Y027922D01*
X012283Y028161D02*
X016867Y028161D01*
X016872Y028399D02*
X012117Y028399D01*
X011585Y028598D02*
X011512Y028423D01*
X011377Y028288D01*
X011202Y028215D01*
X011012Y028215D01*
X010836Y028288D01*
X010751Y028373D01*
X010539Y028373D01*
X010414Y028425D01*
X010318Y028521D01*
X010152Y028687D01*
X009357Y028687D01*
X009254Y028730D01*
X009175Y028809D01*
X009132Y028911D01*
X009132Y029653D01*
X009175Y029756D01*
X009254Y029834D01*
X009357Y029877D01*
X010177Y029877D01*
X010280Y029834D01*
X010358Y029756D01*
X010401Y029653D01*
X010401Y029400D01*
X010747Y029053D01*
X010791Y029053D01*
X010836Y029099D01*
X011012Y029171D01*
X011202Y029171D01*
X011377Y029099D01*
X011512Y028964D01*
X011585Y028788D01*
X011585Y028598D01*
X011585Y028638D02*
X013720Y028638D01*
X013696Y028648D02*
X013872Y028575D01*
X014062Y028575D01*
X014237Y028648D01*
X014372Y028783D01*
X014445Y028958D01*
X014445Y029148D01*
X014403Y029250D01*
X015017Y029250D01*
X015120Y029292D01*
X015198Y029371D01*
X015241Y029474D01*
X015241Y030215D01*
X015198Y030318D01*
X015120Y030397D01*
X015017Y030439D01*
X014197Y030439D01*
X014094Y030397D01*
X014015Y030318D01*
X013972Y030215D01*
X013972Y030193D01*
X013819Y030193D01*
X013694Y030142D01*
X013598Y030046D01*
X013358Y029806D01*
X013307Y029681D01*
X013307Y029226D01*
X013358Y029101D01*
X013489Y028971D01*
X013489Y028958D01*
X013561Y028783D01*
X013696Y028648D01*
X013522Y028876D02*
X011548Y028876D01*
X011338Y029115D02*
X013353Y029115D01*
X013307Y029353D02*
X010447Y029353D01*
X010401Y029592D02*
X010912Y029592D01*
X010789Y029830D02*
X010284Y029830D01*
X009767Y030385D02*
X010849Y029302D01*
X011487Y029302D01*
X012207Y029302D01*
X012667Y029830D02*
X013383Y029830D01*
X013307Y029592D02*
X011621Y029592D01*
X011745Y029830D02*
X011746Y029830D01*
X011418Y030546D02*
X008134Y030546D01*
X008358Y030784D02*
X010777Y030784D01*
X010538Y031023D02*
X008387Y031023D01*
X008387Y031261D02*
X010300Y031261D01*
X010061Y031500D02*
X008180Y031500D01*
X007433Y031500D02*
X007180Y031500D01*
X007312Y031738D02*
X009823Y031738D01*
X009584Y031977D02*
X007387Y031977D01*
X007387Y032215D02*
X009346Y032215D01*
X009107Y032454D02*
X007226Y032454D01*
X007266Y032692D02*
X007347Y032692D01*
X007341Y033408D02*
X007272Y033408D01*
X007631Y033885D02*
X005547Y033885D01*
X005547Y034123D02*
X007384Y034123D01*
X007151Y034362D02*
X005547Y034362D01*
X005547Y034600D02*
X007087Y034600D01*
X007087Y034839D02*
X005547Y034839D01*
X005547Y035077D02*
X007087Y035077D01*
X007087Y035316D02*
X005547Y035316D01*
X005543Y035554D02*
X007087Y035554D01*
X007087Y035793D02*
X005517Y035793D01*
X005517Y036031D02*
X007146Y036031D01*
X007364Y036270D02*
X005517Y036270D01*
X005517Y036508D02*
X007603Y036508D01*
X007841Y036747D02*
X005517Y036747D01*
X005517Y036985D02*
X008080Y036985D01*
X008318Y037224D02*
X005517Y037224D01*
X005517Y037462D02*
X008557Y037462D01*
X008795Y037701D02*
X005517Y037701D01*
X005517Y037939D02*
X009034Y037939D01*
X009272Y038178D02*
X005517Y038178D01*
X005517Y038416D02*
X009511Y038416D01*
X012054Y035793D02*
X012686Y035793D01*
X012509Y036031D02*
X032086Y036031D01*
X032324Y035793D02*
X016487Y035793D01*
X016667Y035554D02*
X032563Y035554D01*
X032801Y035316D02*
X021060Y035316D01*
X020997Y035379D02*
X020822Y035451D01*
X020632Y035451D01*
X020456Y035379D01*
X020321Y035244D01*
X020249Y035068D01*
X020249Y034976D01*
X020238Y034966D01*
X020187Y034841D01*
X020187Y034189D01*
X020121Y034124D01*
X020049Y033948D01*
X020049Y033758D01*
X020121Y033583D01*
X020187Y033517D01*
X020187Y032426D01*
X020238Y032301D01*
X020334Y032205D01*
X021649Y030891D01*
X021649Y030858D01*
X021721Y030683D01*
X021856Y030548D01*
X022032Y030475D01*
X022222Y030475D01*
X022397Y030548D01*
X022532Y030683D01*
X022605Y030858D01*
X022605Y031048D01*
X022532Y031224D01*
X022397Y031359D01*
X022222Y031431D01*
X022069Y031431D01*
X020867Y032634D01*
X020867Y033517D01*
X020932Y033583D01*
X021005Y033758D01*
X021005Y033948D01*
X020932Y034124D01*
X020867Y034189D01*
X020867Y034514D01*
X020997Y034568D01*
X021132Y034703D01*
X021205Y034878D01*
X021205Y035068D01*
X021132Y035244D01*
X020997Y035379D01*
X021201Y035077D02*
X033040Y035077D01*
X033278Y034839D02*
X027257Y034839D01*
X027237Y034859D02*
X027062Y034931D01*
X026872Y034931D01*
X026696Y034859D01*
X026607Y034769D01*
X026517Y034859D01*
X026342Y034931D01*
X026152Y034931D01*
X025976Y034859D01*
X025841Y034724D01*
X025769Y034548D01*
X025769Y034456D01*
X025723Y034410D01*
X025692Y034484D01*
X025557Y034619D01*
X025382Y034691D01*
X025192Y034691D01*
X025016Y034619D01*
X024881Y034484D01*
X024809Y034308D01*
X024809Y034118D01*
X024881Y033943D01*
X024947Y033877D01*
X024947Y030992D01*
X024929Y030948D01*
X024929Y030758D01*
X025001Y030583D01*
X025136Y030448D01*
X025312Y030375D01*
X025502Y030375D01*
X025677Y030448D01*
X025812Y030583D01*
X025885Y030758D01*
X025885Y030948D01*
X025812Y031124D01*
X025812Y031124D01*
X025917Y031168D01*
X025947Y031197D01*
X025976Y031168D01*
X026152Y031095D01*
X026342Y031095D01*
X026517Y031168D01*
X026652Y031303D01*
X026725Y031478D01*
X026725Y031668D01*
X026652Y031844D01*
X026587Y031909D01*
X026587Y033593D01*
X026969Y033975D01*
X027062Y033975D01*
X027237Y034048D01*
X027372Y034183D01*
X027445Y034358D01*
X027445Y034548D01*
X027372Y034724D01*
X027237Y034859D01*
X027423Y034600D02*
X033675Y034600D01*
X034805Y034362D02*
X027445Y034362D01*
X027313Y034123D02*
X040407Y034123D01*
X040407Y033885D02*
X026879Y033885D01*
X026641Y033646D02*
X040407Y033646D01*
X040407Y033408D02*
X026587Y033408D01*
X026587Y033169D02*
X040407Y033169D01*
X040407Y032931D02*
X026587Y032931D01*
X026587Y032692D02*
X040407Y032692D01*
X040407Y032454D02*
X026587Y032454D01*
X026587Y032215D02*
X040407Y032215D01*
X040407Y031977D02*
X026587Y031977D01*
X026696Y031738D02*
X040407Y031738D01*
X040407Y031500D02*
X026725Y031500D01*
X026611Y031261D02*
X040407Y031261D01*
X040407Y031023D02*
X039921Y031023D01*
X039970Y031002D02*
X039758Y031090D01*
X038935Y031090D01*
X038723Y031002D01*
X038561Y030840D01*
X038473Y030628D01*
X038473Y030399D01*
X038561Y030187D01*
X038723Y030024D01*
X038750Y030013D01*
X038723Y030002D01*
X038561Y029840D01*
X038473Y029628D01*
X038473Y029399D01*
X038561Y029187D01*
X038723Y029024D01*
X038935Y028936D01*
X039758Y028936D01*
X039970Y029024D01*
X040133Y029187D01*
X040220Y029399D01*
X040220Y029628D01*
X040133Y029840D01*
X039970Y030002D01*
X039944Y030013D01*
X039970Y030024D01*
X040133Y030187D01*
X040220Y030399D01*
X040220Y030628D01*
X040133Y030840D01*
X039970Y031002D01*
X040156Y030784D02*
X040407Y030784D01*
X040407Y030546D02*
X040220Y030546D01*
X040183Y030307D02*
X040407Y030307D01*
X040407Y030069D02*
X040015Y030069D01*
X040137Y029830D02*
X040407Y029830D01*
X040407Y029592D02*
X040220Y029592D01*
X040202Y029353D02*
X040407Y029353D01*
X040407Y029115D02*
X040061Y029115D01*
X040407Y028876D02*
X034351Y028876D01*
X034112Y028638D02*
X040407Y028638D01*
X040407Y028399D02*
X033874Y028399D01*
X033635Y028161D02*
X040407Y028161D01*
X040407Y027922D02*
X033397Y027922D01*
X033158Y027684D02*
X040407Y027684D01*
X040407Y027445D02*
X032920Y027445D01*
X032681Y027207D02*
X040407Y027207D01*
X040407Y026968D02*
X032443Y026968D01*
X032204Y026730D02*
X040407Y026730D01*
X040407Y026491D02*
X031966Y026491D01*
X031719Y027207D02*
X031261Y027207D01*
X031500Y027445D02*
X031958Y027445D01*
X031738Y027684D02*
X032196Y027684D01*
X031977Y027922D02*
X032435Y027922D01*
X032215Y028161D02*
X032673Y028161D01*
X032454Y028399D02*
X032912Y028399D01*
X032692Y028638D02*
X033150Y028638D01*
X032931Y028876D02*
X033389Y028876D01*
X033169Y029115D02*
X033627Y029115D01*
X033408Y029353D02*
X033866Y029353D01*
X034029Y029592D02*
X033646Y029592D01*
X033885Y029830D02*
X034148Y029830D01*
X034235Y030069D02*
X038678Y030069D01*
X038557Y029830D02*
X034866Y029830D01*
X034985Y029592D02*
X038473Y029592D01*
X038492Y029353D02*
X034958Y029353D01*
X034784Y029115D02*
X038632Y029115D01*
X038511Y030307D02*
X034531Y030307D01*
X034585Y030546D02*
X038473Y030546D01*
X038538Y030784D02*
X034520Y030784D01*
X033693Y030784D02*
X025885Y030784D01*
X025854Y031023D02*
X038773Y031023D01*
X040407Y034362D02*
X035821Y034362D01*
X036138Y034600D02*
X040407Y034600D01*
X040407Y034839D02*
X036309Y034839D01*
X036404Y035077D02*
X040407Y035077D01*
X040407Y035316D02*
X036443Y035316D01*
X036434Y035554D02*
X040407Y035554D01*
X040407Y035793D02*
X036370Y035793D01*
X036238Y036031D02*
X040407Y036031D01*
X040407Y036270D02*
X036014Y036270D01*
X034611Y036270D02*
X034053Y036270D01*
X033815Y036508D02*
X040407Y036508D01*
X040407Y036747D02*
X033576Y036747D01*
X033338Y036985D02*
X040407Y036985D01*
X040407Y037224D02*
X033099Y037224D01*
X032861Y037462D02*
X040407Y037462D01*
X040407Y037701D02*
X032622Y037701D01*
X032384Y037939D02*
X040407Y037939D01*
X040407Y038178D02*
X032145Y038178D01*
X031907Y038416D02*
X036513Y038416D01*
X036353Y038459D02*
X036678Y038372D01*
X037015Y038372D01*
X037341Y038459D01*
X037633Y038628D01*
X037871Y038866D01*
X038039Y039158D01*
X038127Y039484D01*
X038127Y039821D01*
X038039Y040146D01*
X037871Y040438D01*
X037633Y040676D01*
X037341Y040845D01*
X037015Y040932D01*
X036678Y040932D01*
X036353Y040845D01*
X036061Y040676D01*
X035822Y040438D01*
X035654Y040146D01*
X035567Y039821D01*
X035567Y039484D01*
X035654Y039158D01*
X035822Y038866D01*
X036061Y038628D01*
X036353Y038459D01*
X036034Y038655D02*
X031668Y038655D01*
X031127Y039333D02*
X031167Y039373D01*
X031127Y039333D02*
X030258Y039333D01*
X029750Y039370D02*
X035597Y039370D01*
X035567Y039609D02*
X031883Y039609D01*
X031802Y039575D02*
X031977Y039648D01*
X032112Y039783D01*
X032185Y039958D01*
X032185Y040148D01*
X032112Y040324D01*
X032067Y040369D01*
X032067Y044285D01*
X032012Y044417D01*
X031911Y044519D01*
X030911Y045519D01*
X030778Y045573D01*
X028143Y045573D01*
X028097Y045619D01*
X027922Y045691D01*
X027732Y045691D01*
X027556Y045619D01*
X027421Y045484D01*
X027349Y045308D01*
X027349Y045118D01*
X027421Y044943D01*
X027556Y044808D01*
X027732Y044735D01*
X027922Y044735D01*
X028097Y044808D01*
X028143Y044853D01*
X030558Y044853D01*
X031347Y044064D01*
X031347Y040369D01*
X031301Y040324D01*
X031229Y040148D01*
X031229Y039958D01*
X031301Y039783D01*
X031436Y039648D01*
X031612Y039575D01*
X031802Y039575D01*
X031530Y039609D02*
X029750Y039609D01*
X029707Y039847D02*
X031274Y039847D01*
X031229Y040086D02*
X005517Y040086D01*
X005517Y040324D02*
X031302Y040324D01*
X031347Y040563D02*
X005517Y040563D01*
X005517Y040801D02*
X031347Y040801D01*
X031347Y041040D02*
X005517Y041040D01*
X005517Y041278D02*
X027755Y041278D01*
X027761Y041263D02*
X027896Y041128D01*
X028072Y041055D01*
X028262Y041055D01*
X028437Y041128D01*
X028572Y041263D01*
X028645Y041438D01*
X028645Y041628D01*
X028572Y041804D01*
X028567Y041809D01*
X028567Y042937D01*
X028572Y042943D01*
X028645Y043118D01*
X028645Y043308D01*
X028572Y043484D01*
X028437Y043619D01*
X028262Y043691D01*
X028072Y043691D01*
X027896Y043619D01*
X027761Y043484D01*
X027689Y043308D01*
X027689Y043118D01*
X027761Y042943D01*
X027767Y042937D01*
X027767Y041809D01*
X027761Y041804D01*
X027689Y041628D01*
X027689Y041438D01*
X027761Y041263D01*
X027689Y041517D02*
X005517Y041517D01*
X005517Y041755D02*
X013571Y041755D01*
X013572Y041755D02*
X013762Y041755D01*
X013937Y041828D01*
X014072Y041963D01*
X014145Y042138D01*
X014145Y042328D01*
X014072Y042504D01*
X013937Y042639D01*
X013762Y042711D01*
X013572Y042711D01*
X013396Y042639D01*
X013351Y042593D01*
X012696Y042593D01*
X011767Y043522D01*
X011767Y044984D01*
X012276Y045493D01*
X012290Y045493D01*
X012268Y045484D01*
X012086Y045302D01*
X011987Y045063D01*
X011987Y044804D01*
X012086Y044565D01*
X012268Y044382D01*
X012507Y044283D01*
X012578Y044283D01*
X012487Y044063D01*
X012487Y043804D01*
X012586Y043565D01*
X012768Y043382D01*
X013007Y043283D01*
X013266Y043283D01*
X013505Y043382D01*
X013688Y043565D01*
X013787Y043804D01*
X013787Y044063D01*
X013695Y044283D01*
X013766Y044283D01*
X014005Y044382D01*
X014137Y044514D01*
X014268Y044382D01*
X014507Y044283D01*
X014578Y044283D01*
X014487Y044063D01*
X014487Y043804D01*
X014586Y043565D01*
X014768Y043382D01*
X015007Y043283D01*
X015266Y043283D01*
X015505Y043382D01*
X015688Y043565D01*
X015787Y043804D01*
X015787Y044063D01*
X015688Y044302D01*
X015505Y044484D01*
X015387Y044533D01*
X015578Y044533D01*
X016167Y043944D01*
X016167Y043682D01*
X015637Y043153D01*
X015583Y043153D01*
X015538Y043198D01*
X015362Y043271D01*
X015172Y043271D01*
X014996Y043198D01*
X014862Y043064D01*
X014789Y042888D01*
X014789Y042698D01*
X014862Y042522D01*
X014996Y042388D01*
X015172Y042315D01*
X015362Y042315D01*
X015538Y042388D01*
X015583Y042433D01*
X015858Y042433D01*
X015990Y042488D01*
X016731Y043228D01*
X016832Y043329D01*
X016887Y043462D01*
X016887Y044165D01*
X016832Y044297D01*
X016032Y045097D01*
X015931Y045199D01*
X015798Y045253D01*
X015208Y045253D01*
X015188Y045302D01*
X015005Y045484D01*
X014766Y045583D01*
X014507Y045583D01*
X014268Y045484D01*
X014137Y045353D01*
X014007Y045483D01*
X014007Y045525D01*
X013952Y045657D01*
X013851Y045759D01*
X013451Y046159D01*
X013318Y046213D01*
X012055Y046213D01*
X011923Y046159D01*
X011821Y046057D01*
X011101Y045337D01*
X011047Y045205D01*
X011047Y043302D01*
X011101Y043169D01*
X011203Y043068D01*
X012343Y041928D01*
X012475Y041873D01*
X013351Y041873D01*
X013396Y041828D01*
X013572Y041755D01*
X013762Y041755D02*
X027741Y041755D01*
X027767Y041994D02*
X014085Y041994D01*
X014145Y042232D02*
X027767Y042232D01*
X027767Y042471D02*
X015949Y042471D01*
X016212Y042709D02*
X027767Y042709D01*
X027759Y042948D02*
X016450Y042948D01*
X016689Y043186D02*
X027689Y043186D01*
X027737Y043425D02*
X022633Y043425D01*
X022591Y043408D02*
X022850Y043515D01*
X023049Y043713D01*
X023156Y043972D01*
X023156Y044253D01*
X023049Y044512D01*
X022850Y044710D01*
X022591Y044818D01*
X022311Y044818D01*
X022052Y044710D01*
X021853Y044512D01*
X021746Y044253D01*
X021746Y043972D01*
X021853Y043713D01*
X022052Y043515D01*
X022311Y043408D01*
X022591Y043408D01*
X022269Y043425D02*
X016871Y043425D01*
X016887Y043663D02*
X021903Y043663D01*
X021775Y043902D02*
X016887Y043902D01*
X016887Y044140D02*
X021746Y044140D01*
X021798Y044379D02*
X016750Y044379D01*
X016512Y044617D02*
X017665Y044617D01*
X017668Y044613D02*
X017686Y044592D01*
X017705Y044572D01*
X017726Y044555D01*
X017749Y044540D01*
X017773Y044527D01*
X017799Y044516D01*
X017825Y044508D01*
X017852Y044503D01*
X017880Y044500D01*
X019074Y044500D01*
X019101Y044503D01*
X019128Y044508D01*
X019154Y044516D01*
X019180Y044527D01*
X019204Y044540D01*
X019227Y044555D01*
X019248Y044572D01*
X019268Y044592D01*
X019285Y044613D01*
X019300Y044636D01*
X019313Y044660D01*
X019324Y044686D01*
X019332Y044712D01*
X019337Y044739D01*
X019340Y044766D01*
X019340Y048599D01*
X019337Y048626D01*
X019332Y048653D01*
X019324Y048680D01*
X019313Y048705D01*
X019300Y048729D01*
X019285Y048752D01*
X019268Y048773D01*
X019248Y048793D01*
X019227Y048810D01*
X019204Y048826D01*
X019180Y048839D01*
X019154Y048849D01*
X019128Y048857D01*
X019101Y048862D01*
X019074Y048865D01*
X017880Y048865D01*
X017852Y048862D01*
X017825Y048857D01*
X017799Y048849D01*
X017773Y048839D01*
X017749Y048826D01*
X017726Y048810D01*
X017705Y048793D01*
X017686Y048773D01*
X017668Y048752D01*
X017653Y048729D01*
X017640Y048705D01*
X017629Y048680D01*
X017621Y048653D01*
X017616Y048626D01*
X017613Y048599D01*
X017613Y044766D01*
X017616Y044739D01*
X017621Y044712D01*
X017629Y044686D01*
X017640Y044660D01*
X017653Y044636D01*
X017668Y044613D01*
X017613Y044856D02*
X016273Y044856D01*
X016035Y045094D02*
X017613Y045094D01*
X017613Y045333D02*
X015156Y045333D01*
X014795Y045571D02*
X017613Y045571D01*
X017613Y045810D02*
X013799Y045810D01*
X013987Y045571D02*
X014479Y045571D01*
X013561Y046048D02*
X017613Y046048D01*
X017613Y046287D02*
X005517Y046287D01*
X005517Y046525D02*
X011675Y046525D01*
X011704Y046513D02*
X012070Y046513D01*
X012408Y046653D01*
X012667Y046912D01*
X012807Y047250D01*
X012807Y047616D01*
X012667Y047954D01*
X012408Y048213D01*
X012070Y048353D01*
X011704Y048353D01*
X011366Y048213D01*
X011107Y047954D01*
X010967Y047616D01*
X010967Y047250D01*
X011107Y046912D01*
X011366Y046653D01*
X011704Y046513D01*
X012099Y046525D02*
X015675Y046525D01*
X015704Y046513D02*
X016070Y046513D01*
X016408Y046653D01*
X016667Y046912D01*
X016807Y047250D01*
X016807Y047616D01*
X016667Y047954D01*
X016408Y048213D01*
X016070Y048353D01*
X015704Y048353D01*
X015366Y048213D01*
X015107Y047954D01*
X014967Y047616D01*
X014967Y047250D01*
X015107Y046912D01*
X015366Y046653D01*
X015704Y046513D01*
X016099Y046525D02*
X017613Y046525D01*
X017613Y046764D02*
X016518Y046764D01*
X016704Y047002D02*
X017613Y047002D01*
X017613Y047241D02*
X016803Y047241D01*
X016807Y047479D02*
X017613Y047479D01*
X017613Y047718D02*
X016765Y047718D01*
X016665Y047956D02*
X017613Y047956D01*
X017613Y048195D02*
X016426Y048195D01*
X017613Y048433D02*
X010204Y048433D01*
X010174Y048324D02*
X010247Y048594D01*
X010247Y048873D01*
X010174Y049142D01*
X010035Y049384D01*
X009838Y049582D01*
X009596Y049721D01*
X009326Y049793D01*
X009047Y049793D01*
X008778Y049721D01*
X008536Y049582D01*
X008338Y049384D01*
X008199Y049142D01*
X008127Y048873D01*
X008127Y048594D01*
X008199Y048324D01*
X008338Y048082D01*
X008536Y047885D01*
X008778Y047746D01*
X009047Y047673D01*
X009326Y047673D01*
X009596Y047746D01*
X009838Y047885D01*
X010035Y048082D01*
X010174Y048324D01*
X010100Y048195D02*
X011347Y048195D01*
X011109Y047956D02*
X009909Y047956D01*
X009492Y047718D02*
X011009Y047718D01*
X010967Y047479D02*
X005517Y047479D01*
X005517Y047241D02*
X010971Y047241D01*
X011069Y047002D02*
X005517Y047002D01*
X005517Y046764D02*
X011255Y046764D01*
X011813Y046048D02*
X005517Y046048D01*
X005517Y045810D02*
X011574Y045810D01*
X011336Y045571D02*
X005517Y045571D01*
X005517Y045333D02*
X011100Y045333D01*
X011047Y045094D02*
X005517Y045094D01*
X005517Y044856D02*
X011047Y044856D01*
X011047Y044617D02*
X005517Y044617D01*
X005517Y044379D02*
X011047Y044379D01*
X011047Y044140D02*
X005517Y044140D01*
X005517Y043902D02*
X011047Y043902D01*
X011047Y043663D02*
X005517Y043663D01*
X005517Y043425D02*
X011047Y043425D01*
X011094Y043186D02*
X005517Y043186D01*
X005517Y042948D02*
X011323Y042948D01*
X011562Y042709D02*
X005517Y042709D01*
X005517Y042471D02*
X011800Y042471D01*
X012039Y042232D02*
X005517Y042232D01*
X005517Y041994D02*
X012277Y041994D01*
X012580Y042709D02*
X013567Y042709D01*
X013767Y042709D02*
X014789Y042709D01*
X014813Y042948D02*
X012341Y042948D01*
X012103Y043186D02*
X014984Y043186D01*
X014726Y043425D02*
X013547Y043425D01*
X013728Y043663D02*
X014545Y043663D01*
X014487Y043902D02*
X013787Y043902D01*
X013754Y044140D02*
X014519Y044140D01*
X014277Y044379D02*
X013997Y044379D01*
X014137Y043933D02*
X014137Y042723D01*
X014847Y042013D01*
X017007Y042013D01*
X019047Y044053D01*
X020423Y044053D01*
X020482Y044113D01*
X019288Y044617D02*
X021959Y044617D01*
X022943Y044617D02*
X030794Y044617D01*
X031032Y044379D02*
X023104Y044379D01*
X023156Y044140D02*
X031271Y044140D01*
X031347Y043902D02*
X023127Y043902D01*
X022999Y043663D02*
X028004Y043663D01*
X028330Y043663D02*
X031347Y043663D01*
X031347Y043425D02*
X028597Y043425D01*
X028645Y043186D02*
X031347Y043186D01*
X031347Y042948D02*
X028574Y042948D01*
X028567Y042709D02*
X031347Y042709D01*
X031347Y042471D02*
X028567Y042471D01*
X028567Y042232D02*
X031347Y042232D01*
X031347Y041994D02*
X028567Y041994D01*
X028592Y041755D02*
X031347Y041755D01*
X031347Y041517D02*
X028645Y041517D01*
X028579Y041278D02*
X031347Y041278D01*
X032067Y041278D02*
X040407Y041278D01*
X040407Y041040D02*
X032067Y041040D01*
X032067Y040801D02*
X036277Y040801D01*
X035947Y040563D02*
X032067Y040563D01*
X032112Y040324D02*
X035757Y040324D01*
X035638Y040086D02*
X032185Y040086D01*
X032139Y039847D02*
X035574Y039847D01*
X035669Y039132D02*
X029750Y039132D01*
X029738Y038893D02*
X035807Y038893D01*
X037181Y038416D02*
X040407Y038416D01*
X040407Y038655D02*
X037660Y038655D01*
X037887Y038893D02*
X040407Y038893D01*
X040407Y039132D02*
X038024Y039132D01*
X038096Y039370D02*
X040407Y039370D01*
X040407Y039609D02*
X038127Y039609D01*
X038119Y039847D02*
X040407Y039847D01*
X040407Y040086D02*
X038056Y040086D01*
X037937Y040324D02*
X040407Y040324D01*
X040407Y040563D02*
X037746Y040563D01*
X037416Y040801D02*
X040407Y040801D01*
X040407Y041517D02*
X032067Y041517D01*
X032067Y041755D02*
X040407Y041755D01*
X040407Y041994D02*
X032067Y041994D01*
X032067Y042232D02*
X040407Y042232D01*
X040407Y042471D02*
X037856Y042471D01*
X037774Y042388D02*
X037957Y042571D01*
X038056Y042810D01*
X038056Y043069D01*
X037957Y043308D01*
X037780Y043485D01*
X037957Y043662D01*
X038056Y043901D01*
X038056Y044159D01*
X037957Y044398D01*
X037782Y044573D01*
X037957Y044748D01*
X038056Y044987D01*
X038056Y045246D01*
X037957Y045485D01*
X037780Y045662D01*
X037957Y045839D01*
X038056Y046078D01*
X038056Y046336D01*
X037957Y046575D01*
X037774Y046758D01*
X037535Y046857D01*
X037276Y046857D01*
X037038Y046758D01*
X036938Y046658D01*
X036938Y047180D01*
X036895Y047283D01*
X036816Y047362D01*
X036713Y047404D01*
X035862Y047404D01*
X035759Y047362D01*
X035680Y047283D01*
X035638Y047180D01*
X035638Y046329D01*
X035680Y046226D01*
X035759Y046147D01*
X035824Y046120D01*
X035737Y046032D01*
X035638Y045793D01*
X035638Y045535D01*
X035737Y045296D01*
X035914Y045119D01*
X035737Y044942D01*
X035638Y044703D01*
X035638Y044444D01*
X035737Y044205D01*
X035914Y044028D01*
X035737Y043851D01*
X035638Y043612D01*
X035638Y043353D01*
X035737Y043115D01*
X035919Y042932D01*
X036158Y042833D01*
X036417Y042833D01*
X036656Y042932D01*
X036756Y043032D01*
X036756Y042810D01*
X036855Y042571D01*
X037038Y042388D01*
X037276Y042289D01*
X037535Y042289D01*
X037774Y042388D01*
X038014Y042709D02*
X040407Y042709D01*
X040407Y042948D02*
X038056Y042948D01*
X038007Y043186D02*
X040407Y043186D01*
X040407Y043425D02*
X037840Y043425D01*
X037957Y043663D02*
X040407Y043663D01*
X040407Y043902D02*
X038056Y043902D01*
X038056Y044140D02*
X040407Y044140D01*
X040407Y044379D02*
X037965Y044379D01*
X037826Y044617D02*
X040407Y044617D01*
X040407Y044856D02*
X038001Y044856D01*
X038056Y045094D02*
X040407Y045094D01*
X040407Y045333D02*
X038020Y045333D01*
X037870Y045571D02*
X040407Y045571D01*
X040407Y045810D02*
X037928Y045810D01*
X038043Y046048D02*
X040407Y046048D01*
X040407Y046287D02*
X038056Y046287D01*
X037977Y046525D02*
X040407Y046525D01*
X040407Y046764D02*
X037760Y046764D01*
X037051Y046764D02*
X036938Y046764D01*
X036938Y047002D02*
X040407Y047002D01*
X040407Y047241D02*
X036912Y047241D01*
X035663Y047241D02*
X019340Y047241D01*
X019340Y047479D02*
X040407Y047479D01*
X040407Y047718D02*
X033992Y047718D01*
X034096Y047746D02*
X034338Y047885D01*
X034535Y048082D01*
X034674Y048324D01*
X034747Y048594D01*
X034747Y048873D01*
X034674Y049142D01*
X034535Y049384D01*
X034338Y049582D01*
X034096Y049721D01*
X033826Y049793D01*
X033547Y049793D01*
X033278Y049721D01*
X033036Y049582D01*
X032838Y049384D01*
X032699Y049142D01*
X032627Y048873D01*
X032627Y048594D01*
X032699Y048324D01*
X032838Y048082D01*
X033036Y047885D01*
X033278Y047746D01*
X033547Y047673D01*
X033826Y047673D01*
X034096Y047746D01*
X034409Y047956D02*
X040407Y047956D01*
X040407Y048195D02*
X034600Y048195D01*
X034704Y048433D02*
X036125Y048433D01*
X035859Y048672D02*
X034747Y048672D01*
X034737Y048910D02*
X035706Y048910D01*
X035614Y049149D02*
X034671Y049149D01*
X034532Y049387D02*
X035567Y049387D01*
X035567Y049626D02*
X034261Y049626D01*
X033113Y049626D02*
X022856Y049626D01*
X022850Y049632D02*
X022591Y049739D01*
X022311Y049739D01*
X022052Y049632D01*
X021853Y049433D01*
X021746Y049174D01*
X021746Y048894D01*
X021853Y048635D01*
X022052Y048436D01*
X022311Y048329D01*
X022591Y048329D01*
X022850Y048436D01*
X023049Y048635D01*
X023156Y048894D01*
X023156Y049174D01*
X023049Y049433D01*
X022850Y049632D01*
X023068Y049387D02*
X032842Y049387D01*
X032703Y049149D02*
X023156Y049149D01*
X023156Y048910D02*
X032637Y048910D01*
X032627Y048672D02*
X023064Y048672D01*
X022843Y048433D02*
X032670Y048433D01*
X032774Y048195D02*
X019340Y048195D01*
X019340Y048433D02*
X020090Y048433D01*
X020083Y048436D02*
X020342Y048329D01*
X020623Y048329D01*
X020882Y048436D01*
X021080Y048635D01*
X021187Y048894D01*
X021187Y049174D01*
X021080Y049433D01*
X020882Y049632D01*
X020623Y049739D01*
X020342Y049739D01*
X020083Y049632D01*
X019885Y049433D01*
X019777Y049174D01*
X019777Y048894D01*
X019885Y048635D01*
X020083Y048436D01*
X019869Y048672D02*
X019326Y048672D01*
X019777Y048910D02*
X010237Y048910D01*
X010247Y048672D02*
X017627Y048672D01*
X019340Y047956D02*
X032965Y047956D01*
X033381Y047718D02*
X019340Y047718D01*
X019340Y047002D02*
X035638Y047002D01*
X035638Y046764D02*
X019340Y046764D01*
X019340Y046525D02*
X035638Y046525D01*
X035655Y046287D02*
X019340Y046287D01*
X019340Y046048D02*
X035753Y046048D01*
X035645Y045810D02*
X019340Y045810D01*
X019340Y045571D02*
X027509Y045571D01*
X027359Y045333D02*
X019340Y045333D01*
X019340Y045094D02*
X027358Y045094D01*
X027508Y044856D02*
X019340Y044856D01*
X016167Y043902D02*
X015787Y043902D01*
X015754Y044140D02*
X015971Y044140D01*
X015732Y044379D02*
X015610Y044379D01*
X015728Y043663D02*
X016148Y043663D01*
X015909Y043425D02*
X015547Y043425D01*
X015550Y043186D02*
X015671Y043186D01*
X014913Y042471D02*
X014086Y042471D01*
X012726Y043425D02*
X011864Y043425D01*
X011767Y043663D02*
X012545Y043663D01*
X012487Y043902D02*
X011767Y043902D01*
X011767Y044140D02*
X012519Y044140D01*
X012277Y044379D02*
X011767Y044379D01*
X011767Y044617D02*
X012064Y044617D01*
X011987Y044856D02*
X011767Y044856D01*
X011877Y045094D02*
X012000Y045094D01*
X012115Y045333D02*
X012117Y045333D01*
X012518Y046764D02*
X015255Y046764D01*
X015069Y047002D02*
X012704Y047002D01*
X012803Y047241D02*
X014971Y047241D01*
X014967Y047479D02*
X012807Y047479D01*
X012765Y047718D02*
X015009Y047718D01*
X015109Y047956D02*
X012665Y047956D01*
X012426Y048195D02*
X015347Y048195D01*
X019777Y049149D02*
X010171Y049149D01*
X010032Y049387D02*
X019866Y049387D01*
X020077Y049626D02*
X009761Y049626D01*
X008613Y049626D02*
X005245Y049626D01*
X005447Y049387D02*
X008342Y049387D01*
X008203Y049149D02*
X005517Y049149D01*
X005517Y048910D02*
X008137Y048910D01*
X008127Y048672D02*
X005517Y048672D01*
X005517Y048433D02*
X008170Y048433D01*
X008274Y048195D02*
X005517Y048195D01*
X005517Y047956D02*
X008465Y047956D01*
X008881Y047718D02*
X005517Y047718D01*
X004257Y047718D02*
X003546Y047718D01*
X003620Y047956D02*
X004257Y047956D01*
X004257Y048195D02*
X003593Y048195D01*
X003439Y048433D02*
X004257Y048433D01*
X004257Y048672D02*
X000967Y048672D01*
X000967Y048910D02*
X004179Y048910D01*
X003940Y049149D02*
X000967Y049149D01*
X000967Y049387D02*
X002612Y049387D01*
X002021Y049626D02*
X000967Y049626D01*
X000967Y049864D02*
X001887Y049864D01*
X001873Y050103D02*
X000967Y050103D01*
X000967Y050341D02*
X001962Y050341D01*
X002054Y048433D02*
X000967Y048433D01*
X000967Y048195D02*
X001901Y048195D01*
X001873Y047956D02*
X000967Y047956D01*
X000967Y047718D02*
X001948Y047718D01*
X002232Y047479D02*
X000967Y047479D01*
X000967Y047241D02*
X002042Y047241D01*
X001895Y047002D02*
X000967Y047002D01*
X000967Y046764D02*
X001873Y046764D01*
X001953Y046525D02*
X000967Y046525D01*
X000967Y046287D02*
X002262Y046287D01*
X002335Y045410D02*
X002123Y045322D01*
X001961Y045160D01*
X001873Y044948D01*
X001873Y044719D01*
X001961Y044507D01*
X002123Y044344D01*
X002335Y044256D01*
X003158Y044256D01*
X003370Y044344D01*
X003533Y044507D01*
X003620Y044719D01*
X003620Y044948D01*
X003533Y045160D01*
X003370Y045322D01*
X003158Y045410D01*
X002335Y045410D01*
X002148Y045333D02*
X000967Y045333D01*
X000967Y045571D02*
X004257Y045571D01*
X004257Y045333D02*
X003345Y045333D01*
X003560Y045094D02*
X004257Y045094D01*
X004257Y044856D02*
X003620Y044856D01*
X003578Y044617D02*
X004257Y044617D01*
X004257Y044379D02*
X003405Y044379D01*
X002311Y044140D02*
X000967Y044140D01*
X000967Y043902D02*
X001963Y043902D01*
X001873Y043663D02*
X000967Y043663D01*
X000967Y043425D02*
X001887Y043425D01*
X002021Y043186D02*
X000967Y043186D01*
X000967Y042948D02*
X002610Y042948D01*
X002335Y042150D02*
X002123Y042062D01*
X001961Y041900D01*
X001873Y041688D01*
X001873Y041459D01*
X001961Y041247D01*
X002123Y041084D01*
X002335Y040996D01*
X003158Y040996D01*
X003370Y041084D01*
X003533Y041247D01*
X003620Y041459D01*
X003620Y041688D01*
X003533Y041900D01*
X003370Y042062D01*
X003158Y042150D01*
X002335Y042150D01*
X002055Y041994D02*
X000967Y041994D01*
X000967Y042232D02*
X004257Y042232D01*
X004257Y041994D02*
X003439Y041994D01*
X003592Y041755D02*
X004257Y041755D01*
X004257Y041517D02*
X003620Y041517D01*
X003546Y041278D02*
X004257Y041278D01*
X004257Y041040D02*
X003263Y041040D01*
X002230Y041040D02*
X000967Y041040D01*
X000967Y041278D02*
X001948Y041278D01*
X001873Y041517D02*
X000967Y041517D01*
X000967Y041755D02*
X001901Y041755D01*
X002122Y040801D02*
X000967Y040801D01*
X000967Y040563D02*
X001929Y040563D01*
X001873Y040324D02*
X000967Y040324D01*
X000967Y040086D02*
X001920Y040086D01*
X002100Y039847D02*
X000967Y039847D01*
X000967Y039609D02*
X002660Y039609D01*
X002335Y038890D02*
X002123Y038802D01*
X001961Y038640D01*
X001873Y038428D01*
X001873Y038199D01*
X001961Y037987D01*
X002123Y037824D01*
X002335Y037736D01*
X003158Y037736D01*
X003370Y037824D01*
X003533Y037987D01*
X003620Y038199D01*
X003620Y038428D01*
X003533Y038640D01*
X003370Y038802D01*
X003158Y038890D01*
X002335Y038890D01*
X001976Y038655D02*
X000967Y038655D01*
X000967Y038893D02*
X004257Y038893D01*
X004257Y038655D02*
X003518Y038655D01*
X003620Y038416D02*
X004257Y038416D01*
X004257Y038178D02*
X003612Y038178D01*
X003485Y037939D02*
X004257Y037939D01*
X004257Y037701D02*
X000967Y037701D01*
X000967Y037939D02*
X002008Y037939D01*
X001882Y038178D02*
X000967Y038178D01*
X000967Y038416D02*
X001873Y038416D01*
X002043Y037462D02*
X000967Y037462D01*
X000967Y037224D02*
X001896Y037224D01*
X001873Y036985D02*
X000967Y036985D01*
X000967Y036747D02*
X001952Y036747D01*
X002258Y036508D02*
X000967Y036508D01*
X000967Y036270D02*
X004257Y036270D01*
X004257Y036031D02*
X000967Y036031D01*
X000967Y035793D02*
X004257Y035793D01*
X004231Y035554D02*
X003341Y035554D01*
X003370Y035542D02*
X003158Y035630D01*
X002335Y035630D01*
X002123Y035542D01*
X001961Y035380D01*
X001873Y035168D01*
X001873Y034939D01*
X001961Y034727D01*
X002123Y034564D01*
X002335Y034476D01*
X003158Y034476D01*
X003370Y034564D01*
X003533Y034727D01*
X003620Y034939D01*
X003620Y035168D01*
X003533Y035380D01*
X003370Y035542D01*
X003559Y035316D02*
X004227Y035316D01*
X004227Y035077D02*
X003620Y035077D01*
X003579Y034839D02*
X004227Y034839D01*
X004227Y034600D02*
X003406Y034600D01*
X004227Y034362D02*
X000967Y034362D01*
X000967Y034600D02*
X002087Y034600D01*
X001914Y034839D02*
X000967Y034839D01*
X000967Y035077D02*
X001873Y035077D01*
X001934Y035316D02*
X000967Y035316D01*
X000967Y035554D02*
X002152Y035554D01*
X000967Y034123D02*
X004227Y034123D01*
X004227Y033885D02*
X000967Y033885D01*
X000967Y033646D02*
X004227Y033646D01*
X004227Y033408D02*
X000967Y033408D01*
X000967Y033169D02*
X004227Y033169D01*
X004227Y032931D02*
X000967Y032931D01*
X000967Y032692D02*
X004227Y032692D01*
X004227Y032454D02*
X000967Y032454D01*
X000967Y032215D02*
X004227Y032215D01*
X004227Y031977D02*
X000967Y031977D01*
X000967Y031738D02*
X004227Y031738D01*
X004227Y031500D02*
X000967Y031500D01*
X000967Y031261D02*
X004227Y031261D01*
X004301Y031023D02*
X000967Y031023D01*
X000967Y030784D02*
X004502Y030784D01*
X004741Y030546D02*
X000967Y030546D01*
X000967Y030307D02*
X004827Y030307D01*
X004827Y030069D02*
X000967Y030069D01*
X000967Y029830D02*
X004827Y029830D01*
X004827Y029592D02*
X000967Y029592D01*
X000967Y029353D02*
X004827Y029353D01*
X004827Y029115D02*
X000967Y029115D01*
X000967Y028876D02*
X004827Y028876D01*
X004827Y028638D02*
X000967Y028638D01*
X000967Y028399D02*
X004827Y028399D01*
X004827Y028161D02*
X000967Y028161D01*
X000967Y027922D02*
X004827Y027922D01*
X004827Y027684D02*
X000967Y027684D01*
X002175Y027445D02*
X002318Y027445D01*
X003695Y027445D02*
X004827Y027445D01*
X004827Y027207D02*
X003854Y027207D01*
X003887Y026968D02*
X004827Y026968D01*
X004827Y026730D02*
X003817Y026730D01*
X003649Y026491D02*
X004827Y026491D01*
X004827Y026253D02*
X003835Y026253D01*
X003887Y026014D02*
X004827Y026014D01*
X004827Y025776D02*
X003836Y025776D01*
X003651Y025537D02*
X004827Y025537D01*
X004827Y025299D02*
X000967Y025299D01*
X000967Y025060D02*
X004827Y025060D01*
X004827Y024822D02*
X000967Y024822D01*
X000967Y024583D02*
X004827Y024583D01*
X004827Y024345D02*
X000967Y024345D01*
X000967Y024106D02*
X004827Y024106D01*
X004827Y023868D02*
X000967Y023868D01*
X000967Y023629D02*
X004827Y023629D01*
X004827Y023391D02*
X003749Y023391D01*
X003877Y023152D02*
X004827Y023152D01*
X004827Y022914D02*
X003887Y022914D01*
X003789Y022675D02*
X004827Y022675D01*
X004827Y022437D02*
X003703Y022437D01*
X003858Y022198D02*
X004827Y022198D01*
X004827Y021960D02*
X003887Y021960D01*
X003814Y021721D02*
X004827Y021721D01*
X004827Y021483D02*
X003542Y021483D01*
X002472Y021483D02*
X002022Y021483D01*
X002229Y023391D02*
X002264Y023391D01*
X002362Y025537D02*
X002131Y025537D01*
X006147Y025537D02*
X006502Y025537D01*
X006264Y025776D02*
X006147Y025776D01*
X006147Y026014D02*
X006227Y026014D01*
X006227Y026253D02*
X006147Y026253D01*
X006147Y026491D02*
X006424Y026491D01*
X006310Y026730D02*
X006147Y026730D01*
X006147Y026968D02*
X006227Y026968D01*
X006227Y027207D02*
X006147Y027207D01*
X006147Y027445D02*
X006378Y027445D01*
X006356Y027684D02*
X006147Y027684D01*
X006147Y027922D02*
X006227Y027922D01*
X006227Y028161D02*
X006147Y028161D01*
X006147Y028399D02*
X006332Y028399D01*
X006147Y028638D02*
X007402Y028638D01*
X007332Y028399D02*
X007281Y028399D01*
X007227Y028876D02*
X006147Y028876D01*
X006147Y029115D02*
X007227Y029115D01*
X007286Y029353D02*
X006147Y029353D01*
X006147Y029592D02*
X006448Y029592D01*
X006227Y029830D02*
X006147Y029830D01*
X006147Y030069D02*
X006227Y030069D01*
X006240Y030307D02*
X006147Y030307D01*
X006147Y030546D02*
X006479Y030546D01*
X006255Y030784D02*
X006147Y030784D01*
X006081Y031023D02*
X006227Y031023D01*
X006227Y031261D02*
X005892Y031261D01*
X005654Y031500D02*
X006433Y031500D01*
X006347Y032692D02*
X005547Y032692D01*
X005547Y032931D02*
X006227Y032931D01*
X006227Y033169D02*
X005547Y033169D01*
X005547Y033408D02*
X006341Y033408D01*
X005547Y033646D02*
X007879Y033646D01*
X008387Y032931D02*
X008623Y032931D01*
X008869Y032692D02*
X008266Y032692D01*
X009263Y033646D02*
X017119Y033646D01*
X016881Y033408D02*
X009511Y033408D01*
X009749Y033169D02*
X016867Y033169D01*
X016867Y032931D02*
X009988Y032931D01*
X010226Y032692D02*
X017087Y032692D01*
X016927Y032454D02*
X012650Y032454D01*
X012670Y032215D02*
X016867Y032215D01*
X016867Y031977D02*
X012670Y031977D01*
X012670Y031738D02*
X017041Y031738D01*
X016973Y031500D02*
X012636Y031500D01*
X012837Y030784D02*
X016995Y030784D01*
X017019Y030546D02*
X012841Y030546D01*
X012841Y030307D02*
X014011Y030307D01*
X013621Y030069D02*
X012841Y030069D01*
X013598Y030046D02*
X013598Y030046D01*
X014445Y029115D02*
X016867Y029115D01*
X016867Y029353D02*
X015181Y029353D01*
X015241Y029592D02*
X017065Y029592D01*
X016949Y029830D02*
X015241Y029830D01*
X015241Y030069D02*
X016867Y030069D01*
X016867Y030307D02*
X015203Y030307D01*
X014411Y028876D02*
X016903Y028876D01*
X017111Y028638D02*
X014213Y028638D01*
X011775Y031023D02*
X016867Y031023D01*
X016867Y031261D02*
X012014Y031261D01*
X011371Y031977D02*
X010942Y031977D01*
X010703Y032215D02*
X011481Y032215D01*
X011501Y032454D02*
X010465Y032454D01*
X010887Y031353D02*
X011147Y031093D01*
X011207Y031093D01*
X010985Y030307D02*
X008373Y030307D01*
X008387Y030069D02*
X010814Y030069D01*
X010875Y029115D02*
X010686Y029115D01*
X010201Y028638D02*
X008211Y028638D01*
X008281Y028399D02*
X010476Y028399D01*
X011370Y028161D02*
X008387Y028161D01*
X008387Y027922D02*
X011349Y027922D01*
X011480Y027684D02*
X008257Y027684D01*
X008235Y027445D02*
X011497Y027445D01*
X011497Y027207D02*
X008387Y027207D01*
X008387Y026968D02*
X011501Y026968D01*
X011501Y026730D02*
X008303Y026730D01*
X008189Y026491D02*
X011530Y026491D01*
X011361Y025299D02*
X011732Y025299D01*
X012361Y025299D02*
X012732Y025299D01*
X013361Y025299D02*
X013732Y025299D01*
X013547Y024473D02*
X013726Y024293D01*
X013467Y024034D01*
X013467Y023553D01*
X013686Y023333D01*
X012407Y023333D01*
X012627Y023553D01*
X012627Y024034D01*
X012367Y024293D01*
X012547Y024473D01*
X012806Y024213D01*
X013287Y024213D01*
X013547Y024473D01*
X013418Y024345D02*
X013675Y024345D01*
X013539Y024106D02*
X012554Y024106D01*
X012627Y023868D02*
X013467Y023868D01*
X013467Y023629D02*
X012627Y023629D01*
X012464Y023391D02*
X013629Y023391D01*
X012675Y024345D02*
X012418Y024345D01*
X010732Y025299D02*
X010361Y025299D01*
X009732Y025299D02*
X009361Y025299D01*
X008732Y025299D02*
X006147Y025299D01*
X006147Y025060D02*
X008493Y025060D01*
X008467Y024822D02*
X006147Y024822D01*
X006147Y024583D02*
X008467Y024583D01*
X008675Y024345D02*
X007671Y024345D01*
X007805Y024106D02*
X008539Y024106D01*
X008467Y023868D02*
X007953Y023868D01*
X008191Y023629D02*
X008467Y023629D01*
X008430Y023391D02*
X008629Y023391D01*
X006982Y024345D02*
X006783Y024345D01*
X006271Y024345D02*
X006147Y024345D01*
X007111Y025537D02*
X007502Y025537D01*
X008387Y028876D02*
X009147Y028876D01*
X009132Y029115D02*
X008387Y029115D01*
X008327Y029353D02*
X009132Y029353D01*
X009132Y029592D02*
X008165Y029592D01*
X008387Y029830D02*
X009250Y029830D01*
X007448Y029592D02*
X007165Y029592D01*
X005147Y032053D02*
X004907Y032293D01*
X004907Y034993D01*
X004887Y035013D01*
X004887Y035053D01*
X005517Y038655D02*
X015065Y038655D01*
X015547Y038313D02*
X015547Y038073D01*
X015567Y038053D01*
X015055Y037462D02*
X013464Y037462D01*
X013484Y037224D02*
X030893Y037224D01*
X031132Y036985D02*
X013363Y036985D01*
X012658Y036508D02*
X031609Y036508D01*
X031847Y036270D02*
X012654Y036270D01*
X012517Y036747D02*
X031370Y036747D01*
X029155Y039333D02*
X028447Y039333D01*
X028407Y039373D01*
X027929Y039370D02*
X005517Y039370D01*
X005517Y039132D02*
X027989Y039132D01*
X027987Y039609D02*
X005517Y039609D01*
X005517Y039847D02*
X028302Y039847D01*
X028512Y039847D02*
X028604Y039847D01*
X028573Y038893D02*
X005517Y038893D01*
X004257Y039132D02*
X000967Y039132D01*
X000967Y039370D02*
X004257Y039370D01*
X004257Y042471D02*
X000967Y042471D01*
X000967Y042709D02*
X004257Y042709D01*
X002088Y044379D02*
X000967Y044379D01*
X000967Y044617D02*
X001915Y044617D01*
X001873Y044856D02*
X000967Y044856D01*
X000967Y045094D02*
X001934Y045094D01*
X000967Y045810D02*
X004257Y045810D01*
X004257Y046048D02*
X000967Y046048D01*
X003262Y047479D02*
X004257Y047479D01*
X005007Y049864D02*
X035621Y049864D01*
X035720Y050103D02*
X004768Y050103D01*
X004530Y050341D02*
X035883Y050341D01*
X037569Y048433D02*
X040407Y048433D01*
X040407Y048672D02*
X037834Y048672D01*
X037987Y048910D02*
X040407Y048910D01*
X040407Y049149D02*
X038079Y049149D01*
X038127Y049387D02*
X040407Y049387D01*
X040407Y049626D02*
X038127Y049626D01*
X038073Y049864D02*
X040407Y049864D01*
X040407Y050103D02*
X037973Y050103D01*
X037810Y050341D02*
X040407Y050341D01*
X035889Y045094D02*
X031335Y045094D01*
X031573Y044856D02*
X035701Y044856D01*
X035638Y044617D02*
X031812Y044617D01*
X032028Y044379D02*
X035665Y044379D01*
X035801Y044140D02*
X032067Y044140D01*
X032067Y043902D02*
X035787Y043902D01*
X035659Y043663D02*
X032067Y043663D01*
X032067Y043425D02*
X035638Y043425D01*
X035707Y043186D02*
X032067Y043186D01*
X032067Y042948D02*
X035903Y042948D01*
X036672Y042948D02*
X036756Y042948D01*
X036797Y042709D02*
X032067Y042709D01*
X032067Y042471D02*
X036955Y042471D01*
X035721Y045333D02*
X031096Y045333D01*
X030783Y045571D02*
X035638Y045571D01*
X028167Y043213D02*
X028167Y041533D01*
X026676Y034839D02*
X026537Y034839D01*
X025956Y034839D02*
X021188Y034839D01*
X021030Y034600D02*
X024998Y034600D01*
X024831Y034362D02*
X020867Y034362D01*
X020932Y034123D02*
X024809Y034123D01*
X024939Y033885D02*
X021005Y033885D01*
X020958Y033646D02*
X024947Y033646D01*
X024947Y033408D02*
X020867Y033408D01*
X020867Y033169D02*
X024947Y033169D01*
X024947Y032931D02*
X020867Y032931D01*
X020867Y032692D02*
X024947Y032692D01*
X024947Y032454D02*
X021047Y032454D01*
X021285Y032215D02*
X024947Y032215D01*
X024947Y031977D02*
X021524Y031977D01*
X021762Y031738D02*
X024947Y031738D01*
X024947Y031500D02*
X022001Y031500D01*
X021516Y031023D02*
X019027Y031023D01*
X019027Y031261D02*
X021278Y031261D01*
X021039Y031500D02*
X018920Y031500D01*
X018852Y031738D02*
X020801Y031738D01*
X020562Y031977D02*
X019027Y031977D01*
X019027Y032215D02*
X020324Y032215D01*
X020187Y032454D02*
X018966Y032454D01*
X018806Y032692D02*
X020187Y032692D01*
X020187Y032931D02*
X019027Y032931D01*
X019027Y033169D02*
X020187Y033169D01*
X020187Y033408D02*
X019012Y033408D01*
X018774Y033646D02*
X020095Y033646D01*
X020049Y033885D02*
X016418Y033885D01*
X016657Y034123D02*
X020121Y034123D01*
X020187Y034362D02*
X016667Y034362D01*
X016667Y034600D02*
X020187Y034600D01*
X020187Y034839D02*
X016441Y034839D01*
X016611Y035077D02*
X020252Y035077D01*
X020393Y035316D02*
X016667Y035316D01*
X015686Y035793D02*
X015487Y035793D01*
X014686Y035793D02*
X014487Y035793D01*
X013686Y035793D02*
X013487Y035793D01*
X012562Y035077D02*
X011611Y035077D01*
X011667Y035316D02*
X012507Y035316D01*
X012507Y035554D02*
X011667Y035554D01*
X011732Y034839D02*
X011441Y034839D01*
X011418Y033885D02*
X011755Y033885D01*
X012418Y033885D02*
X012755Y033885D01*
X013418Y033885D02*
X013755Y033885D01*
X014418Y033885D02*
X014755Y033885D01*
X015418Y033885D02*
X015755Y033885D01*
X017774Y033646D02*
X018119Y033646D01*
X018898Y030784D02*
X021679Y030784D01*
X021861Y030546D02*
X018874Y030546D01*
X019027Y030307D02*
X033400Y030307D01*
X033629Y030546D02*
X025775Y030546D01*
X025038Y030546D02*
X022392Y030546D01*
X022574Y030784D02*
X024929Y030784D01*
X024947Y031023D02*
X022605Y031023D01*
X022495Y031261D02*
X024947Y031261D01*
X025576Y034600D02*
X025790Y034600D01*
X029987Y033273D02*
X030207Y033493D01*
X033161Y030069D02*
X019027Y030069D01*
X018944Y029830D02*
X032923Y029830D01*
X032684Y029592D02*
X018828Y029592D01*
X019027Y029353D02*
X032446Y029353D01*
X032207Y029115D02*
X019027Y029115D01*
X018990Y028876D02*
X031969Y028876D01*
X031730Y028638D02*
X018782Y028638D01*
X019021Y028399D02*
X031492Y028399D01*
X031253Y028161D02*
X019027Y028161D01*
X019027Y027922D02*
X031015Y027922D01*
X030776Y027684D02*
X018797Y027684D01*
X018975Y027445D02*
X020638Y027445D01*
X020399Y027207D02*
X019027Y027207D01*
X018004Y025776D02*
X017889Y025776D01*
X018491Y025299D02*
X016361Y025299D01*
X016600Y025060D02*
X018253Y025060D01*
X018014Y024822D02*
X016627Y024822D01*
X016627Y024583D02*
X017776Y024583D01*
X017537Y024345D02*
X016418Y024345D01*
X016554Y024106D02*
X017299Y024106D01*
X017060Y023868D02*
X016627Y023868D01*
X016627Y023629D02*
X016822Y023629D01*
X016583Y023391D02*
X016464Y023391D01*
X017271Y022437D02*
X034711Y022437D01*
X034383Y022675D02*
X017510Y022675D01*
X017748Y022914D02*
X034205Y022914D01*
X034106Y023152D02*
X030987Y023152D01*
X030974Y023139D02*
X031141Y023306D01*
X031232Y023525D01*
X031232Y023762D01*
X031141Y023980D01*
X030974Y024148D01*
X030755Y024238D01*
X030518Y024238D01*
X030300Y024148D01*
X030132Y023980D01*
X030042Y023762D01*
X030042Y023525D01*
X030132Y023306D01*
X030300Y023139D01*
X030518Y023048D01*
X030755Y023048D01*
X030974Y023139D01*
X031176Y023391D02*
X034063Y023391D01*
X034068Y023629D02*
X031232Y023629D01*
X031188Y023868D02*
X034131Y023868D01*
X034259Y024106D02*
X031015Y024106D01*
X030258Y024106D02*
X018941Y024106D01*
X019179Y024345D02*
X034476Y024345D01*
X035007Y024583D02*
X019418Y024583D01*
X018702Y023868D02*
X030086Y023868D01*
X030042Y023629D02*
X018464Y023629D01*
X018225Y023391D02*
X030097Y023391D01*
X030286Y023152D02*
X017987Y023152D01*
X015732Y025299D02*
X015361Y025299D01*
X014732Y025299D02*
X014361Y025299D01*
X011537Y028399D02*
X011489Y028399D01*
X010755Y033885D02*
X010418Y033885D01*
X009755Y033885D02*
X009418Y033885D01*
X012441Y034839D02*
X012732Y034839D01*
X007693Y021006D02*
X006147Y021006D01*
X006147Y021244D02*
X006219Y021244D01*
X006147Y020767D02*
X007932Y020767D01*
X008107Y020529D02*
X006147Y020529D01*
X006147Y020290D02*
X008107Y020290D01*
X008129Y020052D02*
X006147Y020052D01*
X006147Y019813D02*
X008326Y019813D01*
X008564Y019575D02*
X006147Y019575D01*
X006147Y019336D02*
X008803Y019336D01*
X009041Y019098D02*
X006147Y019098D01*
X006147Y018859D02*
X016459Y018859D01*
X016221Y018621D02*
X006147Y018621D01*
X006147Y018382D02*
X015982Y018382D01*
X015744Y018144D02*
X006147Y018144D01*
X006147Y017905D02*
X015505Y017905D01*
X015267Y017667D02*
X006287Y017667D01*
X006525Y017428D02*
X015028Y017428D01*
X014790Y017190D02*
X006764Y017190D01*
X013452Y019098D02*
X016698Y019098D01*
X016936Y019336D02*
X013691Y019336D01*
X013929Y019575D02*
X017175Y019575D01*
X017413Y019813D02*
X014067Y019813D01*
X014067Y020052D02*
X017652Y020052D01*
X017943Y020290D02*
X014067Y020290D01*
X014576Y015520D02*
X034627Y015520D01*
X034672Y015282D02*
X014743Y015282D01*
X014765Y015043D02*
X034855Y015043D01*
X035093Y014805D02*
X014634Y014805D01*
X017289Y007411D02*
X034822Y007411D01*
X034705Y007295D02*
X034705Y007295D01*
X034583Y007173D02*
X017606Y007173D01*
X017707Y006934D02*
X034345Y006934D01*
X034106Y006696D02*
X017711Y006696D01*
X017626Y006457D02*
X026707Y006457D01*
X026589Y006219D02*
X017394Y006219D01*
X017096Y005980D02*
X026611Y005980D01*
X026762Y005742D02*
X016858Y005742D01*
X016619Y005503D02*
X026742Y005503D01*
X026742Y005265D02*
X016381Y005265D01*
X016142Y005026D02*
X026742Y005026D01*
X026848Y004788D02*
X015904Y004788D01*
X012439Y001449D02*
X012295Y001449D01*
X006937Y005265D02*
X006885Y005265D01*
X006982Y005503D02*
X006697Y005503D01*
X025008Y003595D02*
X026917Y003595D01*
X026917Y003357D02*
X025198Y003357D01*
X025387Y003118D02*
X026917Y003118D01*
X026917Y002880D02*
X025577Y002880D01*
X025767Y002641D02*
X026917Y002641D01*
X026879Y002403D02*
X025956Y002403D01*
X026146Y002164D02*
X026905Y002164D01*
X027797Y003357D02*
X033080Y003357D01*
X032949Y003595D02*
X027797Y003595D01*
X028004Y003834D02*
X032907Y003834D01*
X032907Y004072D02*
X028011Y004072D01*
X028011Y004311D02*
X032907Y004311D01*
X032907Y004549D02*
X028011Y004549D01*
X027905Y004788D02*
X032907Y004788D01*
X032907Y005026D02*
X028011Y005026D01*
X028011Y005265D02*
X032907Y005265D01*
X032979Y005503D02*
X028011Y005503D01*
X027992Y005742D02*
X033152Y005742D01*
X033391Y005980D02*
X027796Y005980D01*
X027623Y006219D02*
X033629Y006219D01*
X033868Y006457D02*
X027467Y006457D01*
X035822Y016236D02*
X035877Y016236D01*
X035987Y016623D02*
X035827Y016783D01*
X035827Y017103D01*
X035987Y016623D02*
X038387Y016623D01*
X037104Y017190D02*
X036305Y017190D01*
X035507Y018223D02*
X035507Y018543D01*
X035507Y018223D02*
X035207Y017923D01*
X035187Y017263D01*
X022059Y048433D02*
X020875Y048433D01*
X021096Y048672D02*
X021838Y048672D01*
X021746Y048910D02*
X021187Y048910D01*
X021187Y049149D02*
X021746Y049149D01*
X021834Y049387D02*
X021099Y049387D01*
X020888Y049626D02*
X022046Y049626D01*
D31*
X006167Y008253D03*
D32*
X006167Y005233D01*
X007447Y003953D01*
X008827Y003953D01*
X009807Y002973D01*
X009807Y002193D01*
X009867Y002133D01*
X022727Y016453D02*
X022207Y016973D01*
X021947Y017273D01*
X021947Y018993D01*
X022727Y016453D02*
X023147Y016453D01*
D33*
X023567Y018533D03*
X021947Y018993D03*
X011207Y031093D03*
D34*
X035187Y016143D02*
X035187Y015503D01*
X036467Y014223D01*
D35*
X036187Y017563D02*
X035827Y017743D01*
X036187Y017563D02*
X037407Y017563D01*
X031707Y040053D02*
X031707Y044213D01*
X030707Y045213D01*
X027827Y045213D01*
X016527Y044093D02*
X016527Y043533D01*
X015787Y042793D01*
X015267Y042793D01*
X016527Y044093D02*
X015727Y044893D01*
X014677Y044893D01*
X014637Y044933D01*
X013647Y044943D02*
X013637Y044933D01*
X013647Y044943D02*
X013647Y045453D01*
X013247Y045853D01*
X012127Y045853D01*
X011407Y045133D01*
X011407Y043373D01*
X012547Y042233D01*
X013667Y042233D01*
X012987Y037313D02*
X012867Y037193D01*
X009727Y037193D01*
X008407Y035873D01*
X008407Y035093D01*
X009087Y034413D01*
X009087Y034373D01*
X009087Y035373D02*
X009087Y036013D01*
X009187Y036113D01*
X011887Y036113D01*
X012167Y036393D01*
X011187Y031113D02*
X011207Y031093D01*
X011187Y031113D02*
X011127Y031113D01*
X013187Y028493D02*
X013167Y028473D01*
X013307Y028333D01*
X014127Y028333D01*
X014535Y028742D01*
X014607Y028742D01*
D36*
X013167Y028473D02*
X013167Y027693D01*
X013167Y028473D02*
X013167Y029293D01*
X013158Y029302D01*
X012207Y029302D01*
X013167Y029293D02*
X013167Y030053D01*
X014127Y031013D01*
X013647Y031493D01*
X013178Y031962D01*
X013178Y031993D01*
X014127Y031013D02*
X019147Y036033D01*
X019147Y036333D01*
X019147Y036033D02*
X019147Y035942D01*
X015567Y038053D02*
X009827Y038053D01*
X007567Y035793D01*
X007567Y034613D01*
X009167Y033073D01*
X010887Y031353D01*
X011127Y031113D01*
X011187Y031113D02*
X012067Y031993D01*
X012075Y031993D01*
X021947Y018993D02*
X022707Y019153D01*
X023867Y019153D01*
X024527Y018473D01*
X030637Y025043D02*
X032447Y025053D01*
X032687Y025293D01*
X037587Y013123D02*
X037427Y012963D01*
X037427Y010383D01*
X037035Y009992D01*
X037035Y009403D01*
X037495Y008943D01*
X037035Y009403D02*
X036207Y009403D01*
X035087Y009403D02*
X033941Y009403D01*
X033918Y009427D01*
X029127Y009493D02*
X028767Y009133D01*
X028287Y009133D02*
X029127Y009973D01*
X029127Y009493D01*
X028287Y009133D02*
X028287Y008773D01*
D37*
X016307Y009543D03*
D38*
X018327Y019693D02*
X020487Y019693D01*
X004887Y035053D02*
X004887Y035413D01*
X004887Y037093D01*
X004887Y040213D01*
X004887Y043573D01*
X004887Y046813D01*
X004887Y049093D01*
X003967Y050013D01*
X002747Y050013D01*
X002747Y049013D02*
X001567Y049013D01*
X001527Y048973D01*
X001527Y049813D01*
X001527Y048973D02*
X001527Y045973D01*
X001647Y045853D01*
X002767Y045853D01*
X002747Y046833D02*
X004867Y046833D01*
X004887Y046813D01*
X004887Y043573D02*
X002747Y043573D01*
X002747Y042573D02*
X001607Y042573D01*
X001527Y042493D01*
X001527Y045973D01*
X001527Y042493D02*
X001527Y039373D01*
X001587Y039313D01*
X002747Y039313D01*
X002847Y040213D02*
X002747Y040313D01*
X002847Y040213D02*
X004887Y040213D01*
X004887Y037093D02*
X004847Y037053D01*
X002747Y037053D01*
X002747Y036053D02*
X001567Y036053D01*
X001527Y036013D01*
X001527Y039373D01*
X001527Y036013D02*
X001527Y034213D01*
D39*
X001527Y034173D01*
X003327Y032373D01*
X003327Y031093D01*
X004287Y030133D01*
X004287Y027933D01*
X004287Y024013D01*
X004287Y023933D01*
X004287Y022653D01*
X004287Y016933D01*
X006267Y014953D01*
X010327Y014953D01*
X010387Y014893D01*
X011567Y017713D02*
X014267Y017713D01*
X014847Y016313D02*
X006707Y016313D01*
X005487Y017533D01*
X005487Y022973D01*
X005487Y027053D01*
X005487Y030733D01*
X004887Y031333D01*
X004887Y032073D01*
X004887Y035413D01*
X018227Y019693D02*
X014847Y016313D01*
X018227Y019693D02*
X018327Y019693D01*
X028167Y008773D02*
X028287Y008773D01*
X029487Y008773D01*
X028167Y008773D02*
X026367Y006973D01*
X026407Y002573D01*
X036127Y025373D02*
X036067Y025433D01*
D40*
X036374Y025314D02*
X036374Y026886D01*
X036367Y026893D02*
X036367Y027053D01*
X036367Y030733D01*
X035587Y031513D01*
X037675Y033602D01*
X037675Y035373D01*
X037675Y036043D01*
X036494Y037224D01*
X035313Y035373D02*
X033847Y035373D01*
X031757Y037463D01*
X031167Y038053D01*
X024147Y038053D01*
X015567Y038053D01*
X019147Y036333D02*
X019207Y036333D01*
X021867Y036333D01*
X024707Y036333D01*
X026927Y036333D01*
X029987Y033273D01*
X030847Y032413D01*
X034687Y032413D01*
X035587Y031513D01*
X035127Y025314D02*
X034747Y025314D01*
X029487Y020053D01*
X029487Y018013D01*
X029487Y008773D01*
X033687Y005173D02*
X035367Y006853D01*
X039207Y006853D01*
X034943Y002683D02*
X034857Y002683D01*
X033687Y003853D01*
X033687Y005173D01*
X025647Y015213D02*
X022767Y015213D01*
X025647Y015213D02*
X026767Y016333D01*
X028567Y018133D01*
X029367Y018133D01*
X032847Y020153D02*
X032947Y020053D01*
X034287Y020053D01*
X037555Y023322D01*
X037555Y023463D01*
X037555Y024133D01*
X036374Y025314D01*
X035127Y025314D01*
X035106Y025293D01*
X032687Y025293D01*
X026227Y025293D01*
X022207Y021273D01*
X017707Y021273D01*
X014267Y017833D01*
X014267Y017713D01*
D41*
X029487Y008773D03*
X039207Y006853D03*
D42*
X026767Y016333D03*
X022767Y015213D03*
X007547Y005273D03*
D43*
X036087Y025333D02*
X036127Y025373D01*
X036207Y025453D01*
D44*
X013198Y026973D02*
X013167Y027005D01*
X013167Y027693D01*
X012095Y026973D02*
X011827Y027242D01*
X011827Y028013D01*
D45*
X032847Y020153D03*
M02*
