G75*
G70*
%OFA0B0*%
%FSLAX24Y24*%
%IPPOS*%
%LPD*%
%AMOC8*
5,1,8,0,0,1.08239X$1,22.5*
%
%ADD10C,0.0000*%
%ADD11C,0.0060*%
%ADD12C,0.0040*%
%ADD13C,0.0030*%
%ADD14C,0.0240*%
%ADD15C,0.0100*%
%ADD16C,0.0050*%
%ADD17C,0.0020*%
%ADD18C,0.0080*%
%ADD19C,0.0276*%
%ADD20C,0.0010*%
%ADD21R,0.0266X0.0965*%
%ADD22R,0.0079X0.0079*%
%ADD23R,0.0059X0.0098*%
D10*
X000687Y000733D02*
X000687Y050733D01*
X040687Y050733D01*
X040687Y000733D01*
X000687Y000733D01*
X001907Y002233D02*
X001909Y002289D01*
X001915Y002344D01*
X001925Y002399D01*
X001939Y002453D01*
X001956Y002506D01*
X001977Y002557D01*
X002002Y002607D01*
X002031Y002655D01*
X002063Y002700D01*
X002098Y002744D01*
X002135Y002785D01*
X002176Y002822D01*
X002220Y002857D01*
X002265Y002889D01*
X002313Y002918D01*
X002363Y002943D01*
X002414Y002964D01*
X002467Y002981D01*
X002521Y002995D01*
X002576Y003005D01*
X002631Y003011D01*
X002687Y003013D01*
X002743Y003011D01*
X002798Y003005D01*
X002853Y002995D01*
X002907Y002981D01*
X002960Y002964D01*
X003011Y002943D01*
X003061Y002918D01*
X003109Y002889D01*
X003154Y002857D01*
X003198Y002822D01*
X003239Y002785D01*
X003276Y002744D01*
X003311Y002700D01*
X003343Y002655D01*
X003372Y002607D01*
X003397Y002557D01*
X003418Y002506D01*
X003435Y002453D01*
X003449Y002399D01*
X003459Y002344D01*
X003465Y002289D01*
X003467Y002233D01*
X003465Y002177D01*
X003459Y002122D01*
X003449Y002067D01*
X003435Y002013D01*
X003418Y001960D01*
X003397Y001909D01*
X003372Y001859D01*
X003343Y001811D01*
X003311Y001766D01*
X003276Y001722D01*
X003239Y001681D01*
X003198Y001644D01*
X003154Y001609D01*
X003109Y001577D01*
X003061Y001548D01*
X003011Y001523D01*
X002960Y001502D01*
X002907Y001485D01*
X002853Y001471D01*
X002798Y001461D01*
X002743Y001455D01*
X002687Y001453D01*
X002631Y001455D01*
X002576Y001461D01*
X002521Y001471D01*
X002467Y001485D01*
X002414Y001502D01*
X002363Y001523D01*
X002313Y001548D01*
X002265Y001577D01*
X002220Y001609D01*
X002176Y001644D01*
X002135Y001681D01*
X002098Y001722D01*
X002063Y001766D01*
X002031Y001811D01*
X002002Y001859D01*
X001977Y001909D01*
X001956Y001960D01*
X001939Y002013D01*
X001925Y002067D01*
X001915Y002122D01*
X001909Y002177D01*
X001907Y002233D01*
X011137Y027233D02*
X011247Y027233D01*
X011247Y027623D01*
X011137Y027623D01*
X011137Y027233D01*
X011337Y027233D02*
X011337Y027623D01*
X011447Y027623D01*
X011447Y027233D01*
X011337Y027233D01*
X011527Y027233D02*
X011637Y027233D01*
X011637Y027623D01*
X011527Y027623D01*
X011527Y027233D01*
X011727Y027233D02*
X011727Y027623D01*
X011837Y027623D01*
X011837Y027233D01*
X011727Y027233D01*
X011927Y027233D02*
X012037Y027233D01*
X012037Y027623D01*
X011927Y027623D01*
X011927Y027233D01*
X012117Y027233D02*
X012117Y027623D01*
X012227Y027623D01*
X012227Y027233D01*
X012117Y027233D01*
X012317Y027233D02*
X012427Y027233D01*
X012427Y027623D01*
X012317Y027623D01*
X012317Y027233D01*
X012517Y027233D02*
X012627Y027233D01*
X012627Y027623D01*
X012517Y027623D01*
X012517Y027233D01*
X012707Y027233D02*
X012707Y027623D01*
X012817Y027623D01*
X012817Y027233D01*
X012707Y027233D01*
X012907Y027233D02*
X013017Y027233D01*
X013017Y027623D01*
X012907Y027623D01*
X012907Y027233D01*
X013107Y027233D02*
X013107Y027623D01*
X013217Y027623D01*
X013217Y027233D01*
X013107Y027233D01*
X013297Y027233D02*
X013407Y027233D01*
X013407Y027623D01*
X013297Y027623D01*
X013297Y027233D01*
X013497Y027233D02*
X013497Y027623D01*
X013607Y027623D01*
X013607Y027233D01*
X013497Y027233D01*
X013697Y027233D02*
X013807Y027233D01*
X013807Y027623D01*
X013697Y027623D01*
X013697Y027233D01*
X013887Y027233D02*
X013887Y027623D01*
X013997Y027623D01*
X013997Y027233D01*
X013887Y027233D01*
X014087Y027233D02*
X014197Y027233D01*
X014197Y027623D01*
X014087Y027623D01*
X014087Y027233D01*
X014637Y027623D02*
X014637Y031563D01*
X010697Y031563D01*
X010697Y027623D01*
X014637Y027623D01*
X014637Y028063D02*
X015027Y028063D01*
X015027Y028173D01*
X014637Y028173D01*
X014637Y028063D01*
X014637Y028263D02*
X015027Y028263D01*
X015027Y028373D01*
X014637Y028373D01*
X014637Y028263D01*
X014637Y028453D02*
X015027Y028453D01*
X015027Y028563D01*
X014637Y028563D01*
X014637Y028453D01*
X014637Y028653D02*
X015027Y028653D01*
X015027Y028763D01*
X014637Y028763D01*
X014637Y028653D01*
X014637Y028853D02*
X015027Y028853D01*
X015027Y028963D01*
X014637Y028963D01*
X014637Y028853D01*
X014637Y029043D02*
X015027Y029043D01*
X015027Y029153D01*
X014637Y029153D01*
X014637Y029043D01*
X014637Y029243D02*
X015027Y029243D01*
X015027Y029353D01*
X014637Y029353D01*
X014637Y029243D01*
X014637Y029443D02*
X015027Y029443D01*
X015027Y029553D01*
X014637Y029553D01*
X014637Y029443D01*
X014637Y029633D02*
X015027Y029633D01*
X015027Y029743D01*
X014637Y029743D01*
X014637Y029633D01*
X014637Y029833D02*
X015027Y029833D01*
X015027Y029943D01*
X014637Y029943D01*
X014637Y029833D01*
X014637Y030033D02*
X015027Y030033D01*
X015027Y030143D01*
X014637Y030143D01*
X014637Y030033D01*
X014637Y030223D02*
X015027Y030223D01*
X015027Y030333D01*
X014637Y030333D01*
X014637Y030223D01*
X014637Y030423D02*
X015027Y030423D01*
X015027Y030533D01*
X014637Y030533D01*
X014637Y030423D01*
X014637Y030623D02*
X015027Y030623D01*
X015027Y030733D01*
X014637Y030733D01*
X014637Y030623D01*
X014637Y030813D02*
X015027Y030813D01*
X015027Y030923D01*
X014637Y030923D01*
X014637Y030813D01*
X014637Y031013D02*
X015027Y031013D01*
X015027Y031123D01*
X014637Y031123D01*
X014637Y031063D01*
X014137Y031563D01*
X014197Y031563D01*
X014197Y031953D01*
X014087Y031953D01*
X014087Y031563D01*
X014137Y031563D01*
X013997Y031563D02*
X013997Y031953D01*
X013887Y031953D01*
X013887Y031563D01*
X013997Y031563D01*
X013807Y031563D02*
X013807Y031953D01*
X013697Y031953D01*
X013697Y031563D01*
X013807Y031563D01*
X013607Y031563D02*
X013607Y031953D01*
X013497Y031953D01*
X013497Y031563D01*
X013607Y031563D01*
X013407Y031563D02*
X013407Y031953D01*
X013297Y031953D01*
X013297Y031563D01*
X013407Y031563D01*
X013217Y031563D02*
X013217Y031953D01*
X013107Y031953D01*
X013107Y031563D01*
X013217Y031563D01*
X013017Y031563D02*
X013017Y031953D01*
X012907Y031953D01*
X012907Y031563D01*
X013017Y031563D01*
X012817Y031563D02*
X012817Y031953D01*
X012707Y031953D01*
X012707Y031563D01*
X012817Y031563D01*
X012627Y031563D02*
X012627Y031953D01*
X012517Y031953D01*
X012517Y031563D01*
X012627Y031563D01*
X012427Y031563D02*
X012427Y031953D01*
X012317Y031953D01*
X012317Y031563D01*
X012427Y031563D01*
X012227Y031563D02*
X012227Y031953D01*
X012117Y031953D01*
X012117Y031563D01*
X012227Y031563D01*
X012037Y031563D02*
X012037Y031953D01*
X011927Y031953D01*
X011927Y031563D01*
X012037Y031563D01*
X011837Y031563D02*
X011837Y031953D01*
X011727Y031953D01*
X011727Y031563D01*
X011837Y031563D01*
X011637Y031563D02*
X011637Y031953D01*
X011527Y031953D01*
X011527Y031563D01*
X011637Y031563D01*
X011447Y031563D02*
X011447Y031953D01*
X011337Y031953D01*
X011337Y031563D01*
X011447Y031563D01*
X011247Y031563D02*
X011247Y031953D01*
X011137Y031953D01*
X011137Y031563D01*
X011247Y031563D01*
X010697Y031123D02*
X010697Y031013D01*
X010307Y031013D01*
X010307Y031123D01*
X010697Y031123D01*
X010697Y030923D02*
X010307Y030923D01*
X010307Y030813D01*
X010697Y030813D01*
X010697Y030923D01*
X010697Y030733D02*
X010307Y030733D01*
X010307Y030623D01*
X010697Y030623D01*
X010697Y030733D01*
X010697Y030533D02*
X010307Y030533D01*
X010307Y030423D01*
X010697Y030423D01*
X010697Y030533D01*
X010697Y030333D02*
X010307Y030333D01*
X010307Y030223D01*
X010697Y030223D01*
X010697Y030333D01*
X010697Y030143D02*
X010307Y030143D01*
X010307Y030033D01*
X010697Y030033D01*
X010697Y030143D01*
X010697Y029943D02*
X010307Y029943D01*
X010307Y029833D01*
X010697Y029833D01*
X010697Y029943D01*
X010697Y029743D02*
X010307Y029743D01*
X010307Y029633D01*
X010697Y029633D01*
X010697Y029743D01*
X010697Y029553D02*
X010307Y029553D01*
X010307Y029443D01*
X010697Y029443D01*
X010697Y029553D01*
X010697Y029353D02*
X010307Y029353D01*
X010307Y029243D01*
X010697Y029243D01*
X010697Y029353D01*
X010697Y029153D02*
X010307Y029153D01*
X010307Y029043D01*
X010697Y029043D01*
X010697Y029153D01*
X010697Y028963D02*
X010307Y028963D01*
X010307Y028853D01*
X010697Y028853D01*
X010697Y028963D01*
X010697Y028763D02*
X010307Y028763D01*
X010307Y028653D01*
X010697Y028653D01*
X010697Y028763D01*
X010697Y028563D02*
X010307Y028563D01*
X010307Y028453D01*
X010697Y028453D01*
X010697Y028563D01*
X010697Y028373D02*
X010307Y028373D01*
X010307Y028263D01*
X010697Y028263D01*
X010697Y028373D01*
X010697Y028173D02*
X010307Y028173D01*
X010307Y028063D01*
X010697Y028063D01*
X010697Y028173D01*
X014637Y031013D02*
X014637Y031063D01*
X015247Y047433D02*
X015249Y047483D01*
X015255Y047533D01*
X015265Y047582D01*
X015278Y047631D01*
X015296Y047678D01*
X015317Y047724D01*
X015341Y047767D01*
X015369Y047809D01*
X015400Y047849D01*
X015434Y047886D01*
X015471Y047920D01*
X015511Y047951D01*
X015553Y047979D01*
X015596Y048003D01*
X015642Y048024D01*
X015689Y048042D01*
X015738Y048055D01*
X015787Y048065D01*
X015837Y048071D01*
X015887Y048073D01*
X015937Y048071D01*
X015987Y048065D01*
X016036Y048055D01*
X016085Y048042D01*
X016132Y048024D01*
X016178Y048003D01*
X016221Y047979D01*
X016263Y047951D01*
X016303Y047920D01*
X016340Y047886D01*
X016374Y047849D01*
X016405Y047809D01*
X016433Y047767D01*
X016457Y047724D01*
X016478Y047678D01*
X016496Y047631D01*
X016509Y047582D01*
X016519Y047533D01*
X016525Y047483D01*
X016527Y047433D01*
X016525Y047383D01*
X016519Y047333D01*
X016509Y047284D01*
X016496Y047235D01*
X016478Y047188D01*
X016457Y047142D01*
X016433Y047099D01*
X016405Y047057D01*
X016374Y047017D01*
X016340Y046980D01*
X016303Y046946D01*
X016263Y046915D01*
X016221Y046887D01*
X016178Y046863D01*
X016132Y046842D01*
X016085Y046824D01*
X016036Y046811D01*
X015987Y046801D01*
X015937Y046795D01*
X015887Y046793D01*
X015837Y046795D01*
X015787Y046801D01*
X015738Y046811D01*
X015689Y046824D01*
X015642Y046842D01*
X015596Y046863D01*
X015553Y046887D01*
X015511Y046915D01*
X015471Y046946D01*
X015434Y046980D01*
X015400Y047017D01*
X015369Y047057D01*
X015341Y047099D01*
X015317Y047142D01*
X015296Y047188D01*
X015278Y047235D01*
X015265Y047284D01*
X015255Y047333D01*
X015249Y047383D01*
X015247Y047433D01*
X011247Y047433D02*
X011249Y047483D01*
X011255Y047533D01*
X011265Y047582D01*
X011278Y047631D01*
X011296Y047678D01*
X011317Y047724D01*
X011341Y047767D01*
X011369Y047809D01*
X011400Y047849D01*
X011434Y047886D01*
X011471Y047920D01*
X011511Y047951D01*
X011553Y047979D01*
X011596Y048003D01*
X011642Y048024D01*
X011689Y048042D01*
X011738Y048055D01*
X011787Y048065D01*
X011837Y048071D01*
X011887Y048073D01*
X011937Y048071D01*
X011987Y048065D01*
X012036Y048055D01*
X012085Y048042D01*
X012132Y048024D01*
X012178Y048003D01*
X012221Y047979D01*
X012263Y047951D01*
X012303Y047920D01*
X012340Y047886D01*
X012374Y047849D01*
X012405Y047809D01*
X012433Y047767D01*
X012457Y047724D01*
X012478Y047678D01*
X012496Y047631D01*
X012509Y047582D01*
X012519Y047533D01*
X012525Y047483D01*
X012527Y047433D01*
X012525Y047383D01*
X012519Y047333D01*
X012509Y047284D01*
X012496Y047235D01*
X012478Y047188D01*
X012457Y047142D01*
X012433Y047099D01*
X012405Y047057D01*
X012374Y047017D01*
X012340Y046980D01*
X012303Y046946D01*
X012263Y046915D01*
X012221Y046887D01*
X012178Y046863D01*
X012132Y046842D01*
X012085Y046824D01*
X012036Y046811D01*
X011987Y046801D01*
X011937Y046795D01*
X011887Y046793D01*
X011837Y046795D01*
X011787Y046801D01*
X011738Y046811D01*
X011689Y046824D01*
X011642Y046842D01*
X011596Y046863D01*
X011553Y046887D01*
X011511Y046915D01*
X011471Y046946D01*
X011434Y046980D01*
X011400Y047017D01*
X011369Y047057D01*
X011341Y047099D01*
X011317Y047142D01*
X011296Y047188D01*
X011278Y047235D01*
X011265Y047284D01*
X011255Y047333D01*
X011249Y047383D01*
X011247Y047433D01*
X008407Y048733D02*
X008409Y048789D01*
X008415Y048844D01*
X008425Y048899D01*
X008439Y048953D01*
X008456Y049006D01*
X008477Y049057D01*
X008502Y049107D01*
X008531Y049155D01*
X008563Y049200D01*
X008598Y049244D01*
X008635Y049285D01*
X008676Y049322D01*
X008720Y049357D01*
X008765Y049389D01*
X008813Y049418D01*
X008863Y049443D01*
X008914Y049464D01*
X008967Y049481D01*
X009021Y049495D01*
X009076Y049505D01*
X009131Y049511D01*
X009187Y049513D01*
X009243Y049511D01*
X009298Y049505D01*
X009353Y049495D01*
X009407Y049481D01*
X009460Y049464D01*
X009511Y049443D01*
X009561Y049418D01*
X009609Y049389D01*
X009654Y049357D01*
X009698Y049322D01*
X009739Y049285D01*
X009776Y049244D01*
X009811Y049200D01*
X009843Y049155D01*
X009872Y049107D01*
X009897Y049057D01*
X009918Y049006D01*
X009935Y048953D01*
X009949Y048899D01*
X009959Y048844D01*
X009965Y048789D01*
X009967Y048733D01*
X009965Y048677D01*
X009959Y048622D01*
X009949Y048567D01*
X009935Y048513D01*
X009918Y048460D01*
X009897Y048409D01*
X009872Y048359D01*
X009843Y048311D01*
X009811Y048266D01*
X009776Y048222D01*
X009739Y048181D01*
X009698Y048144D01*
X009654Y048109D01*
X009609Y048077D01*
X009561Y048048D01*
X009511Y048023D01*
X009460Y048002D01*
X009407Y047985D01*
X009353Y047971D01*
X009298Y047961D01*
X009243Y047955D01*
X009187Y047953D01*
X009131Y047955D01*
X009076Y047961D01*
X009021Y047971D01*
X008967Y047985D01*
X008914Y048002D01*
X008863Y048023D01*
X008813Y048048D01*
X008765Y048077D01*
X008720Y048109D01*
X008676Y048144D01*
X008635Y048181D01*
X008598Y048222D01*
X008563Y048266D01*
X008531Y048311D01*
X008502Y048359D01*
X008477Y048409D01*
X008456Y048460D01*
X008439Y048513D01*
X008425Y048567D01*
X008415Y048622D01*
X008409Y048677D01*
X008407Y048733D01*
X032907Y048733D02*
X032909Y048789D01*
X032915Y048844D01*
X032925Y048899D01*
X032939Y048953D01*
X032956Y049006D01*
X032977Y049057D01*
X033002Y049107D01*
X033031Y049155D01*
X033063Y049200D01*
X033098Y049244D01*
X033135Y049285D01*
X033176Y049322D01*
X033220Y049357D01*
X033265Y049389D01*
X033313Y049418D01*
X033363Y049443D01*
X033414Y049464D01*
X033467Y049481D01*
X033521Y049495D01*
X033576Y049505D01*
X033631Y049511D01*
X033687Y049513D01*
X033743Y049511D01*
X033798Y049505D01*
X033853Y049495D01*
X033907Y049481D01*
X033960Y049464D01*
X034011Y049443D01*
X034061Y049418D01*
X034109Y049389D01*
X034154Y049357D01*
X034198Y049322D01*
X034239Y049285D01*
X034276Y049244D01*
X034311Y049200D01*
X034343Y049155D01*
X034372Y049107D01*
X034397Y049057D01*
X034418Y049006D01*
X034435Y048953D01*
X034449Y048899D01*
X034459Y048844D01*
X034465Y048789D01*
X034467Y048733D01*
X034465Y048677D01*
X034459Y048622D01*
X034449Y048567D01*
X034435Y048513D01*
X034418Y048460D01*
X034397Y048409D01*
X034372Y048359D01*
X034343Y048311D01*
X034311Y048266D01*
X034276Y048222D01*
X034239Y048181D01*
X034198Y048144D01*
X034154Y048109D01*
X034109Y048077D01*
X034061Y048048D01*
X034011Y048023D01*
X033960Y048002D01*
X033907Y047985D01*
X033853Y047971D01*
X033798Y047961D01*
X033743Y047955D01*
X033687Y047953D01*
X033631Y047955D01*
X033576Y047961D01*
X033521Y047971D01*
X033467Y047985D01*
X033414Y048002D01*
X033363Y048023D01*
X033313Y048048D01*
X033265Y048077D01*
X033220Y048109D01*
X033176Y048144D01*
X033135Y048181D01*
X033098Y048222D01*
X033063Y048266D01*
X033031Y048311D01*
X033002Y048359D01*
X032977Y048409D01*
X032956Y048460D01*
X032939Y048513D01*
X032925Y048567D01*
X032915Y048622D01*
X032909Y048677D01*
X032907Y048733D01*
X030907Y002233D02*
X030909Y002289D01*
X030915Y002344D01*
X030925Y002399D01*
X030939Y002453D01*
X030956Y002506D01*
X030977Y002557D01*
X031002Y002607D01*
X031031Y002655D01*
X031063Y002700D01*
X031098Y002744D01*
X031135Y002785D01*
X031176Y002822D01*
X031220Y002857D01*
X031265Y002889D01*
X031313Y002918D01*
X031363Y002943D01*
X031414Y002964D01*
X031467Y002981D01*
X031521Y002995D01*
X031576Y003005D01*
X031631Y003011D01*
X031687Y003013D01*
X031743Y003011D01*
X031798Y003005D01*
X031853Y002995D01*
X031907Y002981D01*
X031960Y002964D01*
X032011Y002943D01*
X032061Y002918D01*
X032109Y002889D01*
X032154Y002857D01*
X032198Y002822D01*
X032239Y002785D01*
X032276Y002744D01*
X032311Y002700D01*
X032343Y002655D01*
X032372Y002607D01*
X032397Y002557D01*
X032418Y002506D01*
X032435Y002453D01*
X032449Y002399D01*
X032459Y002344D01*
X032465Y002289D01*
X032467Y002233D01*
X032465Y002177D01*
X032459Y002122D01*
X032449Y002067D01*
X032435Y002013D01*
X032418Y001960D01*
X032397Y001909D01*
X032372Y001859D01*
X032343Y001811D01*
X032311Y001766D01*
X032276Y001722D01*
X032239Y001681D01*
X032198Y001644D01*
X032154Y001609D01*
X032109Y001577D01*
X032061Y001548D01*
X032011Y001523D01*
X031960Y001502D01*
X031907Y001485D01*
X031853Y001471D01*
X031798Y001461D01*
X031743Y001455D01*
X031687Y001453D01*
X031631Y001455D01*
X031576Y001461D01*
X031521Y001471D01*
X031467Y001485D01*
X031414Y001502D01*
X031363Y001523D01*
X031313Y001548D01*
X031265Y001577D01*
X031220Y001609D01*
X031176Y001644D01*
X031135Y001681D01*
X031098Y001722D01*
X031063Y001766D01*
X031031Y001811D01*
X031002Y001859D01*
X030977Y001909D01*
X030956Y001960D01*
X030939Y002013D01*
X030925Y002067D01*
X030915Y002122D01*
X030909Y002177D01*
X030907Y002233D01*
D11*
X033136Y002168D02*
X033136Y001955D01*
X033243Y001848D01*
X033136Y002168D02*
X033243Y002275D01*
X033350Y002275D01*
X033777Y001848D01*
X033777Y002275D01*
X033563Y002492D02*
X033777Y002706D01*
X033563Y002919D01*
X033136Y002919D01*
X033136Y002492D02*
X033563Y002492D01*
X033777Y001630D02*
X033777Y001203D01*
X033777Y001417D02*
X033136Y001417D01*
X033350Y001203D01*
X033243Y003782D02*
X033670Y003782D01*
X033777Y003888D01*
X033777Y004102D01*
X033670Y004209D01*
X033243Y004209D01*
X033136Y004102D01*
X033136Y003888D01*
X033243Y003782D01*
X033136Y004426D02*
X033670Y004426D01*
X033777Y004533D01*
X033777Y004746D01*
X033670Y004853D01*
X033136Y004853D01*
X033136Y005071D02*
X033136Y005498D01*
X033136Y005284D02*
X033777Y005284D01*
X019570Y001530D02*
X019464Y001530D01*
X019250Y001317D01*
X019250Y001530D02*
X019250Y001103D01*
X019033Y001210D02*
X019033Y001424D01*
X018926Y001530D01*
X018712Y001530D01*
X018606Y001424D01*
X018606Y001210D01*
X018712Y001103D01*
X018926Y001103D01*
X019033Y001210D01*
X018389Y001103D02*
X018283Y001210D01*
X018283Y001637D01*
X018389Y001530D02*
X018176Y001530D01*
X017958Y001424D02*
X017852Y001530D01*
X017638Y001530D01*
X017531Y001424D01*
X017531Y001210D01*
X017638Y001103D01*
X017852Y001103D01*
X017958Y001210D01*
X017958Y001424D01*
X017314Y001424D02*
X017314Y001103D01*
X017100Y001103D02*
X017100Y001424D01*
X017207Y001530D01*
X017314Y001424D01*
X017100Y001424D02*
X016994Y001530D01*
X016887Y001530D01*
X016887Y001103D01*
X016026Y001103D02*
X015919Y001210D01*
X015919Y001637D01*
X015813Y001530D02*
X016026Y001530D01*
X015595Y001424D02*
X015595Y001103D01*
X015595Y001424D02*
X015488Y001530D01*
X015275Y001530D01*
X015168Y001424D01*
X014951Y001530D02*
X014951Y000997D01*
X014844Y000890D01*
X014737Y000890D01*
X014630Y001103D02*
X014951Y001103D01*
X015168Y001103D02*
X015168Y001744D01*
X014951Y001530D02*
X014630Y001530D01*
X014523Y001424D01*
X014523Y001210D01*
X014630Y001103D01*
X014307Y001103D02*
X014094Y001103D01*
X014201Y001103D02*
X014201Y001530D01*
X014094Y001530D01*
X013877Y001530D02*
X013770Y001530D01*
X013557Y001317D01*
X013557Y001530D02*
X013557Y001103D01*
X014201Y001744D02*
X014201Y001851D01*
X010258Y001470D02*
X010152Y001470D01*
X009938Y001257D01*
X009938Y001470D02*
X009938Y001043D01*
X009721Y001150D02*
X009721Y001364D01*
X009614Y001470D01*
X009400Y001470D01*
X009294Y001364D01*
X009294Y001150D01*
X009400Y001043D01*
X009614Y001043D01*
X009721Y001150D01*
X009077Y001043D02*
X008971Y001150D01*
X008971Y001577D01*
X009077Y001470D02*
X008864Y001470D01*
X008646Y001364D02*
X008540Y001470D01*
X008326Y001470D01*
X008219Y001364D01*
X008219Y001150D01*
X008326Y001043D01*
X008540Y001043D01*
X008646Y001150D01*
X008646Y001364D01*
X008002Y001364D02*
X008002Y001043D01*
X007788Y001043D02*
X007788Y001364D01*
X007895Y001470D01*
X008002Y001364D01*
X007788Y001364D02*
X007682Y001470D01*
X007575Y001470D01*
X007575Y001043D01*
X006714Y001043D02*
X006607Y001150D01*
X006607Y001577D01*
X006501Y001470D02*
X006714Y001470D01*
X006284Y001364D02*
X006071Y001364D01*
X005853Y001364D02*
X005853Y001257D01*
X005426Y001257D01*
X005426Y001364D02*
X005533Y001470D01*
X005747Y001470D01*
X005853Y001364D01*
X005747Y001043D02*
X005533Y001043D01*
X005426Y001150D01*
X005426Y001364D01*
X005210Y001043D02*
X004997Y001043D01*
X005103Y001043D02*
X005103Y001684D01*
X004997Y001684D01*
X006178Y001577D02*
X006178Y001043D01*
X006178Y001577D02*
X006284Y001684D01*
X002387Y002748D02*
X001686Y002748D01*
X001686Y002515D02*
X001686Y002982D01*
X001920Y003331D02*
X001920Y003565D01*
X002036Y003681D01*
X002153Y003681D01*
X002153Y003214D01*
X002036Y003214D02*
X001920Y003331D01*
X002036Y003214D02*
X002270Y003214D01*
X002387Y003331D01*
X002387Y003565D01*
X002270Y003914D02*
X002153Y004031D01*
X002153Y004381D01*
X002036Y004381D02*
X002387Y004381D01*
X002387Y004031D01*
X002270Y003914D01*
X001920Y004031D02*
X001920Y004265D01*
X002036Y004381D01*
X001920Y004614D02*
X001920Y004731D01*
X002036Y004848D01*
X001920Y004964D01*
X002036Y005081D01*
X002387Y005081D01*
X002387Y004848D02*
X002036Y004848D01*
X001920Y004614D02*
X002387Y004614D01*
X002387Y006014D02*
X002387Y006481D01*
X002387Y006247D02*
X001686Y006247D01*
X001920Y006014D01*
X002036Y006713D02*
X002036Y007064D01*
X002153Y007180D01*
X002270Y007180D01*
X002387Y007064D01*
X002387Y006830D01*
X002270Y006713D01*
X002036Y006713D01*
X001803Y006947D01*
X001686Y007180D01*
X001920Y007413D02*
X002036Y007413D01*
X002036Y007530D01*
X001920Y007530D01*
X001920Y007413D01*
X002270Y007413D02*
X002387Y007413D01*
X002387Y007530D01*
X002270Y007530D01*
X002270Y007413D01*
X002387Y008463D02*
X001686Y008463D01*
X001686Y008813D01*
X001803Y008930D01*
X002036Y008930D01*
X002153Y008813D01*
X002153Y008463D01*
X002153Y009163D02*
X001920Y009396D01*
X001920Y009513D01*
X002036Y009746D02*
X002270Y009746D01*
X002387Y009863D01*
X002387Y010096D01*
X002270Y010213D01*
X002036Y010213D01*
X001920Y010096D01*
X001920Y009863D01*
X002036Y009746D01*
X001920Y010679D02*
X002503Y010679D01*
X002620Y010562D01*
X002620Y010446D01*
X002270Y010912D02*
X002036Y010912D01*
X001920Y011029D01*
X001920Y011262D01*
X002036Y011379D01*
X002153Y011379D01*
X002153Y010912D01*
X002270Y010912D02*
X002387Y011029D01*
X002387Y011262D01*
X002270Y011612D02*
X002387Y011729D01*
X002387Y012079D01*
X002270Y012429D02*
X001803Y012429D01*
X001920Y012545D02*
X001920Y012312D01*
X001920Y012079D02*
X001920Y011729D01*
X002036Y011612D01*
X002270Y011612D01*
X002270Y012429D02*
X002387Y012545D01*
X002387Y013478D02*
X001686Y013478D01*
X001920Y013712D01*
X001686Y013945D01*
X002387Y013945D01*
X002387Y014178D02*
X002387Y014411D01*
X002387Y014295D02*
X001920Y014295D01*
X001920Y014178D01*
X001686Y014295D02*
X001569Y014295D01*
X001920Y014644D02*
X001920Y014995D01*
X002036Y015111D01*
X002387Y015111D01*
X002270Y015344D02*
X002036Y015344D01*
X001920Y015461D01*
X001920Y015695D01*
X002036Y015811D01*
X002270Y015811D01*
X002387Y015695D01*
X002387Y015461D01*
X002270Y015344D01*
X001920Y016044D02*
X001920Y016278D01*
X001803Y016161D02*
X002270Y016161D01*
X002387Y016278D01*
X002270Y016511D02*
X002153Y016627D01*
X002153Y016978D01*
X002036Y016978D02*
X002387Y016978D01*
X002387Y016627D01*
X002270Y016511D01*
X001920Y016627D02*
X001920Y016861D01*
X002036Y016978D01*
X001920Y017210D02*
X002270Y017210D01*
X002387Y017327D01*
X002387Y017677D01*
X001920Y017677D01*
X001920Y017910D02*
X002387Y017910D01*
X002153Y017910D02*
X001920Y018144D01*
X001920Y018260D01*
X004446Y017370D02*
X004446Y017156D01*
X004553Y017049D01*
X004446Y017370D02*
X004553Y017476D01*
X004660Y017476D01*
X005087Y017049D01*
X005087Y017476D01*
X004766Y016189D02*
X004766Y015975D01*
X004766Y015758D02*
X004660Y015651D01*
X004660Y015437D01*
X004766Y015331D01*
X004980Y015331D01*
X005087Y015437D01*
X005087Y015651D01*
X004980Y015758D01*
X004766Y015758D01*
X004553Y016082D02*
X004446Y016189D01*
X004553Y016082D02*
X005087Y016082D01*
X005087Y014469D02*
X005087Y014042D01*
X005087Y014255D02*
X004446Y014255D01*
X004660Y014042D01*
X004660Y013179D02*
X004766Y013073D01*
X004766Y012752D01*
X004553Y012535D02*
X004446Y012428D01*
X004446Y012215D01*
X004553Y012108D01*
X004980Y012108D01*
X005087Y012215D01*
X005087Y012428D01*
X004980Y012535D01*
X005087Y012752D02*
X004446Y012752D01*
X004446Y013073D01*
X004553Y013179D01*
X004660Y013179D01*
X004766Y013073D02*
X004873Y013179D01*
X004980Y013179D01*
X005087Y013073D01*
X005087Y012752D01*
X004766Y011890D02*
X004553Y011890D01*
X004446Y011784D01*
X004446Y011463D01*
X005087Y011463D01*
X004873Y011463D02*
X004873Y011784D01*
X004766Y011890D01*
X002387Y009163D02*
X001920Y009163D01*
X001686Y010679D02*
X001569Y010679D01*
X001920Y014644D02*
X002387Y014644D01*
X002757Y021513D02*
X002507Y021763D01*
X002507Y022263D01*
X002757Y022513D01*
X002507Y022763D01*
X002507Y023263D01*
X002757Y023513D01*
X002507Y023763D01*
X002507Y024263D01*
X002757Y024513D01*
X003257Y024513D01*
X003507Y024263D01*
X003507Y023763D01*
X003257Y023513D01*
X003507Y023263D01*
X003507Y022763D01*
X003257Y022513D01*
X003507Y022263D01*
X003507Y021763D01*
X003257Y021513D01*
X002757Y021513D01*
X001987Y021763D02*
X001987Y022263D01*
X001737Y022513D01*
X001987Y022763D01*
X001987Y023263D01*
X001737Y023513D01*
X001987Y023763D01*
X001987Y024263D01*
X001737Y024513D01*
X001237Y024513D01*
X000987Y024263D01*
X000987Y023763D01*
X001237Y023513D01*
X001737Y023513D01*
X001237Y023513D02*
X000987Y023263D01*
X000987Y022763D01*
X001237Y022513D01*
X001737Y022513D01*
X001237Y022513D02*
X000987Y022263D01*
X000987Y021763D01*
X001237Y021513D01*
X001737Y021513D01*
X001987Y021763D01*
X002757Y022513D02*
X003257Y022513D01*
X003996Y022373D02*
X003996Y022160D01*
X003996Y022267D02*
X004637Y022267D01*
X004637Y022373D02*
X004637Y022160D01*
X004637Y021942D02*
X004423Y021729D01*
X004423Y021836D02*
X004423Y021515D01*
X004637Y021515D02*
X003996Y021515D01*
X003996Y021836D01*
X004103Y021942D01*
X004316Y021942D01*
X004423Y021836D01*
X004530Y022590D02*
X004103Y022590D01*
X003996Y022696D01*
X003996Y022910D01*
X004103Y023017D01*
X004316Y023017D02*
X004316Y022803D01*
X004316Y023017D02*
X004530Y023017D01*
X004637Y022910D01*
X004637Y022696D01*
X004530Y022590D01*
X004637Y023234D02*
X003996Y023234D01*
X004316Y023234D02*
X004316Y023661D01*
X003996Y023661D02*
X004637Y023661D01*
X004637Y024092D02*
X003996Y024092D01*
X003996Y023879D02*
X003996Y024306D01*
X003257Y023513D02*
X002757Y023513D01*
X002757Y025513D02*
X002507Y025763D01*
X002507Y026263D01*
X002757Y026513D01*
X002507Y026763D01*
X002507Y027263D01*
X002757Y027513D01*
X002507Y027763D01*
X002507Y028263D01*
X002757Y028513D01*
X003257Y028513D01*
X003507Y028263D01*
X003507Y027763D01*
X003257Y027513D01*
X003507Y027263D01*
X003507Y026763D01*
X003257Y026513D01*
X003507Y026263D01*
X003507Y025763D01*
X003257Y025513D01*
X002757Y025513D01*
X001987Y025763D02*
X001987Y026263D01*
X001737Y026513D01*
X001987Y026763D01*
X001987Y027263D01*
X001737Y027513D01*
X001987Y027763D01*
X001987Y028263D01*
X001737Y028513D01*
X001237Y028513D01*
X000987Y028263D01*
X000987Y027763D01*
X001237Y027513D01*
X001737Y027513D01*
X001737Y026513D02*
X001237Y026513D01*
X000987Y026763D01*
X000987Y027263D01*
X001237Y027513D01*
X001237Y026513D02*
X000987Y026263D01*
X000987Y025763D01*
X001237Y025513D01*
X001737Y025513D01*
X001987Y025763D01*
X002757Y026513D02*
X003257Y026513D01*
X003257Y027513D02*
X002757Y027513D01*
X003996Y027479D02*
X003996Y027906D01*
X003996Y027692D02*
X004637Y027692D01*
X004316Y027048D02*
X004316Y026834D01*
X003996Y026834D02*
X003996Y027261D01*
X003996Y026834D02*
X004637Y026834D01*
X004637Y026617D02*
X004637Y026190D01*
X003996Y026190D01*
X003996Y026617D01*
X004316Y026403D02*
X004316Y026190D01*
X004637Y025972D02*
X004637Y025545D01*
X003996Y025545D01*
X006307Y025803D02*
X006307Y026303D01*
X006557Y026553D01*
X006307Y026803D01*
X006307Y027303D01*
X006557Y027553D01*
X006307Y027803D01*
X006307Y028303D01*
X006557Y028553D01*
X006307Y028803D01*
X006307Y029303D01*
X006557Y029553D01*
X006307Y029803D01*
X006307Y030303D01*
X006557Y030553D01*
X006307Y030803D01*
X006307Y031303D01*
X006557Y031553D01*
X006307Y031803D01*
X006307Y032303D01*
X006557Y032553D01*
X006307Y032803D01*
X006307Y033303D01*
X006557Y033553D01*
X008057Y033553D01*
X008307Y033303D01*
X008307Y032803D01*
X008057Y032553D01*
X008307Y032303D01*
X008307Y031803D01*
X008057Y031553D01*
X008307Y031303D01*
X008307Y030803D01*
X008057Y030553D01*
X008307Y030303D01*
X008307Y029803D01*
X008057Y029553D01*
X008307Y029303D01*
X008307Y028803D01*
X008057Y028553D01*
X008307Y028303D01*
X008307Y027803D01*
X008057Y027553D01*
X008307Y027303D01*
X008307Y026803D01*
X008057Y026553D01*
X008307Y026303D01*
X008307Y025803D01*
X008057Y025553D01*
X006557Y025553D01*
X006307Y025803D01*
X008547Y025043D02*
X008547Y023543D01*
X008797Y023293D01*
X009297Y023293D01*
X009547Y023543D01*
X009797Y023293D01*
X010297Y023293D01*
X010547Y023543D01*
X010797Y023293D01*
X011297Y023293D01*
X011547Y023543D01*
X011797Y023293D01*
X012297Y023293D01*
X012547Y023543D01*
X012797Y023293D01*
X013297Y023293D01*
X013547Y023543D01*
X013797Y023293D01*
X014297Y023293D01*
X014547Y023543D01*
X014797Y023293D01*
X015297Y023293D01*
X015547Y023543D01*
X015797Y023293D01*
X016297Y023293D01*
X016547Y023543D01*
X016547Y025043D01*
X016297Y025293D01*
X015797Y025293D01*
X015547Y025043D01*
X015297Y025293D01*
X014797Y025293D01*
X014547Y025043D01*
X014297Y025293D01*
X013797Y025293D01*
X013547Y025043D01*
X013297Y025293D01*
X012797Y025293D01*
X012547Y025043D01*
X012297Y025293D01*
X011797Y025293D01*
X011547Y025043D01*
X011297Y025293D01*
X010797Y025293D01*
X010547Y025043D01*
X010297Y025293D01*
X009797Y025293D01*
X009547Y025043D01*
X009297Y025293D01*
X008797Y025293D01*
X008547Y025043D01*
X008837Y033873D02*
X008587Y034123D01*
X008587Y035623D01*
X008837Y035873D01*
X009337Y035873D01*
X009587Y035623D01*
X009837Y035873D01*
X010337Y035873D01*
X010587Y035623D01*
X010837Y035873D01*
X011337Y035873D01*
X011587Y035623D01*
X011837Y035873D01*
X012337Y035873D01*
X012587Y035623D01*
X012837Y035873D01*
X013337Y035873D01*
X013587Y035623D01*
X013837Y035873D01*
X014337Y035873D01*
X014587Y035623D01*
X014837Y035873D01*
X015337Y035873D01*
X015587Y035623D01*
X015837Y035873D01*
X016337Y035873D01*
X016587Y035623D01*
X016587Y034123D01*
X016337Y033873D01*
X015837Y033873D01*
X015587Y034123D01*
X015337Y033873D01*
X014837Y033873D01*
X014587Y034123D01*
X014337Y033873D01*
X013837Y033873D01*
X013587Y034123D01*
X013337Y033873D01*
X012837Y033873D01*
X012587Y034123D01*
X012337Y033873D01*
X011837Y033873D01*
X011587Y034123D01*
X011337Y033873D01*
X010837Y033873D01*
X010587Y034123D01*
X010337Y033873D01*
X009837Y033873D01*
X009587Y034123D01*
X009337Y033873D01*
X008837Y033873D01*
X016947Y033403D02*
X016947Y032903D01*
X017197Y032653D01*
X016947Y032403D01*
X016947Y031903D01*
X017197Y031653D01*
X016947Y031403D01*
X016947Y030903D01*
X017197Y030653D01*
X016947Y030403D01*
X016947Y029903D01*
X017197Y029653D01*
X016947Y029403D01*
X016947Y028903D01*
X017197Y028653D01*
X016947Y028403D01*
X016947Y027903D01*
X017197Y027653D01*
X016947Y027403D01*
X016947Y026903D01*
X017197Y026653D01*
X016947Y026403D01*
X016947Y025903D01*
X017197Y025653D01*
X018697Y025653D01*
X018947Y025903D01*
X018947Y026403D01*
X018697Y026653D01*
X018947Y026903D01*
X018947Y027403D01*
X018697Y027653D01*
X018947Y027903D01*
X018947Y028403D01*
X018697Y028653D01*
X018947Y028903D01*
X018947Y029403D01*
X018697Y029653D01*
X018947Y029903D01*
X018947Y030403D01*
X018697Y030653D01*
X018947Y030903D01*
X018947Y031403D01*
X018697Y031653D01*
X018947Y031903D01*
X018947Y032403D01*
X018697Y032653D01*
X018947Y032903D01*
X018947Y033403D01*
X018697Y033653D01*
X017197Y033653D01*
X016947Y033403D01*
X018156Y045043D02*
X018156Y045364D01*
X018263Y045470D01*
X018476Y045470D01*
X018583Y045364D01*
X018583Y045043D01*
X018797Y045043D02*
X018156Y045043D01*
X018583Y045257D02*
X018797Y045470D01*
X018797Y045688D02*
X018797Y046115D01*
X018690Y046332D02*
X018797Y046439D01*
X018797Y046653D01*
X018690Y046759D01*
X018583Y046759D01*
X018476Y046653D01*
X018476Y046439D01*
X018370Y046332D01*
X018263Y046332D01*
X018156Y046439D01*
X018156Y046653D01*
X018263Y046759D01*
X018156Y046977D02*
X018797Y046977D01*
X018797Y047404D01*
X018476Y047190D02*
X018476Y046977D01*
X018156Y046977D02*
X018156Y047404D01*
X018156Y047622D02*
X018156Y048049D01*
X018156Y047835D02*
X018797Y047835D01*
X018156Y046115D02*
X018156Y045688D01*
X018797Y045688D01*
X018476Y045688D02*
X018476Y045901D01*
X034097Y027104D02*
X034097Y026520D01*
X034213Y026403D01*
X034447Y026403D01*
X034564Y026520D01*
X034564Y027104D01*
X034796Y026870D02*
X035147Y026870D01*
X035264Y026754D01*
X035264Y026403D01*
X035496Y026403D02*
X035496Y026870D01*
X035496Y026637D02*
X035730Y026870D01*
X035847Y026870D01*
X036079Y026754D02*
X036196Y026870D01*
X036430Y026870D01*
X036546Y026754D01*
X036546Y026637D01*
X036079Y026637D01*
X036079Y026520D02*
X036079Y026754D01*
X036079Y026520D02*
X036196Y026403D01*
X036430Y026403D01*
X036779Y026520D02*
X036896Y026403D01*
X037246Y026403D01*
X037246Y026287D02*
X037246Y026870D01*
X036896Y026870D01*
X036779Y026754D01*
X036779Y026520D01*
X037013Y026170D02*
X037130Y026170D01*
X037246Y026287D01*
X037479Y026520D02*
X037596Y026403D01*
X037946Y026403D01*
X037946Y026870D01*
X038179Y027104D02*
X038296Y027104D01*
X038296Y026403D01*
X038412Y026403D02*
X038179Y026403D01*
X038645Y026520D02*
X038762Y026637D01*
X039112Y026637D01*
X039112Y026754D02*
X039112Y026403D01*
X038762Y026403D01*
X038645Y026520D01*
X038762Y026870D02*
X038996Y026870D01*
X039112Y026754D01*
X039345Y026870D02*
X039579Y026870D01*
X039462Y026987D02*
X039462Y026520D01*
X039579Y026403D01*
X039812Y026520D02*
X039812Y026754D01*
X039928Y026870D01*
X040162Y026870D01*
X040279Y026754D01*
X040279Y026637D01*
X039812Y026637D01*
X039812Y026520D02*
X039928Y026403D01*
X040162Y026403D01*
X040511Y026520D02*
X040511Y026754D01*
X040628Y026870D01*
X040979Y026870D01*
X040979Y027104D02*
X040979Y026403D01*
X040628Y026403D01*
X040511Y026520D01*
X040313Y028203D02*
X039886Y028203D01*
X039886Y028844D01*
X039668Y028737D02*
X039561Y028844D01*
X039348Y028844D01*
X039241Y028737D01*
X039241Y028310D01*
X039348Y028203D01*
X039561Y028203D01*
X039668Y028310D01*
X039024Y028310D02*
X038917Y028203D01*
X038703Y028203D01*
X038597Y028310D01*
X038703Y028524D02*
X038917Y028524D01*
X039024Y028417D01*
X039024Y028310D01*
X038703Y028524D02*
X038597Y028630D01*
X038597Y028737D01*
X038703Y028844D01*
X038917Y028844D01*
X039024Y028737D01*
X037479Y026870D02*
X037479Y026520D01*
X034796Y026403D02*
X034796Y026870D01*
X038703Y031203D02*
X038597Y031310D01*
X038703Y031203D02*
X038917Y031203D01*
X039024Y031310D01*
X039024Y031417D01*
X038917Y031524D01*
X038703Y031524D01*
X038597Y031630D01*
X038597Y031737D01*
X038703Y031844D01*
X038917Y031844D01*
X039024Y031737D01*
X039241Y031844D02*
X039561Y031844D01*
X039668Y031737D01*
X039668Y031310D01*
X039561Y031203D01*
X039241Y031203D01*
X039241Y031844D01*
X039886Y031630D02*
X039886Y031203D01*
X039886Y031524D02*
X040313Y031524D01*
X040313Y031630D02*
X040313Y031203D01*
X040313Y031630D02*
X040099Y031844D01*
X039886Y031630D01*
X039659Y032703D02*
X039659Y033404D01*
X039192Y033404D02*
X039192Y032703D01*
X038959Y032703D02*
X038726Y032703D01*
X038843Y032703D02*
X038843Y033404D01*
X038959Y033404D02*
X038726Y033404D01*
X039192Y033404D02*
X039659Y032703D01*
X037793Y032937D02*
X037793Y033404D01*
X037326Y033404D02*
X037326Y032937D01*
X037560Y032703D01*
X037793Y032937D01*
X037093Y032937D02*
X037093Y032820D01*
X036977Y032703D01*
X036743Y032703D01*
X036626Y032820D01*
X036393Y032820D02*
X036393Y032703D01*
X036276Y032703D01*
X036276Y032820D01*
X036393Y032820D01*
X036044Y032820D02*
X035927Y032703D01*
X035693Y032703D01*
X035577Y032820D01*
X035810Y033054D02*
X035927Y033054D01*
X036044Y032937D01*
X036044Y032820D01*
X035927Y033054D02*
X036044Y033170D01*
X036044Y033287D01*
X035927Y033404D01*
X035693Y033404D01*
X035577Y033287D01*
X036626Y033287D02*
X036743Y033404D01*
X036977Y033404D01*
X037093Y033287D01*
X037093Y033170D01*
X036977Y033054D01*
X037093Y032937D01*
X036977Y033054D02*
X036860Y033054D01*
X029037Y024343D02*
X029039Y024423D01*
X029045Y024502D01*
X029055Y024581D01*
X029069Y024660D01*
X029086Y024738D01*
X029108Y024815D01*
X029133Y024890D01*
X029163Y024964D01*
X029195Y025037D01*
X029232Y025108D01*
X029272Y025177D01*
X029315Y025244D01*
X029362Y025309D01*
X029411Y025371D01*
X029464Y025431D01*
X029520Y025488D01*
X029578Y025543D01*
X029639Y025594D01*
X029703Y025642D01*
X029769Y025687D01*
X029837Y025729D01*
X029907Y025767D01*
X029979Y025801D01*
X030052Y025832D01*
X030127Y025860D01*
X030204Y025883D01*
X030281Y025903D01*
X030359Y025919D01*
X030438Y025931D01*
X030517Y025939D01*
X030597Y025943D01*
X030677Y025943D01*
X030757Y025939D01*
X030836Y025931D01*
X030915Y025919D01*
X030993Y025903D01*
X031070Y025883D01*
X031147Y025860D01*
X031222Y025832D01*
X031295Y025801D01*
X031367Y025767D01*
X031437Y025729D01*
X031505Y025687D01*
X031571Y025642D01*
X031635Y025594D01*
X031696Y025543D01*
X031754Y025488D01*
X031810Y025431D01*
X031863Y025371D01*
X031912Y025309D01*
X031959Y025244D01*
X032002Y025177D01*
X032042Y025108D01*
X032079Y025037D01*
X032111Y024964D01*
X032141Y024890D01*
X032166Y024815D01*
X032188Y024738D01*
X032205Y024660D01*
X032219Y024581D01*
X032229Y024502D01*
X032235Y024423D01*
X032237Y024343D01*
X032235Y024263D01*
X032229Y024184D01*
X032219Y024105D01*
X032205Y024026D01*
X032188Y023948D01*
X032166Y023871D01*
X032141Y023796D01*
X032111Y023722D01*
X032079Y023649D01*
X032042Y023578D01*
X032002Y023509D01*
X031959Y023442D01*
X031912Y023377D01*
X031863Y023315D01*
X031810Y023255D01*
X031754Y023198D01*
X031696Y023143D01*
X031635Y023092D01*
X031571Y023044D01*
X031505Y022999D01*
X031437Y022957D01*
X031367Y022919D01*
X031295Y022885D01*
X031222Y022854D01*
X031147Y022826D01*
X031070Y022803D01*
X030993Y022783D01*
X030915Y022767D01*
X030836Y022755D01*
X030757Y022747D01*
X030677Y022743D01*
X030597Y022743D01*
X030517Y022747D01*
X030438Y022755D01*
X030359Y022767D01*
X030281Y022783D01*
X030204Y022803D01*
X030127Y022826D01*
X030052Y022854D01*
X029979Y022885D01*
X029907Y022919D01*
X029837Y022957D01*
X029769Y022999D01*
X029703Y023044D01*
X029639Y023092D01*
X029578Y023143D01*
X029520Y023198D01*
X029464Y023255D01*
X029411Y023315D01*
X029362Y023377D01*
X029315Y023442D01*
X029272Y023509D01*
X029232Y023578D01*
X029195Y023649D01*
X029163Y023722D01*
X029133Y023796D01*
X029108Y023871D01*
X029086Y023948D01*
X029069Y024026D01*
X029055Y024105D01*
X029045Y024184D01*
X029039Y024263D01*
X029037Y024343D01*
X030187Y023293D02*
X030187Y022993D01*
X030337Y023143D02*
X030037Y023143D01*
X019714Y015117D02*
X019714Y014884D01*
X019597Y014767D01*
X019247Y014767D01*
X019247Y014533D02*
X019247Y015234D01*
X019597Y015234D01*
X019714Y015117D01*
X019014Y015117D02*
X019014Y014650D01*
X018897Y014533D01*
X018664Y014533D01*
X018547Y014650D01*
X018547Y015117D01*
X018664Y015234D01*
X018897Y015234D01*
X019014Y015117D01*
X018314Y015234D02*
X017847Y015234D01*
X018081Y015234D02*
X018081Y014533D01*
D12*
X018966Y010404D02*
X019196Y010404D01*
X019273Y010327D01*
X019273Y010020D01*
X019196Y009943D01*
X018966Y009943D01*
X018966Y010404D01*
X019426Y010327D02*
X019426Y010250D01*
X019503Y010174D01*
X019656Y010174D01*
X019733Y010097D01*
X019733Y010020D01*
X019656Y009943D01*
X019503Y009943D01*
X019426Y010020D01*
X019426Y010097D01*
X019503Y010174D01*
X019656Y010174D02*
X019733Y010250D01*
X019733Y010327D01*
X019656Y010404D01*
X019503Y010404D01*
X019426Y010327D01*
X022088Y011802D02*
X022395Y011802D01*
X022549Y011802D02*
X022855Y011802D01*
X022702Y011802D02*
X022702Y012263D01*
X022549Y012109D01*
X022088Y012263D02*
X022088Y011802D01*
X023009Y011726D02*
X023316Y011726D01*
X023469Y011802D02*
X023469Y011879D01*
X023776Y012186D01*
X023776Y012263D01*
X023469Y012263D01*
X027877Y008127D02*
X027877Y007820D01*
X027953Y007743D01*
X028107Y007743D01*
X028184Y007820D01*
X028337Y007743D02*
X028491Y007743D01*
X028414Y007743D02*
X028414Y008204D01*
X028337Y008204D02*
X028491Y008204D01*
X028644Y008204D02*
X028644Y007743D01*
X028951Y007743D02*
X028644Y008204D01*
X028951Y008204D02*
X028951Y007743D01*
X029104Y007743D02*
X029104Y007820D01*
X029411Y008127D01*
X029411Y008204D01*
X029104Y008204D01*
X028184Y008127D02*
X028107Y008204D01*
X027953Y008204D01*
X027877Y008127D01*
X027354Y004705D02*
X027354Y004398D01*
X027124Y004628D01*
X027584Y004628D01*
X027508Y004245D02*
X027431Y004245D01*
X027354Y004168D01*
X027354Y004014D01*
X027277Y003938D01*
X027201Y003938D01*
X027124Y004014D01*
X027124Y004168D01*
X027201Y004245D01*
X027047Y004091D02*
X027661Y004091D01*
X027584Y004014D02*
X027584Y004168D01*
X027508Y004245D01*
X027584Y004014D02*
X027508Y003938D01*
X027508Y003784D02*
X027124Y003784D01*
X027124Y003477D02*
X027508Y003477D01*
X027584Y003554D01*
X027584Y003707D01*
X027508Y003784D01*
X019453Y007007D02*
X019146Y006700D01*
X019146Y006623D01*
X018993Y006700D02*
X018993Y007007D01*
X018916Y007084D01*
X018686Y007084D01*
X018686Y006623D01*
X018916Y006623D01*
X018993Y006700D01*
X019146Y007084D02*
X019453Y007084D01*
X019453Y007007D01*
X017996Y004767D02*
X018303Y004460D01*
X018379Y004460D01*
X018379Y004153D02*
X017919Y004153D01*
X017919Y004000D02*
X017919Y004307D01*
X017919Y004460D02*
X017919Y004767D01*
X017996Y004767D01*
X017919Y003846D02*
X018303Y003846D01*
X018379Y003770D01*
X018379Y003616D01*
X018303Y003539D01*
X017919Y003539D01*
X017996Y003386D02*
X017919Y003309D01*
X017919Y003156D01*
X017996Y003079D01*
X018303Y003079D01*
X018379Y003156D01*
X018379Y003309D01*
X018303Y003386D01*
X017996Y003386D01*
X017996Y002925D02*
X017919Y002849D01*
X017919Y002695D01*
X017996Y002619D01*
X018303Y002619D01*
X018379Y002695D01*
X018379Y002849D01*
X018303Y002925D01*
X015034Y003183D02*
X014727Y003183D01*
X014881Y003183D02*
X014881Y003644D01*
X014727Y003490D01*
X014574Y003567D02*
X014497Y003644D01*
X014267Y003644D01*
X014267Y003183D01*
X014497Y003183D01*
X014574Y003260D01*
X014574Y003567D01*
X014153Y003550D02*
X014153Y003627D01*
X014076Y003704D01*
X013923Y003704D01*
X013846Y003627D01*
X013693Y003627D02*
X013693Y003320D01*
X013616Y003243D01*
X013386Y003243D01*
X013386Y003704D01*
X013616Y003704D01*
X013693Y003627D01*
X013846Y003243D02*
X014153Y003550D01*
X014153Y003243D02*
X013846Y003243D01*
X013199Y000614D02*
X013259Y000554D01*
X013018Y000313D01*
X013078Y000253D01*
X013199Y000253D01*
X013259Y000313D01*
X013259Y000554D01*
X013199Y000614D02*
X013078Y000614D01*
X013018Y000554D01*
X013018Y000313D01*
X012890Y000253D02*
X012650Y000253D01*
X012770Y000253D02*
X012770Y000614D01*
X012650Y000494D01*
X012522Y000614D02*
X012282Y000253D01*
X012522Y000253D02*
X012282Y000614D01*
X009347Y005803D02*
X009424Y005880D01*
X009424Y005957D01*
X009347Y006034D01*
X009117Y006034D01*
X009117Y005880D01*
X009194Y005803D01*
X009347Y005803D01*
X009117Y006034D02*
X009271Y006187D01*
X009424Y006264D01*
X008964Y006187D02*
X008964Y005880D01*
X008887Y005803D01*
X008657Y005803D01*
X008657Y006264D01*
X008887Y006264D01*
X008964Y006187D01*
X007436Y002344D02*
X007283Y002344D01*
X007206Y002267D01*
X007053Y002267D02*
X006976Y002344D01*
X006746Y002344D01*
X006746Y001883D01*
X006976Y001883D01*
X007053Y001960D01*
X007053Y002267D01*
X007360Y002114D02*
X007436Y002114D01*
X007513Y002037D01*
X007513Y001960D01*
X007436Y001883D01*
X007283Y001883D01*
X007206Y001960D01*
X007436Y002114D02*
X007513Y002190D01*
X007513Y002267D01*
X007436Y002344D01*
X003647Y004370D02*
X003570Y004293D01*
X003647Y004370D02*
X003647Y004524D01*
X003570Y004600D01*
X003493Y004600D01*
X003416Y004524D01*
X003416Y004370D01*
X003340Y004293D01*
X003263Y004293D01*
X003186Y004370D01*
X003186Y004524D01*
X003263Y004600D01*
X003416Y004754D02*
X003570Y004754D01*
X003647Y004830D01*
X003647Y005061D01*
X003570Y005214D02*
X003416Y005214D01*
X003340Y005291D01*
X003340Y005444D01*
X003416Y005521D01*
X003570Y005521D01*
X003647Y005444D01*
X003647Y005291D01*
X003570Y005214D01*
X003340Y005061D02*
X003340Y004830D01*
X003416Y004754D01*
X003340Y005675D02*
X003340Y005828D01*
X003263Y005751D02*
X003570Y005751D01*
X003647Y005828D01*
X003570Y006058D02*
X003647Y006135D01*
X003570Y006058D02*
X003263Y006058D01*
X003340Y005981D02*
X003340Y006135D01*
X003340Y006749D02*
X003416Y006825D01*
X003416Y006979D01*
X003493Y007056D01*
X003570Y007056D01*
X003647Y006979D01*
X003647Y006825D01*
X003570Y006749D01*
X003340Y006749D02*
X003263Y006749D01*
X003186Y006825D01*
X003186Y006979D01*
X003263Y007056D01*
X003340Y007209D02*
X003340Y007363D01*
X003263Y007286D02*
X003570Y007286D01*
X003647Y007363D01*
X003570Y007516D02*
X003493Y007593D01*
X003493Y007823D01*
X003416Y007823D02*
X003647Y007823D01*
X003647Y007593D01*
X003570Y007516D01*
X003340Y007593D02*
X003340Y007746D01*
X003416Y007823D01*
X003416Y007976D02*
X003570Y007976D01*
X003647Y008053D01*
X003647Y008283D01*
X003647Y008437D02*
X003186Y008437D01*
X003340Y008283D02*
X003340Y008053D01*
X003416Y007976D01*
X003493Y008437D02*
X003340Y008667D01*
X003493Y008437D02*
X003647Y008667D01*
X003800Y008821D02*
X003647Y008974D01*
X003647Y008897D01*
X003570Y008897D01*
X003570Y008974D01*
X003647Y008974D01*
X003647Y009588D02*
X003186Y009588D01*
X003647Y009895D01*
X003186Y009895D01*
X003340Y010125D02*
X003340Y010278D01*
X003416Y010355D01*
X003493Y010355D01*
X003493Y010048D01*
X003570Y010048D02*
X003416Y010048D01*
X003340Y010125D01*
X003570Y010048D02*
X003647Y010125D01*
X003647Y010278D01*
X003647Y010509D02*
X003647Y010662D01*
X003647Y010585D02*
X003340Y010585D01*
X003340Y010509D01*
X003186Y010585D02*
X003110Y010585D01*
X003186Y010816D02*
X003186Y010892D01*
X003647Y010892D01*
X003647Y010816D02*
X003647Y010969D01*
X003647Y011583D02*
X003186Y011583D01*
X003416Y011660D02*
X003647Y011890D01*
X003570Y012043D02*
X003647Y012120D01*
X003647Y012350D01*
X003340Y012350D01*
X003340Y012504D02*
X003340Y012580D01*
X003416Y012657D01*
X003340Y012734D01*
X003416Y012811D01*
X003647Y012811D01*
X003647Y012657D02*
X003416Y012657D01*
X003340Y012504D02*
X003647Y012504D01*
X003570Y012964D02*
X003493Y013041D01*
X003493Y013271D01*
X003416Y013271D02*
X003647Y013271D01*
X003647Y013041D01*
X003570Y012964D01*
X003340Y013041D02*
X003340Y013194D01*
X003416Y013271D01*
X003340Y013424D02*
X003647Y013424D01*
X003493Y013424D02*
X003340Y013578D01*
X003340Y013655D01*
X003570Y013885D02*
X003647Y013885D01*
X003647Y013962D01*
X003570Y013962D01*
X003570Y013885D01*
X003647Y013962D02*
X003800Y013808D01*
X003570Y014575D02*
X003647Y014652D01*
X003647Y014729D01*
X003570Y014806D01*
X003186Y014806D01*
X003186Y014882D02*
X003186Y014729D01*
X003416Y015036D02*
X003570Y015036D01*
X003647Y015113D01*
X003647Y015266D01*
X003570Y015343D01*
X003416Y015343D01*
X003340Y015266D01*
X003340Y015113D01*
X003416Y015036D01*
X003340Y015496D02*
X003340Y015726D01*
X003416Y015803D01*
X003647Y015803D01*
X003647Y015496D02*
X003340Y015496D01*
X003493Y016417D02*
X003493Y016647D01*
X003416Y016724D01*
X003263Y016724D01*
X003186Y016647D01*
X003186Y016417D01*
X003647Y016417D01*
X003493Y016570D02*
X003647Y016724D01*
X003570Y016877D02*
X003416Y016877D01*
X003340Y016954D01*
X003340Y017108D01*
X003416Y017184D01*
X003570Y017184D01*
X003647Y017108D01*
X003647Y016954D01*
X003570Y016877D01*
X003570Y017338D02*
X003416Y017338D01*
X003340Y017415D01*
X003340Y017568D01*
X003416Y017645D01*
X003570Y017645D01*
X003647Y017568D01*
X003647Y017415D01*
X003570Y017338D01*
X003647Y017798D02*
X003647Y018028D01*
X003570Y018105D01*
X003493Y018028D01*
X003493Y017875D01*
X003416Y017798D01*
X003340Y017875D01*
X003340Y018105D01*
X003416Y018259D02*
X003340Y018335D01*
X003340Y018489D01*
X003416Y018565D01*
X003493Y018565D01*
X003493Y018259D01*
X003570Y018259D02*
X003416Y018259D01*
X003570Y018259D02*
X003647Y018335D01*
X003647Y018489D01*
X003800Y018719D02*
X003647Y018872D01*
X003647Y018796D01*
X003570Y018796D01*
X003570Y018872D01*
X003647Y018872D01*
X003570Y019486D02*
X003647Y019563D01*
X003647Y019640D01*
X003570Y019716D01*
X003186Y019716D01*
X003186Y019640D02*
X003186Y019793D01*
X003340Y020023D02*
X003416Y019947D01*
X003570Y019947D01*
X003647Y020023D01*
X003647Y020177D01*
X003570Y020254D01*
X003416Y020254D01*
X003340Y020177D01*
X003340Y020023D01*
X003416Y020407D02*
X003340Y020484D01*
X003340Y020637D01*
X003416Y020714D01*
X003647Y020714D01*
X003647Y020867D02*
X003340Y020867D01*
X003340Y021098D01*
X003416Y021174D01*
X003647Y021174D01*
X003647Y021788D02*
X003186Y021788D01*
X003416Y021788D02*
X003416Y022095D01*
X003340Y022249D02*
X003570Y022249D01*
X003647Y022325D01*
X003647Y022556D01*
X003340Y022556D01*
X003340Y022709D02*
X003340Y022939D01*
X003416Y023016D01*
X003570Y023016D01*
X003647Y022939D01*
X003647Y022709D01*
X003186Y022709D01*
X003186Y023169D02*
X003647Y023169D01*
X003647Y023400D01*
X003570Y023476D01*
X003416Y023476D01*
X003340Y023400D01*
X003340Y023169D01*
X003416Y023630D02*
X003340Y023707D01*
X003340Y023860D01*
X003416Y023937D01*
X003493Y023937D01*
X003493Y023630D01*
X003570Y023630D02*
X003416Y023630D01*
X003570Y023630D02*
X003647Y023707D01*
X003647Y023860D01*
X003647Y024090D02*
X003340Y024090D01*
X003493Y024090D02*
X003340Y024244D01*
X003340Y024320D01*
X003340Y024474D02*
X003340Y024627D01*
X003263Y024551D02*
X003570Y024551D01*
X003647Y024627D01*
X003647Y024781D02*
X003647Y025011D01*
X003570Y025088D01*
X003493Y025011D01*
X003493Y024858D01*
X003416Y024781D01*
X003340Y024858D01*
X003340Y025088D01*
X003186Y022095D02*
X003647Y022095D01*
X003647Y020407D02*
X003186Y020407D01*
X007047Y018634D02*
X007047Y018173D01*
X007354Y018173D01*
X007507Y018173D02*
X007814Y018173D01*
X007967Y018173D02*
X008198Y018173D01*
X008274Y018250D01*
X008274Y018557D01*
X008198Y018634D01*
X007967Y018634D01*
X007967Y018173D01*
X007661Y018404D02*
X007507Y018404D01*
X007507Y018634D02*
X007507Y018173D01*
X007507Y018634D02*
X007814Y018634D01*
X008428Y018480D02*
X008581Y018634D01*
X008581Y018173D01*
X008428Y018173D02*
X008735Y018173D01*
X007744Y017850D02*
X007721Y017873D01*
X007695Y017893D01*
X007667Y017910D01*
X007638Y017924D01*
X007607Y017935D01*
X007576Y017942D01*
X007543Y017946D01*
X007511Y017946D01*
X007478Y017942D01*
X007447Y017935D01*
X007416Y017924D01*
X007387Y017910D01*
X007359Y017893D01*
X007333Y017873D01*
X007310Y017850D01*
X007310Y017456D02*
X007333Y017433D01*
X007359Y017413D01*
X007387Y017396D01*
X007416Y017382D01*
X007447Y017371D01*
X007478Y017364D01*
X007511Y017360D01*
X007543Y017360D01*
X007576Y017364D01*
X007607Y017371D01*
X007638Y017382D01*
X007667Y017396D01*
X007695Y017413D01*
X007721Y017433D01*
X007744Y017456D01*
X010986Y012959D02*
X010986Y012575D01*
X011063Y012498D01*
X011216Y012498D01*
X011293Y012575D01*
X011293Y012959D01*
X011446Y012882D02*
X011523Y012959D01*
X011677Y012959D01*
X011753Y012882D01*
X011907Y012882D02*
X011983Y012959D01*
X012137Y012959D01*
X012214Y012882D01*
X012214Y012805D01*
X011907Y012498D01*
X012214Y012498D01*
X011753Y012575D02*
X011753Y012652D01*
X011677Y012729D01*
X011523Y012729D01*
X011446Y012805D01*
X011446Y012882D01*
X011600Y013035D02*
X011600Y012422D01*
X011523Y012498D02*
X011677Y012498D01*
X011753Y012575D01*
X011523Y012498D02*
X011446Y012575D01*
X005057Y010464D02*
X005057Y010003D01*
X005134Y010234D02*
X004827Y010234D01*
X005057Y010464D01*
X004674Y010387D02*
X004674Y010080D01*
X004597Y010003D01*
X004367Y010003D01*
X004367Y010464D01*
X004597Y010464D01*
X004674Y010387D01*
X003493Y011583D02*
X003186Y011890D01*
X003340Y012043D02*
X003570Y012043D01*
X004367Y008444D02*
X004597Y008444D01*
X004674Y008367D01*
X004674Y008060D01*
X004597Y007983D01*
X004367Y007983D01*
X004367Y008444D01*
X004827Y008444D02*
X004827Y008214D01*
X004981Y008290D01*
X005057Y008290D01*
X005134Y008214D01*
X005134Y008060D01*
X005057Y007983D01*
X004904Y007983D01*
X004827Y008060D01*
X004827Y008444D02*
X005134Y008444D01*
X022343Y030667D02*
X022497Y030667D01*
X022573Y030743D01*
X022573Y031127D01*
X022727Y031050D02*
X022804Y031127D01*
X022957Y031127D01*
X023034Y031050D01*
X023187Y030974D02*
X023341Y031127D01*
X023341Y030667D01*
X023494Y030667D02*
X023187Y030667D01*
X023034Y030743D02*
X023034Y030820D01*
X022957Y030897D01*
X022804Y030897D01*
X022727Y030974D01*
X022727Y031050D01*
X022880Y031204D02*
X022880Y030590D01*
X022804Y030667D02*
X022957Y030667D01*
X023034Y030743D01*
X022804Y030667D02*
X022727Y030743D01*
X022343Y030667D02*
X022267Y030743D01*
X022267Y031127D01*
X023648Y031050D02*
X023648Y030974D01*
X023724Y030897D01*
X023955Y030897D01*
X023955Y031050D02*
X023878Y031127D01*
X023724Y031127D01*
X023648Y031050D01*
X023648Y030743D02*
X023724Y030667D01*
X023878Y030667D01*
X023955Y030743D01*
X023955Y031050D01*
X025293Y041310D02*
X025677Y041310D01*
X025753Y041387D01*
X025753Y041541D01*
X025677Y041617D01*
X025293Y041617D01*
X025370Y041771D02*
X025293Y041847D01*
X025293Y042001D01*
X025370Y042078D01*
X025370Y042231D02*
X025293Y042308D01*
X025293Y042461D01*
X025370Y042538D01*
X025446Y042538D01*
X025523Y042461D01*
X025600Y042538D01*
X025677Y042538D01*
X025753Y042461D01*
X025753Y042308D01*
X025677Y042231D01*
X025677Y042078D02*
X025600Y042078D01*
X025523Y042001D01*
X025523Y041847D01*
X025446Y041771D01*
X025370Y041771D01*
X025216Y041924D02*
X025830Y041924D01*
X025753Y041847D02*
X025753Y042001D01*
X025677Y042078D01*
X025753Y041847D02*
X025677Y041771D01*
X025523Y042385D02*
X025523Y042461D01*
X025446Y042692D02*
X025523Y042768D01*
X025523Y042998D01*
X025370Y042998D02*
X025677Y042998D01*
X025753Y042922D01*
X025753Y042768D01*
X025677Y042692D01*
X025446Y042692D02*
X025370Y042692D01*
X025293Y042768D01*
X025293Y042922D01*
X025370Y042998D01*
X029450Y048710D02*
X029473Y048733D01*
X029499Y048753D01*
X029527Y048770D01*
X029556Y048784D01*
X029587Y048795D01*
X029618Y048802D01*
X029651Y048806D01*
X029683Y048806D01*
X029716Y048802D01*
X029747Y048795D01*
X029778Y048784D01*
X029807Y048770D01*
X029835Y048753D01*
X029861Y048733D01*
X029884Y048710D01*
X029884Y048316D02*
X029861Y048293D01*
X029835Y048273D01*
X029807Y048256D01*
X029778Y048242D01*
X029747Y048231D01*
X029716Y048224D01*
X029683Y048220D01*
X029651Y048220D01*
X029618Y048224D01*
X029587Y048231D01*
X029556Y048242D01*
X029527Y048256D01*
X029499Y048273D01*
X029473Y048293D01*
X029450Y048316D01*
X029187Y049033D02*
X029187Y049494D01*
X029417Y049494D01*
X029494Y049417D01*
X029494Y049264D01*
X029417Y049187D01*
X029187Y049187D01*
X029647Y049110D02*
X029724Y049033D01*
X029877Y049033D01*
X029954Y049110D01*
X029954Y049417D01*
X029877Y049494D01*
X029724Y049494D01*
X029647Y049417D01*
X029647Y049110D01*
X030107Y049033D02*
X030107Y049494D01*
X030414Y049494D02*
X030414Y049033D01*
X030261Y049187D01*
X030107Y049033D01*
X030568Y049033D02*
X030568Y049494D01*
X030875Y049494D01*
X031028Y049494D02*
X031258Y049494D01*
X031335Y049417D01*
X031335Y049264D01*
X031258Y049187D01*
X031028Y049187D01*
X031028Y049033D02*
X031028Y049494D01*
X031182Y049187D02*
X031335Y049033D01*
X030875Y049033D02*
X030568Y049033D01*
X030568Y049264D02*
X030721Y049264D01*
X037526Y029887D02*
X037466Y029827D01*
X037466Y029707D01*
X037526Y029647D01*
X037767Y029647D01*
X037827Y029707D01*
X037827Y029827D01*
X037767Y029887D01*
X037827Y029519D02*
X037827Y029279D01*
X037586Y029519D01*
X037526Y029519D01*
X037466Y029459D01*
X037466Y029339D01*
X037526Y029279D01*
X037466Y029153D02*
X037466Y029033D01*
X037466Y029093D02*
X037827Y029093D01*
X037827Y029033D02*
X037827Y029153D01*
X034846Y019334D02*
X034693Y019334D01*
X034616Y019257D01*
X034846Y019334D02*
X034923Y019257D01*
X034923Y019180D01*
X034616Y018873D01*
X034923Y018873D01*
X034463Y018873D02*
X034156Y018873D01*
X034309Y018873D02*
X034309Y019334D01*
X034156Y019180D01*
X034002Y019334D02*
X034002Y018873D01*
X033695Y019334D01*
X033695Y018873D01*
X033542Y018873D02*
X033389Y018873D01*
X033465Y018873D02*
X033465Y019334D01*
X033389Y019334D02*
X033542Y019334D01*
X033235Y019257D02*
X033158Y019334D01*
X033005Y019334D01*
X032928Y019257D01*
X032928Y018950D01*
X033005Y018873D01*
X033158Y018873D01*
X033235Y018950D01*
X034133Y013914D02*
X034286Y013914D01*
X034363Y013837D01*
X034363Y013530D01*
X034286Y013453D01*
X034133Y013453D01*
X034056Y013530D01*
X034056Y013837D01*
X034133Y013914D01*
X034209Y013607D02*
X034363Y013453D01*
X034516Y013453D02*
X034823Y013453D01*
X034670Y013453D02*
X034670Y013914D01*
X034516Y013760D01*
X036295Y009098D02*
X036295Y008637D01*
X036602Y008637D01*
X036756Y008637D02*
X037062Y008637D01*
X036909Y008637D02*
X036909Y009098D01*
X036756Y008944D01*
X037216Y008561D02*
X037523Y008561D01*
X037676Y008637D02*
X037983Y008637D01*
X037830Y008637D02*
X037830Y009098D01*
X037676Y008944D01*
X038137Y009021D02*
X038213Y009098D01*
X038367Y009098D01*
X038444Y009021D01*
X038444Y008944D01*
X038137Y008637D01*
X038444Y008637D01*
X037839Y008113D02*
X037762Y008189D01*
X037608Y008189D01*
X037532Y008113D01*
X037839Y008113D02*
X037839Y008036D01*
X037532Y007729D01*
X037839Y007729D01*
X037378Y007729D02*
X037071Y007729D01*
X037225Y007729D02*
X037225Y008189D01*
X037071Y008036D01*
X036918Y008189D02*
X036611Y008189D01*
X036764Y008189D02*
X036764Y007729D01*
X036457Y007806D02*
X036457Y008189D01*
X036150Y008189D02*
X036150Y007806D01*
X036227Y007729D01*
X036381Y007729D01*
X036457Y007806D01*
X035997Y007806D02*
X035997Y008113D01*
X035920Y008189D01*
X035767Y008189D01*
X035690Y008113D01*
X035690Y007806D01*
X035767Y007729D01*
X035920Y007729D01*
X035997Y007806D01*
X035537Y007806D02*
X035460Y007729D01*
X035306Y007729D01*
X035230Y007806D01*
X035230Y008113D01*
X035306Y008189D01*
X035460Y008189D01*
X035537Y008113D01*
X001227Y034633D02*
X001167Y034573D01*
X001227Y034633D02*
X001227Y034753D01*
X001167Y034814D01*
X001107Y034814D01*
X001047Y034753D01*
X001047Y034633D01*
X000986Y034573D01*
X000926Y034573D01*
X000866Y034633D01*
X000866Y034753D01*
X000926Y034814D01*
X000866Y034942D02*
X001227Y034942D01*
X001227Y035182D01*
X001227Y035310D02*
X000866Y035310D01*
X001227Y035550D01*
X000866Y035550D01*
X000926Y035678D02*
X000986Y035678D01*
X001047Y035738D01*
X001047Y035858D01*
X001107Y035918D01*
X001167Y035918D01*
X001227Y035858D01*
X001227Y035738D01*
X001167Y035678D01*
X000926Y035678D02*
X000866Y035738D01*
X000866Y035858D01*
X000926Y035918D01*
X000926Y036047D02*
X001167Y036047D01*
X001227Y036107D01*
X001227Y036227D01*
X001167Y036287D01*
X000926Y036287D01*
X000866Y036227D01*
X000866Y036107D01*
X000926Y036047D01*
X000866Y036415D02*
X000866Y036595D01*
X000926Y036655D01*
X001047Y036655D01*
X001107Y036595D01*
X001107Y036415D01*
X001227Y036415D02*
X000866Y036415D01*
X001107Y036535D02*
X001227Y036655D01*
X001167Y036783D02*
X001227Y036843D01*
X001227Y036963D01*
X001167Y037023D01*
X001047Y037023D01*
X000986Y036963D01*
X000986Y036903D01*
X001047Y036783D01*
X000866Y036783D01*
X000866Y037023D01*
X000926Y037833D02*
X000986Y037833D01*
X001047Y037893D01*
X001047Y038013D01*
X001107Y038074D01*
X001167Y038074D01*
X001227Y038013D01*
X001227Y037893D01*
X001167Y037833D01*
X000926Y037833D02*
X000866Y037893D01*
X000866Y038013D01*
X000926Y038074D01*
X000866Y038202D02*
X001227Y038202D01*
X001227Y038442D01*
X001227Y038570D02*
X000866Y038570D01*
X001227Y038810D01*
X000866Y038810D01*
X000926Y038938D02*
X000986Y038938D01*
X001047Y038998D01*
X001047Y039118D01*
X001107Y039178D01*
X001167Y039178D01*
X001227Y039118D01*
X001227Y038998D01*
X001167Y038938D01*
X000926Y038938D02*
X000866Y038998D01*
X000866Y039118D01*
X000926Y039178D01*
X000926Y039307D02*
X001167Y039307D01*
X001227Y039367D01*
X001227Y039487D01*
X001167Y039547D01*
X000926Y039547D01*
X000866Y039487D01*
X000866Y039367D01*
X000926Y039307D01*
X000866Y039675D02*
X000866Y039855D01*
X000926Y039915D01*
X001047Y039915D01*
X001107Y039855D01*
X001107Y039675D01*
X001227Y039675D02*
X000866Y039675D01*
X001107Y039795D02*
X001227Y039915D01*
X001047Y040043D02*
X001047Y040283D01*
X001227Y040223D02*
X000866Y040223D01*
X001047Y040043D01*
X000986Y041093D02*
X001047Y041153D01*
X001047Y041273D01*
X001107Y041334D01*
X001167Y041334D01*
X001227Y041273D01*
X001227Y041153D01*
X001167Y041093D01*
X000986Y041093D02*
X000926Y041093D01*
X000866Y041153D01*
X000866Y041273D01*
X000926Y041334D01*
X000866Y041462D02*
X001227Y041462D01*
X001227Y041702D01*
X001227Y041830D02*
X000866Y041830D01*
X001227Y042070D01*
X000866Y042070D01*
X000926Y042198D02*
X000986Y042198D01*
X001047Y042258D01*
X001047Y042378D01*
X001107Y042438D01*
X001167Y042438D01*
X001227Y042378D01*
X001227Y042258D01*
X001167Y042198D01*
X000926Y042198D02*
X000866Y042258D01*
X000866Y042378D01*
X000926Y042438D01*
X000926Y042567D02*
X001167Y042567D01*
X001227Y042627D01*
X001227Y042747D01*
X001167Y042807D01*
X000926Y042807D01*
X000866Y042747D01*
X000866Y042627D01*
X000926Y042567D01*
X000866Y042935D02*
X000866Y043115D01*
X000926Y043175D01*
X001047Y043175D01*
X001107Y043115D01*
X001107Y042935D01*
X001227Y042935D02*
X000866Y042935D01*
X001107Y043055D02*
X001227Y043175D01*
X001167Y043303D02*
X001227Y043363D01*
X001227Y043483D01*
X001167Y043543D01*
X001107Y043543D01*
X001047Y043483D01*
X001047Y043423D01*
X001047Y043483D02*
X000986Y043543D01*
X000926Y043543D01*
X000866Y043483D01*
X000866Y043363D01*
X000926Y043303D01*
X000926Y044353D02*
X000986Y044353D01*
X001047Y044413D01*
X001047Y044533D01*
X001107Y044594D01*
X001167Y044594D01*
X001227Y044533D01*
X001227Y044413D01*
X001167Y044353D01*
X000926Y044353D02*
X000866Y044413D01*
X000866Y044533D01*
X000926Y044594D01*
X000866Y044722D02*
X001227Y044722D01*
X001227Y044962D01*
X001227Y045090D02*
X000866Y045090D01*
X001227Y045330D01*
X000866Y045330D01*
X000926Y045458D02*
X000986Y045458D01*
X001047Y045518D01*
X001047Y045638D01*
X001107Y045698D01*
X001167Y045698D01*
X001227Y045638D01*
X001227Y045518D01*
X001167Y045458D01*
X000926Y045458D02*
X000866Y045518D01*
X000866Y045638D01*
X000926Y045698D01*
X000926Y045827D02*
X001167Y045827D01*
X001227Y045887D01*
X001227Y046007D01*
X001167Y046067D01*
X000926Y046067D01*
X000866Y046007D01*
X000866Y045887D01*
X000926Y045827D01*
X000866Y046195D02*
X000866Y046375D01*
X000926Y046435D01*
X001047Y046435D01*
X001107Y046375D01*
X001107Y046195D01*
X001227Y046195D02*
X000866Y046195D01*
X001107Y046315D02*
X001227Y046435D01*
X001227Y046563D02*
X000986Y046803D01*
X000926Y046803D01*
X000866Y046743D01*
X000866Y046623D01*
X000926Y046563D01*
X001227Y046563D02*
X001227Y046803D01*
X001167Y047533D02*
X001227Y047593D01*
X001227Y047713D01*
X001167Y047774D01*
X001107Y047774D01*
X001047Y047713D01*
X001047Y047593D01*
X000986Y047533D01*
X000926Y047533D01*
X000866Y047593D01*
X000866Y047713D01*
X000926Y047774D01*
X000866Y047902D02*
X001227Y047902D01*
X001227Y048142D01*
X001227Y048270D02*
X000866Y048270D01*
X001227Y048510D01*
X000866Y048510D01*
X000926Y048638D02*
X000986Y048638D01*
X001047Y048698D01*
X001047Y048818D01*
X001107Y048878D01*
X001167Y048878D01*
X001227Y048818D01*
X001227Y048698D01*
X001167Y048638D01*
X000926Y048638D02*
X000866Y048698D01*
X000866Y048818D01*
X000926Y048878D01*
X000926Y049007D02*
X001167Y049007D01*
X001227Y049067D01*
X001227Y049187D01*
X001167Y049247D01*
X000926Y049247D01*
X000866Y049187D01*
X000866Y049067D01*
X000926Y049007D01*
X000866Y049375D02*
X000866Y049555D01*
X000926Y049615D01*
X001047Y049615D01*
X001107Y049555D01*
X001107Y049375D01*
X001227Y049375D02*
X000866Y049375D01*
X001107Y049495D02*
X001227Y049615D01*
X001227Y049743D02*
X001227Y049983D01*
X001227Y049863D02*
X000866Y049863D01*
X000986Y049743D01*
X000866Y048142D02*
X000866Y047902D01*
X001047Y047902D02*
X001047Y048022D01*
X000866Y044962D02*
X000866Y044722D01*
X001047Y044722D02*
X001047Y044842D01*
X000866Y041702D02*
X000866Y041462D01*
X001047Y041462D02*
X001047Y041582D01*
X000866Y038442D02*
X000866Y038202D01*
X001047Y038202D02*
X001047Y038322D01*
X000866Y035182D02*
X000866Y034942D01*
X001047Y034942D02*
X001047Y035062D01*
D13*
X005741Y033344D02*
X005741Y033097D01*
X005741Y032852D02*
X006112Y032852D01*
X006112Y032975D02*
X006112Y032728D01*
X005865Y032728D02*
X005741Y032852D01*
X006050Y033097D02*
X005803Y033344D01*
X005741Y033344D01*
X006050Y033097D02*
X006112Y033097D01*
X008321Y033138D02*
X008383Y033077D01*
X008445Y033077D01*
X008507Y033138D01*
X008507Y033262D01*
X008568Y033324D01*
X008630Y033324D01*
X008692Y033262D01*
X008692Y033138D01*
X008630Y033077D01*
X008568Y033077D01*
X008507Y033138D01*
X008507Y033262D02*
X008445Y033324D01*
X008383Y033324D01*
X008321Y033262D01*
X008321Y033138D01*
X008321Y032832D02*
X008692Y032832D01*
X008692Y032955D02*
X008692Y032708D01*
X008445Y032708D02*
X008321Y032832D01*
X008762Y033388D02*
X009009Y033388D01*
X008885Y033388D02*
X008885Y033759D01*
X008762Y033635D01*
X009130Y033573D02*
X009253Y033697D01*
X009377Y033759D01*
X009315Y033573D02*
X009130Y033573D01*
X009130Y033450D01*
X009192Y033388D01*
X009315Y033388D01*
X009377Y033450D01*
X009377Y033512D01*
X009315Y033573D01*
X012432Y031088D02*
X012902Y031088D01*
X012902Y030853D01*
X012824Y030775D01*
X012667Y030775D01*
X012588Y030853D01*
X012588Y031088D01*
X012588Y030932D02*
X012432Y030775D01*
X012510Y030628D02*
X012667Y030628D01*
X012745Y030550D01*
X012745Y030393D01*
X012667Y030314D01*
X012588Y030314D01*
X012588Y030628D01*
X012510Y030628D02*
X012432Y030550D01*
X012432Y030393D01*
X012432Y030089D02*
X012824Y030089D01*
X012902Y030011D01*
X012902Y029861D02*
X012902Y029625D01*
X012824Y029547D01*
X012510Y029547D01*
X012432Y029625D01*
X012432Y029861D01*
X012902Y029861D01*
X012667Y030011D02*
X012667Y030168D01*
X012667Y029400D02*
X012510Y029400D01*
X012432Y029322D01*
X012432Y029165D01*
X012588Y029087D02*
X012588Y029400D01*
X012667Y029400D02*
X012745Y029322D01*
X012745Y029165D01*
X012667Y029087D01*
X012588Y029087D01*
X012667Y028940D02*
X012745Y028861D01*
X012745Y028626D01*
X012824Y028479D02*
X012902Y028401D01*
X012902Y028244D01*
X012824Y028166D01*
X012745Y028166D01*
X012432Y028479D01*
X012432Y028166D01*
X012510Y028626D02*
X012588Y028705D01*
X012588Y028861D01*
X012667Y028940D01*
X012432Y028940D02*
X012432Y028705D01*
X012510Y028626D01*
X014230Y032245D02*
X014544Y032558D01*
X014544Y032402D02*
X014230Y032402D01*
X014230Y032558D02*
X014544Y032245D01*
X014387Y032245D02*
X014387Y032558D01*
X015982Y033368D02*
X016229Y033615D01*
X016229Y033677D01*
X016167Y033739D01*
X016043Y033739D01*
X015982Y033677D01*
X015982Y033368D02*
X016229Y033368D01*
X016385Y033227D02*
X016262Y033103D01*
X016447Y033103D01*
X016509Y033042D01*
X016509Y032980D01*
X016447Y032918D01*
X016323Y032918D01*
X016262Y032980D01*
X016262Y033103D01*
X016385Y033227D02*
X016509Y033289D01*
X016630Y033103D02*
X016815Y033289D01*
X016815Y032918D01*
X016877Y033103D02*
X016630Y033103D01*
X016229Y036088D02*
X015982Y036088D01*
X016105Y036088D02*
X016105Y036459D01*
X015982Y036335D01*
X015189Y036357D02*
X015189Y036295D01*
X015127Y036233D01*
X015189Y036172D01*
X015189Y036110D01*
X015127Y036048D01*
X015003Y036048D01*
X014942Y036110D01*
X015065Y036233D02*
X015127Y036233D01*
X015189Y036357D02*
X015127Y036419D01*
X015003Y036419D01*
X014942Y036357D01*
X019147Y026379D02*
X018962Y026193D01*
X019209Y026193D01*
X019330Y026255D02*
X019392Y026193D01*
X019577Y026193D01*
X019577Y026070D02*
X019577Y026317D01*
X019515Y026379D01*
X019392Y026379D01*
X019330Y026317D01*
X019330Y026255D01*
X019330Y026070D02*
X019392Y026008D01*
X019515Y026008D01*
X019577Y026070D01*
X019147Y026008D02*
X019147Y026379D01*
X016240Y025677D02*
X016240Y025615D01*
X016179Y025553D01*
X016055Y025553D01*
X015993Y025615D01*
X015993Y025677D01*
X016055Y025739D01*
X016179Y025739D01*
X016240Y025677D01*
X016179Y025553D02*
X016240Y025492D01*
X016240Y025430D01*
X016179Y025368D01*
X016055Y025368D01*
X015993Y025430D01*
X015993Y025492D01*
X016055Y025553D01*
X015872Y025553D02*
X015625Y025553D01*
X015810Y025739D01*
X015810Y025368D01*
X009220Y023057D02*
X009220Y022995D01*
X009159Y022933D01*
X009220Y022872D01*
X009220Y022810D01*
X009159Y022748D01*
X009035Y022748D01*
X008973Y022810D01*
X008852Y022810D02*
X008790Y022748D01*
X008667Y022748D01*
X008605Y022810D01*
X008728Y022933D02*
X008790Y022933D01*
X008852Y022872D01*
X008852Y022810D01*
X008790Y022933D02*
X008852Y022995D01*
X008852Y023057D01*
X008790Y023119D01*
X008667Y023119D01*
X008605Y023057D01*
X008973Y023057D02*
X009035Y023119D01*
X009159Y023119D01*
X009220Y023057D01*
X009159Y022933D02*
X009097Y022933D01*
X008730Y025748D02*
X008792Y025810D01*
X008792Y025933D01*
X008730Y025995D01*
X008668Y025995D01*
X008607Y025933D01*
X008607Y025872D01*
X008607Y025933D02*
X008545Y025995D01*
X008483Y025995D01*
X008421Y025933D01*
X008421Y025810D01*
X008483Y025748D01*
X008483Y026117D02*
X008421Y026178D01*
X008421Y026302D01*
X008483Y026364D01*
X008545Y026364D01*
X008792Y026117D01*
X008792Y026364D01*
X022105Y020864D02*
X022105Y020670D01*
X022250Y020670D01*
X022201Y020767D01*
X022201Y020815D01*
X022250Y020864D01*
X022346Y020864D01*
X022395Y020815D01*
X022395Y020719D01*
X022346Y020670D01*
X022443Y020569D02*
X022443Y020376D01*
X022395Y020274D02*
X022395Y020081D01*
X022395Y020178D02*
X022105Y020178D01*
X022201Y020081D01*
X022395Y019980D02*
X022395Y019786D01*
X022105Y019786D01*
X032911Y012222D02*
X032911Y012125D01*
X032960Y012077D01*
X032911Y012222D02*
X032960Y012270D01*
X033008Y012270D01*
X033202Y012077D01*
X033202Y012270D01*
X033202Y011976D02*
X033202Y011782D01*
X033202Y011879D02*
X032911Y011879D01*
X033008Y011782D01*
X033250Y011681D02*
X033250Y011488D01*
X033202Y011386D02*
X033202Y011193D01*
X033202Y011290D02*
X032911Y011290D01*
X033008Y011193D01*
X032960Y011092D02*
X032911Y011043D01*
X032911Y010898D01*
X033202Y010898D01*
X033202Y011043D01*
X033153Y011092D01*
X032960Y011092D01*
X025692Y004322D02*
X025643Y004322D01*
X025450Y004516D01*
X025401Y004516D01*
X025401Y004322D01*
X025740Y004221D02*
X025740Y004028D01*
X025692Y003926D02*
X025692Y003733D01*
X025692Y003830D02*
X025401Y003830D01*
X025498Y003733D01*
X025450Y003632D02*
X025643Y003632D01*
X025692Y003583D01*
X025692Y003438D01*
X025401Y003438D01*
X025401Y003583D01*
X025450Y003632D01*
X012959Y001233D02*
X012712Y001233D01*
X012835Y001110D02*
X012835Y001357D01*
X012029Y001283D02*
X011782Y001283D01*
X010949Y001263D02*
X010702Y001263D01*
X010825Y001140D02*
X010825Y001387D01*
X010009Y001283D02*
X009762Y001283D01*
D14*
X002887Y021233D02*
X002889Y021253D01*
X002895Y021271D01*
X002904Y021289D01*
X002916Y021304D01*
X002931Y021316D01*
X002949Y021325D01*
X002967Y021331D01*
X002987Y021333D01*
X003007Y021331D01*
X003025Y021325D01*
X003043Y021316D01*
X003058Y021304D01*
X003070Y021289D01*
X003079Y021271D01*
X003085Y021253D01*
X003087Y021233D01*
X003085Y021213D01*
X003079Y021195D01*
X003070Y021177D01*
X003058Y021162D01*
X003043Y021150D01*
X003025Y021141D01*
X003007Y021135D01*
X002987Y021133D01*
X002967Y021135D01*
X002949Y021141D01*
X002931Y021150D01*
X002916Y021162D01*
X002904Y021177D01*
X002895Y021195D01*
X002889Y021213D01*
X002887Y021233D01*
X001387Y021233D02*
X001389Y021253D01*
X001395Y021271D01*
X001404Y021289D01*
X001416Y021304D01*
X001431Y021316D01*
X001449Y021325D01*
X001467Y021331D01*
X001487Y021333D01*
X001507Y021331D01*
X001525Y021325D01*
X001543Y021316D01*
X001558Y021304D01*
X001570Y021289D01*
X001579Y021271D01*
X001585Y021253D01*
X001587Y021233D01*
X001585Y021213D01*
X001579Y021195D01*
X001570Y021177D01*
X001558Y021162D01*
X001543Y021150D01*
X001525Y021141D01*
X001507Y021135D01*
X001487Y021133D01*
X001467Y021135D01*
X001449Y021141D01*
X001431Y021150D01*
X001416Y021162D01*
X001404Y021177D01*
X001395Y021195D01*
X001389Y021213D01*
X001387Y021233D01*
X001387Y025233D02*
X001389Y025253D01*
X001395Y025271D01*
X001404Y025289D01*
X001416Y025304D01*
X001431Y025316D01*
X001449Y025325D01*
X001467Y025331D01*
X001487Y025333D01*
X001507Y025331D01*
X001525Y025325D01*
X001543Y025316D01*
X001558Y025304D01*
X001570Y025289D01*
X001579Y025271D01*
X001585Y025253D01*
X001587Y025233D01*
X001585Y025213D01*
X001579Y025195D01*
X001570Y025177D01*
X001558Y025162D01*
X001543Y025150D01*
X001525Y025141D01*
X001507Y025135D01*
X001487Y025133D01*
X001467Y025135D01*
X001449Y025141D01*
X001431Y025150D01*
X001416Y025162D01*
X001404Y025177D01*
X001395Y025195D01*
X001389Y025213D01*
X001387Y025233D01*
X002887Y025233D02*
X002889Y025253D01*
X002895Y025271D01*
X002904Y025289D01*
X002916Y025304D01*
X002931Y025316D01*
X002949Y025325D01*
X002967Y025331D01*
X002987Y025333D01*
X003007Y025331D01*
X003025Y025325D01*
X003043Y025316D01*
X003058Y025304D01*
X003070Y025289D01*
X003079Y025271D01*
X003085Y025253D01*
X003087Y025233D01*
X003085Y025213D01*
X003079Y025195D01*
X003070Y025177D01*
X003058Y025162D01*
X003043Y025150D01*
X003025Y025141D01*
X003007Y025135D01*
X002987Y025133D01*
X002967Y025135D01*
X002949Y025141D01*
X002931Y025150D01*
X002916Y025162D01*
X002904Y025177D01*
X002895Y025195D01*
X002889Y025213D01*
X002887Y025233D01*
D15*
X002247Y034553D02*
X001497Y034553D01*
X001497Y037553D01*
X002247Y037553D01*
X002247Y034553D01*
X003997Y034553D01*
X003997Y037553D01*
X002247Y037553D01*
X002247Y037813D02*
X002247Y040813D01*
X003997Y040813D01*
X003997Y037813D01*
X002247Y037813D01*
X001497Y037813D01*
X001497Y040813D01*
X002247Y040813D01*
X002247Y041073D02*
X002247Y044073D01*
X003997Y044073D01*
X003997Y041073D01*
X002247Y041073D01*
X001497Y041073D01*
X001497Y044073D01*
X002247Y044073D01*
X002247Y044333D02*
X002247Y047333D01*
X003997Y047333D01*
X003997Y044333D01*
X002247Y044333D01*
X001497Y044333D01*
X001497Y047333D01*
X002247Y047333D01*
X002247Y047513D02*
X002247Y050513D01*
X003997Y050513D01*
X003997Y047513D01*
X002247Y047513D01*
X001497Y047513D01*
X001497Y050513D01*
X002247Y050513D01*
X038097Y031013D02*
X038097Y029013D01*
X038847Y029013D01*
X038847Y031013D01*
X040597Y031013D01*
X040597Y029013D01*
X038847Y029013D01*
X038847Y031013D02*
X038097Y031013D01*
X013367Y003383D02*
X013367Y001633D01*
X009367Y001633D01*
X009367Y003383D01*
X013367Y003383D01*
X013367Y001633D02*
X013367Y000883D01*
X009367Y000883D01*
X009367Y001633D01*
D16*
X008961Y006380D02*
X008961Y006931D01*
X008961Y007167D02*
X008961Y007443D01*
X008961Y007640D02*
X008961Y007955D01*
X008961Y008152D02*
X008961Y008427D01*
X008961Y008663D02*
X008961Y008939D01*
X008961Y009136D02*
X008961Y009451D01*
X008961Y009648D02*
X008961Y009923D01*
X008961Y010159D02*
X008961Y010435D01*
X008961Y010632D02*
X008961Y010947D01*
X008961Y011144D02*
X008961Y011459D01*
X008961Y011656D02*
X008961Y012207D01*
X010575Y012207D01*
X010575Y011852D01*
X011678Y011852D01*
X011678Y012207D01*
X013292Y012207D01*
X013292Y011656D01*
X013292Y011459D02*
X013292Y011144D01*
X013292Y010947D02*
X013292Y010632D01*
X013292Y010435D02*
X013292Y010120D01*
X013292Y009923D02*
X013292Y009648D01*
X013292Y009451D02*
X013292Y009136D01*
X013292Y008939D02*
X013292Y008624D01*
X013292Y008427D02*
X013292Y008152D01*
X013292Y007955D02*
X013292Y007640D01*
X013292Y007443D02*
X013292Y007128D01*
X013292Y006931D02*
X013292Y006813D01*
X012859Y006380D01*
X011678Y006380D01*
X011678Y006734D01*
X010575Y006734D01*
X010575Y006380D01*
X008961Y006380D01*
X018478Y005354D02*
X018478Y002205D01*
X020250Y002205D01*
X020644Y002205D02*
X022415Y002205D01*
X022415Y005354D01*
X021628Y006142D01*
X020644Y006142D01*
X020250Y006142D02*
X019266Y006142D01*
X018478Y005354D01*
X020840Y005748D02*
X021234Y005748D01*
X021037Y005945D02*
X021037Y005551D01*
X022231Y006861D02*
X025842Y006861D01*
X025888Y006863D01*
X025934Y006869D01*
X025979Y006878D01*
X026023Y006891D01*
X026066Y006908D01*
X026107Y006928D01*
X026147Y006952D01*
X026184Y006978D01*
X026219Y007008D01*
X026252Y007041D01*
X026282Y007076D01*
X026308Y007113D01*
X026332Y007153D01*
X026352Y007194D01*
X026369Y007237D01*
X026382Y007281D01*
X026391Y007326D01*
X026397Y007372D01*
X026399Y007418D01*
X026399Y008042D01*
X026399Y010404D02*
X026399Y011192D01*
X026397Y011231D01*
X026391Y011269D01*
X026382Y011306D01*
X026369Y011343D01*
X026352Y011378D01*
X026333Y011411D01*
X026310Y011442D01*
X026284Y011471D01*
X026255Y011497D01*
X026224Y011520D01*
X026191Y011539D01*
X026156Y011556D01*
X026119Y011569D01*
X026082Y011578D01*
X026044Y011584D01*
X026005Y011586D01*
X022231Y011586D01*
X022185Y011584D01*
X022139Y011578D01*
X022094Y011569D01*
X022050Y011556D01*
X022007Y011539D01*
X021966Y011519D01*
X021926Y011495D01*
X021889Y011469D01*
X021854Y011439D01*
X021821Y011406D01*
X021791Y011371D01*
X021765Y011334D01*
X021741Y011294D01*
X021721Y011253D01*
X021704Y011210D01*
X021691Y011166D01*
X021682Y011121D01*
X021676Y011075D01*
X021674Y011029D01*
X021674Y010404D01*
X021674Y008042D02*
X021674Y007418D01*
X021676Y007372D01*
X021682Y007326D01*
X021691Y007281D01*
X021704Y007237D01*
X021721Y007194D01*
X021741Y007153D01*
X021765Y007113D01*
X021791Y007076D01*
X021821Y007041D01*
X021854Y007008D01*
X021889Y006978D01*
X021926Y006952D01*
X021966Y006928D01*
X022007Y006908D01*
X022050Y006891D01*
X022094Y006878D01*
X022139Y006869D01*
X022185Y006863D01*
X022231Y006861D01*
X025809Y004875D02*
X026010Y004875D01*
X026695Y004882D02*
X026695Y004886D01*
X026931Y004886D01*
X027683Y005111D02*
X027841Y005111D01*
X027683Y005111D02*
X027683Y003536D01*
X027841Y003536D01*
X028077Y003536D02*
X028352Y003536D01*
X028549Y003536D02*
X028864Y003536D01*
X029061Y003536D02*
X029337Y003536D01*
X029573Y003536D02*
X029691Y003536D01*
X029691Y005111D01*
X029573Y005111D01*
X029337Y005111D02*
X029061Y005111D01*
X028864Y005111D02*
X028549Y005111D01*
X028352Y005111D02*
X028037Y005111D01*
X027769Y003812D02*
X027771Y003832D01*
X027776Y003852D01*
X027786Y003870D01*
X027798Y003887D01*
X027813Y003901D01*
X027831Y003911D01*
X027850Y003919D01*
X027870Y003923D01*
X027890Y003923D01*
X027910Y003919D01*
X027929Y003911D01*
X027947Y003901D01*
X027962Y003887D01*
X027974Y003870D01*
X027984Y003852D01*
X027989Y003832D01*
X027991Y003812D01*
X027989Y003792D01*
X027984Y003772D01*
X027974Y003754D01*
X027962Y003737D01*
X027947Y003723D01*
X027929Y003713D01*
X027910Y003705D01*
X027890Y003701D01*
X027870Y003701D01*
X027850Y003705D01*
X027831Y003713D01*
X027813Y003723D01*
X027798Y003737D01*
X027786Y003754D01*
X027776Y003772D01*
X027771Y003792D01*
X027769Y003812D01*
X021234Y002402D02*
X020840Y002402D01*
X023796Y016363D02*
X024977Y016363D01*
X024977Y017544D01*
X023796Y017544D01*
X023796Y016363D01*
X023846Y016501D02*
X023848Y016519D01*
X023854Y016537D01*
X023863Y016553D01*
X023875Y016566D01*
X023890Y016577D01*
X023907Y016585D01*
X023925Y016589D01*
X023943Y016589D01*
X023961Y016585D01*
X023978Y016577D01*
X023993Y016566D01*
X024005Y016553D01*
X024014Y016537D01*
X024020Y016519D01*
X024022Y016501D01*
X024020Y016483D01*
X024014Y016465D01*
X024005Y016449D01*
X023993Y016436D01*
X023978Y016425D01*
X023961Y016417D01*
X023943Y016413D01*
X023925Y016413D01*
X023907Y016417D01*
X023890Y016425D01*
X023875Y016436D01*
X023863Y016449D01*
X023854Y016465D01*
X023848Y016483D01*
X023846Y016501D01*
X024120Y018852D02*
X023333Y018852D01*
X023333Y018853D02*
X023279Y018855D01*
X023226Y018860D01*
X023173Y018869D01*
X023121Y018882D01*
X023069Y018898D01*
X023019Y018918D01*
X022971Y018941D01*
X022924Y018968D01*
X022879Y018997D01*
X022836Y019030D01*
X022796Y019065D01*
X022758Y019103D01*
X022723Y019143D01*
X022690Y019186D01*
X022661Y019231D01*
X022634Y019278D01*
X022611Y019326D01*
X022591Y019376D01*
X022575Y019428D01*
X022562Y019480D01*
X022553Y019533D01*
X022548Y019586D01*
X022546Y019640D01*
X022546Y020427D01*
X022548Y020481D01*
X022553Y020534D01*
X022562Y020587D01*
X022575Y020639D01*
X022591Y020691D01*
X022611Y020741D01*
X022634Y020789D01*
X022661Y020836D01*
X022690Y020881D01*
X022723Y020924D01*
X022758Y020964D01*
X022796Y021002D01*
X022836Y021037D01*
X022879Y021070D01*
X022924Y021099D01*
X022971Y021126D01*
X023019Y021149D01*
X023069Y021169D01*
X023121Y021185D01*
X023173Y021198D01*
X023226Y021207D01*
X023279Y021212D01*
X023333Y021214D01*
X024120Y021214D01*
X024174Y021212D01*
X024227Y021207D01*
X024280Y021198D01*
X024332Y021185D01*
X024384Y021169D01*
X024434Y021149D01*
X024482Y021126D01*
X024529Y021099D01*
X024574Y021070D01*
X024617Y021037D01*
X024657Y021002D01*
X024695Y020964D01*
X024730Y020924D01*
X024763Y020881D01*
X024792Y020836D01*
X024819Y020789D01*
X024842Y020741D01*
X024862Y020691D01*
X024878Y020639D01*
X024891Y020587D01*
X024900Y020534D01*
X024905Y020481D01*
X024907Y020427D01*
X024908Y020427D02*
X024908Y019640D01*
X024907Y019640D02*
X024905Y019586D01*
X024900Y019533D01*
X024891Y019480D01*
X024878Y019428D01*
X024862Y019376D01*
X024842Y019326D01*
X024819Y019278D01*
X024792Y019231D01*
X024763Y019186D01*
X024730Y019143D01*
X024695Y019103D01*
X024657Y019065D01*
X024617Y019030D01*
X024574Y018997D01*
X024529Y018968D01*
X024482Y018941D01*
X024434Y018918D01*
X024384Y018898D01*
X024332Y018882D01*
X024280Y018869D01*
X024227Y018860D01*
X024174Y018855D01*
X024120Y018853D01*
X029136Y025668D02*
X029437Y025668D01*
X029512Y025743D01*
X029512Y025894D01*
X029437Y025969D01*
X029512Y026129D02*
X029512Y026429D01*
X029512Y026279D02*
X029061Y026279D01*
X029211Y026129D01*
X029136Y025969D02*
X029061Y025894D01*
X029061Y025743D01*
X029136Y025668D01*
X024353Y031454D02*
X022621Y031454D01*
X022621Y031513D01*
X022621Y031651D02*
X022621Y031769D01*
X022621Y031907D02*
X022621Y032025D01*
X022621Y032162D02*
X022621Y032281D01*
X022621Y032418D02*
X022621Y032536D01*
X022621Y032674D02*
X022621Y032792D01*
X022621Y032930D02*
X022621Y033048D01*
X022621Y033186D02*
X022621Y033304D01*
X022621Y033442D02*
X022621Y033560D01*
X022621Y033698D02*
X022621Y033816D01*
X022621Y033954D02*
X022621Y034013D01*
X023408Y034013D01*
X023408Y033934D01*
X023565Y033934D01*
X023565Y034013D01*
X024353Y034013D01*
X024353Y033934D01*
X024353Y033816D02*
X024353Y033698D01*
X024353Y033560D02*
X024353Y033442D01*
X024353Y033304D02*
X024353Y033186D01*
X024353Y033048D02*
X024353Y032910D01*
X024353Y032792D02*
X024353Y032674D01*
X024353Y032536D02*
X024353Y032418D01*
X024353Y032281D02*
X024353Y032162D01*
X024353Y032025D02*
X024353Y031907D01*
X024353Y031769D02*
X024353Y031651D01*
X024353Y031513D02*
X024353Y031454D01*
X025852Y040857D02*
X025852Y043849D01*
X026088Y043849D01*
X026324Y043849D02*
X026561Y043849D01*
X026797Y043849D02*
X027072Y043849D01*
X027309Y043849D02*
X027545Y043849D01*
X027821Y043849D02*
X028057Y043849D01*
X028293Y043849D02*
X028569Y043849D01*
X028805Y043849D02*
X029080Y043849D01*
X029317Y043849D02*
X029592Y043849D01*
X029789Y043849D02*
X030065Y043849D01*
X030301Y043849D02*
X030576Y043849D01*
X030813Y043849D02*
X030970Y043849D01*
X030970Y040857D01*
X030813Y040857D01*
X030576Y040857D02*
X030301Y040857D01*
X030065Y040857D02*
X029789Y040857D01*
X029553Y040857D02*
X029317Y040857D01*
X029080Y040857D02*
X028805Y040857D01*
X028569Y040857D02*
X028293Y040857D01*
X028057Y040857D02*
X027821Y040857D01*
X027545Y040857D02*
X027309Y040857D01*
X027072Y040857D02*
X026797Y040857D01*
X026561Y040857D02*
X026285Y040857D01*
X026049Y040857D02*
X025852Y040857D01*
X025938Y041054D02*
X025940Y041074D01*
X025945Y041094D01*
X025955Y041112D01*
X025967Y041129D01*
X025982Y041143D01*
X026000Y041153D01*
X026019Y041161D01*
X026039Y041165D01*
X026059Y041165D01*
X026079Y041161D01*
X026098Y041153D01*
X026116Y041143D01*
X026131Y041129D01*
X026143Y041112D01*
X026153Y041094D01*
X026158Y041074D01*
X026160Y041054D01*
X026158Y041034D01*
X026153Y041014D01*
X026143Y040996D01*
X026131Y040979D01*
X026116Y040965D01*
X026098Y040955D01*
X026079Y040947D01*
X026059Y040943D01*
X026039Y040943D01*
X026019Y040947D01*
X026000Y040955D01*
X025982Y040965D01*
X025967Y040979D01*
X025955Y040996D01*
X025945Y041014D01*
X025940Y041034D01*
X025938Y041054D01*
X036296Y016634D02*
X037477Y016634D01*
X037477Y015453D01*
X036296Y015453D01*
X036296Y016634D01*
X036346Y015591D02*
X036348Y015609D01*
X036354Y015627D01*
X036363Y015643D01*
X036375Y015656D01*
X036390Y015667D01*
X036407Y015675D01*
X036425Y015679D01*
X036443Y015679D01*
X036461Y015675D01*
X036478Y015667D01*
X036493Y015656D01*
X036505Y015643D01*
X036514Y015627D01*
X036520Y015609D01*
X036522Y015591D01*
X036520Y015573D01*
X036514Y015555D01*
X036505Y015539D01*
X036493Y015526D01*
X036478Y015515D01*
X036461Y015507D01*
X036443Y015503D01*
X036425Y015503D01*
X036407Y015507D01*
X036390Y015515D01*
X036375Y015526D01*
X036363Y015539D01*
X036354Y015555D01*
X036348Y015573D01*
X036346Y015591D01*
X035349Y013212D02*
X039404Y013212D01*
X039404Y011873D01*
X039404Y010574D02*
X039404Y009275D01*
X035703Y009275D01*
X035703Y009629D01*
X035349Y009629D01*
X035349Y010613D01*
X035349Y011873D02*
X035349Y013212D01*
X034441Y012346D02*
X034205Y012346D01*
X034205Y012342D01*
X033520Y012335D02*
X033319Y012335D01*
X002262Y021583D02*
X002262Y021658D01*
X002187Y021734D01*
X001811Y021734D01*
X001811Y021809D02*
X001811Y021658D01*
X001811Y021969D02*
X001811Y022194D01*
X001886Y022269D01*
X002036Y022269D01*
X002112Y022194D01*
X002112Y021969D01*
X002262Y021969D02*
X001811Y021969D01*
X001961Y022429D02*
X001811Y022579D01*
X002262Y022579D01*
X002262Y022429D02*
X002262Y022729D01*
X002262Y021583D02*
X002187Y021508D01*
X000742Y021583D02*
X000742Y021658D01*
X000667Y021734D01*
X000291Y021734D01*
X000291Y021809D02*
X000291Y021658D01*
X000291Y021969D02*
X000291Y022194D01*
X000366Y022269D01*
X000516Y022269D01*
X000592Y022194D01*
X000592Y021969D01*
X000742Y021969D02*
X000291Y021969D01*
X000366Y022429D02*
X000291Y022504D01*
X000291Y022654D01*
X000366Y022729D01*
X000441Y022729D01*
X000742Y022429D01*
X000742Y022729D01*
X000742Y021583D02*
X000667Y021508D01*
X000667Y025508D02*
X000742Y025583D01*
X000742Y025658D01*
X000667Y025734D01*
X000291Y025734D01*
X000291Y025809D02*
X000291Y025658D01*
X000291Y025969D02*
X000291Y026194D01*
X000366Y026269D01*
X000516Y026269D01*
X000592Y026194D01*
X000592Y025969D01*
X000742Y025969D02*
X000291Y025969D01*
X000366Y026429D02*
X000291Y026504D01*
X000291Y026654D01*
X000366Y026729D01*
X000441Y026729D01*
X000516Y026654D01*
X000592Y026729D01*
X000667Y026729D01*
X000742Y026654D01*
X000742Y026504D01*
X000667Y026429D01*
X000516Y026579D02*
X000516Y026654D01*
X001811Y026654D02*
X002036Y026429D01*
X002036Y026729D01*
X001811Y026654D02*
X002262Y026654D01*
X002036Y026269D02*
X002112Y026194D01*
X002112Y025969D01*
X002262Y025969D02*
X001811Y025969D01*
X001811Y026194D01*
X001886Y026269D01*
X002036Y026269D01*
X001811Y025809D02*
X001811Y025658D01*
X001811Y025734D02*
X002187Y025734D01*
X002262Y025658D01*
X002262Y025583D01*
X002187Y025508D01*
D17*
X006520Y020967D02*
X007294Y020967D01*
X007294Y019020D01*
X006520Y019020D01*
X006520Y020967D01*
X007416Y020392D02*
X007416Y020282D01*
X007637Y020282D01*
X007637Y020392D01*
X007600Y020429D01*
X007453Y020429D01*
X007416Y020392D01*
X007416Y020208D02*
X007416Y020061D01*
X007637Y020061D01*
X007637Y020208D01*
X007527Y020135D02*
X007527Y020061D01*
X007637Y019987D02*
X007637Y019840D01*
X007416Y019840D01*
X007453Y019766D02*
X007527Y019766D01*
X007563Y019729D01*
X007563Y019619D01*
X007637Y019619D02*
X007416Y019619D01*
X007416Y019729D01*
X007453Y019766D01*
X007563Y019693D02*
X007637Y019766D01*
X006814Y035660D02*
X006040Y035660D01*
X006040Y037607D01*
X006814Y037607D01*
X006814Y035660D01*
X005917Y036020D02*
X005917Y036093D01*
X005880Y036130D01*
X005696Y036130D01*
X005733Y036204D02*
X005696Y036241D01*
X005696Y036314D01*
X005733Y036351D01*
X005807Y036314D02*
X005807Y036241D01*
X005770Y036204D01*
X005733Y036204D01*
X005660Y036278D02*
X005953Y036278D01*
X005917Y036314D02*
X005880Y036351D01*
X005843Y036351D01*
X005807Y036314D01*
X005917Y036314D02*
X005917Y036241D01*
X005880Y036204D01*
X005917Y036020D02*
X005880Y035983D01*
X005696Y035983D01*
X005807Y036425D02*
X005807Y036572D01*
X005807Y036646D02*
X005770Y036720D01*
X005770Y036756D01*
X005807Y036793D01*
X005880Y036793D01*
X005917Y036756D01*
X005917Y036683D01*
X005880Y036646D01*
X005807Y036646D02*
X005696Y036646D01*
X005696Y036793D01*
X005696Y036535D02*
X005807Y036425D01*
X005917Y036535D02*
X005696Y036535D01*
X006060Y038020D02*
X006834Y038020D01*
X006834Y039967D01*
X006060Y039967D01*
X006060Y038020D01*
X005900Y038343D02*
X005937Y038380D01*
X005937Y038453D01*
X005900Y038490D01*
X005716Y038490D01*
X005753Y038564D02*
X005716Y038601D01*
X005716Y038674D01*
X005753Y038711D01*
X005827Y038674D02*
X005827Y038601D01*
X005790Y038564D01*
X005753Y038564D01*
X005680Y038638D02*
X005973Y038638D01*
X005937Y038674D02*
X005900Y038711D01*
X005863Y038711D01*
X005827Y038674D01*
X005937Y038674D02*
X005937Y038601D01*
X005900Y038564D01*
X005900Y038343D02*
X005716Y038343D01*
X005827Y038785D02*
X005827Y038932D01*
X005827Y039006D02*
X005827Y039116D01*
X005863Y039153D01*
X005900Y039153D01*
X005937Y039116D01*
X005937Y039043D01*
X005900Y039006D01*
X005827Y039006D01*
X005753Y039080D01*
X005716Y039153D01*
X005716Y038895D02*
X005827Y038785D01*
X005937Y038895D02*
X005716Y038895D01*
X006040Y041140D02*
X006814Y041140D01*
X006814Y043087D01*
X006040Y043087D01*
X006040Y041140D01*
X005880Y041463D02*
X005917Y041500D01*
X005917Y041573D01*
X005880Y041610D01*
X005696Y041610D01*
X005733Y041684D02*
X005696Y041721D01*
X005696Y041794D01*
X005733Y041831D01*
X005807Y041794D02*
X005843Y041831D01*
X005880Y041831D01*
X005917Y041794D01*
X005917Y041721D01*
X005880Y041684D01*
X005807Y041721D02*
X005770Y041684D01*
X005733Y041684D01*
X005807Y041721D02*
X005807Y041794D01*
X005807Y041905D02*
X005807Y042052D01*
X005880Y042126D02*
X005917Y042126D01*
X005880Y042126D02*
X005733Y042273D01*
X005696Y042273D01*
X005696Y042126D01*
X005696Y042015D02*
X005807Y041905D01*
X005917Y042015D02*
X005696Y042015D01*
X005660Y041758D02*
X005953Y041758D01*
X005880Y041463D02*
X005696Y041463D01*
X005980Y044260D02*
X006754Y044260D01*
X006754Y046207D01*
X005980Y046207D01*
X005980Y044260D01*
X005820Y044583D02*
X005857Y044620D01*
X005857Y044693D01*
X005820Y044730D01*
X005636Y044730D01*
X005673Y044804D02*
X005636Y044841D01*
X005636Y044914D01*
X005673Y044951D01*
X005747Y044914D02*
X005747Y044841D01*
X005710Y044804D01*
X005673Y044804D01*
X005600Y044878D02*
X005893Y044878D01*
X005857Y044914D02*
X005820Y044951D01*
X005783Y044951D01*
X005747Y044914D01*
X005857Y044914D02*
X005857Y044841D01*
X005820Y044804D01*
X005820Y044583D02*
X005636Y044583D01*
X005747Y045025D02*
X005747Y045172D01*
X005783Y045246D02*
X005747Y045283D01*
X005747Y045356D01*
X005783Y045393D01*
X005820Y045393D01*
X005857Y045356D01*
X005857Y045283D01*
X005820Y045246D01*
X005783Y045246D01*
X005747Y045283D02*
X005710Y045246D01*
X005673Y045246D01*
X005636Y045283D01*
X005636Y045356D01*
X005673Y045393D01*
X005710Y045393D01*
X005747Y045356D01*
X005857Y045135D02*
X005636Y045135D01*
X005747Y045025D01*
X006120Y047540D02*
X006894Y047540D01*
X006894Y049487D01*
X006120Y049487D01*
X006120Y047540D01*
X005960Y047863D02*
X005997Y047900D01*
X005997Y047973D01*
X005960Y048010D01*
X005776Y048010D01*
X005813Y048084D02*
X005776Y048121D01*
X005776Y048194D01*
X005813Y048231D01*
X005887Y048194D02*
X005887Y048121D01*
X005850Y048084D01*
X005813Y048084D01*
X005740Y048158D02*
X006033Y048158D01*
X005997Y048194D02*
X005960Y048231D01*
X005923Y048231D01*
X005887Y048194D01*
X005997Y048194D02*
X005997Y048121D01*
X005960Y048084D01*
X005960Y047863D02*
X005776Y047863D01*
X005887Y048305D02*
X005887Y048452D01*
X005850Y048526D02*
X005887Y048563D01*
X005887Y048673D01*
X005960Y048673D02*
X005813Y048673D01*
X005776Y048636D01*
X005776Y048563D01*
X005813Y048526D01*
X005850Y048526D01*
X005960Y048526D02*
X005997Y048563D01*
X005997Y048636D01*
X005960Y048673D01*
X005997Y048415D02*
X005776Y048415D01*
X005887Y048305D01*
X014853Y041460D02*
X014853Y040686D01*
X016800Y040686D01*
X016800Y041460D01*
X014853Y041460D01*
X015453Y040564D02*
X015453Y040380D01*
X015489Y040343D01*
X015563Y040343D01*
X015600Y040380D01*
X015600Y040564D01*
X015674Y040527D02*
X015710Y040564D01*
X015784Y040564D01*
X015820Y040527D01*
X015895Y040527D02*
X015931Y040564D01*
X016005Y040564D01*
X016041Y040527D01*
X016041Y040490D01*
X015895Y040343D01*
X016041Y040343D01*
X016116Y040343D02*
X016262Y040490D01*
X016262Y040527D01*
X016226Y040564D01*
X016152Y040564D01*
X016116Y040527D01*
X016116Y040343D02*
X016262Y040343D01*
X015820Y040380D02*
X015820Y040417D01*
X015784Y040453D01*
X015710Y040453D01*
X015674Y040490D01*
X015674Y040527D01*
X015747Y040600D02*
X015747Y040307D01*
X015710Y040343D02*
X015784Y040343D01*
X015820Y040380D01*
X015710Y040343D02*
X015674Y040380D01*
X016440Y039207D02*
X017214Y039207D01*
X017214Y037260D01*
X016440Y037260D01*
X016440Y039207D01*
X017336Y038596D02*
X017557Y038596D01*
X017557Y038669D02*
X017557Y038522D01*
X017557Y038448D02*
X017557Y038301D01*
X017410Y038448D01*
X017373Y038448D01*
X017336Y038411D01*
X017336Y038338D01*
X017373Y038301D01*
X017373Y038227D02*
X017336Y038190D01*
X017336Y038117D01*
X017373Y038080D01*
X017410Y038080D01*
X017447Y038117D01*
X017447Y038190D01*
X017483Y038227D01*
X017520Y038227D01*
X017557Y038190D01*
X017557Y038117D01*
X017520Y038080D01*
X017520Y038006D02*
X017336Y038006D01*
X017336Y037859D02*
X017520Y037859D01*
X017557Y037896D01*
X017557Y037969D01*
X017520Y038006D01*
X017593Y038154D02*
X017300Y038154D01*
X017410Y038522D02*
X017336Y038596D01*
X017573Y041926D02*
X017573Y042700D01*
X019520Y042700D01*
X019520Y041926D01*
X017573Y041926D01*
X017933Y042823D02*
X018007Y042823D01*
X018043Y042860D01*
X018043Y043044D01*
X018118Y043007D02*
X018154Y043044D01*
X018228Y043044D01*
X018264Y043007D01*
X018228Y042933D02*
X018154Y042933D01*
X018118Y042970D01*
X018118Y043007D01*
X018191Y043080D02*
X018191Y042787D01*
X018154Y042823D02*
X018118Y042860D01*
X018154Y042823D02*
X018228Y042823D01*
X018264Y042860D01*
X018264Y042897D01*
X018228Y042933D01*
X018339Y042860D02*
X018339Y042823D01*
X018339Y042860D02*
X018485Y043007D01*
X018485Y043044D01*
X018339Y043044D01*
X017897Y043044D02*
X017897Y042860D01*
X017933Y042823D01*
X021620Y036427D02*
X022394Y036427D01*
X022394Y034480D01*
X021620Y034480D01*
X021620Y036427D01*
X021387Y035613D02*
X021387Y035466D01*
X021276Y035576D01*
X021497Y035576D01*
X021387Y035392D02*
X021387Y035245D01*
X021276Y035355D01*
X021497Y035355D01*
X021460Y035171D02*
X021423Y035171D01*
X021387Y035134D01*
X021387Y035061D01*
X021350Y035024D01*
X021313Y035024D01*
X021276Y035061D01*
X021276Y035134D01*
X021313Y035171D01*
X021240Y035098D02*
X021533Y035098D01*
X021497Y035134D02*
X021460Y035171D01*
X021497Y035134D02*
X021497Y035061D01*
X021460Y035024D01*
X021460Y034950D02*
X021276Y034950D01*
X021276Y034803D02*
X021460Y034803D01*
X021497Y034840D01*
X021497Y034913D01*
X021460Y034950D01*
X023800Y035078D02*
X024093Y035078D01*
X024057Y035114D02*
X024020Y035151D01*
X023983Y035151D01*
X023947Y035114D01*
X023947Y035041D01*
X023910Y035004D01*
X023873Y035004D01*
X023836Y035041D01*
X023836Y035114D01*
X023873Y035151D01*
X023947Y035225D02*
X023947Y035372D01*
X024020Y035446D02*
X024057Y035483D01*
X024057Y035556D01*
X024020Y035593D01*
X023983Y035593D01*
X023947Y035556D01*
X023947Y035520D01*
X023947Y035556D02*
X023910Y035593D01*
X023873Y035593D01*
X023836Y035556D01*
X023836Y035483D01*
X023873Y035446D01*
X023836Y035335D02*
X023947Y035225D01*
X024057Y035335D02*
X023836Y035335D01*
X024057Y035114D02*
X024057Y035041D01*
X024020Y035004D01*
X024020Y034930D02*
X023836Y034930D01*
X023836Y034783D02*
X024020Y034783D01*
X024057Y034820D01*
X024057Y034893D01*
X024020Y034930D01*
X024180Y034460D02*
X024954Y034460D01*
X024954Y036407D01*
X024180Y036407D01*
X024180Y034460D01*
X023050Y030804D02*
X023086Y030767D01*
X022940Y030620D01*
X022976Y030583D01*
X023050Y030583D01*
X023086Y030620D01*
X023086Y030767D01*
X023050Y030804D02*
X022976Y030804D01*
X022940Y030767D01*
X022940Y030620D01*
X022865Y030583D02*
X022719Y030583D01*
X022865Y030730D01*
X022865Y030767D01*
X022829Y030804D01*
X022755Y030804D01*
X022719Y030767D01*
X022644Y030767D02*
X022608Y030804D01*
X022534Y030804D01*
X022498Y030767D01*
X022498Y030730D01*
X022534Y030693D01*
X022608Y030693D01*
X022644Y030657D01*
X022644Y030620D01*
X022608Y030583D01*
X022534Y030583D01*
X022498Y030620D01*
X022423Y030620D02*
X022387Y030583D01*
X022313Y030583D01*
X022277Y030620D01*
X022277Y030804D01*
X022423Y030804D02*
X022423Y030620D01*
X022571Y030547D02*
X022571Y030840D01*
X021793Y030460D02*
X021793Y029686D01*
X023740Y029686D01*
X023740Y030460D01*
X021793Y030460D01*
X025580Y020427D02*
X026354Y020427D01*
X026354Y018480D01*
X025580Y018480D01*
X025580Y020427D01*
X026476Y019889D02*
X026476Y019742D01*
X026587Y019742D01*
X026550Y019816D01*
X026550Y019852D01*
X026587Y019889D01*
X026660Y019889D01*
X026697Y019852D01*
X026697Y019779D01*
X026660Y019742D01*
X026733Y019668D02*
X026733Y019521D01*
X026697Y019447D02*
X026697Y019300D01*
X026697Y019374D02*
X026476Y019374D01*
X026550Y019300D01*
X026587Y019226D02*
X026623Y019189D01*
X026623Y019079D01*
X026697Y019079D02*
X026476Y019079D01*
X026476Y019189D01*
X026513Y019226D01*
X026587Y019226D01*
X026623Y019153D02*
X026697Y019226D01*
X026314Y018087D02*
X025540Y018087D01*
X025540Y016140D01*
X026314Y016140D01*
X026314Y018087D01*
X026436Y017549D02*
X026436Y017402D01*
X026547Y017402D01*
X026510Y017476D01*
X026510Y017512D01*
X026547Y017549D01*
X026620Y017549D01*
X026657Y017512D01*
X026657Y017439D01*
X026620Y017402D01*
X026693Y017328D02*
X026693Y017181D01*
X026657Y017107D02*
X026657Y016960D01*
X026510Y017107D01*
X026473Y017107D01*
X026436Y017070D01*
X026436Y016997D01*
X026473Y016960D01*
X026473Y016886D02*
X026547Y016886D01*
X026583Y016849D01*
X026583Y016739D01*
X026657Y016739D02*
X026436Y016739D01*
X026436Y016849D01*
X026473Y016886D01*
X026583Y016813D02*
X026657Y016886D01*
X025260Y015140D02*
X025260Y014366D01*
X023313Y014366D01*
X023313Y015140D01*
X025260Y015140D01*
X024882Y014244D02*
X024736Y014244D01*
X024736Y014133D01*
X024809Y014170D01*
X024846Y014170D01*
X024882Y014133D01*
X024882Y014060D01*
X024846Y014023D01*
X024772Y014023D01*
X024736Y014060D01*
X024661Y014023D02*
X024661Y014244D01*
X024515Y014244D02*
X024661Y014023D01*
X024515Y014023D02*
X024515Y014244D01*
X024441Y014244D02*
X024367Y014244D01*
X024404Y014244D02*
X024404Y014023D01*
X024367Y014023D02*
X024441Y014023D01*
X024293Y014060D02*
X024256Y014023D01*
X024183Y014023D01*
X024146Y014060D01*
X024146Y014207D01*
X024183Y014244D01*
X024256Y014244D01*
X024293Y014207D01*
X022574Y015980D02*
X021800Y015980D01*
X021800Y017927D01*
X022574Y017927D01*
X022574Y015980D01*
X022733Y016518D02*
X022880Y016518D01*
X022917Y016555D01*
X022917Y016628D01*
X022880Y016665D01*
X022880Y016739D02*
X022917Y016776D01*
X022917Y016849D01*
X022880Y016886D01*
X022733Y016886D01*
X022696Y016849D01*
X022696Y016776D01*
X022733Y016739D01*
X022880Y016739D01*
X022733Y016665D02*
X022696Y016628D01*
X022696Y016555D01*
X022733Y016518D01*
X022696Y016960D02*
X022880Y016960D01*
X022917Y016997D01*
X022917Y017070D01*
X022880Y017107D01*
X022696Y017107D01*
X022696Y017181D02*
X022696Y017328D01*
X022696Y017255D02*
X022917Y017255D01*
X022880Y017402D02*
X022917Y017439D01*
X022917Y017512D01*
X022880Y017549D01*
X022807Y017549D01*
X022770Y017512D01*
X022770Y017476D01*
X022807Y017402D01*
X022696Y017402D01*
X022696Y017549D01*
X024567Y018218D02*
X024751Y018218D01*
X024787Y018255D01*
X024787Y018328D01*
X024751Y018365D01*
X024567Y018365D01*
X024604Y018439D02*
X024567Y018476D01*
X024567Y018549D01*
X024604Y018586D01*
X024677Y018549D02*
X024677Y018476D01*
X024641Y018439D01*
X024604Y018439D01*
X024530Y018512D02*
X024824Y018512D01*
X024787Y018476D02*
X024787Y018549D01*
X024751Y018586D01*
X024714Y018586D01*
X024677Y018549D01*
X024641Y018660D02*
X024567Y018733D01*
X024787Y018733D01*
X024787Y018660D02*
X024787Y018807D01*
X024787Y018881D02*
X024641Y019028D01*
X024604Y019028D01*
X024567Y018991D01*
X024567Y018917D01*
X024604Y018881D01*
X024787Y018881D02*
X024787Y019028D01*
X024787Y018476D02*
X024751Y018439D01*
X033656Y018348D02*
X033656Y018275D01*
X033693Y018238D01*
X033656Y018348D02*
X033693Y018385D01*
X033730Y018385D01*
X033877Y018238D01*
X033877Y018385D01*
X033877Y018164D02*
X033877Y018017D01*
X033877Y018091D02*
X033656Y018091D01*
X033730Y018017D01*
X033693Y017943D02*
X033656Y017906D01*
X033656Y017833D01*
X033693Y017796D01*
X033730Y017796D01*
X033767Y017833D01*
X033767Y017906D01*
X033803Y017943D01*
X033840Y017943D01*
X033877Y017906D01*
X033877Y017833D01*
X033840Y017796D01*
X033877Y017722D02*
X033656Y017722D01*
X033656Y017575D02*
X033877Y017722D01*
X033877Y017575D02*
X033656Y017575D01*
X033693Y017501D02*
X033656Y017464D01*
X033656Y017391D01*
X033693Y017354D01*
X033730Y017354D01*
X033767Y017391D01*
X033767Y017464D01*
X033803Y017501D01*
X033840Y017501D01*
X033877Y017464D01*
X033877Y017391D01*
X033840Y017354D01*
X033877Y017280D02*
X033803Y017207D01*
X033803Y017243D02*
X033803Y017133D01*
X033877Y017133D02*
X033656Y017133D01*
X033656Y017243D01*
X033693Y017280D01*
X033767Y017280D01*
X033803Y017243D01*
X034000Y016650D02*
X034774Y016650D01*
X034774Y018597D01*
X034000Y018597D01*
X034000Y016650D01*
X035793Y018676D02*
X035793Y019450D01*
X037740Y019450D01*
X037740Y018676D01*
X035793Y018676D01*
X036153Y019573D02*
X036227Y019573D01*
X036263Y019610D01*
X036338Y019647D02*
X036411Y019573D01*
X036484Y019647D01*
X036484Y019794D01*
X036559Y019757D02*
X036559Y019610D01*
X036595Y019573D01*
X036669Y019573D01*
X036705Y019610D01*
X036780Y019610D02*
X036816Y019573D01*
X036890Y019573D01*
X036926Y019610D01*
X037001Y019573D02*
X037147Y019573D01*
X037074Y019573D02*
X037074Y019794D01*
X037001Y019720D01*
X036926Y019757D02*
X036890Y019794D01*
X036816Y019794D01*
X036780Y019757D01*
X036780Y019610D01*
X036705Y019757D02*
X036669Y019794D01*
X036595Y019794D01*
X036559Y019757D01*
X036338Y019794D02*
X036338Y019647D01*
X036263Y019757D02*
X036227Y019794D01*
X036153Y019794D01*
X036117Y019757D01*
X036117Y019610D01*
X036153Y019573D01*
X037222Y019573D02*
X037368Y019720D01*
X037368Y019757D01*
X037332Y019794D01*
X037258Y019794D01*
X037222Y019757D01*
X037222Y019573D02*
X037368Y019573D01*
X037251Y018118D02*
X037214Y018118D01*
X037177Y018081D01*
X037177Y017971D01*
X037251Y017971D01*
X037287Y018007D01*
X037287Y018081D01*
X037251Y018118D01*
X037104Y018044D02*
X037177Y017971D01*
X037141Y017897D02*
X037287Y017750D01*
X037287Y017897D01*
X037141Y017897D02*
X037104Y017897D01*
X037067Y017860D01*
X037067Y017786D01*
X037104Y017750D01*
X037104Y017676D02*
X037067Y017639D01*
X037067Y017566D01*
X037104Y017529D01*
X037141Y017529D01*
X037177Y017566D01*
X037177Y017639D01*
X037214Y017676D01*
X037251Y017676D01*
X037287Y017639D01*
X037287Y017566D01*
X037251Y017529D01*
X037251Y017455D02*
X037067Y017455D01*
X037067Y017308D02*
X037251Y017308D01*
X037287Y017345D01*
X037287Y017418D01*
X037251Y017455D01*
X037324Y017602D02*
X037030Y017602D01*
X037104Y018044D02*
X037067Y018118D01*
X038333Y017730D02*
X038333Y016956D01*
X040280Y016956D01*
X040280Y017730D01*
X038333Y017730D01*
X038657Y017890D02*
X038693Y017853D01*
X038767Y017853D01*
X038803Y017890D01*
X038878Y017853D02*
X038878Y018000D01*
X038951Y018074D01*
X039024Y018000D01*
X039024Y017853D01*
X039099Y017853D02*
X039209Y017853D01*
X039245Y017890D01*
X039245Y018037D01*
X039209Y018074D01*
X039099Y018074D01*
X039099Y017853D01*
X039024Y017963D02*
X038878Y017963D01*
X038803Y018037D02*
X038767Y018074D01*
X038693Y018074D01*
X038657Y018037D01*
X038657Y017890D01*
X039320Y017890D02*
X039356Y017853D01*
X039393Y017853D01*
X039430Y017890D01*
X039430Y018074D01*
X039466Y018074D02*
X039393Y018074D01*
X039541Y018000D02*
X039614Y018074D01*
X039614Y017853D01*
X039541Y017853D02*
X039687Y017853D01*
X039762Y017853D02*
X039908Y018000D01*
X039908Y018037D01*
X039872Y018074D01*
X039798Y018074D01*
X039762Y018037D01*
X039762Y017853D02*
X039908Y017853D01*
X039714Y015937D02*
X038940Y015937D01*
X038940Y013990D01*
X039714Y013990D01*
X039714Y015937D01*
X038817Y015504D02*
X038817Y015357D01*
X038670Y015504D01*
X038633Y015504D01*
X038596Y015467D01*
X038596Y015394D01*
X038633Y015357D01*
X038596Y015210D02*
X038817Y015210D01*
X038817Y015283D02*
X038817Y015136D01*
X038780Y015025D02*
X038596Y015025D01*
X038596Y014989D02*
X038596Y015062D01*
X038670Y015136D02*
X038596Y015210D01*
X038780Y015025D02*
X038817Y014989D01*
X038817Y014952D01*
X038780Y014915D01*
X038817Y014841D02*
X038670Y014841D01*
X038596Y014768D01*
X038670Y014694D01*
X038817Y014694D01*
X038817Y014620D02*
X038743Y014547D01*
X038743Y014583D02*
X038743Y014473D01*
X038817Y014473D02*
X038596Y014473D01*
X038596Y014583D01*
X038633Y014620D01*
X038707Y014620D01*
X038743Y014583D01*
X038707Y014694D02*
X038707Y014841D01*
X024584Y006147D02*
X024584Y004200D01*
X023810Y004200D01*
X023810Y006147D01*
X024584Y006147D01*
X023687Y005235D02*
X023687Y005162D01*
X023650Y005125D01*
X023613Y005125D01*
X023577Y005162D01*
X023577Y005235D01*
X023613Y005272D01*
X023650Y005272D01*
X023687Y005235D01*
X023577Y005235D02*
X023540Y005272D01*
X023503Y005272D01*
X023466Y005235D01*
X023466Y005162D01*
X023503Y005125D01*
X023540Y005125D01*
X023577Y005162D01*
X023613Y005051D02*
X023577Y005014D01*
X023577Y004941D01*
X023540Y004904D01*
X023503Y004904D01*
X023466Y004941D01*
X023466Y005014D01*
X023503Y005051D01*
X023430Y004978D02*
X023723Y004978D01*
X023687Y005014D02*
X023650Y005051D01*
X023613Y005051D01*
X023687Y005014D02*
X023687Y004941D01*
X023650Y004904D01*
X023650Y004830D02*
X023466Y004830D01*
X023466Y004683D02*
X023650Y004683D01*
X023687Y004720D01*
X023687Y004793D01*
X023650Y004830D01*
X023810Y003747D02*
X024584Y003747D01*
X024584Y001800D01*
X023810Y001800D01*
X023810Y003747D01*
X023650Y002872D02*
X023503Y002872D01*
X023466Y002835D01*
X023466Y002762D01*
X023503Y002725D01*
X023540Y002725D01*
X023577Y002762D01*
X023577Y002872D01*
X023650Y002872D02*
X023687Y002835D01*
X023687Y002762D01*
X023650Y002725D01*
X023650Y002651D02*
X023613Y002651D01*
X023577Y002614D01*
X023577Y002541D01*
X023540Y002504D01*
X023503Y002504D01*
X023466Y002541D01*
X023466Y002614D01*
X023503Y002651D01*
X023430Y002578D02*
X023723Y002578D01*
X023687Y002614D02*
X023650Y002651D01*
X023687Y002614D02*
X023687Y002541D01*
X023650Y002504D01*
X023650Y002430D02*
X023466Y002430D01*
X023466Y002283D02*
X023650Y002283D01*
X023687Y002320D01*
X023687Y002393D01*
X023650Y002430D01*
X037888Y044602D02*
X038028Y044695D01*
X037958Y044749D02*
X037958Y044842D01*
X037888Y044819D02*
X037958Y044749D01*
X037888Y044695D02*
X038028Y044602D01*
X038028Y044819D02*
X037888Y044819D01*
X027040Y046626D02*
X025093Y046626D01*
X025093Y047400D01*
X027040Y047400D01*
X027040Y046626D01*
X026607Y047523D02*
X026461Y047523D01*
X026607Y047670D01*
X026607Y047707D01*
X026571Y047744D01*
X026497Y047744D01*
X026461Y047707D01*
X026386Y047707D02*
X026350Y047744D01*
X026240Y047744D01*
X026240Y047523D01*
X026350Y047523D01*
X026386Y047560D01*
X026386Y047707D01*
X026165Y047744D02*
X026019Y047744D01*
X026019Y047523D01*
X026165Y047523D01*
X026092Y047633D02*
X026019Y047633D01*
X025944Y047523D02*
X025798Y047523D01*
X025798Y047744D01*
X025723Y047707D02*
X025723Y047633D01*
X025687Y047597D01*
X025577Y047597D01*
X025650Y047597D02*
X025723Y047523D01*
X025577Y047523D02*
X025577Y047744D01*
X025687Y047744D01*
X025723Y047707D01*
D18*
X023829Y048542D02*
X023829Y044605D01*
X023827Y044566D01*
X023821Y044528D01*
X023812Y044491D01*
X023799Y044454D01*
X023782Y044419D01*
X023763Y044386D01*
X023740Y044355D01*
X023714Y044326D01*
X023685Y044300D01*
X023654Y044277D01*
X023621Y044258D01*
X023586Y044241D01*
X023549Y044228D01*
X023512Y044219D01*
X023474Y044213D01*
X023435Y044211D01*
X023041Y044211D01*
X021860Y044211D02*
X021073Y044211D01*
X019892Y044211D02*
X019498Y044211D01*
X019459Y044213D01*
X019421Y044219D01*
X019384Y044228D01*
X019347Y044241D01*
X019312Y044258D01*
X019279Y044277D01*
X019248Y044300D01*
X019219Y044326D01*
X019193Y044355D01*
X019170Y044386D01*
X019151Y044419D01*
X019134Y044454D01*
X019121Y044491D01*
X019112Y044528D01*
X019106Y044566D01*
X019104Y044605D01*
X019104Y048542D01*
X019106Y048581D01*
X019112Y048619D01*
X019121Y048656D01*
X019134Y048693D01*
X019151Y048728D01*
X019170Y048761D01*
X019193Y048792D01*
X019219Y048821D01*
X019248Y048847D01*
X019279Y048870D01*
X019312Y048889D01*
X019347Y048906D01*
X019384Y048919D01*
X019421Y048928D01*
X019459Y048934D01*
X019498Y048936D01*
X019892Y048936D01*
X021073Y048936D02*
X021860Y048936D01*
X023041Y048936D02*
X023435Y048936D01*
X023474Y048934D01*
X023512Y048928D01*
X023549Y048919D01*
X023586Y048906D01*
X023621Y048889D01*
X023654Y048870D01*
X023685Y048847D01*
X023714Y048821D01*
X023740Y048792D01*
X023763Y048761D01*
X023782Y048728D01*
X023799Y048693D01*
X023812Y048656D01*
X023821Y048619D01*
X023827Y048581D01*
X023829Y048542D01*
X020089Y046573D02*
X020091Y046647D01*
X020097Y046721D01*
X020107Y046794D01*
X020121Y046867D01*
X020138Y046939D01*
X020160Y047009D01*
X020185Y047079D01*
X020214Y047147D01*
X020247Y047213D01*
X020283Y047278D01*
X020323Y047340D01*
X020365Y047401D01*
X020411Y047459D01*
X020460Y047514D01*
X020512Y047567D01*
X020567Y047617D01*
X020624Y047663D01*
X020684Y047707D01*
X020746Y047747D01*
X020810Y047784D01*
X020876Y047818D01*
X020944Y047848D01*
X021013Y047874D01*
X021084Y047897D01*
X021155Y047915D01*
X021228Y047930D01*
X021301Y047941D01*
X021375Y047948D01*
X021449Y047951D01*
X021522Y047950D01*
X021596Y047945D01*
X021670Y047936D01*
X021743Y047923D01*
X021815Y047906D01*
X021886Y047886D01*
X021956Y047861D01*
X022024Y047833D01*
X022091Y047802D01*
X022156Y047766D01*
X022219Y047728D01*
X022280Y047686D01*
X022339Y047640D01*
X022395Y047592D01*
X022448Y047541D01*
X022498Y047487D01*
X022546Y047430D01*
X022590Y047371D01*
X022632Y047309D01*
X022670Y047246D01*
X022704Y047180D01*
X022735Y047113D01*
X022762Y047044D01*
X022785Y046974D01*
X022805Y046903D01*
X022821Y046830D01*
X022833Y046757D01*
X022841Y046684D01*
X022845Y046610D01*
X022845Y046536D01*
X022841Y046462D01*
X022833Y046389D01*
X022821Y046316D01*
X022805Y046243D01*
X022785Y046172D01*
X022762Y046102D01*
X022735Y046033D01*
X022704Y045966D01*
X022670Y045900D01*
X022632Y045837D01*
X022590Y045775D01*
X022546Y045716D01*
X022498Y045659D01*
X022448Y045605D01*
X022395Y045554D01*
X022339Y045506D01*
X022280Y045460D01*
X022219Y045418D01*
X022156Y045380D01*
X022091Y045344D01*
X022024Y045313D01*
X021956Y045285D01*
X021886Y045260D01*
X021815Y045240D01*
X021743Y045223D01*
X021670Y045210D01*
X021596Y045201D01*
X021522Y045196D01*
X021449Y045195D01*
X021375Y045198D01*
X021301Y045205D01*
X021228Y045216D01*
X021155Y045231D01*
X021084Y045249D01*
X021013Y045272D01*
X020944Y045298D01*
X020876Y045328D01*
X020810Y045362D01*
X020746Y045399D01*
X020684Y045439D01*
X020624Y045483D01*
X020567Y045529D01*
X020512Y045579D01*
X020460Y045632D01*
X020411Y045687D01*
X020365Y045745D01*
X020323Y045806D01*
X020283Y045868D01*
X020247Y045933D01*
X020214Y045999D01*
X020185Y046067D01*
X020160Y046137D01*
X020138Y046207D01*
X020121Y046279D01*
X020107Y046352D01*
X020097Y046425D01*
X020091Y046499D01*
X020089Y046573D01*
X016587Y049483D02*
X016587Y043333D01*
X011187Y043333D01*
X011187Y049483D01*
X016587Y049483D01*
X035313Y037145D02*
X035313Y036318D01*
X035313Y037145D02*
X035589Y037145D01*
X035744Y038510D02*
X035744Y050636D01*
X037847Y050636D01*
X037847Y038510D02*
X035744Y038510D01*
X037439Y037145D02*
X039526Y037145D01*
X039526Y033602D01*
X035313Y033602D01*
X035313Y034428D01*
X035193Y025235D02*
X035469Y025235D01*
X035193Y025235D02*
X035193Y024408D01*
X035193Y022518D02*
X035193Y021692D01*
X039406Y021692D01*
X039406Y025235D01*
X037319Y025235D01*
X034955Y015928D02*
X034758Y015928D01*
X034758Y014038D01*
X033459Y014038D01*
X034758Y014038D02*
X034955Y014038D01*
X034438Y012689D02*
X034438Y010878D01*
X034260Y010878D01*
X033473Y010878D02*
X033296Y010878D01*
X033296Y012689D01*
X033473Y012689D01*
X034260Y012689D02*
X034438Y012689D01*
X034758Y015928D02*
X033459Y015928D01*
X026928Y005229D02*
X026750Y005229D01*
X026928Y005229D02*
X026928Y003418D01*
X026750Y003418D01*
X025963Y003418D02*
X025786Y003418D01*
X025786Y005229D01*
X025963Y005229D01*
X019713Y010662D02*
X018020Y010662D01*
X018463Y010662D02*
X019274Y010662D01*
X019274Y011685D02*
X018463Y011685D01*
X018020Y011685D02*
X019713Y011685D01*
X019433Y008365D02*
X017740Y008365D01*
X018183Y008365D02*
X018994Y008365D01*
X018994Y007342D02*
X018183Y007342D01*
X017740Y007342D02*
X019433Y007342D01*
X016093Y002925D02*
X014400Y002925D01*
X014839Y002925D02*
X015650Y002925D01*
X015650Y001902D02*
X014839Y001902D01*
X014400Y001902D02*
X016093Y001902D01*
X014133Y003962D02*
X012440Y003962D01*
X012883Y003962D02*
X013694Y003962D01*
X013694Y004985D02*
X012883Y004985D01*
X012440Y004985D02*
X014133Y004985D01*
X010483Y004522D02*
X008790Y004522D01*
X009229Y004522D02*
X010040Y004522D01*
X010040Y005545D02*
X009229Y005545D01*
X008790Y005545D02*
X010483Y005545D01*
X007493Y003625D02*
X005800Y003625D01*
X006243Y003625D02*
X007054Y003625D01*
X007054Y002602D02*
X006243Y002602D01*
X005800Y002602D02*
X007493Y002602D01*
X006193Y006702D02*
X004500Y006702D01*
X004939Y006702D02*
X005750Y006702D01*
X005750Y007725D02*
X004939Y007725D01*
X004500Y007725D02*
X006193Y007725D01*
X006193Y008722D02*
X004500Y008722D01*
X004939Y008722D02*
X005750Y008722D01*
X005750Y009745D02*
X004939Y009745D01*
X004500Y009745D02*
X006193Y009745D01*
X034943Y004455D02*
X034943Y003628D01*
X034943Y004455D02*
X035219Y004455D01*
X037069Y004455D02*
X039156Y004455D01*
X039156Y000912D01*
X034943Y000912D01*
X034943Y001738D01*
D19*
X023120Y044802D02*
X023122Y044823D01*
X023128Y044843D01*
X023137Y044863D01*
X023149Y044880D01*
X023164Y044894D01*
X023182Y044906D01*
X023202Y044914D01*
X023222Y044919D01*
X023243Y044920D01*
X023264Y044917D01*
X023284Y044911D01*
X023303Y044900D01*
X023320Y044887D01*
X023333Y044871D01*
X023344Y044853D01*
X023352Y044833D01*
X023356Y044813D01*
X023356Y044791D01*
X023352Y044771D01*
X023344Y044751D01*
X023333Y044733D01*
X023320Y044717D01*
X023303Y044704D01*
X023284Y044693D01*
X023264Y044687D01*
X023243Y044684D01*
X023222Y044685D01*
X023202Y044690D01*
X023182Y044698D01*
X023164Y044710D01*
X023149Y044724D01*
X023137Y044741D01*
X023128Y044761D01*
X023122Y044781D01*
X023120Y044802D01*
X023120Y048345D02*
X023122Y048366D01*
X023128Y048386D01*
X023137Y048406D01*
X023149Y048423D01*
X023164Y048437D01*
X023182Y048449D01*
X023202Y048457D01*
X023222Y048462D01*
X023243Y048463D01*
X023264Y048460D01*
X023284Y048454D01*
X023303Y048443D01*
X023320Y048430D01*
X023333Y048414D01*
X023344Y048396D01*
X023352Y048376D01*
X023356Y048356D01*
X023356Y048334D01*
X023352Y048314D01*
X023344Y048294D01*
X023333Y048276D01*
X023320Y048260D01*
X023303Y048247D01*
X023284Y048236D01*
X023264Y048230D01*
X023243Y048227D01*
X023222Y048228D01*
X023202Y048233D01*
X023182Y048241D01*
X023164Y048253D01*
X023149Y048267D01*
X023137Y048284D01*
X023128Y048304D01*
X023122Y048324D01*
X023120Y048345D01*
X019577Y048345D02*
X019579Y048366D01*
X019585Y048386D01*
X019594Y048406D01*
X019606Y048423D01*
X019621Y048437D01*
X019639Y048449D01*
X019659Y048457D01*
X019679Y048462D01*
X019700Y048463D01*
X019721Y048460D01*
X019741Y048454D01*
X019760Y048443D01*
X019777Y048430D01*
X019790Y048414D01*
X019801Y048396D01*
X019809Y048376D01*
X019813Y048356D01*
X019813Y048334D01*
X019809Y048314D01*
X019801Y048294D01*
X019790Y048276D01*
X019777Y048260D01*
X019760Y048247D01*
X019741Y048236D01*
X019721Y048230D01*
X019700Y048227D01*
X019679Y048228D01*
X019659Y048233D01*
X019639Y048241D01*
X019621Y048253D01*
X019606Y048267D01*
X019594Y048284D01*
X019585Y048304D01*
X019579Y048324D01*
X019577Y048345D01*
X019577Y044802D02*
X019579Y044823D01*
X019585Y044843D01*
X019594Y044863D01*
X019606Y044880D01*
X019621Y044894D01*
X019639Y044906D01*
X019659Y044914D01*
X019679Y044919D01*
X019700Y044920D01*
X019721Y044917D01*
X019741Y044911D01*
X019760Y044900D01*
X019777Y044887D01*
X019790Y044871D01*
X019801Y044853D01*
X019809Y044833D01*
X019813Y044813D01*
X019813Y044791D01*
X019809Y044771D01*
X019801Y044751D01*
X019790Y044733D01*
X019777Y044717D01*
X019760Y044704D01*
X019741Y044693D01*
X019721Y044687D01*
X019700Y044684D01*
X019679Y044685D01*
X019659Y044690D01*
X019639Y044698D01*
X019621Y044710D01*
X019606Y044724D01*
X019594Y044741D01*
X019585Y044761D01*
X019579Y044781D01*
X019577Y044802D01*
D20*
X038552Y034101D02*
X038627Y034026D01*
X038627Y034126D01*
X038702Y034101D02*
X038552Y034101D01*
X038552Y033978D02*
X038552Y033928D01*
X038552Y033953D02*
X038677Y033953D01*
X038702Y033928D01*
X038702Y033903D01*
X038677Y033878D01*
X038582Y022216D02*
X038582Y022116D01*
X038582Y022166D02*
X038432Y022166D01*
X038482Y022116D01*
X038432Y022068D02*
X038432Y022018D01*
X038432Y022043D02*
X038557Y022043D01*
X038582Y022018D01*
X038582Y021993D01*
X038557Y021968D01*
X038332Y001436D02*
X038332Y001336D01*
X038232Y001436D01*
X038207Y001436D01*
X038182Y001411D01*
X038182Y001361D01*
X038207Y001336D01*
X038182Y001288D02*
X038182Y001238D01*
X038182Y001263D02*
X038307Y001263D01*
X038332Y001238D01*
X038332Y001213D01*
X038307Y001188D01*
D21*
X019153Y011173D03*
X018873Y007853D03*
X014960Y002413D03*
X013573Y004473D03*
X009350Y005033D03*
X006933Y003113D03*
X005060Y007213D03*
X005060Y009233D03*
D22*
X007527Y017653D03*
X029667Y048513D03*
D23*
X029873Y048287D03*
X007733Y017427D03*
M02*
