G75*
G70*
%OFA0B0*%
%FSLAX24Y24*%
%IPPOS*%
%LPD*%
%AMOC8*
5,1,8,0,0,1.08239X$1,22.5*
%
%ADD10C,0.1640*%
%ADD11R,0.0190X0.0660*%
%ADD12R,0.0660X0.0190*%
%ADD13C,0.0674*%
%ADD14R,0.1340X0.0277*%
%ADD15R,0.2049X0.6379*%
%ADD16R,0.0257X0.0926*%
%ADD17R,0.1261X0.1060*%
%ADD18R,0.0790X0.0710*%
%ADD19R,0.0749X0.1064*%
%ADD20R,0.0241X0.0482*%
%ADD21R,0.0710X0.0789*%
%ADD22R,0.0789X0.0710*%
%ADD23R,0.0710X0.1143*%
%ADD24R,0.0671X0.0316*%
%ADD25R,0.0867X0.1379*%
%ADD26R,0.1241X0.1143*%
%ADD27R,0.0289X0.0860*%
%ADD28R,0.0690X0.0178*%
%ADD29R,0.0710X0.0790*%
%ADD30C,0.0930*%
%ADD31C,0.1780*%
%ADD32R,0.1104X0.1852*%
%ADD33R,0.0671X0.2049*%
%ADD34R,0.1340X0.2167*%
%ADD35OC8,0.0680*%
%ADD36R,0.0946X0.1025*%
%ADD37C,0.0820*%
%ADD38C,0.1360*%
%ADD39R,0.0820X0.0820*%
%ADD40C,0.2080*%
%ADD41C,0.0680*%
%ADD42OC8,0.0710*%
%ADD43C,0.0710*%
%ADD44C,0.0476*%
%ADD45C,0.0848*%
%ADD46C,0.0516*%
%ADD47C,0.0671*%
%ADD48C,0.0555*%
%ADD49C,0.0611*%
%ADD50C,0.0907*%
%ADD51C,0.0730*%
%ADD52C,0.0966*%
D10*
X002687Y002233D03*
X031687Y002233D03*
X033687Y048733D03*
X009187Y048733D03*
D11*
X011187Y031803D03*
X011387Y031803D03*
X011587Y031803D03*
X011777Y031803D03*
X011977Y031803D03*
X012177Y031803D03*
X012367Y031803D03*
X012567Y031803D03*
X012767Y031803D03*
X012967Y031803D03*
X013157Y031803D03*
X013357Y031803D03*
X013557Y031803D03*
X013747Y031803D03*
X013947Y031803D03*
X014147Y031803D03*
X014147Y027383D03*
X013947Y027383D03*
X013747Y027383D03*
X013557Y027383D03*
X013357Y027383D03*
X013157Y027383D03*
X012967Y027383D03*
X012767Y027383D03*
X012567Y027383D03*
X012367Y027383D03*
X012177Y027383D03*
X011977Y027383D03*
X011777Y027383D03*
X011587Y027383D03*
X011387Y027383D03*
X011187Y027383D03*
D12*
X010457Y028113D03*
X010457Y028313D03*
X010457Y028513D03*
X010457Y028703D03*
X010457Y028903D03*
X010457Y029103D03*
X010457Y029293D03*
X010457Y029493D03*
X010457Y029693D03*
X010457Y029893D03*
X010457Y030083D03*
X010457Y030283D03*
X010457Y030483D03*
X010457Y030673D03*
X010457Y030873D03*
X010457Y031073D03*
X014877Y031073D03*
X014877Y030873D03*
X014877Y030673D03*
X014877Y030483D03*
X014877Y030283D03*
X014877Y030083D03*
X014877Y029893D03*
X014877Y029693D03*
X014877Y029493D03*
X014877Y029293D03*
X014877Y029103D03*
X014877Y028903D03*
X014877Y028703D03*
X014877Y028513D03*
X014877Y028313D03*
X014877Y028113D03*
D13*
X003044Y035053D02*
X002450Y035053D01*
X002450Y036053D02*
X003044Y036053D01*
X003044Y037053D02*
X002450Y037053D01*
X002450Y038313D02*
X003044Y038313D01*
X003044Y039313D02*
X002450Y039313D01*
X002450Y040313D02*
X003044Y040313D01*
X003044Y041573D02*
X002450Y041573D01*
X002450Y042573D02*
X003044Y042573D01*
X003044Y043573D02*
X002450Y043573D01*
X002450Y044833D02*
X003044Y044833D01*
X003044Y045833D02*
X002450Y045833D01*
X002450Y046833D02*
X003044Y046833D01*
X003044Y048013D02*
X002450Y048013D01*
X002450Y049013D02*
X003044Y049013D01*
X003044Y050013D02*
X002450Y050013D01*
X039050Y030513D02*
X039644Y030513D01*
X039644Y029513D02*
X039050Y029513D01*
X012867Y002430D02*
X012867Y001836D01*
X011867Y001836D02*
X011867Y002430D01*
X010867Y002430D02*
X010867Y001836D01*
X009867Y001836D02*
X009867Y002430D01*
D14*
X008568Y007043D03*
X008568Y007543D03*
X008568Y008043D03*
X008568Y008543D03*
X008568Y009043D03*
X008568Y009543D03*
X008568Y010043D03*
X008568Y010543D03*
X008568Y011043D03*
X008568Y011543D03*
X013686Y011543D03*
X013686Y011043D03*
X013686Y010543D03*
X013686Y010043D03*
X013686Y009543D03*
X013686Y009043D03*
X013686Y008543D03*
X013686Y008043D03*
X013686Y007543D03*
X013686Y007043D03*
D15*
X011127Y009293D03*
D16*
X027957Y005455D03*
X028457Y005455D03*
X028957Y005455D03*
X029457Y005455D03*
X029457Y003191D03*
X028957Y003191D03*
X028457Y003191D03*
X027957Y003191D03*
D17*
X028707Y004323D03*
D18*
X024197Y004613D03*
X024197Y005733D03*
X024197Y003333D03*
X024197Y002213D03*
X025927Y016553D03*
X025927Y017673D03*
X025967Y018893D03*
X025967Y020013D03*
X034387Y018183D03*
X034387Y017063D03*
X039327Y015523D03*
X039327Y014403D03*
X016827Y037673D03*
X016827Y038793D03*
X006907Y020553D03*
X006907Y019433D03*
D19*
X026357Y005111D03*
X026357Y003536D03*
X033867Y010996D03*
X033867Y012571D03*
D20*
X036503Y015098D03*
X036759Y015098D03*
X037015Y015098D03*
X037271Y015098D03*
X037271Y016988D03*
X037015Y016988D03*
X036759Y016988D03*
X036503Y016988D03*
X024771Y017898D03*
X024515Y017898D03*
X024259Y017898D03*
X024003Y017898D03*
X024003Y016008D03*
X024259Y016008D03*
X024515Y016008D03*
X024771Y016008D03*
D21*
X024838Y014753D03*
X023735Y014753D03*
X036215Y019063D03*
X037318Y019063D03*
X038755Y017343D03*
X039858Y017343D03*
X019098Y042313D03*
X017995Y042313D03*
D22*
X022007Y036005D03*
X022007Y034902D03*
X024567Y034882D03*
X024567Y035985D03*
X022187Y017505D03*
X022187Y016402D03*
X006427Y036082D03*
X006427Y037185D03*
X006447Y038442D03*
X006447Y039545D03*
X006427Y041562D03*
X006427Y042665D03*
X006367Y044682D03*
X006367Y045785D03*
X006507Y047962D03*
X006507Y049065D03*
D23*
X033755Y020103D03*
X034858Y020103D03*
X029158Y006973D03*
X028055Y006973D03*
D24*
X033124Y014233D03*
X033124Y014733D03*
X033124Y015233D03*
X033124Y015733D03*
X035289Y015733D03*
X035289Y015233D03*
X035289Y014733D03*
X035289Y014233D03*
D25*
X035329Y011243D03*
X039384Y011243D03*
D26*
X037975Y006803D03*
X035318Y006803D03*
D27*
X030687Y040509D03*
X030187Y040509D03*
X029687Y040509D03*
X029187Y040509D03*
X028687Y040509D03*
X028187Y040509D03*
X027687Y040509D03*
X027187Y040509D03*
X026687Y040509D03*
X026187Y040509D03*
X026187Y044198D03*
X026687Y044198D03*
X027187Y044198D03*
X027687Y044198D03*
X028187Y044198D03*
X028687Y044198D03*
X029187Y044198D03*
X029687Y044198D03*
X030187Y044198D03*
X030687Y044198D03*
D28*
X024589Y033885D03*
X024589Y033629D03*
X024589Y033373D03*
X024589Y033117D03*
X024589Y032861D03*
X024589Y032605D03*
X024589Y032349D03*
X024589Y032094D03*
X024589Y031838D03*
X024589Y031582D03*
X022384Y031582D03*
X022384Y031838D03*
X022384Y032094D03*
X022384Y032349D03*
X022384Y032605D03*
X022384Y032861D03*
X022384Y033117D03*
X022384Y033373D03*
X022384Y033629D03*
X022384Y033885D03*
D29*
X022207Y030073D03*
X023327Y030073D03*
X016387Y041073D03*
X015267Y041073D03*
X025507Y047013D03*
X026627Y047013D03*
X029107Y048513D03*
X030227Y048513D03*
X008087Y017653D03*
X006967Y017653D03*
D30*
X020482Y044113D03*
X022451Y044113D03*
X022451Y049034D03*
X020482Y049034D03*
D31*
X035313Y035373D03*
X036494Y037224D03*
X037675Y035373D03*
X036374Y025314D03*
X035193Y023463D03*
X037555Y023463D03*
X036124Y004534D03*
X034943Y002683D03*
X037305Y002683D03*
D32*
X024691Y020033D03*
X022762Y020033D03*
D33*
X020447Y006043D03*
X020447Y002303D03*
D34*
X021852Y009223D03*
X026222Y009223D03*
D35*
X016047Y023793D03*
X016047Y024793D03*
X015047Y024793D03*
X015047Y023793D03*
X014047Y023793D03*
X014047Y024793D03*
X013047Y024793D03*
X013047Y023793D03*
X012047Y023793D03*
X012047Y024793D03*
X011047Y024793D03*
X011047Y023793D03*
X010047Y023793D03*
X010047Y024793D03*
X009047Y024793D03*
X009047Y023793D03*
X007807Y026053D03*
X007807Y027053D03*
X007807Y028053D03*
X007807Y029053D03*
X007807Y030053D03*
X007807Y031053D03*
X007807Y032053D03*
X007807Y033053D03*
X006807Y033053D03*
X006807Y032053D03*
X006807Y031053D03*
X006807Y030053D03*
X006807Y029053D03*
X006807Y028053D03*
X006807Y027053D03*
X006807Y026053D03*
X009087Y034373D03*
X010087Y034373D03*
X011087Y034373D03*
X012087Y034373D03*
X012087Y035373D03*
X011087Y035373D03*
X010087Y035373D03*
X009087Y035373D03*
X013087Y035373D03*
X014087Y035373D03*
X015087Y035373D03*
X015087Y034373D03*
X014087Y034373D03*
X013087Y034373D03*
X016087Y034373D03*
X016087Y035373D03*
X017447Y033153D03*
X018447Y033153D03*
X018447Y032153D03*
X018447Y031153D03*
X018447Y030153D03*
X018447Y029153D03*
X018447Y028153D03*
X018447Y027153D03*
X018447Y026153D03*
X017447Y026153D03*
X017447Y027153D03*
X017447Y028153D03*
X017447Y029153D03*
X017447Y030153D03*
X017447Y031153D03*
X017447Y032153D03*
D36*
X017912Y011173D03*
X019821Y011173D03*
X019541Y007853D03*
X017632Y007853D03*
X014241Y004473D03*
X012332Y004473D03*
X010591Y005033D03*
X008682Y005033D03*
X007601Y003113D03*
X005692Y003113D03*
X006301Y007213D03*
X004392Y007213D03*
X004392Y009233D03*
X006301Y009233D03*
X014292Y002413D03*
X016201Y002413D03*
D37*
X036288Y042392D03*
X036288Y043483D03*
X036288Y044573D03*
X036288Y045664D03*
X037406Y046207D03*
X037406Y045117D03*
X037406Y044030D03*
X037406Y042939D03*
X015137Y043933D03*
X014637Y044933D03*
X013637Y044933D03*
X012637Y044933D03*
X013137Y043933D03*
X014137Y043933D03*
D38*
X015887Y047433D03*
X011887Y047433D03*
D39*
X036288Y046754D03*
D40*
X036847Y049495D03*
X036847Y039652D03*
D41*
X003307Y028013D02*
X002707Y028013D01*
X001787Y028013D02*
X001187Y028013D01*
X001187Y027013D02*
X001787Y027013D01*
X001787Y026013D02*
X001187Y026013D01*
X002707Y026013D02*
X003307Y026013D01*
X003307Y027013D02*
X002707Y027013D01*
X002707Y024013D02*
X003307Y024013D01*
X003307Y023013D02*
X002707Y023013D01*
X001787Y023013D02*
X001187Y023013D01*
X001187Y022013D02*
X001787Y022013D01*
X002707Y022013D02*
X003307Y022013D01*
X001787Y024013D02*
X001187Y024013D01*
D42*
X030637Y025043D03*
D43*
X030637Y023643D03*
D44*
X034507Y029513D03*
X034107Y030533D03*
X030207Y033493D03*
X026967Y034453D03*
X026247Y034453D03*
X025287Y034213D03*
X024547Y036713D03*
X024167Y038293D03*
X022007Y036773D03*
X020727Y037753D03*
X020727Y034973D03*
X020527Y033853D03*
X022127Y030953D03*
X025407Y030853D03*
X025647Y031573D03*
X026247Y031573D03*
X028407Y039373D03*
X028167Y041533D03*
X028167Y043213D03*
X027827Y045213D03*
X031707Y040053D03*
X031167Y039373D03*
X015547Y038313D03*
X013667Y042233D03*
X015267Y042793D03*
X013047Y030873D03*
X011267Y029913D03*
X011487Y029302D03*
X011107Y028693D03*
X011827Y028013D03*
X013167Y028473D03*
X013967Y029053D03*
X012107Y022953D03*
X011087Y022333D03*
X009567Y021533D03*
X009567Y020093D03*
X007247Y022093D03*
X006607Y021533D03*
X005487Y022973D03*
X006527Y023933D03*
X007327Y024013D03*
X005487Y027053D03*
X012607Y021853D03*
X013087Y021373D03*
X014367Y021853D03*
X014287Y015133D03*
X015007Y014313D03*
X013727Y013073D03*
X015027Y010033D03*
X016287Y010553D03*
X009947Y010393D03*
X007547Y009553D03*
X004747Y010213D03*
X024527Y018473D03*
X033918Y009427D03*
X034687Y010173D03*
X036667Y011183D03*
X037087Y013933D03*
X036467Y014223D03*
X038387Y016623D03*
X037407Y017563D03*
X035827Y017743D03*
X035827Y017103D03*
X035507Y018543D03*
X040167Y011244D03*
X027357Y002323D03*
D45*
X026407Y002573D03*
X017047Y006793D03*
X015967Y007353D03*
X010387Y014893D03*
X011567Y017713D03*
X020487Y019693D03*
D46*
X017287Y010433D03*
X024197Y003973D03*
X027087Y006133D03*
X028407Y004333D03*
X029007Y004333D03*
X027567Y001533D03*
X019147Y036573D03*
X012987Y037313D03*
X012167Y036393D03*
D47*
X006167Y008253D03*
D48*
X021947Y018993D03*
X023567Y018533D03*
X011207Y031093D03*
D49*
X016307Y009543D03*
D50*
X029487Y008773D03*
X039207Y006853D03*
D51*
X026767Y016333D03*
X022767Y015213D03*
X007547Y005273D03*
D52*
X032847Y020153D03*
M02*
