%
M48
M72
T01C0.0236
T02C0.0276
T03C0.0315
T04C0.0320
T05C0.0354
T06C0.0394
T07C0.0400
T08C0.0433
T09C0.0472
T10C0.0512
T11C0.0551
T12C0.0591
T13C0.1180
T14C0.1280
T15C0.1300
T16C0.1560
%
T01
X7547Y9553
X9947Y10393
X13727Y13073
X15007Y14313
X14287Y15133
X16287Y10553
X15027Y10033
X9567Y20093
X9567Y21533
X11087Y22333
X12107Y22953
X12607Y21853
X13087Y21373
X14367Y21853
X11827Y28013
X11107Y28693
X11487Y29302
X11267Y29913
X13047Y30873
X13967Y29053
X13167Y28473
X7327Y24013
X6527Y23933
X5487Y22973
X6607Y21533
X7247Y22093
X5487Y27053
X15547Y38313
X13667Y42233
X15267Y42793
X20727Y37753
X22007Y36773
X20727Y34973
X20527Y33853
X22127Y30953
X25407Y30853
X25647Y31573
X26247Y31573
X25287Y34213
X26247Y34453
X26967Y34453
X24547Y36713
X24167Y38293
X28407Y39373
X28167Y41533
X28167Y43213
X27827Y45213
X31707Y40053
X31167Y39373
X30207Y33493
X34107Y30533
X34507Y29513
X35507Y18543
X35827Y17743
X35827Y17103
X37407Y17563
X38387Y16623
X37087Y13933
X36467Y14223
X36667Y11183
X34687Y10173
X33918Y9427
X40167Y11233
X27357Y2323
X24527Y18473
X4747Y10213
T02
X17287Y10433
X24197Y3973
X27087Y6133
X28407Y4333
X29007Y4333
X27567Y1533
X19147Y36573
X12987Y37313
X12167Y36393
T03
X11207Y31093
X21947Y18993
X23567Y18533
T04
X30637Y23643
X30637Y25043
T05
X16307Y9543
T06
X12867Y2133
X11867Y2133
X10867Y2133
X9867Y2133
X6167Y8253
X2747Y35053
X2747Y36053
X2747Y37053
X2747Y38313
X2747Y39313
X2747Y40313
X2747Y41573
X2747Y42573
X2747Y43573
X2747Y44833
X2747Y45833
X2747Y46833
X2747Y48013
X2747Y49013
X2747Y50013
X39347Y30513
X39347Y29513
T07
X36288Y42392
X36288Y43483
X36288Y44573
X36288Y45664
X36288Y46754
X37406Y46207
X37406Y45117
X37406Y44030
X37406Y42939
X18447Y33153
X18447Y32153
X18447Y31153
X18447Y30153
X18447Y29153
X18447Y28153
X18447Y27153
X18447Y26153
X17447Y26153
X17447Y27153
X17447Y28153
X17447Y29153
X17447Y30153
X17447Y31153
X17447Y32153
X17447Y33153
X16087Y34373
X16087Y35373
X15087Y35373
X15087Y34373
X14087Y34373
X14087Y35373
X13087Y35373
X13087Y34373
X12087Y34373
X12087Y35373
X11087Y35373
X11087Y34373
X10087Y34373
X10087Y35373
X9087Y35373
X9087Y34373
X7807Y33053
X7807Y32053
X7807Y31053
X7807Y30053
X7807Y29053
X7807Y28053
X7807Y27053
X7807Y26053
X6807Y26053
X6807Y27053
X6807Y28053
X6807Y29053
X6807Y30053
X6807Y31053
X6807Y32053
X6807Y33053
X3007Y28013
X3007Y27013
X3007Y26013
X1487Y26013
X1487Y27013
X1487Y28013
X1487Y24013
X1487Y23013
X1487Y22013
X3007Y22013
X3007Y23013
X3007Y24013
X9047Y23793
X9047Y24793
X10047Y24793
X11047Y24793
X12047Y24793
X12047Y23793
X11047Y23793
X10047Y23793
X13047Y23793
X14047Y23793
X15047Y23793
X15047Y24793
X14047Y24793
X13047Y24793
X16047Y24793
X16047Y23793
X15137Y43933
X14637Y44933
X13637Y44933
X12637Y44933
X13137Y43933
X14137Y43933
T08
X26767Y16333
X22767Y15213
X7547Y5273
T09
X20482Y44113
X22451Y44113
X22451Y49034
X20482Y49034
T10
X20487Y19693
X11567Y17713
X10387Y14893
X15967Y7353
X17047Y6793
X26407Y2573
T11
X29487Y8773
X39207Y6853
T12
X32847Y20153
T13
X35193Y23463
X36374Y25314
X37555Y23463
X37675Y35373
X36494Y37224
X35313Y35373
X36124Y4534
X34943Y2683
X37305Y2683
T14
X15887Y47433
X11887Y47433
T15
X36847Y49495
X36847Y39652
T16
X2687Y2233
X31687Y2233
X33687Y48733
X9187Y48733
M30
