G75*
G70*
%OFA0B0*%
%FSLAX24Y24*%
%IPPOS*%
%LPD*%
%AMOC8*
5,1,8,0,0,1.08239X$1,22.5*
%
%ADD10C,0.1640*%
%ADD11C,0.0674*%
%ADD12R,0.0789X0.0710*%
%ADD13R,0.0790X0.0710*%
%ADD14R,0.0710X0.0789*%
%ADD15R,0.0710X0.0790*%
%ADD16C,0.0930*%
%ADD17C,0.1780*%
%ADD18OC8,0.0680*%
%ADD19C,0.0820*%
%ADD20C,0.1360*%
%ADD21R,0.0820X0.0820*%
%ADD22C,0.2080*%
%ADD23C,0.0680*%
%ADD24OC8,0.0710*%
%ADD25C,0.0710*%
%ADD26C,0.0476*%
%ADD27C,0.0848*%
%ADD28C,0.0516*%
%ADD29C,0.0671*%
%ADD30C,0.0555*%
%ADD31C,0.0611*%
%ADD32C,0.0907*%
%ADD33C,0.0730*%
%ADD34C,0.0966*%
D10*
X002687Y002233D03*
X031687Y002233D03*
X033687Y048733D03*
X009187Y048733D03*
D11*
X003044Y049013D02*
X002450Y049013D01*
X002450Y048013D02*
X003044Y048013D01*
X003044Y046833D02*
X002450Y046833D01*
X002450Y045833D02*
X003044Y045833D01*
X003044Y044833D02*
X002450Y044833D01*
X002450Y043573D02*
X003044Y043573D01*
X003044Y042573D02*
X002450Y042573D01*
X002450Y041573D02*
X003044Y041573D01*
X003044Y040313D02*
X002450Y040313D01*
X002450Y039313D02*
X003044Y039313D01*
X003044Y038313D02*
X002450Y038313D01*
X002450Y037053D02*
X003044Y037053D01*
X003044Y036053D02*
X002450Y036053D01*
X002450Y035053D02*
X003044Y035053D01*
X003044Y050013D02*
X002450Y050013D01*
X039050Y030513D02*
X039644Y030513D01*
X039644Y029513D02*
X039050Y029513D01*
X012867Y002430D02*
X012867Y001836D01*
X011867Y001836D02*
X011867Y002430D01*
X010867Y002430D02*
X010867Y001836D01*
X009867Y001836D02*
X009867Y002430D01*
D12*
X027377Y004222D03*
X027377Y005325D03*
X014607Y028742D03*
X014607Y029845D03*
X012207Y029302D03*
X012207Y030405D03*
X009767Y030385D03*
X009767Y029282D03*
D13*
X023147Y017573D03*
X023147Y016453D03*
X035187Y016143D03*
X035187Y017263D03*
D14*
X037495Y008943D03*
X038598Y008943D03*
X013198Y026973D03*
X012095Y026973D03*
X012075Y031993D03*
X013178Y031993D03*
X029155Y039333D03*
X030258Y039333D03*
X011738Y009773D03*
X010635Y009773D03*
D15*
X035087Y009403D03*
X036207Y009403D03*
X037587Y013123D03*
X038707Y013123D03*
D16*
X022451Y044113D03*
X020482Y044113D03*
X020482Y049034D03*
X022451Y049034D03*
D17*
X035313Y035373D03*
X036494Y037224D03*
X037675Y035373D03*
X036374Y025314D03*
X035193Y023463D03*
X037555Y023463D03*
X036124Y004534D03*
X034943Y002683D03*
X037305Y002683D03*
D18*
X018447Y026153D03*
X018447Y027153D03*
X018447Y028153D03*
X018447Y029153D03*
X018447Y030153D03*
X018447Y031153D03*
X018447Y032153D03*
X018447Y033153D03*
X017447Y033153D03*
X017447Y032153D03*
X017447Y031153D03*
X017447Y030153D03*
X017447Y029153D03*
X017447Y028153D03*
X017447Y027153D03*
X017447Y026153D03*
X016047Y024793D03*
X016047Y023793D03*
X015047Y023793D03*
X015047Y024793D03*
X014047Y024793D03*
X014047Y023793D03*
X013047Y023793D03*
X013047Y024793D03*
X012047Y024793D03*
X012047Y023793D03*
X011047Y023793D03*
X011047Y024793D03*
X010047Y024793D03*
X010047Y023793D03*
X009047Y023793D03*
X009047Y024793D03*
X007807Y026053D03*
X007807Y027053D03*
X007807Y028053D03*
X007807Y029053D03*
X007807Y030053D03*
X007807Y031053D03*
X007807Y032053D03*
X007807Y033053D03*
X006807Y033053D03*
X006807Y032053D03*
X006807Y031053D03*
X006807Y030053D03*
X006807Y029053D03*
X006807Y028053D03*
X006807Y027053D03*
X006807Y026053D03*
X009087Y034373D03*
X010087Y034373D03*
X011087Y034373D03*
X012087Y034373D03*
X012087Y035373D03*
X011087Y035373D03*
X010087Y035373D03*
X009087Y035373D03*
X013087Y035373D03*
X014087Y035373D03*
X015087Y035373D03*
X015087Y034373D03*
X014087Y034373D03*
X013087Y034373D03*
X016087Y034373D03*
X016087Y035373D03*
D19*
X015137Y043933D03*
X014637Y044933D03*
X013637Y044933D03*
X012637Y044933D03*
X013137Y043933D03*
X014137Y043933D03*
X036288Y043483D03*
X036288Y044573D03*
X036288Y045664D03*
X037406Y046207D03*
X037406Y045117D03*
X037406Y044030D03*
X037406Y042939D03*
X036288Y042392D03*
D20*
X015887Y047433D03*
X011887Y047433D03*
D21*
X036288Y046754D03*
D22*
X036847Y049495D03*
X036847Y039652D03*
D23*
X003307Y028013D02*
X002707Y028013D01*
X001787Y028013D02*
X001187Y028013D01*
X001187Y027013D02*
X001787Y027013D01*
X001787Y026013D02*
X001187Y026013D01*
X002707Y026013D02*
X003307Y026013D01*
X003307Y027013D02*
X002707Y027013D01*
X002707Y024013D02*
X003307Y024013D01*
X003307Y023013D02*
X002707Y023013D01*
X001787Y023013D02*
X001187Y023013D01*
X001187Y022013D02*
X001787Y022013D01*
X002707Y022013D02*
X003307Y022013D01*
X001787Y024013D02*
X001187Y024013D01*
D24*
X030637Y025043D03*
D25*
X030637Y023643D03*
D26*
X034507Y029513D03*
X034107Y030533D03*
X030207Y033493D03*
X026967Y034453D03*
X026247Y034453D03*
X025287Y034213D03*
X024547Y036713D03*
X024167Y038293D03*
X022007Y036773D03*
X020727Y037753D03*
X020727Y034973D03*
X020527Y033853D03*
X022127Y030953D03*
X025407Y030853D03*
X025647Y031573D03*
X026247Y031573D03*
X028407Y039373D03*
X028167Y041533D03*
X028167Y043213D03*
X027827Y045213D03*
X031707Y040053D03*
X031167Y039373D03*
X015547Y038313D03*
X013667Y042233D03*
X015267Y042793D03*
X013047Y030873D03*
X011267Y029913D03*
X011487Y029302D03*
X011107Y028693D03*
X011827Y028013D03*
X013167Y028473D03*
X013967Y029053D03*
X012107Y022953D03*
X011087Y022333D03*
X009567Y021533D03*
X009567Y020093D03*
X007247Y022093D03*
X006607Y021533D03*
X005487Y022973D03*
X006527Y023933D03*
X007327Y024013D03*
X005487Y027053D03*
X012607Y021853D03*
X013087Y021373D03*
X014367Y021853D03*
X014287Y015133D03*
X015007Y014313D03*
X013727Y013073D03*
X015027Y010033D03*
X016287Y010553D03*
X009947Y010393D03*
X007547Y009553D03*
X004747Y010213D03*
X024527Y018473D03*
X033918Y009427D03*
X034687Y010173D03*
X036667Y011183D03*
X037087Y013933D03*
X036467Y014223D03*
X038387Y016623D03*
X037407Y017563D03*
X035827Y017743D03*
X035827Y017103D03*
X035507Y018543D03*
X040167Y011244D03*
X027357Y002323D03*
D27*
X026407Y002573D03*
X017047Y006793D03*
X015967Y007353D03*
X010387Y014893D03*
X011567Y017713D03*
X020487Y019693D03*
D28*
X017287Y010433D03*
X024197Y003973D03*
X027087Y006133D03*
X028407Y004333D03*
X029007Y004333D03*
X027567Y001533D03*
X019147Y036573D03*
X012987Y037313D03*
X012167Y036393D03*
D29*
X006167Y008253D03*
D30*
X021947Y018993D03*
X023567Y018533D03*
X011207Y031093D03*
D31*
X016307Y009543D03*
D32*
X029487Y008773D03*
X039207Y006853D03*
D33*
X026767Y016333D03*
X022767Y015213D03*
X007547Y005273D03*
D34*
X032847Y020153D03*
M02*
